<svg width="100" height="88" viewBox="0 0 100 88" fill="none" xmlns="http://www.w3.org/2000/svg">
<g filter="url(#filter0_d_325_19568)">
<path d="M47.1217 70.2415C46.75 69.8179 46.3831 69.3916 46.0204 68.9605C45.6999 68.5793 45.3296 68.1612 45.1493 67.6925C45.0871 67.5299 45.3016 67.381 45.4396 67.4691C45.8796 67.7499 46.2219 68.2254 46.5409 68.6305C46.8764 69.0582 47.2091 69.4873 47.5371 69.9211C47.7181 70.1595 47.3191 70.4663 47.1217 70.2415Z" fill="#39B54A"/>
<path d="M46.447 44.7919C45.69 44.7584 44.9911 44.5842 44.3223 45.0515C43.8167 45.4047 43.542 46.0325 43.0078 46.3291C42.9258 46.3748 42.7864 46.3195 42.8001 46.2102C42.8862 45.5215 43.5359 44.8431 44.1077 44.4892C44.8394 44.0362 45.7857 44.0533 46.5481 44.4168C46.7305 44.5029 46.641 44.8007 46.447 44.7919Z" fill="#39B54A"/>
<path d="M44.6668 94.9622C47.0764 95.2785 49.2873 93.5821 49.6036 91.1718L56.5763 38.0934C56.8926 35.6837 55.1963 33.4729 52.7859 33.1566C50.3763 32.8403 48.1655 34.5367 47.8491 36.947L40.8757 90.0254C40.5601 92.435 42.2565 94.6451 44.6668 94.9622Z" fill="#CB9866"/>
<path d="M22.9121 49.8405L78.6181 57.1589C80.9376 57.4636 83.0657 55.8301 83.3704 53.5106L88.0538 17.8627C88.3585 15.5432 86.725 13.4151 84.4055 13.1104L28.6995 5.79193C26.3801 5.48722 24.2519 7.12075 23.9472 9.44021L19.2639 45.0881C18.9592 47.4083 20.5927 49.5358 22.9121 49.8405Z" fill="#FCE8CE"/>
<path d="M85.2926 24.4782C85.2537 25.1847 85.2018 25.8836 85.128 26.5873C85.0945 26.907 85.0603 27.2267 85.0166 27.5451C84.9736 27.8539 84.8663 28.147 84.8069 28.4524C84.6921 29.0427 84.6593 29.6562 84.5883 30.2526C84.5227 30.8087 84.453 31.3635 84.3812 31.9189C84.1237 33.9036 83.9727 35.8945 83.6448 37.871C83.4808 38.863 83.3052 39.8529 83.1166 40.8402C82.9144 41.8991 82.6398 42.9424 82.4007 43.9931C82.1212 45.2208 81.8773 46.4574 81.617 47.6892C81.3492 48.9566 81.2016 50.3305 80.6933 51.5295C79.5059 54.3285 75.8208 54.5683 73.2704 53.8448C73.0613 53.7854 73.1098 53.4841 73.3203 53.4739C74.7106 53.4069 76.094 53.6535 77.4673 53.3051C78.5385 53.0332 79.5763 52.4634 80.1468 51.481C80.4768 50.9125 80.6339 50.2765 80.7664 49.6384C80.9051 48.9688 81.0308 48.2973 81.1586 47.6264C81.3854 46.4369 81.6184 45.2481 81.8363 44.0573C82.0269 43.0155 82.1486 41.9613 82.3481 40.9214C82.5298 39.9739 82.7115 39.0256 82.8891 38.0773C83.062 37.1563 83.2266 36.234 83.4138 35.3158C83.6113 34.3457 83.8299 33.3851 83.9686 32.4047C84.1414 31.1872 84.3252 29.9664 84.4516 28.7434C84.4871 28.3991 84.4605 28.0637 84.4639 27.7193C84.4673 27.3634 84.5247 27.0013 84.5643 26.6474C84.6491 25.9006 84.7474 25.1614 84.8595 24.4188C84.8964 24.1742 85.3063 24.2316 85.2926 24.4782Z" fill="#F89938"/>
<path d="M44.909 10.9452C44.2975 10.9637 43.6861 10.8605 43.0801 10.7854C42.4898 10.7123 41.8982 10.6446 41.3086 10.564C40.115 10.4 38.9235 10.2238 37.7306 10.053C36.5111 9.87807 35.2903 9.71546 34.0694 9.55286C33.0897 9.42169 32.1052 9.26455 31.1145 9.25772C30.2749 9.25157 29.4106 9.35883 28.6803 9.80565C27.8147 10.3351 27.5107 11.2424 27.3098 12.1866C27.0686 13.3241 26.8685 14.4712 26.6478 15.6135C26.4223 16.7804 26.1579 17.9384 25.94 19.1067C25.4419 21.7719 25.112 24.4657 24.6078 27.1288C24.5907 27.2176 24.4445 27.1978 24.4493 27.1076C24.5811 24.6311 24.9794 22.1572 25.3299 19.7038C25.6831 17.232 26.0719 14.778 26.5972 12.3369C26.8008 11.3913 27.0946 10.4082 27.8516 9.75236C28.4904 9.19965 29.2815 8.97761 30.1048 8.88128C30.9875 8.77743 31.877 8.84439 32.7563 8.95575C34.0065 9.11357 35.2568 9.27343 36.5077 9.42647C37.9295 9.60069 39.3532 9.75372 40.7757 9.92042C41.4568 10.0004 42.1366 10.0919 42.8164 10.1828C43.5317 10.2791 44.2702 10.3331 44.9637 10.538C45.1905 10.6043 45.1447 10.9384 44.909 10.9452Z" fill="#F89938"/>
<path d="M78.7909 47.9048C78.7267 48.1596 78.6071 48.3967 78.5258 48.646C78.4548 48.8633 78.3946 49.0846 78.3072 49.2958C78.1125 49.7658 77.8064 50.1716 77.3507 50.4142C76.9005 50.654 76.4134 50.6943 75.9126 50.6977C75.2594 50.7025 74.6029 50.6533 73.9491 50.6437C73.8473 50.6423 73.7947 50.4914 73.8944 50.4422C74.8557 49.9701 76.0075 50.3615 76.9838 49.8854C77.4491 49.6585 77.6465 49.2479 77.8474 48.7963C78.0209 48.4055 78.1569 47.9526 78.5224 47.6984C78.6597 47.6035 78.8271 47.7599 78.7909 47.9048Z" fill="#F89938"/>
<path d="M93.3559 50.9194C95.0366 51.2022 96.6639 51.8191 98.2585 52.4081C99.8504 52.9963 101.424 53.6276 102.978 54.308C103.38 54.4843 103.032 55.0691 102.634 54.897C101.069 54.2226 99.4924 53.575 97.8992 52.971C96.3483 52.3828 94.7496 51.882 93.2534 51.1626C93.1072 51.0936 93.2179 50.8961 93.3559 50.9194Z" fill="#39B54A"/>
<path d="M95.1134 58.5139C94.6105 58.2652 94.1357 57.9571 93.6698 57.6462C93.2216 57.347 92.7529 57.0648 92.3286 56.7321C92.08 56.5367 92.3983 56.1479 92.6614 56.301C93.1444 56.5825 93.596 56.9343 94.0558 57.2534C94.4944 57.5574 94.9323 57.8764 95.3292 58.2344C95.4864 58.3759 95.2869 58.5993 95.1134 58.5139Z" fill="#39B54A"/>
<path d="M94.4586 67.5239C93.1666 66.4205 92.0353 65.1648 90.921 63.8845C90.3792 63.2621 89.8477 62.6308 89.3271 61.9907C89.0599 61.662 88.7969 61.3307 88.5366 60.9973C88.2838 60.6728 88.0024 60.364 87.8425 59.9827C87.7209 59.6931 88.1226 59.5619 88.3091 59.7108C88.6336 59.9698 88.8625 60.3585 89.116 60.6844C89.3633 61.0021 89.6126 61.3177 89.8641 61.6313C90.3799 62.2762 90.9066 62.9123 91.4436 63.5395C92.5197 64.7959 93.6572 65.9935 94.7161 67.2643C94.8678 67.446 94.6389 67.6776 94.4586 67.5239Z" fill="#39B54A"/>
<path d="M95.348 47.2275C95.5715 47.153 95.7696 47.0355 96.0046 46.9693C96.2492 46.9003 96.5102 46.8593 96.7636 46.8306C97.1626 46.7848 97.8854 46.6625 98.1813 47C98.2735 47.1052 98.2462 47.2302 98.141 47.3109C97.9551 47.4536 97.7543 47.4215 97.5309 47.4079C97.2965 47.3935 97.0622 47.3935 96.8272 47.3935C96.5928 47.3935 96.3605 47.4051 96.1269 47.4127C95.8967 47.4195 95.6254 47.3819 95.3986 47.4133C95.279 47.4304 95.2271 47.2678 95.348 47.2275Z" fill="#39B54A"/>
<path d="M96.8109 41.889C97.6437 41.8282 98.4574 41.7538 99.2943 41.7654C100.144 41.777 100.994 41.8029 101.843 41.8474C103.518 41.9348 105.19 42.0796 106.853 42.2955C107.301 42.3536 107.307 43.0662 106.853 43.0074C105.188 42.7915 103.519 42.6166 101.843 42.5066C101.016 42.4527 100.189 42.4096 99.3613 42.3823C98.5079 42.3543 97.6628 42.2723 96.8109 42.2299C96.5902 42.219 96.5923 41.9047 96.8109 41.889Z" fill="#39B54A"/>
<path d="M98.6594 36.2959C99.1451 36.2932 99.6445 36.2323 100.13 36.1996C100.502 36.1743 101.112 35.9543 101.432 36.1934C101.51 36.2515 101.557 36.3546 101.498 36.4469C101.257 36.8288 100.595 36.7755 100.194 36.7919C99.6404 36.8144 99.1506 36.7188 98.617 36.602C98.4442 36.5637 98.4865 36.2973 98.6594 36.2959Z" fill="#39B54A"/>
<path d="M98.3203 31.5093C98.7057 31.223 99.201 31.0269 99.641 30.8377C100.114 30.6348 100.593 30.4476 101.074 30.2638C102.055 29.8901 103.045 29.541 104.043 29.2164C105.02 28.8987 106.008 28.6118 107.001 28.3467C108.009 28.0769 109.033 27.7886 110.064 27.6225C110.494 27.5535 110.688 28.1732 110.248 28.29C109.255 28.5537 108.244 28.7478 107.249 29.0074C106.254 29.267 105.267 29.5533 104.285 29.858C103.304 30.1627 102.33 30.4892 101.365 30.8411C100.902 31.0091 100.442 31.1834 99.9819 31.3576C99.4988 31.5407 98.9762 31.7702 98.4665 31.857C98.25 31.8939 98.1447 31.6397 98.3203 31.5093Z" fill="#39B54A"/>
<path d="M98.8124 26.337C98.9976 26.2523 99.1547 26.1184 99.333 26.0193C99.5305 25.91 99.7313 25.8075 99.9322 25.7051C100.294 25.5206 100.66 25.2671 101.048 25.1489C101.297 25.0731 101.509 25.4168 101.307 25.5951C101.001 25.867 100.575 26.0262 100.199 26.1785C100.008 26.2557 99.8147 26.3227 99.6166 26.3787C99.372 26.4477 99.1281 26.447 98.8821 26.5044C98.7865 26.527 98.7134 26.3821 98.8124 26.337Z" fill="#39B54A"/>
<path d="M97.8577 22.2323C99.5828 20.9663 101.352 19.7673 103.119 18.5608C103.983 17.9712 104.85 17.3877 105.718 16.805C106.171 16.501 106.624 16.1976 107.076 15.8936C107.506 15.6053 107.937 15.2446 108.416 15.0471C108.744 14.9118 108.965 15.3908 108.745 15.6135C108.384 15.9797 107.871 16.2386 107.444 16.5242C107.01 16.8152 106.576 17.1056 106.141 17.3966C105.254 17.9903 104.367 18.584 103.475 19.1702C101.692 20.3433 99.9141 21.5218 98.092 22.6333C97.8317 22.7932 97.622 22.4058 97.8577 22.2323Z" fill="#39B54A"/>
<path d="M96.0253 16.8952C96.3887 16.4245 96.7495 15.9654 97.169 15.5425C97.3705 15.3396 97.5802 15.1435 97.7941 14.9522C98.0052 14.7636 98.1698 14.5662 98.4602 14.5402C98.5975 14.5279 98.7027 14.6857 98.6652 14.8094C98.588 15.0608 98.3769 15.1777 98.1835 15.3409C97.9642 15.5261 97.751 15.7181 97.5413 15.9141C97.1239 16.3029 96.703 16.6998 96.3204 17.1227C96.1804 17.2785 95.8934 17.066 96.0253 16.8952Z" fill="#39B54A"/>
<path d="M92.8312 12.852C93.5082 11.4993 94.3561 10.2566 95.2531 9.03978C95.6822 8.45769 96.1222 7.88312 96.5758 7.32085C97.0588 6.72305 97.535 6.08768 98.1185 5.58484C98.387 5.35324 98.87 5.6559 98.6425 5.9893C98.236 6.58573 97.7318 7.10838 97.2713 7.66313C96.7828 8.25137 96.3025 8.84644 95.8393 9.45517C94.9354 10.6419 94.0944 11.8751 93.194 13.0645C93.0341 13.2763 92.7075 13.0993 92.8312 12.852Z" fill="#39B54A"/>
<path d="M86.4084 8.71286C86.7063 8.21344 87.0697 7.75775 87.4373 7.30752C87.8178 6.84158 88.184 6.35309 88.5919 5.91038C88.8194 5.66374 89.2724 5.99715 89.0654 6.27589C88.7176 6.74457 88.322 7.18181 87.9476 7.62931C87.561 8.09183 87.1708 8.55231 86.7193 8.95266C86.5567 9.09682 86.2888 8.91372 86.4084 8.71286Z" fill="#39B54A"/>
<path d="M81.9656 6.66576C82.7137 4.01222 83.7454 1.44476 84.419 -1.22996C84.5017 -1.55926 84.5686 -1.8913 84.6424 -2.22265C84.7005 -2.48363 84.7237 -2.80883 84.8672 -3.03634C84.9519 -3.17093 85.2033 -3.20987 85.2771 -3.03634C85.4773 -2.56562 85.2634 -1.90086 85.1507 -1.42536C84.9874 -0.734644 84.7872 -0.0528114 84.5768 0.624922C84.1238 2.0856 83.6217 3.53125 83.0867 4.96391C82.8599 5.57265 82.6167 6.17454 82.3947 6.78532C82.299 7.04972 81.8871 6.94587 81.9656 6.66576Z" fill="#39B54A"/>
<path d="M75.109 4.95424C74.9703 4.34687 74.9826 3.73882 75.0626 3.12326C75.1336 2.57397 75.2368 1.9427 75.6071 1.50955C75.7164 1.38111 75.9125 1.49247 75.9193 1.63867C75.9439 2.15722 75.7444 2.69558 75.6563 3.2032C75.5593 3.76615 75.5312 4.33799 75.4677 4.90504C75.4472 5.09497 75.1589 5.17218 75.109 4.95424Z" fill="#39B54A"/>
<path d="M68.9287 3.47058C68.7518 2.01946 68.9533 0.499348 69.1064 -0.944934C69.1938 -1.7716 69.2901 -2.59827 69.4179 -3.41948C69.5101 -4.01386 69.5778 -4.72371 69.8736 -5.25797C69.9897 -5.46771 70.3129 -5.36865 70.3156 -5.13841C70.3238 -4.54334 70.1612 -3.90933 70.0724 -3.32178C69.9487 -2.50126 69.8367 -1.67937 69.7417 -0.854752C69.5771 0.582698 69.437 2.02698 69.3386 3.47058C69.3209 3.73908 68.9602 3.72883 68.9287 3.47058Z" fill="#39B54A"/>
<path d="M60.8198 2.68623C60.6395 1.94155 60.5103 0.984387 60.9278 0.287524C61.0234 0.127656 61.2612 0.200758 61.2687 0.379756C61.2851 0.748684 61.186 1.13674 61.1573 1.50703C61.1286 1.88484 61.0924 2.2688 61.1061 2.64729C61.1122 2.81126 60.8588 2.8461 60.8198 2.68623Z" fill="#39B54A"/>
<path d="M55.1965 1.2162C55.1234 -0.177527 55.081 -1.56579 55.0598 -2.96224C55.0482 -3.75339 55.053 -4.54522 55.0509 -5.33636C55.0503 -5.67044 55.0564 -6.00521 55.0605 -6.3393C55.0639 -6.60574 55.0468 -6.87014 55.1275 -7.12702C55.2135 -7.40167 55.5989 -7.40167 55.6856 -7.12702C55.7662 -6.87014 55.7492 -6.60643 55.7526 -6.3393C55.7567 -6.00521 55.7628 -5.67044 55.7622 -5.33636C55.7608 -4.54522 55.7656 -3.75339 55.7533 -2.96224C55.7321 -1.56647 55.6897 -0.177527 55.6166 1.2162C55.6023 1.48674 55.2108 1.48674 55.1965 1.2162Z" fill="#39B54A"/>
<path d="M45.9995 -0.219508C45.9817 -0.582286 45.9564 -0.945065 45.951 -1.30853C45.9455 -1.63851 45.9195 -1.99582 46.037 -2.30941C46.0903 -2.4522 46.2741 -2.4522 46.3281 -2.30941C46.4456 -1.99582 46.4196 -1.63783 46.4142 -1.30853C46.408 -0.945065 46.3834 -0.582286 46.3657 -0.219508C46.354 0.0155122 46.0118 0.0161955 45.9995 -0.219508Z" fill="#39B54A"/>
<path d="M27.4079 0.256301C26.642 -0.767814 25.775 -1.72224 24.8814 -2.63568C24.4401 -3.08659 23.9816 -3.52042 23.5075 -3.93649C23.2704 -4.14487 23.0272 -4.34504 22.784 -4.54659C22.564 -4.729 22.2784 -4.90322 22.1411 -5.15668C22.0352 -5.35208 22.2094 -5.57958 22.426 -5.52698C22.7123 -5.45797 22.9589 -5.21134 23.185 -5.03029C23.4303 -4.83285 23.6681 -4.62447 23.9024 -4.41473C24.4018 -3.9686 24.8835 -3.50198 25.3453 -3.01622C26.2458 -2.06999 27.0212 -1.02606 27.7406 0.0615888C27.88 0.272697 27.5527 0.450329 27.4079 0.256301Z" fill="#39B54A"/>
<path d="M21.9303 3.70465C21.4028 3.5236 20.8972 3.28858 20.4313 2.98114C20.0323 2.71743 19.4748 2.36285 19.3116 1.89281C19.2583 1.73909 19.4338 1.54369 19.5944 1.60996C20.0152 1.78418 20.3521 2.21664 20.7217 2.48377C21.1364 2.78302 21.5866 3.03717 22.0601 3.23188C22.3436 3.3487 22.235 3.80918 21.9303 3.70465Z" fill="#39B54A"/>
<path d="M17.8516 8.95609C16.3581 8.64865 14.8681 8.32208 13.3698 8.03924C12.632 7.89986 11.8934 7.76322 11.1535 7.63751C10.4211 7.51317 9.68124 7.44075 8.9994 7.13605C8.84773 7.06841 8.94885 6.87575 9.07456 6.85935C9.80216 6.76575 10.5291 6.92836 11.2471 7.05201C12.0082 7.18319 12.7686 7.32256 13.5249 7.47901C15.015 7.78645 16.5009 8.13078 17.9602 8.56462C18.211 8.63977 18.1058 9.00801 17.8516 8.95609Z" fill="#39B54A"/>
<path d="M16.1913 14.9743C15.6427 14.8069 15.0791 14.6866 14.5079 14.6286C13.9887 14.5753 13.4374 14.6258 12.9284 14.507C12.7432 14.4639 12.776 14.2214 12.9284 14.164C13.4551 13.9645 14.0905 14.0444 14.635 14.1168C15.2103 14.1927 15.7678 14.3368 16.3136 14.5315C16.589 14.6292 16.4783 15.0617 16.1913 14.9743Z" fill="#39B54A"/>
<path d="M14.9122 20.6406C13.3286 21.0902 11.6902 21.1455 10.0608 20.9563C8.48057 20.7732 6.76369 20.5231 5.30028 19.8734C5.14041 19.8024 5.22172 19.5366 5.3891 19.5462C6.13993 19.5885 6.89965 19.7655 7.63409 19.9219C8.43685 20.0934 9.24576 20.2444 10.0615 20.3407C11.6329 20.5272 13.2404 20.5491 14.792 20.2013C15.0762 20.1378 15.1957 20.56 14.9122 20.6406Z" fill="#39B54A"/>
<path d="M13.5907 27.493C13.1589 27.4992 12.7278 27.5046 12.296 27.5108C11.908 27.5163 11.4454 27.5798 11.0738 27.4555C10.8702 27.3878 10.8695 27.1084 11.0738 27.0408C11.4468 26.9164 11.9066 26.9799 12.296 26.9854C12.7278 26.9916 13.1589 26.997 13.5907 27.0032C13.9056 27.008 13.9063 27.4889 13.5907 27.493Z" fill="#39B54A"/>
<path d="M12.5709 33.9508C11.1485 34.069 9.72673 34.1312 8.29953 34.1394C7.59788 34.1435 6.89692 34.1415 6.19664 34.1087C5.51549 34.0772 4.78516 34.0984 4.11835 33.9461C3.966 33.9112 3.95439 33.653 4.11835 33.6263C4.79472 33.5177 5.51276 33.5717 6.19664 33.5566C6.8976 33.5416 7.59856 33.543 8.29953 33.5355C9.72331 33.5197 11.1471 33.4958 12.5709 33.4712C12.8838 33.4658 12.8749 33.9256 12.5709 33.9508Z" fill="#39B54A"/>
<path d="M12.3608 40.3667C11.8942 40.3777 11.4282 40.3886 10.9616 40.3988C10.5332 40.4091 10.0639 40.4562 9.64849 40.3326C9.47906 40.282 9.47906 40.0395 9.64849 39.9896C10.0632 39.8659 10.5339 39.9138 10.9616 39.9233C11.4282 39.9343 11.8942 39.9452 12.3608 39.9554C12.6252 39.9623 12.6252 40.3606 12.3608 40.3667Z" fill="#39B54A"/>
<path d="M13.4499 46.1655C12.602 47.1739 11.5274 48.0402 10.5162 48.8792C10.0339 49.2796 9.54747 49.6731 9.04669 50.0488C8.50628 50.454 7.9522 50.9015 7.34073 51.1946C7.18633 51.2684 7.03261 51.0866 7.1549 50.9541C7.61538 50.456 8.19131 50.0488 8.71533 49.6205C9.21543 49.2126 9.72031 48.8109 10.2184 48.4003C11.2227 47.5722 12.1846 46.6568 13.2436 45.8991C13.411 45.7775 13.566 46.0275 13.4499 46.1655Z" fill="#39B54A"/>
<path d="M17.4807 50.9377C17.2109 51.4775 16.9765 52.1183 16.568 52.5706C16.4525 52.6983 16.2708 52.5603 16.2995 52.4141C16.4156 51.8163 16.7975 51.2349 17.0667 50.6959C17.2047 50.4199 17.6181 50.6624 17.4807 50.9377Z" fill="#39B54A"/>
<path d="M22.8237 54.5745C22.4363 55.5958 22.0401 56.6118 21.6295 57.6236C21.4279 58.1196 21.2278 58.6163 21.0248 59.1116C20.8274 59.5926 20.6477 60.1446 20.3471 60.5695C20.2016 60.7759 19.9003 60.6495 19.9447 60.4001C20.0328 59.9075 20.2856 59.4149 20.4817 58.9558C20.7003 58.4427 20.9224 57.931 21.143 57.4186C21.5755 56.4157 22.0203 55.4203 22.476 54.4276C22.5648 54.2336 22.9002 54.3722 22.8237 54.5745Z" fill="#39B54A"/>
<path d="M30.849 56.4213C30.6222 57.5178 30.3953 58.6136 30.1685 59.7102C30.0599 60.2362 29.9526 60.763 29.8406 61.2884C29.7237 61.8404 29.6001 62.4484 29.3897 62.9718C29.322 63.1391 29.0419 63.1371 29.0494 62.926C29.0699 62.3829 29.2004 61.8124 29.307 61.2808C29.417 60.7329 29.5468 60.1877 29.667 59.6419C29.913 58.5276 30.1589 57.4133 30.4056 56.2996C30.4691 56.0093 30.9084 56.1323 30.849 56.4213Z" fill="#39B54A"/>
<path d="M81.2467 63.2641C81.6758 64.5233 82.0064 65.82 82.3624 67.1017C82.5379 67.7323 82.7128 68.3635 82.8884 68.9941C83.0572 69.6015 83.299 70.2649 83.2724 70.9009C83.2656 71.0669 83.0538 71.1236 82.9636 70.9843C82.6192 70.4514 82.4908 69.7545 82.3296 69.1478C82.1615 68.5152 81.9928 67.8826 81.8247 67.2499C81.4824 65.9648 81.1107 64.679 80.8422 63.3755C80.7869 63.1111 81.1593 63.0072 81.2467 63.2641Z" fill="#39B54A"/>
<path d="M75.922 64.3485C75.9336 65.0071 76.0655 65.8051 75.8236 66.4322C75.7765 66.5538 75.6228 66.5538 75.5756 66.4322C75.3338 65.8057 75.4656 65.0071 75.4772 64.3485C75.482 64.0622 75.9172 64.0622 75.922 64.3485Z" fill="#39B54A"/>
<path d="M50.6958 47.0877C59.3898 48.7203 67.7793 42.8989 69.4344 34.0852C71.0895 25.2715 65.3834 16.8031 56.6895 15.1705C47.9956 13.5378 39.606 19.3593 37.9509 28.173C36.2958 36.9867 42.0019 45.4551 50.6958 47.0877Z" fill="#39B54A"/>
<path d="M45.6328 27.6804C46.6225 30.0236 51.0485 39.4772 51.0485 39.4772L62.9528 24.9519" stroke="white" stroke-width="1.84464" stroke-miterlimit="10" stroke-linecap="round" stroke-linejoin="round"/>
</g>
<defs>
<filter id="filter0_d_325_19568" x="-0.000488281" y="-9" width="114.498" height="112" filterUnits="userSpaceOnUse" color-interpolation-filters="sRGB">
<feFlood flood-opacity="0" result="BackgroundImageFix"/>
<feColorMatrix in="SourceAlpha" type="matrix" values="0 0 0 0 0 0 0 0 0 0 0 0 0 0 0 0 0 0 127 0" result="hardAlpha"/>
<feOffset dy="4"/>
<feGaussianBlur stdDeviation="2"/>
<feComposite in2="hardAlpha" operator="out"/>
<feColorMatrix type="matrix" values="0 0 0 0 0 0 0 0 0 0 0 0 0 0 0 0 0 0 0.25 0"/>
<feBlend mode="normal" in2="BackgroundImageFix" result="effect1_dropShadow_325_19568"/>
<feBlend mode="normal" in="SourceGraphic" in2="effect1_dropShadow_325_19568" result="shape"/>
</filter>
</defs>
</svg>
