<svg width="22" height="20" viewBox="0 0 22 20" fill="none" xmlns="http://www.w3.org/2000/svg">
<path d="M8.29938 7.81947C9.14225 7.81947 9.81654 7.14518 9.81654 6.30231C9.81654 5.45945 9.14225 4.78516 8.29938 4.78516C7.45652 4.78516 6.78223 5.45945 6.78223 6.30231C6.78223 7.14518 7.46949 7.81947 8.29938 7.81947Z" fill="white"/>
<path d="M18.0762 10.6201V2.95651C18.0762 2.13958 17.7391 1.40045 17.2074 0.868799C16.6757 0.337146 15.9366 0 15.1197 0H2.95651C2.13958 0 1.40045 0.337146 0.868799 0.868799C0.337146 1.40045 0 2.13958 0 2.95651V12.63V13.5377V15.4828C0 16.2997 0.337146 17.0388 0.868799 17.5705C1.40045 18.1021 2.13958 18.4393 2.95651 18.4393H14.7177C15.4828 19.0617 16.4553 19.4637 17.5186 19.4637C18.7505 19.4637 19.8527 18.9709 20.6567 18.167C21.4606 17.363 21.9534 16.2478 21.9534 15.0289C21.9534 13.797 21.4606 12.6948 20.6567 11.8909C19.9694 11.1777 19.0747 10.7368 18.0762 10.6201ZM1.65979 1.65979C1.99694 1.32265 2.45079 1.12814 2.95651 1.12814H15.1197C15.6254 1.12814 16.0793 1.33562 16.4164 1.65979C16.7535 1.99694 16.9481 2.45079 16.9481 2.95651V9.49195L13.8748 6.40577C13.6544 6.18533 13.3043 6.18533 13.0838 6.40577L8.40271 11.0999L5.23873 7.92293C5.01828 7.70248 4.66817 7.70248 4.44773 7.92293L1.12814 11.2684V2.95651C1.12814 2.45079 1.33562 1.99694 1.65979 1.65979ZM2.95651 17.2982C2.45079 17.2982 1.99694 17.0907 1.65979 16.7665C1.32265 16.4294 1.12814 15.9755 1.12814 15.4698V13.5247V12.8504L4.84971 9.1159L8.01369 12.2929C8.23414 12.5133 8.58425 12.5133 8.80469 12.2929L13.4858 7.59875L16.5461 10.672C16.4812 10.6849 16.4294 10.7109 16.3645 10.7238C16.2738 10.7498 16.183 10.7757 16.1052 10.8016C16.0144 10.8276 15.9366 10.8535 15.8588 10.8924C15.8069 10.9183 15.7551 10.9443 15.6902 10.9702C15.6124 11.0091 15.5476 11.035 15.4698 11.0739C15.3661 11.1258 15.2494 11.1906 15.1456 11.2684C15.0938 11.3073 15.0419 11.3333 14.99 11.3722C14.9511 11.3981 14.9252 11.4111 14.8863 11.437C14.7047 11.5667 14.5362 11.7093 14.3676 11.8779C13.5636 12.6819 13.0709 13.797 13.0709 15.016C13.0709 15.3272 13.1098 15.6384 13.1616 15.9237C13.1746 16.0015 13.2135 16.0663 13.2265 16.1441C13.2784 16.3516 13.3432 16.572 13.434 16.7665C13.434 16.7795 13.434 16.7795 13.4469 16.7925C13.5247 16.974 13.6155 17.1426 13.7063 17.2982H2.95651ZM19.8527 17.35C19.2562 17.9465 18.4263 18.3226 17.5056 18.3226C16.6109 18.3226 15.8069 17.9725 15.2105 17.4019C15.1197 17.3111 15.0419 17.2204 14.9641 17.1166C14.8992 17.0388 14.8344 16.974 14.7825 16.8962C14.7047 16.7795 14.6399 16.6628 14.5751 16.5331C14.5362 16.4553 14.4843 16.3905 14.4584 16.3127C14.4065 16.196 14.3806 16.0793 14.3417 15.9496C14.3157 15.8588 14.2768 15.768 14.2509 15.6773C14.199 15.4568 14.1861 15.2364 14.1861 15.003C14.1861 14.0823 14.5621 13.2524 15.1586 12.6559C15.7551 12.0594 16.585 11.6834 17.5056 11.6834C18.4263 11.6834 19.2562 12.0594 19.8527 12.6559C20.4492 13.2524 20.8252 14.0823 20.8252 15.003C20.8252 15.9237 20.4622 16.7406 19.8527 17.35Z" fill="white"/>
<path d="M19.3471 14.4329H18.0764V13.1621C18.0764 12.8509 17.83 12.6045 17.5188 12.6045C17.2076 12.6045 16.9612 12.8509 16.9612 13.1621V14.4329H15.6904C15.3792 14.4329 15.1328 14.6792 15.1328 14.9904C15.1328 15.3017 15.3662 15.561 15.6774 15.561H16.9482V16.8318C16.9482 17.143 17.1946 17.3894 17.5058 17.3894C17.817 17.3894 18.0634 17.143 18.0634 16.8318V15.561H19.3342C19.6454 15.561 19.8918 15.3146 19.8918 15.0034C19.8918 14.6922 19.6583 14.4329 19.3471 14.4329Z" fill="white"/>
</svg>
