<svg width="22" height="18" viewBox="0 0 22 18" fill="none" xmlns="http://www.w3.org/2000/svg">
<path d="M19.5466 2.65872H16.104V2.62018C16.104 2.09352 15.8856 1.60539 15.5388 1.25856C15.192 0.911733 14.7167 0.693359 14.1772 0.693359H7.9728C7.44614 0.693359 6.95801 0.911733 6.61118 1.25856C6.26435 1.60539 6.04598 2.09352 6.04598 2.62018V2.65872H2.60339C1.92258 2.65872 1.31884 2.92847 0.86925 3.37807C0.419658 3.82766 0.149902 4.4314 0.149902 5.11221V15.4528C0.149902 16.1336 0.419658 16.7374 0.86925 17.187C1.31884 17.6366 1.92258 17.9063 2.60339 17.9063H19.5466C20.2274 17.9063 20.8311 17.6366 21.2807 17.187C21.7303 16.7374 22.0001 16.1336 22.0001 15.4528V5.11221C22.0001 4.4314 21.7303 3.82766 21.2807 3.37807C20.844 2.92847 20.2274 2.65872 19.5466 2.65872ZM20.8954 15.4528C20.8954 15.8253 20.7412 16.1593 20.4972 16.4034C20.2531 16.6475 19.9191 16.8016 19.5466 16.8016H2.60339C2.23087 16.8016 1.89689 16.6475 1.65282 16.4034C1.40876 16.1593 1.25461 15.8253 1.25461 15.4528V5.11221C1.25461 4.73969 1.40876 4.4057 1.65282 4.16164C1.89689 3.93042 2.23087 3.77628 2.60339 3.77628H6.59834C6.90663 3.77628 7.15069 3.53221 7.15069 3.22392V2.62018C7.15069 2.40181 7.24061 2.19628 7.38191 2.04214C7.52321 1.90083 7.72874 1.79807 7.95996 1.79807H14.1772C14.3955 1.79807 14.6011 1.88799 14.7552 2.02929C14.8965 2.17059 14.9993 2.37612 14.9993 2.60734V3.19823C14.9993 3.50652 15.2433 3.75059 15.5516 3.75059H19.5466C19.9191 3.75059 20.2531 3.90473 20.4972 4.14879C20.7412 4.39286 20.8954 4.72684 20.8954 5.09936V15.4528Z" fill="white"/>
<path d="M11.0814 5.16309C9.6684 5.16309 8.3967 5.74113 7.45898 6.66601C6.5341 7.59088 5.95605 8.87543 5.95605 10.2884C5.95605 11.7014 6.5341 12.9731 7.45898 13.9109C8.38385 14.8357 9.6684 15.4138 11.0814 15.4138C12.4944 15.4138 13.7661 14.8357 14.7038 13.9109C15.6287 12.986 16.2068 11.7014 16.2068 10.2884C16.2068 8.87543 15.6287 7.59088 14.7038 6.66601C13.7661 5.74113 12.4944 5.16309 11.0814 5.16309ZM13.9074 13.1144C13.1881 13.8338 12.1861 14.2834 11.0814 14.2834C9.97669 14.2834 8.97474 13.8338 8.2554 13.1144C7.5232 12.3822 7.07361 11.3931 7.07361 10.2884C7.07361 9.18372 7.5232 8.18178 8.24255 7.46243C8.9619 6.74308 9.96385 6.29349 11.0686 6.29349C12.1733 6.29349 13.1752 6.74308 13.8946 7.46243C14.6139 8.18178 15.0635 9.18372 15.0635 10.2884C15.0763 11.3931 14.6268 12.3822 13.9074 13.1144Z" fill="white"/>
<path d="M18.4549 5.1377C17.8897 5.1377 17.4272 5.60013 17.4272 6.16533C17.4272 6.73054 17.8897 7.19297 18.4549 7.19297C19.0201 7.19297 19.4825 6.73054 19.4825 6.16533C19.4825 5.60013 19.0201 5.1377 18.4549 5.1377Z" fill="white"/>
</svg>
