<svg width="17" height="18" viewBox="0 0 17 18" fill="none" xmlns="http://www.w3.org/2000/svg">
<path d="M9.35846 8.56714C8.73615 8.83038 8.17728 9.20717 7.69744 9.68701C7.4619 9.92255 7.2512 10.1772 7.06647 10.4491C6.39966 10.5607 5.68581 10.6173 4.94232 10.6173C4.49364 10.6173 4.04882 10.5961 3.6202 10.5543C3.45299 10.538 3.30431 10.6603 3.28802 10.8276C3.27173 10.9948 3.39403 11.1434 3.56124 11.1597C4.00931 11.2034 4.47398 11.2255 4.94232 11.2255C5.54202 11.2255 6.1241 11.19 6.68042 11.12C6.64437 11.1951 6.61005 11.271 6.57757 11.348C6.3515 11.8826 6.21789 12.4447 6.17889 13.0233C5.77675 13.0598 5.36126 13.0782 4.94232 13.0782C3.5757 13.0782 2.29534 12.8849 1.33708 12.534C0.896242 12.3726 0.540128 12.1806 0.307234 11.979C0.103769 11.8028 0.000407337 11.6289 0 11.462V11.461V10.0519C0.330248 10.3108 0.790131 10.5394 1.36753 10.727C1.39879 10.7372 1.43046 10.742 1.46163 10.742C1.58983 10.742 1.70908 10.6603 1.75083 10.5318C1.80277 10.372 1.71529 10.2005 1.55562 10.1485C0.596646 9.83691 0.000712839 9.39719 0 9.00085V9.00003V7.59177C0.284117 7.81428 0.662838 8.01306 1.12792 8.18333C2.15155 8.55818 3.50615 8.76459 4.94232 8.76459C5.41055 8.76459 5.87522 8.7425 6.32339 8.69881C6.4906 8.68252 6.61291 8.53384 6.59661 8.36663C6.58032 8.19941 6.43164 8.07711 6.26443 8.09341C5.83581 8.13516 5.391 8.15634 4.94232 8.15634C3.5757 8.15634 2.29534 7.96306 1.33708 7.61214C0.896344 7.45073 0.54023 7.25877 0.307234 7.05714C0.103769 6.88097 0.000407337 6.70693 0 6.54003V6.53911V5.12993C0.330248 5.38889 0.790131 5.61751 1.36763 5.80509C1.3989 5.81527 1.43057 5.82006 1.46173 5.82006C1.58994 5.82006 1.70918 5.73839 1.75094 5.60987C1.80287 5.4501 1.7154 5.27851 1.55572 5.22657C0.596341 4.91486 0.000407337 4.47503 0 4.07859V2.66992C0.284117 2.89253 0.662838 3.09121 1.12792 3.26158C2.15155 3.63643 3.50615 3.84295 4.94232 3.84295C6.37848 3.84295 7.73308 3.63653 8.75672 3.26158C9.2218 3.09121 9.60052 2.89253 9.88463 2.66992V4.08043C9.88372 4.24693 9.78046 4.42045 9.5774 4.59611C9.3444 4.79785 8.98829 4.9897 8.54755 5.15111C7.58929 5.50203 6.30893 5.69531 4.94232 5.69531C4.49364 5.69531 4.04882 5.67413 3.6202 5.63238C3.45299 5.61609 3.30431 5.73839 3.28802 5.9056C3.27173 6.07281 3.39403 6.22149 3.56124 6.23778C4.00941 6.28147 4.47398 6.30357 4.94232 6.30357C6.37848 6.30357 7.73308 6.09715 8.75672 5.7223C9.2218 5.55203 9.60052 5.35325 9.88463 5.13074V6.53901V6.54084C9.8828 6.93687 9.28717 7.37609 8.32912 7.68739C8.16934 7.73933 8.08196 7.91092 8.1339 8.0707C8.17565 8.19921 8.2949 8.28088 8.42311 8.28088C8.45427 8.28088 8.48594 8.2761 8.5172 8.26591C9.0946 8.07823 9.55449 7.84972 9.88474 7.59075V8.37701C9.70663 8.43088 9.53106 8.49412 9.35846 8.56714Z" fill="#F5A000"/>
<path d="M0.307234 1.0993C0.54023 0.897566 0.896344 0.705609 1.33708 0.544202C2.29534 0.193281 3.5757 0 4.94232 0C6.30893 0 7.58929 0.193281 8.54755 0.544202C8.98839 0.705609 9.3445 0.897566 9.5774 1.0993C9.78127 1.27578 9.88463 1.45012 9.88463 1.61723V1.61764C9.88443 1.78464 9.78107 1.95878 9.5774 2.13516C9.3444 2.33689 8.98829 2.52885 8.54755 2.69025C7.58929 3.04118 6.30893 3.23446 4.94232 3.23446C3.5757 3.23446 2.29534 3.04128 1.33708 2.69036C0.896242 2.52895 0.540128 2.33699 0.307234 2.13526C0.103362 1.95878 0 1.78444 0 1.61733C0 1.45012 0.103362 1.27588 0.307234 1.0993Z" fill="#F5A000"/>
<path d="M4.94232 18C3.5757 18 2.29534 17.8067 1.33708 17.4558C0.896344 17.2944 0.540128 17.1024 0.307234 16.9007C0.103362 16.7242 0 16.5499 0 16.3828V14.9738C0.330248 15.2327 0.790131 15.4613 1.36753 15.6489C1.39879 15.6591 1.43046 15.6639 1.46163 15.6639C1.58983 15.6639 1.70908 15.5822 1.75083 15.4537C1.80277 15.2939 1.71529 15.1224 1.55562 15.0704C0.596646 14.7588 0.000712839 14.3191 0 13.9228V13.9218V12.5137C0.284117 12.7362 0.662839 12.935 1.12792 13.1052C2.15155 13.4801 3.50615 13.6865 4.94232 13.6865C5.35841 13.6865 5.77155 13.669 6.17278 13.6345C6.2018 14.2508 6.33765 14.8491 6.57757 15.4165C6.58093 15.4244 6.58439 15.4323 6.58785 15.4404C6.06066 15.5059 5.50902 15.5392 4.94232 15.5392C4.49374 15.5392 4.04893 15.518 3.6202 15.4762C3.45299 15.4599 3.30431 15.5822 3.28802 15.7495C3.27173 15.9167 3.39403 16.0653 3.56124 16.0816C4.00941 16.1253 4.47408 16.1474 4.94232 16.1474C5.61106 16.1474 6.26076 16.103 6.87737 16.0154C7.10273 16.4016 7.37707 16.7571 7.69734 17.0775C7.87076 17.2509 8.05467 17.4109 8.24806 17.5569C7.33634 17.8411 6.16748 18 4.94232 18Z" fill="#F5A000"/>
<path d="M11.3926 8.76465C8.84641 8.76465 6.7749 10.8362 6.7749 13.3823C6.7749 15.9285 8.84641 18 11.3926 18C13.9387 18 16.0102 15.9286 16.0102 13.3823C16.0102 10.8361 13.9387 8.76465 11.3926 8.76465ZM11.6466 16.0671V16.978H10.9975V16.0888C10.943 16.0864 10.9579 16.0875 10.9299 16.0854C10.4758 16.0505 10.0281 15.9032 9.75467 15.7079L9.96486 15.121C10.2802 15.3312 10.7356 15.4977 11.2262 15.4977C11.8481 15.4977 12.2685 15.1385 12.2685 14.6394C12.2685 14.1576 11.9269 13.8598 11.2787 13.597C10.3853 13.2466 9.83349 12.8437 9.83349 12.0816C9.83349 11.4328 10.245 10.9235 10.9063 10.7281C10.986 10.7046 10.9716 10.7074 11.0584 10.6933L11.0589 9.78676H11.6993V10.6364C12.2249 10.6539 12.5839 10.794 12.838 10.943L12.6191 11.5211C12.4351 11.416 12.076 11.2233 11.5154 11.2233C10.8409 11.2233 10.5869 11.6263 10.5869 11.9766C10.5869 12.4321 10.911 12.6598 11.673 12.9752C12.5752 13.3431 13.0307 13.7985 13.0307 14.5782C13.0306 15.27 12.5488 15.9182 11.6466 16.0671Z" fill="#F5A000"/>
</svg>
