<svg width="25" height="25" viewBox="0 0 25 25" fill="none" xmlns="http://www.w3.org/2000/svg">
<path d="M18.6723 25H6.32763C2.83246 25 0 22.1668 0 18.6724V6.32764C0 2.83246 2.83315 0 6.32763 0H18.6723C22.1675 0 25 2.83316 25 6.32764V18.6724C25 22.1668 22.1675 25 18.6723 25Z" fill="black"/>
<path d="M12.4999 10.5037C14.5367 10.5037 16.1878 8.85258 16.1878 6.81582C16.1878 4.77905 14.5367 3.12793 12.4999 3.12793C10.4631 3.12793 8.81201 4.77905 8.81201 6.81582C8.81201 8.85258 10.4631 10.5037 12.4999 10.5037Z" fill="white"/>
<path d="M16.988 12.1914H8.01154C6.89408 12.1914 5.98877 13.0974 5.98877 14.2142V20.485H19.0115V14.2142C19.0115 13.0967 18.1054 12.1914 16.988 12.1914Z" fill="white"/>
</svg>
