<svg width="65" height="89" viewBox="0 0 65 89" fill="none" xmlns="http://www.w3.org/2000/svg">
<g filter="url(#filter0_d_2014_77152)">
<path d="M54.2883 83.4193H10.3556C6.84098 83.4193 4 80.5783 4 77.0637V9.37806C4 5.86344 6.84098 3.02246 10.3556 3.02246H48.0792C48.8992 3.02246 49.5436 3.66681 49.5436 4.48688C49.5436 5.30696 48.8992 5.95131 48.0792 5.95131H10.3556C8.45185 5.95131 6.92885 7.5036 6.92885 9.37806V77.0637C6.92885 78.9675 8.48114 80.4905 10.3556 80.4905H54.2883C56.1921 80.4905 57.7151 78.9382 57.7151 77.0637V15.5579C57.7151 14.7379 58.3594 14.0935 59.1795 14.0935C59.9996 14.0935 60.6439 14.7379 60.6439 15.5579V77.0637C60.6439 80.5783 57.7736 83.4193 54.2883 83.4193Z" fill="#0082FF"/>
<path d="M59.1795 17.0239H48.0792C47.2591 17.0239 46.6147 16.3795 46.6147 15.5594V4.45909C46.6147 3.87332 46.9662 3.34613 47.5227 3.11182C48.0792 2.87752 48.6942 3.02396 49.1043 3.434L60.2046 14.5343C60.6146 14.9444 60.7611 15.5887 60.5268 16.1159C60.2925 16.6724 59.7653 17.0239 59.1795 17.0239ZM49.5436 14.095H55.6356L49.5436 8.003V14.095Z" fill="#0082FF"/>
<path d="M50.9196 30.8769H13.6939C12.8738 30.8769 12.2295 30.2325 12.2295 29.4124V21.856C12.2295 21.0359 12.8738 20.3916 13.6939 20.3916H50.9196C51.7396 20.3916 52.384 21.0359 52.384 21.856V29.4124C52.384 30.2032 51.7396 30.8769 50.9196 30.8769ZM15.1583 27.948H49.4551V23.3204H15.1583V27.948Z" fill="#0082FF"/>
<path d="M22.1002 44.8769H13.6651C12.845 44.8769 12.2007 44.2325 12.2007 43.4125V35.856C12.2007 35.0359 12.845 34.3916 13.6651 34.3916H22.1002C22.9203 34.3916 23.5646 35.0359 23.5646 35.856V43.4125C23.5646 44.2325 22.9203 44.8769 22.1002 44.8769ZM15.1588 41.948H20.6651V37.3204H15.1588V41.948Z" fill="#0082FF"/>
<path d="M50.9203 44.8769H28.251C27.431 44.8769 26.7866 44.2325 26.7866 43.4125V35.856C26.7866 35.0359 27.431 34.3916 28.251 34.3916H50.9203C51.7404 34.3916 52.3847 35.0359 52.3847 35.856V43.4125C52.3847 44.2325 51.7404 44.8769 50.9203 44.8769ZM29.7448 41.948H49.4852V37.3204H29.7448V41.948Z" fill="#0082FF"/>
<path d="M50.9201 51.3497H13.6944C12.8743 51.3497 12.23 50.7054 12.23 49.8853C12.23 49.0652 12.8743 48.4209 13.6944 48.4209H50.9201C51.7401 48.4209 52.3845 49.0652 52.3845 49.8853C52.3845 50.7054 51.7401 51.3497 50.9201 51.3497Z" fill="#0082FF"/>
<path d="M50.9205 57.7912H13.6949C12.8748 57.7912 12.2305 57.1468 12.2305 56.3267C12.2305 55.5067 12.8748 54.8623 13.6949 54.8623H50.9205C51.7406 54.8623 52.385 55.5067 52.385 56.3267C52.385 57.1468 51.7406 57.7912 50.9205 57.7912Z" fill="#0082FF"/>
<path d="M50.9205 64.2355H13.6949C12.8748 64.2355 12.2305 63.5911 12.2305 62.7711C12.2305 61.951 12.8748 61.3066 13.6949 61.3066H50.9205C51.7406 61.3066 52.385 61.951 52.385 62.7711C52.385 63.5911 51.7406 64.2355 50.9205 64.2355Z" fill="#0082FF"/>
<path d="M50.9205 70.7111H13.6949C12.8748 70.7111 12.2305 70.0667 12.2305 69.2467C12.2305 68.4266 12.8748 67.7822 13.6949 67.7822H50.9205C51.7406 67.7822 52.385 68.4266 52.385 69.2467C52.385 70.0667 51.7406 70.7111 50.9205 70.7111Z" fill="#0082FF"/>
<path d="M50.9201 77.1525H13.6944C12.8743 77.1525 12.23 76.5081 12.23 75.6881C12.23 74.868 12.8743 74.2236 13.6944 74.2236H50.9201C51.7401 74.2236 52.3845 74.868 52.3845 75.6881C52.3845 76.5081 51.7401 77.1525 50.9201 77.1525Z" fill="#0082FF"/>
</g>
<defs>
<filter id="filter0_d_2014_77152" x="0.05" y="0.63" width="64.544" height="88.3189" filterUnits="userSpaceOnUse" color-interpolation-filters="sRGB">
<feFlood flood-opacity="0" result="BackgroundImageFix"/>
<feColorMatrix in="SourceAlpha" type="matrix" values="0 0 0 0 0 0 0 0 0 0 0 0 0 0 0 0 0 0 127 0" result="hardAlpha"/>
<feOffset dy="1.58"/>
<feGaussianBlur stdDeviation="1.975"/>
<feComposite in2="hardAlpha" operator="out"/>
<feColorMatrix type="matrix" values="0 0 0 0 0 0 0 0 0 0.509804 0 0 0 0 1 0 0 0 0.5 0"/>
<feBlend mode="normal" in2="BackgroundImageFix" result="effect1_dropShadow_2014_77152"/>
<feBlend mode="normal" in="SourceGraphic" in2="effect1_dropShadow_2014_77152" result="shape"/>
</filter>
</defs>
</svg>
