<svg width="333" height="249" viewBox="0 0 333 249" fill="none" xmlns="http://www.w3.org/2000/svg">
<path d="M333 218.079H0V218.246H333V218.079Z" fill="#E0E0E0"/>
<path d="M251.526 225.133H228.613V225.299H251.526V225.133Z" fill="#E0E0E0"/>
<path d="M73.9527 225.216H61.0596V225.382H73.9527V225.216Z" fill="#E0E0E0"/>
<path d="M167.166 224.825H141.033V224.992H167.166V224.825Z" fill="#E0E0E0"/>
<path d="M140.367 222.457H128.685V222.624H140.367V222.457Z" fill="#E0E0E0"/>
<path d="M282.754 222.541H247.466V222.708H282.754V222.541Z" fill="#E0E0E0"/>
<path d="M157.851 188.377H29.2468C27.1509 188.377 25.4453 186.671 25.4453 184.575V3.80153C25.4453 1.70563 27.1509 0 29.2468 0H157.851C159.946 0 161.652 1.70563 161.652 3.80153V184.575C161.652 186.671 159.946 188.377 157.851 188.377ZM29.2468 0.167166C27.2422 0.167166 25.6118 1.79753 25.6118 3.80219V184.576C25.6118 186.581 27.2422 188.211 29.2468 188.211H157.851C159.855 188.211 161.485 186.581 161.485 184.576V3.80153C161.485 1.79753 159.855 0.1665 157.851 0.1665L29.2468 0.167166Z" fill="#E0E0E0"/>
<path d="M301.904 188.377H173.301C171.206 188.377 169.5 186.671 169.5 184.575V3.80153C169.5 1.70563 171.206 0 173.301 0H301.904C304.001 0 305.706 1.70563 305.706 3.80153V184.575C305.706 186.671 304.001 188.377 301.904 188.377ZM173.301 0.167166C171.297 0.167166 169.667 1.79753 169.667 3.80219V184.576C169.667 186.581 171.297 188.211 173.301 188.211H301.904C303.909 188.211 305.539 186.581 305.539 184.576V3.80153C305.539 1.79753 303.909 0.1665 301.904 0.1665L173.301 0.167166Z" fill="#E0E0E0"/>
<path d="M292.583 134.718C284.387 122.246 291.87 108.835 290.623 94.9608C289.375 81.0867 276.19 78.0577 278.685 66.2982C281.578 52.6632 273.875 39.5723 265.144 39.5723C256.414 39.5723 248.711 52.6632 251.603 66.2982C254.097 78.0577 240.912 81.0867 239.665 94.9608C238.418 108.835 245.901 122.245 237.705 134.718C229.509 147.19 231.66 163.711 236.28 171.909C237.552 174.168 239.05 176.168 240.684 177.936C253.792 192.132 276.498 192.132 289.605 177.936C291.238 176.168 292.737 174.168 294.009 171.909C298.628 163.711 300.779 147.19 292.583 134.718Z" fill="#E0E0E0"/>
<path d="M269.286 218.081H261.001V148.328C261.001 146.05 262.865 144.186 265.143 144.186C267.422 144.186 269.286 146.05 269.286 148.328V218.081Z" fill="#F0F0F0"/>
<path d="M213.06 218.081H201.78V148.333C201.78 145.231 204.318 142.693 207.42 142.693C210.522 142.693 213.06 145.231 213.06 148.333V218.081Z" fill="#E0E0E0"/>
<path d="M207.42 199.265C226.608 199.265 242.164 183.71 242.164 164.521C242.164 145.333 226.608 129.777 207.42 129.777C188.231 129.777 172.676 145.333 172.676 164.521C172.676 183.71 188.231 199.265 207.42 199.265Z" fill="#F0F0F0"/>
<path d="M248.249 154.103C250.072 146.765 245.601 139.338 238.262 137.515C230.923 135.692 223.496 140.163 221.673 147.501C219.85 154.84 224.321 162.267 231.66 164.09C238.998 165.913 246.425 161.442 248.249 154.103Z" fill="#F0F0F0"/>
<path d="M187.329 143.996C188.049 139.577 185.05 135.411 180.63 134.691C176.211 133.971 172.045 136.97 171.325 141.388C170.605 145.807 173.604 149.973 178.023 150.693C182.443 151.413 186.609 148.415 187.329 143.996Z" fill="#F0F0F0"/>
<path d="M188.135 144.185C191.277 144.185 193.825 141.638 193.825 138.495C193.825 135.353 191.277 132.806 188.135 132.806C184.993 132.806 182.445 135.353 182.445 138.495C182.445 141.638 184.993 144.185 188.135 144.185Z" fill="#F0F0F0"/>
<path d="M135.844 176.452C130.059 177.312 125.045 179.408 120.715 182.225C120.674 176.953 119.709 171.946 117.232 167.903C113.46 171.579 110.405 176.332 107.938 181.445C107.013 171.833 104.49 162.52 98.9012 156.634C90.5283 161.901 86.2126 170.679 84.16 179.976C80.824 174.018 76.2213 168.52 69.8656 164.522C64.7428 169.918 63.1071 177.378 63.2429 185.019C57.4234 178.244 50.9599 172.954 44.6602 172.333C43.1091 183.065 46.4124 193.184 50.6102 201.163C56.1167 211.627 67.0711 218.082 78.8966 218.082H106.259C117.922 218.082 128.855 211.859 134.327 201.561C137.792 195.038 139.441 186.638 135.844 176.452Z" fill="#E0E0E0"/>
<path d="M128.043 38.0878C131.424 28.1838 128.74 21.1328 120.474 21.1328C115.291 21.1328 108.863 23.908 102.604 28.4268C101.897 25.8508 99.9055 24.307 96.7013 24.307C91.063 24.307 83.2907 29.0769 77.1935 35.8068C75.7183 34.3063 73.5831 33.3872 70.8399 33.2394C65.4439 32.9357 58.9078 35.6763 53.2255 40.1345C52.7333 39.3885 51.8895 38.9203 50.7247 38.8511C47.6151 38.6779 43.406 41.4445 41.3148 45.0262C41.1842 45.252 41.069 45.4685 40.9531 45.6856H47.412H52.5508H70.4016H79.1862H86.0167H96.5375H98.4469H124.545H129.684C129.949 42.5627 129.397 39.952 128.043 38.0878Z" fill="#F0F0F0"/>
<path d="M128.317 98.2228C129.969 93.385 128.658 89.9404 124.62 89.9404C122.088 89.9404 118.949 91.2964 115.892 93.5035C115.547 92.2454 114.574 91.4915 113.009 91.4915C110.254 91.4915 106.458 93.8212 103.48 97.1092C102.759 96.3766 101.716 95.9271 100.376 95.8552C97.74 95.7067 94.5479 97.046 91.772 99.2231C91.5316 98.8588 91.1193 98.6297 90.5506 98.5964C89.0314 98.5118 86.9755 99.8632 85.9538 101.613C85.8899 101.723 85.834 101.829 85.7773 101.935H88.9322H91.4423H100.162H104.453H107.79H112.929H113.862H126.61H129.12C129.248 100.409 128.979 99.1332 128.317 98.2228Z" fill="#F0F0F0"/>
<path d="M228.283 61.6341C227.946 61.5849 227.603 61.5595 227.255 61.5595C227.574 56.727 225.726 53.6415 221.78 53.6415C218.933 53.6415 215.44 55.2525 211.879 57.9785C212.898 48.5985 209.635 42.502 202.247 42.502C196.287 42.502 188.743 46.4673 181.29 52.9355C180.638 49.2552 178.442 47.0494 174.752 47.0494C168.271 47.0494 159.061 53.8646 151.677 63.4803C151.677 63.4803 151.674 63.4929 151.667 63.4803C150.072 61.3364 147.675 60.0104 144.524 59.8C138.353 59.3664 130.69 63.2818 123.896 69.6634C123.379 68.5852 122.438 67.9165 121.092 67.8293C117.717 67.5935 113.067 71.1127 110.365 75.8219H118.238H123.575H144.1H153.713H162.272H174.429H197.398H206.351H209.537H222.281H233.714C236.611 68.6851 234.304 62.44 228.283 61.6341Z" fill="#F0F0F0"/>
<path d="M166.5 248.159C237.817 248.159 295.63 244.783 295.63 240.618C295.63 236.453 237.817 233.077 166.5 233.077C95.1836 233.077 37.3701 236.453 37.3701 240.618C37.3701 244.783 95.1836 248.159 166.5 248.159Z" fill="#F5F5F5"/>
<path d="M32.5381 63.6787L184.367 85.5335L204.743 106.096L32.5381 63.6787Z" fill="#0082FF"/>
<path opacity="0.6" d="M32.5381 63.6787L184.367 85.5335L204.743 106.096L32.5381 63.6787Z" fill="white"/>
<path d="M32.5381 63.6787L184.367 85.5335L177.321 115.267L32.5381 63.6787Z" fill="#0082FF"/>
<path opacity="0.2" d="M32.5381 63.6787L184.367 85.5335L177.321 115.267L32.5381 63.6787Z" fill="black"/>
<path d="M174.203 29.2558L183.019 70.5657C183.497 72.8028 182.057 75.0239 179.82 75.5015L101.179 92.284C98.9419 92.7615 96.7208 91.3216 96.2432 89.0845L87.4274 47.7746C87.1776 46.6051 87.4527 45.4369 88.0907 44.5211C88.6755 43.6913 89.5593 43.0666 90.6269 42.8388L169.267 26.0563C170.335 25.8285 171.397 26.0376 172.27 26.5565C173.226 27.1319 173.954 28.0863 174.203 29.2558Z" fill="#0082FF"/>
<path opacity="0.4" d="M174.203 29.2558L183.019 70.5657C183.497 72.8028 182.057 75.0239 179.82 75.5015L101.179 92.284C98.9419 92.7615 96.7208 91.3216 96.2432 89.0845L87.4274 47.7746C87.1776 46.6051 87.4527 45.4369 88.0907 44.5211C88.6755 43.6913 89.5593 43.0666 90.6269 42.8388L169.267 26.0563C170.335 25.8285 171.397 26.0376 172.27 26.5565C173.226 27.1319 173.954 28.0863 174.203 29.2558Z" fill="black"/>
<path d="M172.27 26.557L145.991 58.8127C140.973 64.9732 132.342 66.8147 125.246 63.2396L88.0898 44.521C88.6746 43.6912 89.5584 43.0665 90.626 42.8387L169.267 26.0562C170.336 25.8284 171.397 26.0382 172.27 26.557Z" fill="#0082FF"/>
<path d="M32.5381 63.6787L157.768 93.4389L177.321 115.267L32.5381 63.6787Z" fill="#0082FF"/>
<path opacity="0.6" d="M32.5381 63.6787L157.768 93.4389L177.321 115.267L32.5381 63.6787Z" fill="white"/>
<path d="M78.2169 92.3779L77.8799 92.9531L91.8128 101.116L92.1498 100.541L78.2169 92.3779Z" fill="#0082FF"/>
<path d="M98.3057 104.143L97.9688 104.718L102.981 107.654L103.318 107.079L98.3057 104.143Z" fill="#0082FF"/>
<path d="M32.5381 63.6787L157.768 93.4389L133.426 122.78L32.5381 63.6787Z" fill="#0082FF"/>
<path d="M200.039 133.409C199.877 133.409 199.711 133.379 199.55 133.315L179.148 125.237C178.464 124.967 178.129 124.193 178.4 123.508C178.67 122.825 179.441 122.488 180.129 122.761L200.531 130.838C201.215 131.108 201.55 131.882 201.279 132.567C201.072 133.089 200.57 133.409 200.039 133.409Z" fill="#0082FF"/>
<path opacity="0.3" d="M200.039 133.409C199.877 133.409 199.711 133.379 199.55 133.315L179.148 125.237C178.464 124.967 178.129 124.193 178.4 123.508C178.67 122.825 179.441 122.488 180.129 122.761L200.531 130.838C201.215 131.108 201.55 131.882 201.279 132.567C201.072 133.089 200.57 133.409 200.039 133.409Z" fill="black"/>
<path d="M198.837 121.71C198.675 121.71 198.509 121.68 198.348 121.616L187.391 117.277C186.707 117.007 186.372 116.233 186.643 115.548C186.913 114.865 187.684 114.528 188.372 114.801L199.329 119.139C200.013 119.409 200.348 120.183 200.077 120.868C199.869 121.391 199.368 121.71 198.837 121.71Z" fill="#0082FF"/>
<path opacity="0.5" d="M198.837 121.71C198.675 121.71 198.509 121.68 198.348 121.616L187.391 117.277C186.707 117.007 186.372 116.233 186.643 115.548C186.913 114.865 187.684 114.528 188.372 114.801L199.329 119.139C200.013 119.409 200.348 120.183 200.077 120.868C199.869 121.391 199.368 121.71 198.837 121.71Z" fill="white"/>
<path d="M175.931 133.208C175.769 133.208 175.603 133.177 175.442 133.113L155.549 125.237C154.865 124.966 154.53 124.192 154.801 123.508C155.071 122.824 155.845 122.489 156.53 122.76L176.423 130.636C177.107 130.907 177.442 131.68 177.171 132.365C176.964 132.889 176.462 133.208 175.931 133.208Z" fill="#0082FF"/>
<path opacity="0.3" d="M175.931 133.208C175.769 133.208 175.603 133.177 175.442 133.113L155.549 125.237C154.865 124.966 154.53 124.192 154.801 123.508C155.071 122.824 155.845 122.489 156.53 122.76L176.423 130.636C177.107 130.907 177.442 131.68 177.171 132.365C176.964 132.889 176.462 133.208 175.931 133.208Z" fill="black"/>
<path d="M247.952 73.1729C249.716 76.6187 251.335 80.0653 252.872 83.5984C254.398 87.1315 255.846 90.7013 257.094 94.4482L257.549 95.8688C257.626 96.1212 257.744 96.5361 257.806 96.8312C257.869 97.1389 257.935 97.4565 257.971 97.7383C258.148 98.8984 258.178 99.9467 258.198 100.978C258.231 103.032 258.092 104.99 257.921 106.938C257.548 110.828 256.942 114.613 256.108 118.409L252.457 118.004C252.41 114.252 252.374 110.464 252.244 106.769C252.178 104.924 252.073 103.084 251.886 101.349C251.791 100.488 251.652 99.6424 251.49 98.9351C251.452 98.7479 251.403 98.6054 251.36 98.4509C251.308 98.2857 251.285 98.2471 251.213 98.0493L250.711 96.7899C249.319 93.4199 247.753 90.02 246.156 86.6374L241.321 76.4922L247.952 73.1729Z" fill="#E4897B"/>
<path d="M252.509 116.862L250.804 120.051L256.249 121.57C256.249 121.57 257.286 119.005 256.051 116.982L252.509 116.862Z" fill="#E4897B"/>
<path d="M248.716 124.648L253.723 125.044L256.25 121.571L250.804 120.051L248.716 124.648Z" fill="#E4897B"/>
<path d="M225.023 50.1578C224.945 50.5448 224.676 50.8165 224.423 50.7652C224.17 50.7139 224.029 50.359 224.108 49.972C224.186 49.5851 224.455 49.3133 224.708 49.3646C224.961 49.4166 225.102 49.7715 225.023 50.1578Z" fill="#263238"/>
<path d="M224.711 50.8242C224.711 50.8242 223.378 52.8768 222.191 53.7559C222.746 54.5338 223.968 54.4786 223.968 54.4786L224.711 50.8242Z" fill="#DE5753"/>
<path d="M226.875 48.2992C226.812 48.2992 226.75 48.2738 226.704 48.2246C226.011 47.4733 225.187 47.5959 225.151 47.5999C225.028 47.6218 224.906 47.5353 224.885 47.4087C224.864 47.2828 224.949 47.1636 225.074 47.1423C225.118 47.1343 226.174 46.9672 227.045 47.9089C227.132 48.0028 227.126 48.1493 227.032 48.2365C226.988 48.2785 226.932 48.2992 226.875 48.2992Z" fill="#263238"/>
<path d="M236.039 55.5986C235.337 59.1777 234.637 65.7365 237.141 68.1248C237.141 68.1248 236.163 71.7558 229.512 71.7558C222.199 71.7558 226.017 68.1254 226.017 68.1254C230.008 67.1724 229.905 64.2107 229.21 61.4301L236.039 55.5986Z" fill="#E4897B"/>
<path d="M238.146 70.3846C238.674 68.6304 239.256 66.623 238.053 65.9943C236.729 65.3024 229.487 64.5971 226.989 65.8958C224.492 67.1945 225.2 70.7522 225.2 70.7522L238.146 70.3846Z" fill="#263238"/>
<path d="M253.508 236.476C253.007 236.476 252.523 236.4 252.333 236.153C252.254 236.05 252.19 235.87 252.337 235.603C252.414 235.463 252.537 235.372 252.701 235.333C253.42 235.168 254.767 236.091 254.824 236.13C254.862 236.156 254.881 236.201 254.872 236.247C254.864 236.292 254.83 236.328 254.786 236.338C254.535 236.398 254.013 236.476 253.508 236.476ZM252.897 235.543C252.846 235.543 252.798 235.548 252.754 235.558C252.656 235.582 252.585 235.633 252.54 235.714C252.436 235.905 252.498 235.985 252.518 236.012C252.727 236.286 253.727 236.291 254.457 236.167C254.036 235.908 253.342 235.543 252.897 235.543Z" fill="#0082FF"/>
<path d="M254.757 236.341C254.739 236.341 254.719 236.336 254.702 236.327C254.196 236.052 253.217 234.981 253.32 234.435C253.339 234.336 253.412 234.165 253.689 234.13C253.865 234.11 254.035 234.158 254.183 234.28C254.751 234.744 254.868 236.156 254.873 236.216C254.877 236.258 254.857 236.299 254.821 236.322C254.801 236.335 254.779 236.341 254.757 236.341ZM253.769 234.358C253.752 234.358 253.734 234.359 253.717 234.361C253.566 234.379 253.553 234.449 253.547 234.479C253.487 234.802 254.11 235.612 254.613 235.993C254.556 235.58 254.4 234.758 254.035 234.459C253.951 234.391 253.865 234.358 253.769 234.358Z" fill="#0082FF"/>
<path d="M224.127 236.476C223.5 236.476 222.894 236.39 222.69 236.107C222.619 236.009 222.563 235.84 222.7 235.6C222.776 235.466 222.901 235.375 223.068 235.329C223.878 235.113 225.592 236.083 225.664 236.124C225.706 236.147 225.729 236.194 225.721 236.243C225.713 236.29 225.677 236.328 225.629 236.338C225.316 236.4 224.712 236.476 224.127 236.476ZM223.352 235.526C223.271 235.526 223.195 235.535 223.128 235.553C223.021 235.582 222.947 235.635 222.901 235.715C222.818 235.859 222.848 235.93 222.878 235.971C223.099 236.277 224.334 236.293 225.252 236.166C224.798 235.933 223.924 235.526 223.352 235.526Z" fill="#0082FF"/>
<path d="M225.606 236.341C225.59 236.341 225.573 236.338 225.559 236.331C224.968 236.067 223.799 235.009 223.888 234.455C223.909 234.325 224.001 234.163 224.319 234.131C224.556 234.109 224.772 234.174 224.962 234.33C225.585 234.841 225.716 236.159 225.721 236.215C225.725 236.255 225.707 236.296 225.674 236.32C225.653 236.334 225.63 236.341 225.606 236.341ZM224.412 234.358C224.39 234.358 224.366 234.36 224.342 234.362C224.134 234.383 224.121 234.465 224.116 234.492C224.063 234.825 224.857 235.656 225.46 236.017C225.397 235.633 225.223 234.844 224.814 234.508C224.691 234.408 224.56 234.358 224.412 234.358Z" fill="#0082FF"/>
<path d="M230.986 236.226H226.094L225.606 224.896H230.499L230.986 236.226Z" fill="#E4897B"/>
<path d="M260.363 236.226H255.47L253.011 224.896H257.903L260.363 236.226Z" fill="#E4897B"/>
<path d="M255.123 235.658H260.619C260.819 235.658 260.992 235.797 261.036 235.993L262.002 240.342C262.103 240.792 261.748 241.219 261.286 241.211C259.367 241.179 258.435 241.065 256.017 241.065C254.53 241.065 251.466 241.22 249.412 241.22C247.404 241.22 247.091 239.189 247.931 239.006C251.701 238.181 253.121 237.043 254.328 235.959C254.546 235.763 254.83 235.658 255.123 235.658Z" fill="#263238"/>
<path d="M226.126 235.658H231.47C231.67 235.658 231.843 235.797 231.887 235.993L232.853 240.342C232.953 240.792 232.611 241.219 232.149 241.212C230.222 241.179 227.436 241.066 225.014 241.066C222.182 241.066 219.735 241.221 216.413 241.221C214.405 241.221 213.847 239.19 214.689 239.006C218.516 238.169 221.641 238.079 224.949 236.04C225.307 235.818 225.704 235.658 226.126 235.658Z" fill="#263238"/>
<path d="M223.763 76.7183C219.615 76.3939 215.627 75.8571 211.571 75.0972C209.552 74.7096 207.529 74.2761 205.508 73.7319C203.483 73.1891 201.455 72.5738 199.405 71.718C198.893 71.5075 198.376 71.2711 197.859 71.0253C197.211 70.705 196.672 70.372 196.198 70.0563C195.236 69.4209 194.412 68.7656 193.593 68.1122C191.964 66.8075 190.447 65.4516 188.951 64.0809C185.973 61.3264 183.147 58.4752 180.426 55.4755L182.876 52.7383L192.539 59.6827C194.134 60.8328 195.744 61.9557 197.328 63.0153C198.117 63.5395 198.923 64.037 199.657 64.4512C200.029 64.6623 200.36 64.8202 200.616 64.9214C201.012 65.0766 201.413 65.2298 201.834 65.3703C205.217 66.4985 209.042 67.2231 212.841 67.8352C216.644 68.4372 220.574 68.9327 224.369 69.3263L223.763 76.7183Z" fill="#E4897B"/>
<path d="M245.902 69.2307C250.487 70.2823 255.124 83.6895 255.124 83.6895L245.685 90.4601C245.685 90.4601 243.048 84.2157 240.454 78.7545C237.735 73.0322 241.213 68.1557 245.902 69.2307Z" fill="#0082FF"/>
<path opacity="0.4" d="M245.902 69.2307C250.487 70.2823 255.124 83.6895 255.124 83.6895L245.685 90.4601C245.685 90.4601 243.048 84.2157 240.454 78.7545C237.735 73.0322 241.213 68.1557 245.902 69.2307Z" fill="black"/>
<path d="M243.256 76.5566L241.385 80.7458C243.323 84.9283 245.094 89.0708 245.567 90.1763C245.501 85.228 244.562 79.0874 243.256 76.5566Z" fill="#0082FF"/>
<path opacity="0.6" d="M243.256 76.5566L241.385 80.7458C243.323 84.9283 245.094 89.0708 245.567 90.1763C245.501 85.228 244.562 79.0874 243.256 76.5566Z" fill="black"/>
<path d="M218.492 69.4837C218.492 69.4837 213.284 75.3658 218.202 111.773C226.087 111.773 240.534 111.773 244.371 111.773C244.551 107.755 242.027 88.159 245.901 69.2313C245.901 69.2313 241.416 68.3308 237.141 68.125C233.797 67.9639 228.956 67.8573 226.017 68.1257C222.142 68.4794 218.492 69.4837 218.492 69.4837Z" fill="#0082FF"/>
<path opacity="0.4" d="M218.492 69.4837C218.492 69.4837 213.284 75.3658 218.202 111.773C226.087 111.773 240.534 111.773 244.371 111.773C244.551 107.755 242.027 88.159 245.901 69.2313C245.901 69.2313 241.416 68.3308 237.141 68.125C233.797 67.9639 228.956 67.8573 226.017 68.1257C222.142 68.4794 218.492 69.4837 218.492 69.4837Z" fill="black"/>
<path d="M216.556 76.5566C216.383 77.9353 216.25 79.567 216.163 81.4917C218.328 80.819 221.018 79.7401 223.449 78.0685L216.556 76.5566Z" fill="#0082FF"/>
<path opacity="0.6" d="M216.556 76.5566C216.383 77.9353 216.25 79.567 216.163 81.4917C218.328 80.819 221.018 79.7401 223.449 78.0685L216.556 76.5566Z" fill="black"/>
<path d="M227.75 77.2697C224.249 80.3719 210.874 80.0616 210.874 80.0616L210.434 67.1318C210.434 67.1318 218.016 68.2434 224.066 68.1202C231.54 67.969 231.592 73.8651 227.75 77.2697Z" fill="#0082FF"/>
<path opacity="0.4" d="M227.75 77.2697C224.249 80.3719 210.874 80.0616 210.874 80.0616L210.434 67.1318C210.434 67.1318 218.016 68.2434 224.066 68.1202C231.54 67.969 231.592 73.8651 227.75 77.2697Z" fill="black"/>
<path d="M182.995 52.8045L179.637 48.8838L176.052 52.8545C176.052 52.8545 178.259 56.5674 181.774 55.9813L182.995 52.8045Z" fill="#E4897B"/>
<path d="M174.896 44.3115L173.604 49.4277L176.052 52.8556L179.637 48.8843L174.896 44.3115Z" fill="#E4897B"/>
<path d="M225.607 224.898L225.858 230.739H230.752L230.502 224.898H225.607Z" fill="#CE6F64"/>
<path d="M257.905 224.898H253.01L254.28 230.739H259.175L257.905 224.898Z" fill="#CE6F64"/>
<path d="M228.553 45.2951C224.164 43.2671 222.777 34.4147 235.403 36.6071C235.403 36.6071 233.5 38.7164 237.366 40.0484C241.23 41.3797 237.995 49.6587 228.553 45.2951Z" fill="#263238"/>
<path d="M238.089 51.9604C236.832 56.6504 236.335 59.4596 233.44 61.4103C229.086 64.344 223.666 60.9774 223.496 56.0057C223.344 51.5309 225.425 44.6124 230.458 43.6674C235.417 42.7363 239.346 47.2705 238.089 51.9604Z" fill="#E4897B"/>
<path d="M235.231 38.9908C238.218 40.6618 242.269 41.6581 241.862 44.0271C241.365 46.9229 244.311 45.1113 243.625 49.4257C243.177 52.2429 237.981 60.7797 234.323 60.3627C228.825 59.736 229.521 51.3371 229.503 46.9235C229.492 44.3221 229.37 35.7134 235.231 38.9908Z" fill="#263238"/>
<path d="M228.844 42.7305C227.512 43.0448 225.747 50.7225 230.906 51.4258C236.845 52.235 228.844 42.7305 228.844 42.7305Z" fill="#263238"/>
<path d="M228.979 45.4556C227.347 45.5994 223.665 43.6347 224.105 40.6797C224.105 40.6797 226.45 44.1376 228.979 45.4556Z" fill="#263238"/>
<path d="M231.398 52.0387C230.887 53.2035 229.92 54.12 228.984 54.6075C227.576 55.3401 226.786 54.2685 227.104 52.8605C227.391 51.5932 228.469 49.6844 229.916 49.5279C231.343 49.3734 231.982 50.7067 231.398 52.0387Z" fill="#E4897B"/>
<path d="M238.725 46.619C239.713 46.1162 241.964 44.976 242.577 41.7412C242.577 41.7412 244.776 47.8784 238.725 46.619Z" fill="#263238"/>
<path d="M244.283 46.5535C243.79 46.2644 242.669 45.6058 241.096 46.2391C241.096 46.2391 243.146 43.5785 244.283 46.5535Z" fill="#263238"/>
<path d="M227.484 111.771C227.484 111.771 233.037 149.162 236.085 163.17C239.423 178.51 251.999 229.607 251.999 229.607H260.96C260.96 229.607 252.668 179.748 250.763 164.561C248.696 148.077 244.37 111.771 244.37 111.771H227.484Z" fill="#0082FF"/>
<path opacity="0.5" d="M227.484 111.771C227.484 111.771 233.037 149.162 236.085 163.17C239.423 178.51 251.999 229.607 251.999 229.607H260.96C260.96 229.607 252.668 179.748 250.763 164.561C248.696 148.077 244.37 111.771 244.37 111.771H227.484Z" fill="white"/>
<path d="M250.568 226.307C250.531 226.307 251.494 229.748 251.494 229.748H261.575L261.39 226.677L250.568 226.307Z" fill="#0082FF"/>
<path opacity="0.1" d="M250.568 226.307C250.531 226.307 251.494 229.748 251.494 229.748H261.575L261.39 226.677L250.568 226.307Z" fill="black"/>
<path d="M230.994 125.094C237.414 126.353 236.735 150.295 235.962 162.61C234.111 153.905 231.4 137.155 229.549 125.267C229.975 125.054 230.455 124.987 230.994 125.094Z" fill="#0082FF"/>
<path opacity="0.4" d="M230.994 125.094C237.414 126.353 236.735 150.295 235.962 162.61C234.111 153.905 231.4 137.155 229.549 125.267C229.975 125.054 230.455 124.987 230.994 125.094Z" fill="white"/>
<path d="M218.203 111.771C218.203 111.771 217.529 148.353 218.061 163.273C218.614 178.792 224.035 229.608 224.035 229.608H232.323C232.323 229.608 232.628 179.699 232.996 164.458C233.398 147.842 235.404 111.772 235.404 111.772H218.203V111.771Z" fill="#0082FF"/>
<path opacity="0.5" d="M218.203 111.771C218.203 111.771 217.529 148.353 218.061 163.273C218.614 178.792 224.035 229.608 224.035 229.608H232.323C232.323 229.608 232.628 179.699 232.996 164.458C233.398 147.842 235.404 111.772 235.404 111.772H218.203V111.771Z" fill="white"/>
<path d="M225.761 223.655C225.719 223.655 225.683 223.623 225.679 223.58C224.218 209.516 220.773 175.486 220.337 163.278C219.893 150.816 220.296 122.858 220.431 114.586C220.431 114.541 220.469 114.504 220.514 114.504H220.515C220.561 114.505 220.598 114.543 220.597 114.588C220.463 122.86 220.059 150.814 220.503 163.271C220.939 175.475 224.383 209.5 225.844 223.563C225.849 223.608 225.816 223.649 225.77 223.654C225.767 223.655 225.764 223.655 225.761 223.655Z" fill="#0082FF"/>
<path opacity="0.4" d="M225.761 223.655C225.719 223.655 225.683 223.623 225.679 223.58C224.218 209.516 220.773 175.486 220.337 163.278C219.893 150.816 220.296 122.858 220.431 114.586C220.431 114.541 220.469 114.504 220.514 114.504H220.515C220.561 114.505 220.598 114.543 220.597 114.588C220.463 122.86 220.059 150.814 220.503 163.271C220.939 175.475 224.383 209.5 225.844 223.563C225.849 223.608 225.816 223.649 225.77 223.654C225.767 223.655 225.764 223.655 225.761 223.655Z" fill="white"/>
<path d="M222.44 226.307C222.402 226.307 222.907 229.748 222.907 229.748H232.99L233.262 226.677L222.44 226.307Z" fill="#0082FF"/>
<path opacity="0.1" d="M222.44 226.307C222.402 226.307 222.907 229.748 222.907 229.748H232.99L233.262 226.677L222.44 226.307Z" fill="black"/>
</svg>
