<svg width="100" height="88" viewBox="0 0 100 88" fill="none" xmlns="http://www.w3.org/2000/svg">
<g filter="url(#filter0_d_336_21885)">
<path d="M73.8242 94.9173L77.4749 95.3447L86.3087 19.9037L82.6581 19.4762L73.8242 94.9173Z" fill="#6864F4"/>
<path d="M77.4735 95.4543C77.4694 95.4543 77.465 95.4541 77.4609 95.4535L73.81 95.0262C73.7508 95.0192 73.7081 94.9655 73.7148 94.906L82.5465 19.4638C82.5534 19.4044 82.6052 19.3606 82.6669 19.3686C86.5095 19.8304 86.3366 19.7692 86.3901 19.8364C86.4452 19.9063 86.8087 16.4309 77.5811 95.3586C77.5777 95.3872 77.5631 95.4132 77.5407 95.4309C77.5214 95.4461 77.4977 95.4543 77.4735 95.4543ZM73.943 94.8234L77.3786 95.2256L86.1851 19.9987L82.7495 19.5966L73.943 94.8234Z" fill="#2F2F3F"/>
<path d="M27.8081 13.0565L18.9741 88.4985L22.624 88.9259L31.458 13.4838L27.8081 13.0565Z" fill="#6864F4"/>
<path d="M18.9625 88.6056C18.9031 88.5987 18.8604 88.5449 18.8673 88.4855C28.1022 9.70289 27.6398 12.928 27.8197 12.9468L31.4696 13.3742C31.529 13.3811 31.5717 13.4349 31.5648 13.4943C22.2977 92.5522 22.7606 88.9563 22.6924 89.0104C22.624 89.0644 22.7797 89.0376 18.9625 88.6056ZM19.0955 88.4029L22.5303 88.805L31.3368 13.5769L27.9023 13.1748L19.0955 88.4029Z" fill="#2F2F3F"/>
<path d="M30.1477 92.0254C30.9661 94.2057 64.6311 98.3758 65.7873 96.1976C65.7873 96.1976 74.184 91.3827 72.2327 80.4641C70.9758 73.4419 63.1962 64.8737 57.8047 59.6515C56.5103 58.3978 55.872 56.6163 56.0814 54.8253C56.2985 52.9703 57.3732 51.4173 58.8707 50.5273C65.3204 46.6934 74.873 40.1503 77.7181 33.6062C82.1406 23.4338 75.0829 16.8096 75.0829 16.8096C74.2666 14.635 40.6016 10.4551 39.4456 12.6374C39.4456 12.6374 31.049 17.4523 32.9982 28.3706C34.2548 35.3949 42.0342 43.9651 47.4239 49.185C50.1869 51.8577 49.6085 56.3788 46.36 58.3095C39.908 62.1452 30.3577 68.6867 27.5128 75.2288C23.0921 85.4015 30.1477 92.0254 30.1477 92.0254Z" fill="#E6EBFD"/>
<path d="M61.2971 24.0172C56.2961 23.7283 50.7577 24.1436 44.8545 25.0379C44.8545 25.0379 56.8941 34.9685 57.2357 35.0336C57.5777 35.0966 70.9145 34.9114 70.9145 34.9114C70.9145 34.9114 73.613 33.9074 73.9719 33.8094L77.1661 28.8206C74.0655 26.6318 70.3379 25.2656 66.1143 24.5496" fill="#FFCB64"/>
<path d="M58.1778 35.1544C57.6208 35.1544 57.2704 35.1503 57.2158 35.14C56.8641 35.0731 46.7992 26.7825 44.7852 25.1212C44.7131 25.0615 44.7456 24.9442 44.8379 24.9303C51.1824 23.9693 56.5677 23.6349 61.3031 23.9086C61.3628 23.912 61.4083 23.9632 61.405 24.0231C61.4014 24.0831 61.3535 24.1288 61.2905 24.125C56.6308 23.8556 51.336 24.1775 45.1106 25.1083C49.8682 29.0312 56.8996 34.7757 57.2668 34.9298C57.5606 34.9746 66.2986 34.8668 70.8936 34.803C71.1387 34.7119 73.4366 33.8585 73.9018 33.7165L77.0181 28.8491C74.0793 26.7969 70.4052 25.3865 66.0954 24.656C66.0365 24.646 65.9966 24.5899 66.0066 24.531C66.0169 24.4718 66.074 24.434 66.1317 24.4422C70.5151 25.1853 74.2486 26.6282 77.2277 28.7315C77.2751 28.7649 77.288 28.8298 77.2566 28.8787C73.8565 34.1695 74.0762 33.8927 73.9995 33.9138C73.6496 34.0095 70.9785 35.0026 70.9517 35.0127C70.9401 35.0171 70.9278 35.0194 70.9152 35.0194C69.7677 35.0356 61.1127 35.1544 58.1778 35.1544Z" fill="#2F2F3F"/>
<path d="M34.637 23.8416C34.5205 25.1059 34.5637 26.504 34.8398 28.0423C35.7241 32.9941 40.6568 40.0284 48.7251 47.8438C50.0818 49.1552 50.8987 50.9323 51.0389 52.7894C51.1017 53.6292 51.7344 54.3161 52.5721 54.4142L52.6588 54.4242C53.4986 54.5225 54.2733 53.9984 54.5285 53.1936C55.1236 51.3161 56.3663 49.8434 57.915 48.9216C63.7181 45.4729 73.3227 39.0301 76.0052 32.8593C76.6265 31.4282 76.9916 30.078 77.1661 28.8203C53.0167 43.9685 53.3679 20.8346 34.637 23.8416Z" fill="#FFAA00"/>
<path d="M47.9207 76.708L60.3016 84.9196C60.3016 84.9196 66.29 83.3471 67.4275 83.0098L70.0207 79.2953C63.3647 76.1698 56.0433 75.1635 47.9207 76.708Z" fill="#FFCB64"/>
<path d="M47.8609 76.7982C47.7801 76.7447 47.8053 76.6197 47.9005 76.6014C55.7594 75.1076 63.2172 75.9806 70.067 79.1972C70.1272 79.2255 70.1485 79.3017 70.1097 79.3575C67.3603 83.2801 67.527 83.0933 67.4583 83.1136C66.3319 83.4476 60.3891 85.0088 60.3291 85.0245C60.2396 85.0482 61.0282 85.5136 47.8609 76.7982ZM48.2036 76.7653L60.3211 84.8022C60.8797 84.6553 66.2097 83.2536 67.3603 82.916L69.8581 79.3387C63.159 76.2227 55.8747 75.3569 48.2036 76.7653Z" fill="#2F2F3F"/>
<path d="M57.9387 78.0959C54.6688 77.8268 51.2559 78.013 47.6886 78.6913L60.0696 86.9029C60.0696 86.9029 66.0577 85.3303 67.1955 84.993L69.7887 81.2786C66.7733 79.8627 63.621 78.8817 60.3197 78.3758" fill="#FFAA00"/>
<path d="M47.6285 78.7813C47.5477 78.7278 47.5729 78.6028 47.6681 78.5845C51.1827 77.9163 54.6404 77.7156 57.9473 77.9876C58.007 77.9925 58.0512 78.045 58.0464 78.1047C58.0415 78.1646 57.9846 78.2086 57.9295 78.204C54.7253 77.9397 51.3764 78.1232 47.9712 78.7487L60.089 86.7856C60.6475 86.6387 65.9775 85.2372 67.1281 84.8997L69.6259 81.3221C66.6249 79.9263 63.4888 78.971 60.303 78.4829C60.2439 78.4739 60.2032 78.4186 60.2125 78.3594C60.2215 78.3002 60.2763 78.2603 60.3362 78.2686C63.5837 78.7662 66.7795 79.7459 69.8348 81.1803C69.895 81.2086 69.9164 81.2848 69.8775 81.3406L67.2843 85.0551C67.2702 85.0751 67.2498 85.0901 67.2262 85.097C66.0998 85.431 60.1569 86.9922 60.0969 87.0076C60.0074 87.0316 60.7957 87.4967 47.6285 78.7813Z" fill="#2F2F3F"/>
<path d="M31.4338 90.6695L31.6144 90.8412C32.9211 91.471 38.9474 92.8248 48.7544 93.9731C58.0477 95.0612 63.1155 95.0604 64.4838 94.7898L64.8581 94.5762C65.0784 94.4453 69.2084 91.9524 70.3582 86.5442C70.8674 84.1635 70.6999 81.4715 70.0209 79.2951C48.6415 88.3629 48.5252 66.6658 29.9369 74.6024C29.6605 75.0699 29.4228 75.5273 29.2283 75.9753C25.4099 84.7583 31.1878 90.4316 31.4338 90.6695Z" fill="#FFBB32"/>
<path d="M31.4339 90.6695L31.6145 90.8411C32.9213 91.4709 38.9475 92.8248 48.7546 93.9731C58.0478 95.0611 63.1156 95.0604 64.4839 94.7897L64.8583 94.5761C65.0785 94.4452 69.2085 91.9523 70.3583 86.5441C61.928 87.448 50.7102 88.1133 43.5869 86.4093C30.9563 83.3849 29.9367 74.6021 29.9367 74.6021C29.6604 75.0695 29.4226 75.527 29.2281 75.9749C25.41 84.7583 31.1879 90.4315 31.4339 90.6695Z" fill="#FFAA00"/>
<path d="M51.9054 87.5142C51.1768 87.4589 47.2503 87.3971 43.5618 86.5146C34.7543 84.4056 31.5631 79.4847 30.4449 76.7392C30.4223 76.6839 30.4491 76.6206 30.5044 76.5979C30.5594 76.5753 30.6232 76.6018 30.6456 76.6574C31.7484 79.3643 34.8991 84.2173 43.6122 86.3036C45.8398 86.8365 48.6317 87.171 51.9095 87.2973C51.9695 87.2996 52.016 87.35 52.0137 87.4097C52.0114 87.4684 51.9633 87.5142 51.9054 87.5142Z" fill="#2F2F3F"/>
<path d="M53.8861 87.5655C53.7456 87.5634 53.7407 87.3506 53.8892 87.3486C56.0816 87.3787 58.498 87.3252 61.0712 87.1911C61.1301 87.1875 61.182 87.2341 61.1851 87.2938C61.1882 87.3535 61.1424 87.4044 61.0827 87.4077C58.7159 87.5307 56.255 87.5974 53.8861 87.5655Z" fill="#2F2F3F"/>
<path d="M61.8247 95.0492C59.313 95.0492 55.105 94.8262 48.7418 94.0813C38.4883 92.8808 32.7659 91.5172 31.5672 90.9393C31.5456 90.9288 31.5577 90.9373 31.3583 90.7479C31.109 90.5068 25.2976 84.7441 29.1287 75.9324C29.3198 75.4925 29.5604 75.0268 29.8434 74.5477C29.855 74.5279 29.8727 74.5122 29.8941 74.5032C48.5661 66.5311 48.6574 88.2396 69.9784 79.1956C70.0381 79.1709 70.1052 79.2023 70.1243 79.2633C70.2874 79.7858 70.414 80.294 70.5004 80.7738C71.3961 85.7948 69.8186 89.3135 68.3377 91.3811C66.8053 93.5207 65.1025 94.5591 64.9134 94.6705C64.5159 94.8951 64.5362 94.8908 64.5048 94.8969C64.0739 94.9818 63.2055 95.0492 61.8247 95.0492ZM31.6768 90.7512C32.8954 91.3268 38.5832 92.6737 48.767 93.866C57.2956 94.8645 62.8631 94.9916 64.4454 94.6872L64.8043 94.4827C64.8769 94.44 66.6288 93.3941 68.1612 91.2547C69.6177 89.2211 71.1691 85.7585 70.2866 80.8119C70.2082 80.3761 70.0957 79.9158 69.9522 79.4421C48.6335 88.4104 48.459 66.8375 30.0119 74.6887C29.741 75.1492 29.5107 75.5967 29.3273 76.0189C25.5585 84.688 31.2557 90.347 31.5083 90.5917L31.6768 90.7512Z" fill="#2F2F3F"/>
<path d="M61.8254 96.9235C53.0683 96.9235 30.9508 93.9917 30.0564 92.0898C29.6725 91.7139 23.1176 85.0691 27.4125 75.1869C30.1948 68.7874 39.221 62.4259 46.3032 58.2162C47.8147 57.3177 48.8388 55.7413 49.0428 53.9992C49.2468 52.2568 48.6141 50.4862 47.3506 49.263C41.4324 43.5335 34.12 35.2614 32.8907 28.3902C31.0032 17.82 38.8549 12.8664 39.3646 12.5582C39.7894 11.9052 42.696 11.747 48.0075 12.0879C58.0049 12.7298 74.4058 15.1141 75.1738 16.7469C75.5577 17.1228 82.1124 23.7678 77.8177 33.6497C75.0354 40.0495 66.0092 46.4107 58.9271 50.6205C57.4155 51.5189 56.3912 53.0954 56.1874 54.8375C55.9834 56.5798 56.6158 58.3502 57.8794 59.5736C63.7975 65.3032 71.1099 73.5753 72.3393 80.4464C74.2267 91.0166 66.375 95.97 65.8656 96.2782C65.5862 96.7081 64.2318 96.9235 61.8254 96.9235ZM43.3976 12.1306C40.2638 12.1306 39.6438 12.4913 39.5396 12.6881C39.53 12.7062 39.5154 12.7211 39.4976 12.7314C39.4143 12.7792 31.1911 17.6381 33.1043 28.3521C34.3233 35.1664 41.6064 43.3999 47.5014 49.1071C48.813 50.3771 49.4699 52.2154 49.2581 54.0244C49.0464 55.8332 47.983 57.4698 46.4138 58.4024C39.3592 62.596 30.3703 68.9268 27.6114 75.2731C23.273 85.2554 30.1519 91.8821 30.2219 91.948C30.2339 91.9593 30.2435 91.9732 30.2491 91.9889C30.7712 93.3793 46.5335 95.8449 57.2336 96.5321C64.4379 96.9945 65.5481 96.4179 65.6909 96.1485C65.7166 96.0999 74.0541 91.2814 72.126 80.4848C70.9067 73.6705 63.6236 65.4367 57.7289 59.7295C56.4169 58.4596 55.7603 56.6212 55.9721 54.8122C56.1841 53.0035 57.2472 51.3669 58.8164 50.434C65.871 46.2407 74.8597 39.9098 77.6188 33.5633C81.9572 23.5812 75.0786 16.9545 75.0086 16.8886C74.9965 16.8773 74.9873 16.8634 74.9816 16.8477C74.3572 15.1859 52.6098 12.1306 43.3976 12.1306Z" fill="#2F2F3F"/>
<path d="M24.2774 11.8574C24.4102 12.8331 24.5424 13.8108 24.6749 14.7862C24.7863 15.6213 25.5495 16.2126 26.3836 16.1094C46.8617 13.579 67.6455 16.0121 86.9854 23.2041C87.7732 23.4972 88.6521 23.0981 88.9534 22.3113C90.8357 17.4316 89.2431 21.5608 90.0168 19.5535C90.3283 18.7492 89.919 17.852 89.1114 17.5505C72.4818 11.3619 54.8271 8.53585 37.1704 9.19193C33.3178 9.33293 29.4644 9.64322 25.621 10.1177C24.7655 10.2247 24.1598 11.0027 24.2774 11.8574Z" fill="#6864F4"/>
<path d="M24.2774 11.8574C24.4102 12.833 24.5424 13.8107 24.6749 14.7861C24.7863 15.6213 25.5495 16.2125 26.3836 16.1094C46.8617 13.5789 67.6455 16.0121 86.9854 23.2041C87.7732 23.4972 88.6521 23.0981 88.9534 22.3113C89.2537 21.5328 89.5539 20.7545 89.8542 19.9759C82.9385 17.8569 73.6746 14.8468 67.3182 14.2504C44.197 12.081 29.795 15.0365 29.7736 12.0743C29.7631 10.6108 33.4423 9.71754 37.1704 9.19189C33.3178 9.33289 29.4644 9.64318 25.621 10.1176C24.7655 10.2247 24.1598 11.0027 24.2774 11.8574Z" fill="#413DEA"/>
<path d="M86.9469 23.3065C67.7074 16.151 46.7702 13.6999 26.3978 16.2179C25.5097 16.3283 24.6874 15.6928 24.5665 14.8021L24.1692 11.8718C24.0457 10.96 24.691 10.1246 25.608 10.0111C46.9874 7.36463 68.9591 9.937 89.1493 17.4498C90.0138 17.7717 90.4507 18.7324 90.1193 19.5925L89.0559 22.352C88.7322 23.1907 87.7859 23.6186 86.9469 23.3065ZM87.0223 23.1032C87.7517 23.3744 88.5724 23.0026 88.8534 22.274L89.9168 19.5146C90.2044 18.7692 89.8265 17.933 89.0734 17.6531C68.9158 10.1524 46.9791 7.5841 25.6345 10.2262C24.8379 10.325 24.2765 11.05 24.384 11.8427L24.7813 14.773C24.8863 15.5464 25.6013 16.0983 26.3711 16.0028C46.8603 13.4701 67.8278 15.9643 87.0223 23.1032Z" fill="#2F2F3F"/>
<path d="M16.1188 91.2865C36.378 98.8266 58.1562 101.376 79.6092 98.7193C80.4644 98.6143 81.0703 97.8339 80.9525 96.9815C80.8203 96.0038 80.6875 95.0285 80.5552 94.0508C80.4436 93.2179 79.6807 92.6244 78.8466 92.7275C78.5854 92.7597 78.3269 92.79 78.0704 92.8186C57.761 95.2078 37.2592 92.7051 18.2448 85.633C17.457 85.34 16.5776 85.7411 16.2765 86.5258C16.1944 86.7373 15.3315 88.9765 15.2129 89.2858C14.9016 90.0877 15.3109 90.987 16.1188 91.2865Z" fill="#6864F4"/>
<path d="M16.1187 91.2864C36.3779 98.8265 58.1561 101.376 79.6091 98.7192C80.4643 98.6142 81.0702 97.8339 80.9524 96.9815C80.8201 96.0038 80.6874 95.0284 80.5551 94.0507C80.4435 93.2178 79.6806 92.6243 78.8465 92.7274C78.5853 92.7596 78.3267 92.79 78.0702 92.8185C71.7607 93.5608 65.4227 93.8333 59.1083 93.6357C59.1937 94.5305 58.655 95.8291 56.0378 96.1731C52.9365 96.5796 24.2691 90.9689 15.9103 87.4741C15.6785 88.0785 15.4448 88.6808 15.213 89.2854C14.9015 90.0877 15.3108 90.9869 16.1187 91.2864Z" fill="#413DEA"/>
<path d="M63.1717 99.8384C47.1393 99.8384 31.1171 96.9838 16.0809 91.3885C15.2151 91.0664 14.7798 90.1044 15.1109 89.2458L16.1746 86.4867C16.4977 85.6479 17.4433 85.2203 18.2833 85.5321C37.5229 92.6878 58.4608 95.1388 78.8324 92.6207C79.7236 92.5088 80.5428 93.1458 80.6635 94.0365L81.061 96.9668C81.1848 97.8786 80.5392 98.7141 79.6222 98.8275C74.1652 99.5029 68.6666 99.8384 63.1717 99.8384ZM16.3768 86.5646L15.3134 89.3238C15.0258 90.0694 15.404 90.9053 16.1566 91.1853C36.3141 98.6863 58.2513 101.254 79.5955 98.6122C80.3921 98.5134 80.9535 97.7886 80.8462 96.9956L80.4487 94.0656C80.3437 93.2919 79.6284 92.7401 78.8589 92.8358C58.6115 95.3387 37.6325 92.96 18.2077 85.7354C17.4801 85.4645 16.6578 85.8352 16.3768 86.5646Z" fill="#2F2F3F"/>
<path d="M34.6369 23.8413C34.5203 25.1056 34.5636 26.5037 34.8396 28.0421C35.7239 32.9938 40.6567 40.0281 48.725 47.8435C50.0817 49.1549 50.8986 50.932 51.0388 52.7891C51.1016 53.6289 51.7343 54.3159 52.572 54.4139L52.6587 54.4239C53.4985 54.5222 54.2732 53.9981 54.5284 53.1933C55.1235 51.3159 56.3662 49.8432 57.9148 48.9213C60.4257 47.429 62.7192 45.9386 64.7716 44.4679C45.0056 41.3259 34.6369 23.8413 34.6369 23.8413Z" fill="#FFBB32"/>
<path d="M52.6462 54.5318L52.5595 54.5215C51.6827 54.4188 50.9978 53.6935 50.9309 52.7971C50.7904 50.939 49.9805 49.2074 48.6498 47.9212C40.5637 40.0888 35.6214 33.0355 34.733 28.0609C34.4726 26.6095 34.4039 25.1864 34.529 23.8313C34.5388 23.7271 34.6767 23.6957 34.7302 23.786C34.7474 23.8148 36.4867 26.7237 39.8181 30.326C39.8587 30.37 39.8559 30.4385 39.8121 30.4791C39.7682 30.5195 39.6997 30.5169 39.6591 30.4732C36.9102 27.5007 35.2386 24.9955 34.7189 24.1781C34.6342 25.4152 34.7106 26.707 34.9466 28.0228C35.827 32.9532 40.7474 39.9646 48.8005 47.7656C50.1693 49.0886 51.0027 50.8698 51.147 52.7809C51.2062 53.5741 51.8108 54.2155 52.5847 54.3061L52.6714 54.3164C53.4482 54.4075 54.1838 53.9209 54.4251 53.1607C55.0187 51.2879 56.2604 49.7799 57.8594 48.8284C60.3523 47.347 62.6566 45.8503 64.7084 44.3799C64.7566 44.3449 64.8245 44.356 64.8597 44.4049C64.8947 44.4535 64.8834 44.5212 64.8348 44.5562C62.7777 46.0302 60.4683 47.5304 57.9703 49.0147C56.4245 49.9345 55.2119 51.3957 54.6317 53.2263C54.3595 54.0841 53.5256 54.6347 52.6462 54.5318Z" fill="#2F2F3F"/>
<path d="M58.3803 42.9964C52.6328 41.0449 47.2477 37.7495 42.3741 33.2019C42.3304 33.161 42.3281 33.0923 42.3687 33.0486C42.4096 33.0048 42.4783 33.0025 42.5221 33.0432C47.3727 37.5697 52.7318 40.8491 58.4501 42.7908C58.5067 42.8101 58.537 42.8716 58.5177 42.9285C58.4987 42.9853 58.4369 43.0154 58.3803 42.9964Z" fill="#2F2F3F"/>
<path d="M52.6462 54.5325L52.5595 54.5222C51.6827 54.4195 50.9978 53.6943 50.9309 52.7979C50.7904 50.9397 49.9805 49.2082 48.6498 47.922C40.5637 40.0896 35.6214 33.0363 34.733 28.0616C34.4726 26.6102 34.4039 25.1872 34.529 23.832C34.5336 23.7826 34.5709 23.7428 34.6198 23.735C42.4633 22.4753 46.9656 25.764 51.3196 28.9441C57.3657 33.36 63.0762 37.5311 77.1085 28.7293C77.1857 28.6806 77.286 28.7444 77.2734 28.836C77.0874 30.1773 76.694 31.5456 76.1045 32.9033C73.4102 39.1016 63.7876 45.5585 57.9703 49.0157C56.4245 49.9355 55.2119 51.3967 54.6317 53.2273C54.3595 54.0848 53.5256 54.6354 52.6462 54.5325ZM34.7374 23.936C34.6247 25.2466 34.6949 26.6216 34.9463 28.0235C35.8267 32.9539 40.7471 39.9653 48.8003 47.7663C50.1691 49.0896 51.0024 50.8705 51.1468 52.7816C51.2059 53.5749 51.8106 54.2163 52.5845 54.3069L52.6712 54.3172C53.4479 54.4082 54.1835 53.9217 54.4249 53.1614C55.022 51.2775 56.2704 49.7747 57.8592 48.8292C63.6541 45.3854 73.2381 38.9532 75.9054 32.8168C76.4534 31.5553 76.8293 30.2848 77.0246 29.0372C71.0426 32.7584 66.5666 34.1262 62.929 34.1267C58.047 34.1272 54.675 31.6634 51.1915 29.1193C46.8889 25.9768 42.4396 22.7275 34.7374 23.936Z" fill="#2F2F3F"/>
<path d="M72.4214 21.675C72.4214 22.3375 71.884 22.8749 71.2215 22.8749C70.5585 22.8749 70.0211 22.3375 70.0211 21.675C70.0211 21.012 70.5585 20.4751 71.2215 20.4751C71.884 20.4748 72.4214 21.0117 72.4214 21.675Z" fill="#E6EBFD"/>
<path d="M93.3559 50.9194C95.0366 51.2022 96.6639 51.8191 98.2585 52.4081C99.8504 52.9963 101.424 53.6276 102.978 54.308C103.38 54.4843 103.032 55.0691 102.634 54.897C101.069 54.2226 99.4924 53.575 97.8992 52.971C96.3483 52.3828 94.7496 51.882 93.2534 51.1626C93.1072 51.0936 93.2179 50.8961 93.3559 50.9194Z" fill="#FFAA00"/>
<path d="M95.1131 58.5139C94.6103 58.2652 94.1355 57.9571 93.6695 57.6462C93.2213 57.347 92.7527 57.0648 92.3284 56.7321C92.0797 56.5367 92.3981 56.1479 92.6611 56.301C93.1441 56.5825 93.5957 56.9343 94.0555 57.2534C94.4941 57.5574 94.9321 57.8764 95.329 58.2344C95.4861 58.3759 95.2866 58.5993 95.1131 58.5139Z" fill="#FFAA00"/>
<path d="M94.4585 67.5239C93.1665 66.4205 92.0351 65.1648 90.9209 63.8845C90.3791 63.2621 89.8475 62.6308 89.327 61.9907C89.0598 61.662 88.7968 61.3307 88.5365 60.9973C88.2837 60.6728 88.0022 60.364 87.8424 59.9827C87.7208 59.6931 88.1225 59.5619 88.309 59.7108C88.6335 59.9698 88.8624 60.3585 89.1158 60.6844C89.3632 61.0021 89.6125 61.3177 89.8639 61.6313C90.3798 62.2762 90.9065 62.9123 91.4435 63.5395C92.5195 64.7959 93.6571 65.9935 94.716 67.2643C94.8677 67.446 94.6388 67.6776 94.4585 67.5239Z" fill="#FFAA00"/>
<path d="M95.3482 47.2275C95.5716 47.153 95.7697 47.0355 96.0047 46.9693C96.2493 46.9003 96.5103 46.8593 96.7638 46.8306C97.1627 46.7848 97.8856 46.6625 98.1814 47C98.2736 47.1052 98.2463 47.2302 98.1411 47.3109C97.9553 47.4536 97.7544 47.4215 97.531 47.4079C97.2967 47.3935 97.0623 47.3935 96.8273 47.3935C96.593 47.3935 96.3607 47.4051 96.127 47.4127C95.8968 47.4195 95.6255 47.3819 95.3987 47.4133C95.2792 47.4304 95.2272 47.2678 95.3482 47.2275Z" fill="#FFAA00"/>
<path d="M96.8108 41.889C97.6436 41.8282 98.4573 41.7538 99.2942 41.7654C100.144 41.777 100.994 41.8029 101.843 41.8474C103.518 41.9348 105.19 42.0796 106.853 42.2955C107.301 42.3536 107.307 43.0662 106.853 43.0074C105.188 42.7915 103.518 42.6166 101.843 42.5066C101.016 42.4527 100.189 42.4096 99.3611 42.3823C98.5078 42.3543 97.6627 42.2723 96.8108 42.2299C96.5901 42.219 96.5921 41.9047 96.8108 41.889Z" fill="#FFAA00"/>
<path d="M98.6596 36.2959C99.1454 36.2932 99.6448 36.2323 100.131 36.1996C100.502 36.1743 101.112 35.9543 101.432 36.1934C101.51 36.2515 101.557 36.3546 101.498 36.4469C101.257 36.8288 100.595 36.7755 100.194 36.7919C99.6407 36.8144 99.1508 36.7188 98.6173 36.602C98.4444 36.5637 98.4868 36.2973 98.6596 36.2959Z" fill="#FFAA00"/>
<path d="M98.3202 31.5093C98.7055 31.223 99.2009 31.0269 99.6408 30.8377C100.114 30.6348 100.593 30.4476 101.073 30.2638C102.055 29.8901 103.045 29.541 104.043 29.2164C105.02 28.8987 106.008 28.6118 107.001 28.3467C108.009 28.0769 109.033 27.7886 110.064 27.6225C110.493 27.5535 110.688 28.1732 110.247 28.29C109.255 28.5537 108.244 28.7478 107.249 29.0074C106.254 29.267 105.267 29.5533 104.285 29.858C103.304 30.1627 102.33 30.4892 101.365 30.8411C100.902 31.0091 100.442 31.1834 99.9817 31.3576C99.4987 31.5407 98.9761 31.7702 98.4664 31.857C98.2498 31.8939 98.1446 31.6397 98.3202 31.5093Z" fill="#FFAA00"/>
<path d="M98.8126 26.337C98.9977 26.2523 99.1548 26.1184 99.3332 26.0193C99.5306 25.91 99.7315 25.8075 99.9323 25.7051C100.294 25.5206 100.66 25.2671 101.048 25.1489C101.297 25.0731 101.509 25.4168 101.308 25.5951C101.002 25.867 100.575 26.0262 100.199 26.1785C100.008 26.2557 99.8148 26.3227 99.6167 26.3787C99.3721 26.4477 99.1282 26.447 98.8822 26.5044C98.7866 26.527 98.7135 26.3821 98.8126 26.337Z" fill="#FFAA00"/>
<path d="M97.8575 22.2323C99.5825 20.9663 101.352 19.7673 103.119 18.5608C103.982 17.9712 104.849 17.3877 105.718 16.805C106.171 16.501 106.624 16.1976 107.076 15.8936C107.506 15.6053 107.937 15.2446 108.416 15.0471C108.744 14.9118 108.965 15.3908 108.745 15.6135C108.384 15.9797 107.871 16.2386 107.444 16.5242C107.01 16.8152 106.576 17.1056 106.141 17.3966C105.254 17.9903 104.366 18.584 103.475 19.1702C101.692 20.3433 99.9139 21.5218 98.0918 22.6333C97.8315 22.7932 97.6218 22.4058 97.8575 22.2323Z" fill="#FFAA00"/>
<path d="M96.025 16.8952C96.3885 16.4245 96.7492 15.9654 97.1687 15.5425C97.3703 15.3396 97.58 15.1435 97.7938 14.9522C98.0049 14.7636 98.1696 14.5662 98.46 14.5402C98.5973 14.5279 98.7025 14.6857 98.6649 14.8094C98.5877 15.0608 98.3766 15.1777 98.1833 15.3409C97.964 15.5261 97.7508 15.7181 97.5411 15.9141C97.1236 16.3029 96.7028 16.6998 96.3202 17.1227C96.1801 17.2785 95.8932 17.066 96.025 16.8952Z" fill="#FFAA00"/>
<path d="M92.8313 12.852C93.5084 11.4993 94.3562 10.2566 95.2532 9.03978C95.6823 8.45769 96.1223 7.88312 96.5759 7.32085C97.0589 6.72305 97.5351 6.08768 98.1186 5.58484C98.3871 5.35324 98.8701 5.6559 98.6426 5.9893C98.2361 6.58573 97.7319 7.10838 97.2714 7.66313C96.7829 8.25137 96.3026 8.84644 95.8394 9.45517C94.9356 10.6419 94.0945 11.8751 93.1941 13.0645C93.0342 13.2763 92.7076 13.0993 92.8313 12.852Z" fill="#FFAA00"/>
<path d="M86.4086 8.71286C86.7065 8.21344 87.07 7.75775 87.4375 7.30752C87.8181 6.84158 88.1843 6.35309 88.5921 5.91038C88.8197 5.66374 89.2726 5.99715 89.0656 6.27589C88.7179 6.74457 88.3223 7.18181 87.9479 7.62931C87.5612 8.09183 87.1711 8.55231 86.7195 8.95266C86.5569 9.09682 86.2891 8.91372 86.4086 8.71286Z" fill="#FFAA00"/>
<path d="M81.9656 6.66576C82.7137 4.01222 83.7454 1.44476 84.419 -1.22996C84.5017 -1.55926 84.5686 -1.8913 84.6424 -2.22265C84.7005 -2.48363 84.7237 -2.80883 84.8672 -3.03634C84.9519 -3.17093 85.2033 -3.20987 85.2771 -3.03634C85.4773 -2.56562 85.2634 -1.90086 85.1507 -1.42536C84.9874 -0.734644 84.7872 -0.0528114 84.5768 0.624922C84.1238 2.0856 83.6217 3.53125 83.0867 4.96391C82.8599 5.57265 82.6167 6.17454 82.3947 6.78532C82.299 7.04972 81.8871 6.94587 81.9656 6.66576Z" fill="#FFAA00"/>
<path d="M75.109 4.95424C74.9703 4.34687 74.9826 3.73882 75.0626 3.12326C75.1336 2.57397 75.2368 1.9427 75.6071 1.50955C75.7164 1.38111 75.9125 1.49247 75.9193 1.63867C75.9439 2.15722 75.7444 2.69558 75.6563 3.2032C75.5593 3.76615 75.5312 4.33799 75.4677 4.90504C75.4472 5.09497 75.1589 5.17218 75.109 4.95424Z" fill="#FFAA00"/>
<path d="M68.9287 3.47058C68.7518 2.01946 68.9533 0.499348 69.1064 -0.944934C69.1938 -1.7716 69.2901 -2.59827 69.4179 -3.41948C69.5101 -4.01386 69.5778 -4.72371 69.8736 -5.25797C69.9897 -5.46771 70.3129 -5.36865 70.3156 -5.13841C70.3238 -4.54334 70.1612 -3.90933 70.0724 -3.32178C69.9487 -2.50126 69.8367 -1.67937 69.7417 -0.854752C69.5771 0.582698 69.437 2.02698 69.3386 3.47058C69.3209 3.73908 68.9602 3.72883 68.9287 3.47058Z" fill="#FFAA00"/>
<path d="M60.8198 2.68623C60.6395 1.94155 60.5103 0.984387 60.9278 0.287524C61.0234 0.127656 61.2612 0.200758 61.2687 0.379756C61.2851 0.748684 61.186 1.13674 61.1573 1.50703C61.1286 1.88484 61.0924 2.2688 61.1061 2.64729C61.1122 2.81126 60.8588 2.8461 60.8198 2.68623Z" fill="#FFAA00"/>
<path d="M55.1965 1.2162C55.1234 -0.177527 55.081 -1.56579 55.0598 -2.96224C55.0482 -3.75339 55.053 -4.54522 55.0509 -5.33636C55.0503 -5.67044 55.0564 -6.00521 55.0605 -6.3393C55.0639 -6.60574 55.0468 -6.87014 55.1275 -7.12702C55.2135 -7.40167 55.5989 -7.40167 55.6856 -7.12702C55.7662 -6.87014 55.7492 -6.60643 55.7526 -6.3393C55.7567 -6.00521 55.7628 -5.67044 55.7622 -5.33636C55.7608 -4.54522 55.7656 -3.75339 55.7533 -2.96224C55.7321 -1.56647 55.6897 -0.177527 55.6166 1.2162C55.6023 1.48674 55.2108 1.48674 55.1965 1.2162Z" fill="#FFAA00"/>
<path d="M45.9993 -0.219508C45.9816 -0.582286 45.9563 -0.945065 45.9508 -1.30853C45.9454 -1.63851 45.9194 -1.99582 46.0369 -2.30941C46.0902 -2.4522 46.274 -2.4522 46.328 -2.30941C46.4455 -1.99582 46.4195 -1.63783 46.414 -1.30853C46.4079 -0.945065 46.3833 -0.582286 46.3655 -0.219508C46.3539 0.0155122 46.0116 0.0161955 45.9993 -0.219508Z" fill="#FFAA00"/>
<path d="M27.4081 0.256301C26.6423 -0.767814 25.7753 -1.72224 24.8817 -2.63568C24.4403 -3.08659 23.9819 -3.52042 23.5077 -3.93649C23.2707 -4.14487 23.0275 -4.34504 22.7842 -4.54659C22.5643 -4.729 22.2787 -4.90322 22.1414 -5.15668C22.0355 -5.35208 22.2097 -5.57958 22.4262 -5.52698C22.7125 -5.45797 22.9591 -5.21134 23.1853 -5.03029C23.4306 -4.83285 23.6683 -4.62447 23.9026 -4.41473C24.4021 -3.9686 24.8837 -3.50198 25.3456 -3.01622C26.246 -2.06999 27.0214 -1.02606 27.7408 0.0615888C27.8802 0.272697 27.553 0.450329 27.4081 0.256301Z" fill="#FFAA00"/>
<path d="M21.9303 3.70465C21.4028 3.5236 20.8972 3.28858 20.4313 2.98114C20.0323 2.71743 19.4748 2.36285 19.3116 1.89281C19.2583 1.73909 19.4338 1.54369 19.5944 1.60996C20.0152 1.78418 20.3521 2.21664 20.7217 2.48377C21.1364 2.78302 21.5866 3.03717 22.0601 3.23188C22.3436 3.3487 22.235 3.80918 21.9303 3.70465Z" fill="#FFAA00"/>
<path d="M17.8515 8.95609C16.358 8.64865 14.868 8.32208 13.3697 8.03924C12.6318 7.89986 11.8933 7.76322 11.1534 7.63751C10.421 7.51317 9.68112 7.44075 8.99928 7.13605C8.84761 7.06841 8.94872 6.87575 9.07443 6.85935C9.80204 6.76575 10.529 6.92836 11.247 7.05201C12.0081 7.18319 12.7685 7.32256 13.5248 7.47901C15.0148 7.78645 16.5008 8.13078 17.9601 8.56462C18.2109 8.63977 18.1056 9.00801 17.8515 8.95609Z" fill="#FFAA00"/>
<path d="M16.1913 14.9743C15.6427 14.8069 15.0791 14.6866 14.5079 14.6286C13.9887 14.5753 13.4374 14.6258 12.9284 14.507C12.7432 14.4639 12.776 14.2214 12.9284 14.164C13.4551 13.9645 14.0905 14.0444 14.635 14.1168C15.2103 14.1927 15.7678 14.3368 16.3136 14.5315C16.589 14.6292 16.4783 15.0617 16.1913 14.9743Z" fill="#FFAA00"/>
<path d="M14.9125 20.6406C13.3288 21.0902 11.6905 21.1455 10.0611 20.9563C8.48082 20.7732 6.76394 20.5231 5.30052 19.8734C5.14066 19.8024 5.22196 19.5366 5.38934 19.5462C6.14018 19.5885 6.89989 19.7655 7.63433 19.9219C8.43709 20.0934 9.246 20.2444 10.0617 20.3407C11.6331 20.5272 13.2407 20.5491 14.7922 20.2013C15.0764 20.1378 15.196 20.56 14.9125 20.6406Z" fill="#FFAA00"/>
<path d="M13.5904 27.493C13.1587 27.4992 12.7276 27.5046 12.2958 27.5108C11.9077 27.5163 11.4452 27.5798 11.0735 27.4555C10.8699 27.3878 10.8693 27.1084 11.0735 27.0408C11.4466 26.9164 11.9064 26.9799 12.2958 26.9854C12.7276 26.9916 13.1587 26.997 13.5904 27.0032C13.9054 27.008 13.9061 27.4889 13.5904 27.493Z" fill="#FFAA00"/>
<path d="M12.5711 33.9508C11.1487 34.069 9.72697 34.1312 8.29977 34.1394C7.59813 34.1435 6.89716 34.1415 6.19688 34.1087C5.51573 34.0772 4.7854 34.0984 4.1186 33.9461C3.96624 33.9112 3.95463 33.653 4.1186 33.6263C4.79496 33.5177 5.513 33.5717 6.19688 33.5566C6.89784 33.5416 7.59881 33.543 8.29977 33.5355C9.72356 33.5197 11.1473 33.4958 12.5711 33.4712C12.884 33.4658 12.8752 33.9256 12.5711 33.9508Z" fill="#FFAA00"/>
<path d="M12.3608 40.3667C11.8942 40.3777 11.4282 40.3886 10.9616 40.3988C10.5332 40.4091 10.0639 40.4562 9.64849 40.3326C9.47906 40.282 9.47906 40.0395 9.64849 39.9896C10.0632 39.8659 10.5339 39.9138 10.9616 39.9233C11.4282 39.9343 11.8942 39.9452 12.3608 39.9554C12.6252 39.9623 12.6252 40.3606 12.3608 40.3667Z" fill="#FFAA00"/>
<path d="M13.4497 46.1655C12.6018 47.1739 11.5271 48.0402 10.516 48.8792C10.0337 49.2796 9.54723 49.6731 9.04644 50.0488C8.50603 50.454 7.95195 50.9015 7.34049 51.1946C7.18609 51.2684 7.03237 51.0866 7.15466 50.9541C7.61514 50.456 8.19107 50.0488 8.71508 49.6205C9.21519 49.2126 9.72007 48.8109 10.2181 48.4003C11.2224 47.5722 12.1844 46.6568 13.2433 45.8991C13.4107 45.7775 13.5658 46.0275 13.4497 46.1655Z" fill="#FFAA00"/>
<path d="M17.4805 50.9377C17.2106 51.4775 16.9763 52.1183 16.5677 52.5706C16.4523 52.6983 16.2705 52.5603 16.2992 52.4141C16.4154 51.8163 16.7973 51.2349 17.0665 50.6959C17.2045 50.4199 17.6178 50.6624 17.4805 50.9377Z" fill="#FFAA00"/>
<path d="M22.8238 54.5745C22.4365 55.5958 22.0402 56.6118 21.6296 57.6236C21.4281 58.1196 21.2279 58.6163 21.025 59.1116C20.8275 59.5926 20.6478 60.1446 20.3472 60.5695C20.2017 60.7759 19.9004 60.6495 19.9448 60.4001C20.033 59.9075 20.2857 59.4149 20.4818 58.9558C20.7004 58.4427 20.9225 57.931 21.1432 57.4186C21.5756 56.4157 22.0204 55.4203 22.4761 54.4276C22.5649 54.2336 22.9003 54.3722 22.8238 54.5745Z" fill="#FFAA00"/>
<path d="M30.8487 56.4213C30.6219 57.5178 30.3951 58.6136 30.1683 59.7102C30.0596 60.2362 29.9524 60.763 29.8403 61.2884C29.7235 61.8404 29.5998 62.4484 29.3894 62.9718C29.3218 63.1391 29.0417 63.1371 29.0492 62.926C29.0697 62.3829 29.2002 61.8124 29.3068 61.2808C29.4167 60.7329 29.5466 60.1877 29.6668 59.6419C29.9127 58.5276 30.1587 57.4133 30.4053 56.2996C30.4689 56.0093 30.9082 56.1323 30.8487 56.4213Z" fill="#FFAA00"/>
<path d="M81.2468 63.2641C81.6759 64.5233 82.0065 65.82 82.3625 67.1017C82.5381 67.7323 82.713 68.3635 82.8886 68.9941C83.0573 69.6015 83.2992 70.2649 83.2725 70.9009C83.2657 71.0669 83.0539 71.1236 82.9637 70.9843C82.6194 70.4514 82.4909 69.7545 82.3297 69.1478C82.1616 68.5152 81.9929 67.8826 81.8248 67.2499C81.4825 65.9648 81.1109 64.679 80.8424 63.3755C80.787 63.1111 81.1594 63.0072 81.2468 63.2641Z" fill="#FFAA00"/>
<path d="M75.922 64.3485C75.9336 65.0071 76.0655 65.8051 75.8236 66.4322C75.7765 66.5538 75.6228 66.5538 75.5756 66.4322C75.3338 65.8057 75.4656 65.0071 75.4772 64.3485C75.482 64.0622 75.9172 64.0622 75.922 64.3485Z" fill="#FFAA00"/>
</g>
<defs>
<filter id="filter0_d_336_21885" x="-0.00012207" y="-9" width="114.497" height="116.838" filterUnits="userSpaceOnUse" color-interpolation-filters="sRGB">
<feFlood flood-opacity="0" result="BackgroundImageFix"/>
<feColorMatrix in="SourceAlpha" type="matrix" values="0 0 0 0 0 0 0 0 0 0 0 0 0 0 0 0 0 0 127 0" result="hardAlpha"/>
<feOffset dy="4"/>
<feGaussianBlur stdDeviation="2"/>
<feComposite in2="hardAlpha" operator="out"/>
<feColorMatrix type="matrix" values="0 0 0 0 0 0 0 0 0 0 0 0 0 0 0 0 0 0 0.25 0"/>
<feBlend mode="normal" in2="BackgroundImageFix" result="effect1_dropShadow_336_21885"/>
<feBlend mode="normal" in="SourceGraphic" in2="effect1_dropShadow_336_21885" result="shape"/>
</filter>
</defs>
</svg>
