<svg width="196" height="203" viewBox="0 0 196 203" fill="none" xmlns="http://www.w3.org/2000/svg">
<path d="M8.67185 13.3198L14.8222 13.189L17.9435 13.1366C18.9866 13.1145 20.0348 13.1192 21.0807 13.1108L21.2888 13.1094L21.2897 13.3198L21.315 18.5634L21.3164 18.7986L21.0812 18.7977L14.877 18.7681C12.8091 18.7658 10.7407 18.7152 8.67279 18.6913L8.54346 18.6899L8.54486 18.5634C8.55377 17.6735 8.58516 16.7888 8.60625 15.9139L8.67185 13.3198ZM8.67185 13.3198L8.73839 15.9692C8.75948 16.8422 8.79088 17.7054 8.79978 18.5634L8.67185 18.4354C10.7398 18.4115 12.8081 18.3609 14.8761 18.3586L21.0803 18.3291L20.8464 18.5629L20.8717 13.3193L21.0807 13.5283C20.0583 13.5199 19.0386 13.5245 18.0133 13.5025L14.9304 13.45L8.67185 13.3198Z" fill="#EBEBEB"/>
<path d="M15.5942 6.70747L21.7445 6.57673L24.8659 6.52425C25.9089 6.50222 26.9572 6.50691 28.0031 6.49848L28.2112 6.49707L28.2121 6.70747L28.2374 11.9511L28.2388 12.1863L28.0036 12.1854L21.7994 12.1558C19.7314 12.1535 17.6631 12.1029 15.5952 12.079L15.4658 12.0776L15.4672 11.9511C15.4761 11.0612 15.5075 10.1765 15.5286 9.30162L15.5942 6.70747ZM15.5942 6.70747L15.6608 9.35691C15.6818 10.2299 15.7132 11.0931 15.7221 11.9511L15.5942 11.8231C17.6621 11.7992 19.7305 11.7486 21.7984 11.7463L28.0026 11.7168L27.7688 11.9506L27.7941 6.707L28.0031 6.916C26.9806 6.90756 25.961 6.91225 24.9357 6.89022L21.8528 6.83774L15.5942 6.70747Z" fill="#EBEBEB"/>
<path d="M27.6274 74.0756L33.7777 73.9449L36.899 73.8924C37.9421 73.8704 38.9904 73.8751 40.0363 73.8666L40.2443 73.8652L40.2453 74.0756L40.2706 79.3192L40.2715 79.5545L40.0363 79.5535L33.8321 79.524C31.7642 79.5217 29.6958 79.471 27.6279 79.4472L27.4985 79.4457L27.4999 79.3192C27.5088 78.4294 27.5402 77.5447 27.5613 76.6698L27.6274 74.0756ZM27.6274 74.0756L27.6939 76.7251C27.715 77.5981 27.7464 78.4612 27.7553 79.3192L27.6274 79.1913C29.6953 79.1674 31.7637 79.1168 33.8316 79.1145L40.0358 79.0849L39.802 79.3188L39.8273 74.0752L40.0363 74.2842C39.0138 74.2757 37.9941 74.2804 36.9689 74.2584L33.886 74.2059L27.6274 74.0756Z" fill="#EBEBEB"/>
<path d="M34.5493 67.4633L40.6996 67.3326L43.8209 67.2801C44.864 67.2581 45.9123 67.2628 46.9582 67.2543L47.1662 67.2529L47.1672 67.4633L47.1925 72.7069L47.1934 72.9421L46.9582 72.9412L40.754 72.9117C38.686 72.9093 36.6177 72.8587 34.5497 72.8348L34.4204 72.8334L34.4218 72.7069C34.4307 71.8171 34.4621 70.9323 34.4832 70.0575L34.5493 67.4633ZM34.5493 67.4633L34.6158 70.1128C34.6369 70.9858 34.6683 71.8489 34.6772 72.7069L34.5493 72.579C36.6172 72.5551 38.6856 72.5045 40.7535 72.5021L46.9577 72.4726L46.7239 72.7064L46.7492 67.4629L46.9582 67.6719C45.9357 67.6634 44.916 67.6681 43.8907 67.6461L40.8078 67.5936L34.5493 67.4633Z" fill="#EBEBEB"/>
<path d="M1.74998 6.70747L7.9003 6.57673L11.0216 6.52425C12.0647 6.50222 13.113 6.50691 14.1589 6.49848L14.3669 6.49707L14.3679 6.70747L14.3932 11.9511L14.3946 12.1863L14.1593 12.1854L7.95512 12.1558C5.88721 12.1535 3.81883 12.1029 1.75091 12.079L1.62158 12.0776L1.62299 11.9511C1.63189 11.0612 1.66329 10.1765 1.68437 9.30162L1.74998 6.70747ZM1.74998 6.70747L1.81652 9.35691C1.8376 10.2299 1.869 11.0931 1.8779 11.9511L1.74998 11.8231C3.81789 11.7992 5.88627 11.7486 7.95419 11.7463L14.1584 11.7168L13.9246 11.9506L13.9499 6.707L14.1589 6.916C13.1364 6.90756 12.1167 6.91225 11.0914 6.89022L8.00854 6.83774L1.74998 6.70747Z" fill="#EBEBEB"/>
<path d="M186.059 120.587L179.909 120.717L176.788 120.77C175.744 120.792 174.696 120.787 173.65 120.796L173.442 120.798L173.441 120.587L173.416 115.344L173.415 115.108L173.65 115.109L179.854 115.139C181.922 115.141 183.99 115.192 186.058 115.216L186.188 115.217L186.186 115.344C186.177 116.234 186.146 117.118 186.125 117.993L186.059 120.587ZM186.059 120.587L185.993 117.937C185.972 117.064 185.94 116.201 185.931 115.343L186.059 115.471C183.991 115.495 181.923 115.546 179.855 115.548L173.651 115.577L173.885 115.344L173.859 120.587L173.65 120.378C174.673 120.387 175.692 120.382 176.718 120.404L179.801 120.456L186.059 120.587Z" fill="#EBEBEB"/>
<path d="M192.981 127.199L186.83 127.329L183.709 127.382C182.666 127.404 181.618 127.399 180.572 127.408L180.364 127.409L180.363 127.199L180.337 121.955L180.336 121.72L180.572 121.721L186.776 121.75C188.844 121.753 190.912 121.803 192.98 121.827L193.109 121.828L193.108 121.955C193.099 122.845 193.068 123.73 193.047 124.604L192.981 127.199ZM192.981 127.199L192.914 124.549C192.893 123.676 192.862 122.813 192.853 121.955L192.981 122.083C190.913 122.107 188.844 122.157 186.776 122.16L180.572 122.189L180.806 121.955L180.781 127.199L180.572 126.99C181.594 126.998 182.614 126.994 183.639 127.016L186.722 127.068L192.981 127.199Z" fill="#EBEBEB"/>
<path d="M21.1866 127.199L15.0363 127.329L11.915 127.382C10.8719 127.404 9.82362 127.399 8.77772 127.408L8.56966 127.409L8.56872 127.199L8.54342 121.955L8.54248 121.72L8.77772 121.721L14.9819 121.75C17.0498 121.753 19.1182 121.803 21.1861 121.827L21.3155 121.828L21.3141 121.955C21.3052 122.845 21.2738 123.73 21.2527 124.604L21.1866 127.199ZM21.1866 127.199L21.1201 124.549C21.099 123.676 21.0676 122.813 21.0587 121.955L21.1866 122.083C19.1187 122.107 17.0503 122.157 14.9824 122.16L8.77818 122.189L9.01201 121.955L8.98671 127.199L8.77772 126.99C9.80019 126.998 10.8199 126.994 11.8451 127.016L14.928 127.068L21.1866 127.199Z" fill="#EBEBEB"/>
<path d="M173.597 6.70747L179.747 6.57673L182.869 6.52425C183.912 6.50222 184.96 6.50691 186.006 6.49848L186.214 6.49707L186.215 6.70747L186.24 11.9511L186.241 12.1863L186.006 12.1854L179.802 12.1558C177.734 12.1535 175.666 12.1029 173.598 12.079L173.468 12.0776L173.47 11.9511C173.479 11.0612 173.51 10.1765 173.531 9.30162L173.597 6.70747ZM173.597 6.70747L173.664 9.35691C173.685 10.2299 173.716 11.0931 173.725 11.9511L173.597 11.8231C175.665 11.7992 177.733 11.7486 179.801 11.7463L186.006 11.7168L185.772 11.9506L185.797 6.707L186.006 6.916C184.983 6.90756 183.963 6.91225 182.938 6.89022L179.855 6.83774L173.597 6.70747Z" fill="#EBEBEB"/>
<path d="M191.399 87.4864H129.009V0.361328H191.399V87.4864ZM130.86 85.635H189.548V2.21228H130.86V85.635Z" fill="#EBEBEB"/>
<path d="M161.13 2.69629H159.278V86.5609H161.13V2.69629Z" fill="#EBEBEB"/>
<path d="M193.077 4.10352H127.331V6.68126H193.077V4.10352Z" fill="#EBEBEB"/>
<path d="M193.077 7.00391H127.331V9.58165H193.077V7.00391Z" fill="#EBEBEB"/>
<path d="M193.077 9.90332H127.331V12.4811H193.077V9.90332Z" fill="#EBEBEB"/>
<path d="M193.077 12.8037H127.331V15.3815H193.077V12.8037Z" fill="#EBEBEB"/>
<path d="M193.077 15.7031H127.331V18.2809H193.077V15.7031Z" fill="#EBEBEB"/>
<path d="M193.077 18.6035H127.331V21.1813H193.077V18.6035Z" fill="#EBEBEB"/>
<path d="M193.077 21.5039H127.331V24.0817H193.077V21.5039Z" fill="#EBEBEB"/>
<path d="M193.077 24.4043H127.331V26.982H193.077V24.4043Z" fill="#EBEBEB"/>
<path d="M193.077 27.3037H127.331V29.8815H193.077V27.3037Z" fill="#EBEBEB"/>
<path d="M187.579 3.58105H187.116V53.7429H187.579V3.58105Z" fill="#263238"/>
<path d="M188.17 55.8984H186.527L186.939 53.5381H187.758L188.17 55.8984Z" fill="#263238"/>
<path d="M189.248 3.58105H188.785V66.3978H189.248V3.58105Z" fill="#263238"/>
<path d="M189.838 68.1328H188.194L188.607 65.7725H189.426L189.838 68.1328Z" fill="#263238"/>
<path d="M195.95 0H124.458V5.39307H195.95V0Z" fill="#DBDBDB"/>
<path d="M52.3984 30.9268H0V34.0378H52.3984V30.9268Z" fill="#EBEBEB"/>
<path d="M7.08995 34.0391H3.97754V44.3294H7.08995V34.0391Z" fill="#EBEBEB"/>
<path d="M7.08995 34.0391H3.97754V37.2194H7.08995V34.0391Z" fill="#DBDBDB"/>
<path d="M48.423 34.0391H45.3105V44.3294H48.423V34.0391Z" fill="#EBEBEB"/>
<path d="M48.423 34.0391H45.3105V37.2194H48.423V34.0391Z" fill="#DBDBDB"/>
<path d="M11.814 30.9273L11.814 11.0986L6.82061 11.0986L6.82061 30.9273H11.814Z" fill="#C7C7C7"/>
<path d="M11.8135 12.2171V10.0381L6.82012 10.0381V12.2171H11.8135Z" fill="#DBDBDB"/>
<path d="M11.8135 15.8181V15.0098L6.82012 15.0098V15.8181H11.8135Z" fill="#DBDBDB"/>
<path d="M12.436 28.3264V26.1475H6.82038V28.3264H12.436Z" fill="#DBDBDB"/>
<path d="M15.3037 30.9277L15.3037 7.79688L11.8141 7.79687L11.8141 30.9277H15.3037Z" fill="#DBDBDB"/>
<path d="M14.5908 18.868L14.5908 9.97168H12.4967L12.4967 18.868H14.5908Z" fill="#EBEBEB"/>
<path d="M40.1298 28.4504L23.6792 12.1895L21.226 14.6713L37.6766 30.9323L40.1298 28.4504Z" fill="#C7C7C7"/>
<path d="M35.787 25.1223L29.46 18.8682L27.9878 20.3575L34.3148 26.6116L35.787 25.1223Z" fill="#DBDBDB"/>
<path d="M21.2275 30.9318L21.2275 13.3623L15.3012 13.3623L15.3012 30.9318H21.2275Z" fill="#A6A6A6"/>
<path d="M21.2275 29.0694V27.4316H15.3012V29.0694H21.2275Z" fill="#C7C7C7"/>
<path d="M21.2275 26.3576V25.7227H15.3012V26.3576H21.2275Z" fill="#C7C7C7"/>
<path d="M6.82031 30.9318L6.82031 14.4199H2.72666L2.72666 30.9318H6.82031Z" fill="#A6A6A6"/>
<path d="M6.82031 29.1814V27.6426H2.72666V29.1814H6.82031Z" fill="#C7C7C7"/>
<path d="M6.82031 19.3621V17.8232H2.72666V19.3621H6.82031Z" fill="#C7C7C7"/>
<path d="M6.82031 21.0125V20.416H2.72666V21.0125H6.82031Z" fill="#C7C7C7"/>
<path d="M191.702 190.957C191.702 197.608 149.466 203 97.3657 203C45.2653 203 3.02979 197.609 3.02979 190.957C3.02979 184.307 45.2653 178.915 97.3657 178.915C149.466 178.915 191.702 184.307 191.702 190.957Z" fill="#EBEBEB"/>
<path d="M167.722 134.75C167.722 134.75 159.948 132.987 155.686 129.061C151.424 125.135 149.044 118.101 149.044 118.101C149.044 118.101 153.62 118.939 157.764 120.391C158.459 121.135 159.784 122.669 160.401 124.121C160.401 124.121 160.532 122.587 160.422 121.455C161.53 121.966 162.495 122.53 163.191 123.136C166.724 126.227 167.722 134.75 167.722 134.75Z" fill="#0082FF"/>
<path d="M153.899 121.519C152.839 120.785 151.76 120.078 150.705 119.338C150.641 119.293 150.701 119.193 150.769 119.234C152.772 120.431 154.747 121.71 156.658 123.049C157.324 123.516 157.978 124.002 158.625 124.497C158.58 124.421 158.535 124.344 158.49 124.267C158.256 123.877 158.01 123.493 157.765 123.11C157.27 122.341 156.731 121.584 156.114 120.907C156.091 120.882 156.13 120.845 156.153 120.871C156.757 121.569 157.362 122.259 157.915 123C158.178 123.352 158.421 123.717 158.654 124.09C158.775 124.283 158.891 124.478 159.003 124.677C159.041 124.743 159.081 124.81 159.12 124.877C160.125 125.667 161.104 126.49 162.039 127.361C162.615 127.898 163.171 128.455 163.708 129.029C163.408 128.088 163.145 127.137 162.796 126.21C162.785 126.179 162.836 126.165 162.848 126.198C163.186 127.169 163.557 128.146 163.818 129.144C164.414 129.787 164.984 130.454 165.52 131.148C165.511 131.106 165.502 131.063 165.492 131.022C165.404 130.655 165.312 130.29 165.214 129.926C165.025 129.222 164.818 128.524 164.581 127.834C164.094 126.422 163.463 125.039 162.492 123.89C162.47 123.864 162.509 123.827 162.531 123.853C164.049 125.651 164.94 127.807 165.508 130.071C165.592 130.402 165.67 130.734 165.745 131.068C165.785 131.244 165.832 131.424 165.862 131.605C166.097 131.922 166.328 132.243 166.549 132.572C167.899 134.581 168.951 136.776 169.838 139.023C170.838 141.554 171.614 144.168 172.33 146.791C172.344 146.842 172.267 146.86 172.25 146.811C170.73 142.261 169.177 137.647 166.574 133.58C166.024 132.721 165.43 131.894 164.799 131.096C163.52 131.024 162.229 130.746 161.018 130.343C159.678 129.896 158.414 129.278 157.229 128.513C156.544 128.071 155.92 127.556 155.287 127.046C155.257 127.022 155.291 126.98 155.32 127.005C156.372 127.894 157.635 128.591 158.884 129.161C160.138 129.734 161.458 130.183 162.806 130.477C163.38 130.602 163.962 130.694 164.544 130.773C163.826 129.888 163.059 129.041 162.251 128.234C161.99 127.972 161.717 127.721 161.448 127.467C160.555 126.816 159.566 126.301 158.573 125.821C157.3 125.206 156.046 124.553 154.785 123.912C154.074 123.55 153.367 123.18 152.65 122.83C152.62 122.815 152.647 122.77 152.678 122.785C153.955 123.402 155.253 123.979 156.543 124.57C157.757 125.126 158.985 125.684 160.15 126.339C160.2 126.367 160.247 126.398 160.297 126.426C159.244 125.509 158.154 124.635 157.038 123.793C156.007 123.016 154.961 122.254 153.899 121.519Z" fill="#263238"/>
<path d="M154.341 125.527C154.973 125.804 155.617 126.05 156.243 126.342C156.886 126.643 157.497 126.995 158.107 127.357C158.134 127.373 158.109 127.41 158.082 127.398C157.462 127.101 156.834 126.824 156.221 126.514C155.592 126.198 154.97 125.86 154.326 125.577C154.295 125.564 154.31 125.513 154.341 125.527Z" fill="#263238"/>
<path d="M192.978 95.5684C192.978 95.5684 190.796 98.0683 190.654 102.026C190.629 102.723 190.739 103.694 190.82 104.837C187.921 106.385 185.746 109.174 185.746 109.174C187.393 108.184 189.654 107.785 190.873 107.946C190.832 108.698 190.743 109.479 190.576 110.27C190.038 110.239 188.998 110.311 187.279 110.922C187.279 110.922 188.966 110.879 190.252 111.513C188.866 115.922 184.746 120.452 173.371 122.375C173.371 122.375 171.176 114.652 175.386 106.367C178.795 99.662 192.978 95.5684 192.978 95.5684Z" fill="#0082FF"/>
<path d="M169.434 141.242C169.631 139.358 169.879 137.48 170.17 135.608C170.753 131.863 171.507 128.139 172.465 124.472C172.916 122.743 173.458 121.049 174.107 119.398C174.064 119.099 174.071 118.787 174.064 118.488C174.056 118.124 174.055 117.759 174.059 117.395C174.067 116.666 174.101 115.939 174.163 115.213C174.286 113.779 174.504 112.343 174.862 110.948C175.07 110.137 175.312 109.339 175.55 108.537C175.56 108.504 175.61 108.52 175.6 108.553C175.198 109.939 174.966 111.382 174.76 112.81C174.556 114.224 174.43 115.651 174.378 117.079C174.364 117.47 174.357 117.861 174.356 118.252C174.356 118.418 174.363 118.586 174.369 118.754C174.929 117.401 175.561 116.075 176.286 114.787C177.433 112.749 178.75 110.812 180.18 108.962C180.167 108.751 180.231 108.529 180.273 108.325C180.327 108.071 180.382 107.817 180.439 107.564C180.555 107.044 180.686 106.527 180.827 106.014C181.109 104.983 181.483 103.987 181.805 102.969C181.815 102.937 181.866 102.952 181.856 102.985C181.555 103.993 181.356 105.036 181.125 106.062C181.011 106.569 180.9 107.077 180.788 107.585C180.733 107.838 180.678 108.092 180.626 108.347C180.622 108.365 180.619 108.385 180.616 108.404C181.076 107.823 181.544 107.251 182.024 106.689C184.197 104.141 186.578 101.791 188.976 99.4581C189.27 99.1713 189.573 98.8916 189.871 98.609C189.896 98.5856 189.931 98.6226 189.908 98.6474C187.617 101.037 185.361 103.455 183.225 105.985C182.717 106.586 182.218 107.195 181.726 107.811C181.985 107.636 182.246 107.465 182.502 107.297C183.164 106.864 183.835 106.443 184.525 106.056C185.215 105.669 185.911 105.291 186.62 104.94C187.35 104.578 188.129 104.284 188.833 103.875C188.863 103.857 188.889 103.908 188.859 103.921C188.133 104.219 187.455 104.672 186.783 105.071C186.09 105.481 185.399 105.895 184.719 106.326C184.051 106.75 183.379 107.168 182.715 107.6C182.161 107.959 181.616 108.352 181.043 108.684C179.731 110.384 178.498 112.144 177.398 113.989C176.705 115.151 176.079 116.343 175.514 117.561C175.651 117.502 175.787 117.444 175.922 117.384C176.269 117.23 176.616 117.076 176.964 116.922C177.633 116.625 178.305 116.335 178.976 116.043C180.252 115.488 181.548 114.978 182.799 114.37C183.501 114.029 184.191 113.669 184.841 113.235C184.87 113.217 184.895 113.262 184.867 113.282C182.535 114.889 179.92 116.023 177.338 117.164L176.219 117.66C175.911 117.796 175.603 117.948 175.286 118.067C174.525 119.773 173.881 121.529 173.362 123.339C172.327 126.952 171.537 130.643 170.887 134.344C170.235 138.059 169.794 141.8 169.452 145.556C169.41 146.025 169.368 146.493 169.315 146.961C169.294 147.148 169.016 147.148 169.019 146.954C169.04 145.047 169.235 143.137 169.434 141.242Z" fill="#263238"/>
<path d="M176.355 109.826C176.564 108.67 176.872 107.539 177.184 106.407C177.192 106.374 177.243 106.389 177.234 106.422C176.946 107.534 176.741 108.667 176.532 109.795C176.319 110.944 176.131 112.1 175.969 113.257C175.966 113.277 175.936 113.278 175.937 113.256C176.012 112.105 176.15 110.962 176.355 109.826Z" fill="#263238"/>
<path d="M181.257 112.963C182.028 112.417 182.894 112.004 183.731 111.571C184.146 111.357 184.566 111.153 184.985 110.95C185.418 110.74 185.868 110.564 186.298 110.349C186.328 110.333 186.354 110.38 186.323 110.395C185.907 110.604 185.513 110.857 185.104 111.079C184.683 111.309 184.264 111.543 183.841 111.77C183.009 112.217 182.191 112.712 181.318 113.074C181.243 113.106 181.19 113.01 181.257 112.963Z" fill="#263238"/>
<path opacity="0.1" d="M167.58 121.282C167.58 121.282 160.386 119.563 157.082 114.737C153.928 110.128 152.908 102.271 152.827 101.58C152.957 102.214 154.441 109.08 159.339 112.279C163.089 114.73 166.713 116.745 167.58 121.282Z" fill="#263238"/>
<path d="M160.941 108.851C162.206 110.07 163.156 111.504 163.593 113.22C163.597 113.234 163.575 113.242 163.57 113.227C163.03 111.63 162.138 110.055 160.905 108.89C160.881 108.867 160.916 108.827 160.941 108.851Z" fill="#263238"/>
<path d="M167.581 121.282C167.581 121.282 160.386 119.563 157.083 114.737C153.928 110.128 152.908 102.271 152.827 101.58C152.821 101.548 152.819 101.531 152.819 101.531C152.819 101.531 156.269 106.436 159.896 107.687C163.523 108.938 168.62 113.265 167.581 121.282Z" fill="#0082FF"/>
<path d="M154.094 104.237C154.762 105.546 155.461 106.845 156.318 108.04C157.153 109.205 158.158 110.196 159.278 111.086C160.255 111.862 161.288 112.565 162.277 113.326C162.27 113.314 162.263 113.302 162.255 113.291C162.07 113.015 161.871 112.747 161.666 112.485C161.254 111.959 160.804 111.462 160.351 110.971C159.457 110.001 158.544 109.05 157.743 108C157.299 107.418 156.91 106.8 156.59 106.141C156.575 106.111 156.625 106.094 156.64 106.124C157.806 108.556 160.137 110.112 161.8 112.165C162.037 112.457 162.26 112.759 162.465 113.074C162.61 113.297 162.786 113.544 162.879 113.805C163.784 114.547 164.62 115.355 165.334 116.286C165.273 115.814 165.17 115.343 165.045 114.889C164.866 114.245 164.632 113.64 164.282 113.067C164.265 113.038 164.309 113.009 164.326 113.038C164.663 113.605 164.97 114.217 165.166 114.848C165.325 115.361 165.399 115.875 165.428 116.402C165.429 116.403 165.43 116.405 165.431 116.406C165.79 116.888 166.109 117.396 166.404 117.917C166.374 117.764 166.345 117.61 166.314 117.457C166.171 116.74 166.013 116.025 165.827 115.318C165.45 113.885 164.94 112.494 164.097 111.265C164.078 111.237 164.122 111.208 164.141 111.236C164.974 112.449 165.604 113.804 166.058 115.201C166.288 115.907 166.471 116.625 166.633 117.349C166.712 117.703 166.783 118.058 166.851 118.415C166.886 118.599 166.926 118.787 166.956 118.976C167.691 120.531 168.208 122.198 168.615 123.854C169.348 126.835 169.806 129.902 170.149 132.95C170.509 136.151 170.698 139.388 170.646 142.609C170.639 143.014 170.615 143.418 170.593 143.822C170.586 143.926 170.431 143.941 170.426 143.831C170.356 142.235 170.314 140.637 170.22 139.043C170.125 137.446 169.986 135.853 169.815 134.263C169.48 131.143 168.996 128.026 168.316 124.962C167.732 122.332 166.976 119.684 165.539 117.379C164.818 116.224 163.956 115.202 162.943 114.293C161.934 113.388 160.832 112.594 159.768 111.755C158.71 110.921 157.693 110.013 156.855 108.955C155.949 107.812 155.237 106.531 154.567 105.241C154.397 104.915 154.223 104.591 154.051 104.266C154.034 104.236 154.079 104.207 154.094 104.237Z" fill="#263238"/>
<path d="M155.336 105.293C155.798 106.266 156.353 107.192 156.939 108.095C156.953 108.117 156.921 108.138 156.906 108.117C156.279 107.234 155.757 106.284 155.286 105.31C155.272 105.279 155.322 105.262 155.336 105.293Z" fill="#263238"/>
<path d="M193.982 118.1C193.982 118.1 194.096 128.323 187.983 131.275C181.87 134.231 178.592 131.768 174.438 132.757C174.438 132.757 174.442 132.756 174.446 132.751C174.607 132.508 177.572 128.246 182.287 127.073C187.136 125.864 192.511 122.36 193.982 118.1Z" fill="#0082FF"/>
<path opacity="0.1" d="M193.982 118.1C193.982 118.1 194.096 128.323 187.983 131.275C181.87 134.231 178.592 131.768 174.438 132.757C174.438 132.757 174.442 132.756 174.446 132.751C174.618 132.667 177.651 131.15 181.396 130.701C185.25 130.237 192.614 127.726 193.982 118.1Z" fill="black"/>
<path d="M174.036 132.939C174.765 132.282 175.581 131.717 176.467 131.292C176.598 131.23 176.733 131.179 176.866 131.122C176.931 131.041 177 130.963 177.072 130.888C177.255 130.696 177.446 130.514 177.647 130.341C178.031 130.011 178.44 129.71 178.877 129.454C179.889 128.859 180.999 128.442 182.035 127.889C182.065 127.873 182.091 127.919 182.061 127.935C181.549 128.201 181.053 128.494 180.555 128.785C180.071 129.068 179.575 129.337 179.104 129.641C178.681 129.914 178.274 130.216 177.894 130.548C177.786 130.642 177.683 130.744 177.58 130.848C178.254 130.618 178.947 130.441 179.646 130.299C180.765 130.073 181.897 129.913 183.014 129.675C183.563 129.558 184.104 129.412 184.636 129.237C185.144 128.829 185.65 128.423 186.13 127.98C186.71 127.446 187.243 126.864 187.71 126.228C187.73 126.201 187.776 126.229 187.755 126.256C187.001 127.23 186.192 128.21 185.249 129.022C185.512 128.921 185.773 128.814 186.031 128.697C188.108 127.754 189.956 126.255 191.24 124.363C191.259 124.335 191.305 124.363 191.285 124.391C190.166 126.011 188.746 127.398 187.071 128.436C186.231 128.957 185.346 129.383 184.408 129.696C183.331 130.057 182.214 130.27 181.1 130.478C180.008 130.683 178.913 130.891 177.86 131.249C176.885 131.581 175.967 132.061 175.142 132.679C173.569 133.857 172.352 135.469 171.479 137.221C170.322 139.542 169.77 142.137 169.462 144.697C169.449 144.806 169.28 144.806 169.287 144.692C169.574 140.396 170.723 135.924 174.036 132.939Z" fill="#263238"/>
<path d="M181.13 129.606C181.435 129.118 181.893 128.752 182.386 128.467C182.964 128.133 183.482 127.774 183.881 127.23C183.901 127.202 183.947 127.231 183.926 127.258C183.557 127.732 183.115 128.121 182.606 128.44C182.072 128.775 181.535 129.103 181.168 129.63C181.152 129.653 181.114 129.631 181.13 129.606Z" fill="#263238"/>
<path d="M177.886 140.485L177.608 146.108L176.756 163.284H163.931L163.079 146.108L162.8 140.485H177.886Z" fill="#37474F"/>
<path d="M177.886 140.485L177.608 146.108H163.079L162.8 140.485H177.886Z" fill="#263238"/>
<path d="M178.785 138.139H161.902V143.502H178.785V138.139Z" fill="#37474F"/>
<path d="M0 163.283L24.3417 163.169L48.6829 163.128L97.3658 163.05L146.049 163.128L170.39 163.169L194.732 163.283L170.39 163.398L146.049 163.439L97.3658 163.517L48.6829 163.439L24.3417 163.398L0 163.283Z" fill="#263238"/>
<path d="M38.6899 175.811V12.4918C38.6899 9.15493 41.3947 6.4502 44.7316 6.4502H149.999C153.336 6.4502 156.041 9.15493 156.041 12.4918V175.81C156.041 179.147 153.336 181.852 149.999 181.852H44.7316C41.3951 181.852 38.6899 179.147 38.6899 175.811Z" fill="#263238"/>
<path d="M151.09 18.7266H43.7773V169.682H151.09V18.7266Z" fill="white"/>
<path d="M84.5957 13.9001V13.2479C84.5957 12.9241 84.8581 12.6621 85.1814 12.6621H109.548C109.872 12.6621 110.134 12.9245 110.134 13.2479V13.9001C110.134 14.2235 109.872 14.4859 109.548 14.4859H85.1814C84.8581 14.4864 84.5957 14.2239 84.5957 13.9001Z" fill="#37474F"/>
<path d="M97.3651 178.916C99.1894 178.916 100.668 177.437 100.668 175.613C100.668 173.788 99.1894 172.31 97.3651 172.31C95.5409 172.31 94.062 173.788 94.062 175.613C94.062 177.437 95.5409 178.916 97.3651 178.916Z" fill="#37474F"/>
<path d="M134.555 141.449H60.3125V142.495H134.555V141.449Z" fill="#EBEBEB"/>
<path d="M134.555 144.689H60.3125V145.735H134.555V144.689Z" fill="#EBEBEB"/>
<path d="M134.555 39.458H60.3125V40.5034H134.555V39.458Z" fill="#EBEBEB"/>
<path d="M134.555 42.6992H60.3125V43.7447H134.555V42.6992Z" fill="#EBEBEB"/>
<path d="M126.72 134.168H68.0122V84.5061L97.3618 65.8682L126.72 84.5061V134.168Z" fill="#0082FF"/>
<path opacity="0.2" d="M126.72 134.168H68.0122V84.5061L97.3618 65.8682L126.72 84.5061V134.168Z" fill="black"/>
<path d="M123.409 63.5059H71.3228V130.368H123.409V63.5059Z" fill="#EBEBEB"/>
<path d="M94.1939 103.51L82.2686 91.439L86.2751 87.4808L93.2412 94.5317L107.714 71.8428L112.463 74.8708L94.1939 103.51Z" fill="#0082FF"/>
<path d="M126.72 96.9365V134.168H68.0122V96.9365C70.5337 98.3648 73.0112 99.8634 75.506 101.327C77.9924 102.817 80.4783 104.307 82.9468 105.823C85.6975 107.499 88.4481 109.2 91.1899 110.919C91.2166 110.902 91.2518 110.884 91.278 110.866C91.2518 110.884 91.2339 110.911 91.2077 110.928C93.2616 112.207 95.3159 113.494 97.3702 114.781C99.4156 113.494 101.47 112.198 103.524 110.928C103.498 110.911 103.48 110.884 103.453 110.866C103.48 110.884 103.515 110.902 103.541 110.911C106.283 109.2 109.025 107.499 111.784 105.815C114.253 104.307 116.73 102.808 119.217 101.327C121.721 99.8634 124.199 98.3648 126.72 96.9365Z" fill="#0082FF"/>
<g opacity="0.2">
<path d="M126.72 96.9365C124.348 98.6029 121.933 100.198 119.543 101.839C117.136 103.443 114.721 105.047 112.296 106.635C109.765 108.292 107.227 109.932 104.687 111.563C104.608 111.616 104.537 111.669 104.458 111.722C102.21 113.159 99.9531 114.596 97.6958 116.033L97.3608 116.236L97.0346 116.033C94.7779 114.596 92.5296 113.158 90.2812 111.713C90.202 111.669 90.1224 111.616 90.0432 111.563C87.495 109.932 84.9561 108.292 82.4257 106.626C80.0101 105.047 77.5945 103.443 75.1873 101.839C72.7979 100.198 70.3823 98.6029 68.0107 96.9365C70.5323 98.3648 73.0097 99.8634 75.5045 101.327C77.9909 102.817 80.4768 104.307 82.9454 105.823C85.696 107.499 88.4467 109.2 91.1884 110.919C91.1973 110.919 91.1973 110.919 91.2062 110.928C93.2601 112.207 95.3144 113.494 97.3687 114.781C99.4142 113.494 101.468 112.198 103.522 110.928C103.531 110.911 103.531 110.911 103.54 110.911C106.282 109.2 109.024 107.499 111.783 105.815C114.252 104.307 116.729 102.808 119.216 101.327C121.721 99.8634 124.199 98.3648 126.72 96.9365Z" fill="black"/>
<path d="M91.278 110.866C91.2518 110.884 91.234 110.91 91.2077 110.928C90.8989 111.192 90.5906 111.457 90.2818 111.712C88.8095 112.956 87.302 114.146 85.7678 115.301C83.8986 116.729 81.9853 118.096 80.0636 119.453C78.133 120.785 76.1934 122.107 74.2094 123.376C72.2258 124.646 70.2245 125.889 68.1523 127.026C69.9335 125.466 71.7844 124.011 73.6537 122.591C75.5313 121.163 77.4446 119.797 79.3579 118.439C81.2974 117.099 83.2369 115.776 85.2205 114.507C86.7987 113.493 88.4032 112.496 90.0433 111.562C90.4224 111.342 90.8015 111.13 91.1895 110.918C91.2166 110.901 91.2518 110.884 91.278 110.866Z" fill="black"/>
<path d="M126.579 127.027C124.507 125.89 122.497 124.647 120.522 123.377C118.538 122.108 116.599 120.785 114.659 119.454C112.736 118.097 110.824 116.73 108.954 115.302C107.429 114.147 105.922 112.966 104.458 111.722C104.141 111.458 103.832 111.193 103.523 110.929C103.497 110.911 103.479 110.885 103.453 110.867C103.479 110.885 103.514 110.902 103.541 110.911C103.929 111.131 104.308 111.343 104.687 111.564C106.327 112.498 107.923 113.494 109.51 114.508C111.493 115.778 113.433 117.1 115.363 118.44C117.286 119.798 119.198 121.165 121.068 122.593C122.947 124.012 124.798 125.466 126.579 127.027Z" fill="black"/>
</g>
<path d="M72.2483 60.3177C72.0627 59.0253 72.0192 57.7325 72.0103 56.4401C72.0154 55.1472 72.0566 53.8548 72.2403 52.5615C72.4268 53.8539 72.4704 55.1468 72.4784 56.4392C72.4723 57.732 72.4311 59.0249 72.2483 60.3177Z" fill="#263238"/>
<path d="M68.9525 61.5491C67.9075 60.7666 66.9623 59.8833 66.042 58.9756C65.1315 58.0576 64.2464 57.1148 63.4624 56.0703C64.5083 56.8524 65.453 57.7357 66.3729 58.6438C67.2824 59.5623 68.1676 60.5056 68.9525 61.5491Z" fill="#263238"/>
<path d="M67.4925 64.7496C66.2001 64.9352 64.9073 64.9788 63.6149 64.9877C62.322 64.9825 61.0292 64.9417 59.7363 64.7576C61.0287 64.5711 62.3216 64.5275 63.614 64.5195C64.9073 64.5261 66.1997 64.5669 67.4925 64.7496Z" fill="#263238"/>
<path d="M68.7239 68.0449C67.9414 69.0899 67.0581 70.035 66.1504 70.9554C65.2324 71.8659 64.2896 72.751 63.2451 73.535C64.0272 72.4891 64.9105 71.5444 65.8186 70.6245C66.7371 69.715 67.6804 68.8298 68.7239 68.0449Z" fill="#263238"/>
<path d="M122.133 60.3177C121.95 59.0249 121.909 57.732 121.903 56.4392C121.911 55.1463 121.954 53.8539 122.141 52.5615C122.325 53.8544 122.366 55.1472 122.371 56.4401C122.362 57.7325 122.318 59.0249 122.133 60.3177Z" fill="#263238"/>
<path d="M125.428 61.5491C126.213 60.5056 127.098 59.5623 128.008 58.6438C128.927 57.7352 129.872 56.8519 130.918 56.0703C130.134 57.1148 129.249 58.0576 128.339 58.9756C127.418 59.8833 126.473 60.7661 125.428 61.5491Z" fill="#263238"/>
<path d="M126.888 64.7496C128.181 64.5669 129.474 64.5256 130.766 64.5195C132.059 64.5275 133.352 64.5711 134.644 64.7576C133.351 64.9417 132.058 64.9825 130.766 64.9877C129.473 64.9792 128.181 64.9352 126.888 64.7496Z" fill="#263238"/>
<path d="M125.657 68.0449C126.701 68.8298 127.644 69.715 128.563 70.6245C129.471 71.5444 130.354 72.4891 131.136 73.535C130.092 72.751 129.149 71.8659 128.231 70.9554C127.323 70.035 126.44 69.0904 125.657 68.0449Z" fill="#263238"/>
<path d="M59.5429 195.894C58.5316 196.221 29.7003 195.847 28.6127 195.135C28.1947 194.871 28.004 190.667 27.9201 185.58C27.9197 185.527 27.9197 185.474 27.9192 185.421C27.8995 184.373 27.8859 183.294 27.884 182.199C27.8836 182.049 27.8831 181.898 27.8784 181.748L29.2772 166.791L48.5636 166.984L46.6602 181.801L46.6382 182.387L46.522 185.454L46.5107 185.77C46.5107 185.77 57.4824 190.849 58.5968 191.758C59.7022 192.664 60.555 195.572 59.5429 195.894Z" fill="#F7A9A0"/>
<path d="M59.5429 195.894C58.5316 196.221 29.7003 195.847 28.6127 195.134C28.1947 194.871 28.004 190.667 27.9201 185.58C27.9197 185.527 27.9197 185.474 27.9192 185.421C27.8995 184.373 27.8859 183.293 27.884 182.199C27.8836 182.048 27.8831 181.898 27.8784 181.748L46.6607 181.801L46.6387 182.388L46.5224 185.455L46.5112 185.77C46.5112 185.77 57.4829 190.849 58.5972 191.758C59.7022 192.664 60.555 195.572 59.5429 195.894Z" fill="#EBEBEB"/>
<path d="M59.6286 195.962C58.609 196.293 29.5148 196.014 28.4117 195.302C27.9918 195.035 27.7856 190.795 27.6812 185.665L46.4395 185.791C46.4395 185.791 57.5312 190.88 58.6567 191.79C59.7767 192.701 60.6483 195.632 59.6286 195.962Z" fill="#0082FF"/>
<path d="M59.2226 194.794C54.3469 194.628 34.6649 194.416 29.8323 194.622C29.7929 194.624 29.7929 194.651 29.8323 194.653C34.6616 194.923 54.3445 194.975 59.2226 194.874C59.3252 194.872 59.3257 194.797 59.2226 194.794Z" fill="#263238"/>
<path d="M56.7963 190.725C55.6398 190.667 54.5044 191.205 53.8671 191.888C53.2546 192.544 52.7275 193.47 52.7523 194.482C52.7528 194.511 52.8067 194.512 52.8114 194.482C53.108 192.576 54.8601 190.917 56.7958 190.786C56.8347 190.784 56.8357 190.727 56.7963 190.725Z" fill="#263238"/>
<path d="M48.3272 186.293C46.3755 186.247 44.1057 186.915 42.8775 188.499C42.8297 188.561 42.9178 188.628 42.9759 188.598C44.7495 187.706 46.4332 187.044 48.3586 186.534C48.4941 186.498 48.4669 186.297 48.3272 186.293Z" fill="#263238"/>
<path d="M49.8285 186.895C47.8763 186.849 45.6069 187.516 44.3783 189.101C44.3309 189.162 44.4186 189.229 44.4767 189.2C46.2498 188.307 47.934 187.645 49.8594 187.135C49.9953 187.1 49.9681 186.898 49.8285 186.895Z" fill="#263238"/>
<path d="M51.3297 187.497C49.378 187.451 47.1081 188.119 45.8799 189.703C45.8321 189.765 45.9202 189.831 45.9788 189.802C47.7519 188.91 49.4361 188.248 51.3615 187.738C51.4965 187.702 51.4693 187.501 51.3297 187.497Z" fill="#263238"/>
<path d="M52.8311 188.099C50.8794 188.053 48.6096 188.72 47.3814 190.305C47.3336 190.366 47.4217 190.433 47.4798 190.404C49.2529 189.511 50.9371 188.85 52.8625 188.339C52.998 188.304 52.9708 188.102 52.8311 188.099Z" fill="#263238"/>
<path d="M31.1188 190.002C28.9286 189.987 28.9023 193.391 31.0958 193.406C33.2865 193.42 33.3128 190.017 31.1188 190.002Z" fill="white"/>
<path d="M50.4865 181.105C49.5062 180.276 48.2537 181.065 47.6366 181.91C46.6366 183.279 45.9402 185.204 45.8151 186.885C45.8123 186.927 45.8437 186.944 45.8756 186.941C45.9159 187.081 46.0799 187.2 46.2251 187.102C47.6244 186.154 49.2373 185.314 50.3038 183.965C50.9261 183.177 51.4139 181.889 50.4865 181.105ZM48.0522 185.231C47.3755 185.714 46.6792 186.161 46.0204 186.669C46.3784 185.699 46.6923 184.719 47.1478 183.787C47.3652 183.341 47.5967 182.888 47.8737 182.477C48.3038 181.836 50.2354 180.223 50.4092 182.349C50.5053 183.521 48.8586 184.655 48.0522 185.231Z" fill="#263238"/>
<path d="M40.958 187.562C42.6552 187.839 44.4129 187.372 46.0853 187.129C46.2587 187.103 46.3 186.905 46.2348 186.774C46.2597 186.754 46.2714 186.72 46.2414 186.692C45.0151 185.534 43.203 184.582 41.5418 184.246C40.5161 184.038 39.0592 184.3 38.8943 185.573C38.7387 186.777 39.9674 187.4 40.958 187.562ZM39.7902 186.439C38.4857 184.752 40.9997 184.641 41.7494 184.825C42.2311 184.942 42.7077 185.121 43.1683 185.303C44.1336 185.685 45.0263 186.197 45.9443 186.671C45.1154 186.74 44.3 186.88 43.4743 186.979C42.4908 187.097 40.5095 187.37 39.7902 186.439Z" fill="#263238"/>
<path opacity="0.1" d="M43.149 196.01C35.9186 195.883 28.9412 195.644 28.4117 195.302C27.9899 195.035 27.7838 190.794 27.6807 185.663L30.3517 185.682C33.3038 188.081 39.5502 193.109 43.149 196.01Z" fill="black"/>
<path d="M47.7871 185.519H27.0227C27.0227 185.519 31.204 137.022 31.0409 136.175C30.8338 135.09 29.6074 130.181 27.9758 123.769C27.4641 121.762 26.9126 119.609 26.3395 117.378C24.7912 111.344 23.0846 104.751 21.5982 99.0127C19.3667 90.4167 17.6245 83.7393 17.6245 83.7393H35.2222C35.2222 83.7393 37.2732 90.2401 39.8575 98.6997C44.0697 112.447 49.6971 131.368 50.2529 135.968C51.1526 143.395 47.7871 185.519 47.7871 185.519Z" fill="#37474F"/>
<path d="M46.8678 181.977C43.6968 181.911 44.6077 181.885 41.4358 181.855C39.8838 181.84 29.6844 181.751 28.2345 181.991C28.2027 181.996 28.2022 182.05 28.2345 182.056C29.6848 182.296 39.8838 182.207 41.4358 182.192C44.6073 182.162 43.6963 182.136 46.8678 182.07C46.9273 182.068 46.9273 181.978 46.8678 181.977Z" fill="#263238"/>
<path d="M34.9482 133.211C34.2673 130.209 33.25 127.268 32.3643 124.322C30.5645 118.336 28.7501 112.353 26.9328 106.372C26.0242 103.381 25.1138 100.391 24.1939 97.4039C23.7295 95.8955 23.2661 94.3866 22.7937 92.8805C22.3317 91.4068 21.8059 89.9457 21.3889 88.4589C21.2193 87.8539 21.1265 88.1861 21.3439 88.9542C21.782 90.5029 22.2141 92.0535 22.6658 93.598C23.5604 96.6574 24.4615 99.715 25.3659 102.772C27.1657 108.855 28.9904 114.931 30.8128 121.008C31.7266 124.054 32.6464 127.099 33.5616 130.146C33.9988 131.602 34.4271 133.065 34.6839 134.566C34.9524 136.131 34.9665 137.713 34.8671 139.295C34.668 142.472 34.3001 145.644 34.0068 148.814C33.713 151.99 33.4187 155.166 33.1249 158.342C32.5396 164.663 31.9543 170.983 31.3854 177.306C31.3133 178.107 31.243 178.908 31.1816 179.71C31.161 179.979 31.5668 179.958 31.5949 179.7C32.2791 173.45 32.8034 167.18 33.3901 160.92C33.974 154.691 34.5583 148.462 35.1403 142.233C35.2865 140.669 35.4529 139.102 35.4543 137.53C35.4547 136.071 35.2706 134.632 34.9482 133.211Z" fill="#263238"/>
<path d="M33.2241 83.7393C32.0024 93.1908 29.6735 110.912 27.9758 123.769C24.0063 108.191 17.6245 83.7393 17.6245 83.7393H33.2241Z" fill="#263238"/>
<path d="M37.5465 196.172C36.5363 196.502 7.70402 196.233 6.61359 195.525C6.19467 195.263 5.98896 191.06 5.88586 185.974C5.8854 185.921 5.88493 185.868 5.88399 185.815C5.86056 184.766 5.84322 183.687 5.8376 182.593C5.83666 182.442 5.83572 182.292 5.83057 182.142C5.76356 174.801 6.29307 167.185 6.29307 167.185L25.1391 167.307L24.6128 182.126L24.5927 182.713L24.4872 185.78L24.4769 186.096C24.4769 186.096 35.4669 191.135 36.585 192.04C37.6937 192.941 38.5573 195.846 37.5465 196.172Z" fill="#F7A9A0"/>
<path d="M37.5465 196.172C36.5363 196.502 7.70401 196.234 6.61359 195.525C6.19467 195.264 5.98895 191.06 5.88586 185.974C5.88539 185.921 5.88492 185.868 5.88399 185.815C5.86056 184.767 5.84322 183.687 5.8376 182.593C5.83666 182.442 5.83572 182.292 5.83057 182.142L24.6128 182.126L24.5927 182.713L24.4872 185.78L24.4769 186.096C24.4769 186.096 35.4669 191.135 36.585 192.04C37.6937 192.941 38.5573 195.846 37.5465 196.172Z" fill="#EBEBEB"/>
<path d="M37.6599 196.112C36.6402 196.442 7.54604 196.163 6.44296 195.452C6.0231 195.184 5.81692 190.944 5.71289 185.814L24.4713 185.94C24.4713 185.94 35.5629 191.029 36.6885 191.939C37.8084 192.85 38.6796 195.781 37.6599 196.112Z" fill="#0082FF"/>
<path d="M37.2538 194.944C32.3781 194.778 12.6957 194.567 7.86351 194.773C7.82414 194.774 7.82414 194.801 7.86351 194.803C12.6929 195.074 32.3758 195.126 37.2538 195.024C37.356 195.022 37.3565 194.948 37.2538 194.944Z" fill="#263238"/>
<path d="M34.8271 190.874C33.671 190.816 32.5351 191.355 31.8979 192.037C31.2859 192.694 30.7582 193.619 30.7831 194.631C30.784 194.66 30.8374 194.662 30.8421 194.632C31.1387 192.726 32.8908 191.066 34.8266 190.936C34.8655 190.933 34.8669 190.876 34.8271 190.874Z" fill="#263238"/>
<path d="M26.358 186.443C24.4063 186.397 22.1364 187.064 20.9082 188.649C20.8604 188.71 20.9485 188.777 21.0066 188.748C22.7803 187.855 24.4639 187.193 26.3894 186.683C26.5253 186.647 26.4976 186.446 26.358 186.443Z" fill="#263238"/>
<path d="M27.8597 187.044C25.908 186.998 23.6382 187.666 22.4095 189.25C22.3622 189.312 22.4498 189.378 22.5084 189.349C24.2816 188.457 25.9657 187.795 27.8911 187.285C28.027 187.249 27.9994 187.047 27.8597 187.044Z" fill="#263238"/>
<path d="M29.3609 187.647C27.4092 187.601 25.1393 188.268 23.9112 189.853C23.8634 189.914 23.9515 189.981 24.01 189.952C25.7832 189.059 27.4673 188.397 29.3928 187.887C29.5277 187.852 29.5006 187.65 29.3609 187.647Z" fill="#263238"/>
<path d="M30.8624 188.248C28.9107 188.202 26.6408 188.87 25.4126 190.454C25.3648 190.516 25.4529 190.582 25.5115 190.553C27.2847 189.661 28.9688 188.999 30.8943 188.489C31.0292 188.453 31.002 188.252 30.8624 188.248Z" fill="#263238"/>
<path d="M9.15005 190.151C6.95984 190.137 6.9336 193.54 9.12709 193.555C11.3178 193.57 11.344 190.166 9.15005 190.151Z" fill="white"/>
<path d="M28.5178 181.254C27.5375 180.425 26.2849 181.214 25.6678 182.059C24.6678 183.427 23.9715 185.352 23.8464 187.033C23.8436 187.075 23.8745 187.092 23.9068 187.09C23.9471 187.23 24.1111 187.349 24.2564 187.25C25.6556 186.302 27.2685 185.462 28.335 184.113C28.9569 183.326 29.4447 182.038 28.5178 181.254ZM26.083 185.38C25.4063 185.863 24.71 186.309 24.0511 186.817C24.4092 185.848 24.7231 184.868 25.1786 183.935C25.396 183.49 25.6275 183.038 25.9044 182.626C26.3346 181.985 28.2666 180.372 28.4405 182.497C28.5361 183.669 26.8894 184.804 26.083 185.38Z" fill="#263238"/>
<path d="M18.9888 187.711C20.6861 187.989 22.4438 187.521 24.1162 187.278C24.2896 187.253 24.3308 187.055 24.2657 186.923C24.2905 186.903 24.3027 186.87 24.2723 186.841C23.0459 185.684 21.2339 184.731 19.5732 184.395C18.5474 184.187 17.0905 184.449 16.9256 185.722C16.7696 186.926 17.9982 187.549 18.9888 187.711ZM17.8211 186.589C16.5165 184.901 19.0305 184.791 19.7803 184.974C20.2625 185.092 20.7386 185.27 21.1992 185.453C22.1645 185.834 23.0572 186.346 23.9752 186.821C23.1462 186.89 22.3309 187.029 21.5052 187.129C20.5216 187.247 18.5404 187.519 17.8211 186.589Z" fill="#263238"/>
<path d="M34.6528 83.7393C34.6528 83.7393 34.247 92.1585 32.3197 98.8276C32.1655 99.3787 31.9977 99.9213 31.8169 100.442C31.8169 100.442 29.8103 101.17 26.7448 103.049C26.7448 103.049 26.5419 109.823 26.339 117.378C26.114 125.824 25.8802 135.245 25.9289 137.243C26.1056 144.719 24.9941 185.824 24.9941 185.824L4.23389 185.908C4.23389 185.908 7.98734 140.004 7.96063 137.265C7.9208 132.864 8.96624 113.409 9.77316 99.2207C10.2671 90.4791 10.6729 83.7402 10.6729 83.7402H34.6528V83.7393Z" fill="#37474F"/>
<path d="M24.2826 182.131C21.1112 182.078 22.0221 182.049 18.8502 182.031C17.2977 182.023 7.09829 181.977 5.64939 182.224C5.61752 182.229 5.61752 182.283 5.64939 182.288C7.10063 182.522 17.2992 182.39 18.8516 182.369C22.0231 182.325 21.1121 182.302 24.2826 182.223C24.3421 182.221 24.3421 182.131 24.2826 182.131Z" fill="#263238"/>
<path d="M12.4178 86.7472C12.0359 98.3295 11.6311 109.913 11.1128 121.49C10.5931 133.107 9.89258 144.72 8.92072 156.308C8.37761 162.782 7.86591 171.889 7.16723 178.349C7.16254 178.392 7.22862 178.408 7.23471 178.364C8.7464 166.874 9.58893 152.668 10.3321 141.106C11.0753 129.546 11.5791 117.966 11.9731 106.389C12.1962 99.8407 12.3668 93.2898 12.5622 86.7402C12.565 86.6465 12.4207 86.6549 12.4178 86.7472Z" fill="#263238"/>
<path d="M32.6799 99.94C30.6129 100.761 28.6336 101.882 26.7451 103.049C26.6711 103.095 26.7268 103.21 26.8074 103.171C28.8102 102.198 30.8552 101.261 32.8017 100.179C32.9545 100.094 32.8383 99.8772 32.6799 99.94Z" fill="#263238"/>
<path d="M32.7964 92.7969C32.6591 93.5349 32.4801 94.265 32.3208 94.9988C32.1713 95.6867 32.0612 96.3891 31.8794 97.0691C31.7027 97.7289 31.422 98.3338 30.915 98.8047C30.6451 99.0554 30.3475 99.2776 30.0598 99.5076C29.9047 99.6314 29.737 99.7504 29.5758 99.876C29.5968 99.7785 29.6137 99.6796 29.6311 99.5789C29.6803 99.2991 29.7276 99.0189 29.7744 98.7391C29.8789 98.1178 29.9783 97.495 30.0734 96.8723C30.2604 95.6478 30.4328 94.4107 30.6887 93.1985C30.699 93.1493 30.6249 93.1301 30.6123 93.1793C30.3072 94.3803 29.9703 95.5686 29.7046 96.7799C29.5744 97.3741 29.1095 100.307 29.0889 100.515C29.0678 100.729 29.05 100.944 29.042 101.159C29.0345 101.372 28.9924 101.609 29.0416 101.818C29.0542 101.871 29.1189 101.863 29.1414 101.826C29.1423 101.827 29.1432 101.828 29.1447 101.829C29.2515 101.642 29.2782 101.398 29.3312 101.191C29.385 100.982 29.4324 100.77 29.4699 100.557C29.4834 100.48 29.4942 100.401 29.505 100.323C29.7937 100.147 30.0626 99.9153 30.333 99.7199C30.624 99.5091 30.9206 99.3038 31.1957 99.0719C31.7229 98.6276 32.0528 98.0836 32.2491 97.4257C32.4529 96.7429 32.5157 96.0227 32.5945 95.3175C32.6877 94.4838 32.7557 93.646 32.8723 92.8156C32.8798 92.7669 32.8063 92.7463 32.7964 92.7969Z" fill="#263238"/>
<path d="M25.2089 64.6602C26.819 69.5041 34.0143 84.8933 37.04 85.9678C40.1885 87.0858 52.349 88.478 55.0481 86.3515C56.3696 85.3103 56.8269 74.1859 55.0481 74.453C53.2689 74.7201 42.5427 75.1226 41.2695 74.6657C40.0034 74.2112 31.4712 61.8051 28.0129 58.8019C22.0496 53.6229 24.342 62.052 25.2089 64.6602Z" fill="#F7A9A0"/>
<path d="M52.3492 74.2643L52.172 88.1277C52.172 88.1277 39.7041 88.1609 36.3808 86.4126C33.058 84.6648 26.0286 68.6439 24.2732 62.5128C22.5183 56.3817 25.3257 55.4337 29.7914 59.9332C34.2571 64.4327 40.9735 73.858 41.7706 74.0539C42.5682 74.2497 52.3492 74.2643 52.3492 74.2643Z" fill="#0082FF"/>
<path d="M35.7075 66.7888C33.1443 67.2106 30.6561 68.0494 28.3412 69.2255C28.2006 69.2958 28.06 69.3708 27.9195 69.4458C27.8117 69.4973 27.7086 69.5536 27.6055 69.6145C27.3993 69.7222 27.1978 69.8347 26.9963 69.9565C26.9682 69.8816 26.9354 69.8066 26.9073 69.7316C27.0479 69.6473 27.1931 69.5629 27.3337 69.4833C27.4368 69.427 27.5399 69.3708 27.643 69.3193C27.8351 69.2115 28.0319 69.1037 28.2287 69.0053C29.4143 68.3867 30.6608 67.876 31.9353 67.4683C33.1209 67.0934 34.3252 66.7842 35.5529 66.592C35.6044 66.6576 35.656 66.7232 35.7075 66.7888ZM38.491 70.2893C38.2708 70.4064 38.0411 70.5095 37.8115 70.6032C37.207 70.8563 36.5698 71.0249 35.9137 71.0999C35.5857 71.1374 35.2577 71.1936 34.9297 71.2124L33.9409 71.2405C32.6195 71.2124 31.3168 70.9219 30.0891 70.4251C29.3534 70.1393 28.6364 69.7925 27.9195 69.4458C27.8258 69.4083 27.7367 69.3614 27.643 69.3193C27.4181 69.2162 27.1931 69.1084 26.9635 69.01C26.8932 68.9772 26.8183 68.9444 26.7433 68.9163C26.6777 68.8835 26.6074 68.8554 26.5371 68.8272C26.5652 68.8928 26.5887 68.9584 26.6168 69.024C26.6402 69.0803 26.6636 69.1365 26.6824 69.1927H26.6871C26.7058 69.1974 26.7152 69.2021 26.7292 69.2115C26.9307 69.3005 27.1322 69.3895 27.3337 69.4833C27.4228 69.5254 27.5118 69.5723 27.6055 69.6145C28.3834 69.9847 29.1659 70.3783 29.9813 70.6969C31.2324 71.203 32.5773 71.5076 33.9362 71.5357L34.9484 71.5123C35.2858 71.4935 35.6232 71.4326 35.9559 71.3951C36.6307 71.3202 37.2961 71.1421 37.924 70.8844C38.1864 70.7813 38.4394 70.6641 38.6878 70.5329C38.6222 70.4533 38.5566 70.3689 38.491 70.2893ZM33.6926 64.3193C32.8163 64.727 31.9635 65.1816 31.1387 65.6876C29.5783 66.6342 28.1257 67.7307 26.7433 68.9163C26.7011 68.9537 26.6589 68.9866 26.6168 69.024C26.6402 69.0803 26.6636 69.1365 26.6824 69.1927H26.6871C26.6917 69.2021 26.6964 69.2162 26.7011 69.2302C26.7105 69.2209 26.7199 69.2115 26.7292 69.2115C26.8089 69.1412 26.8839 69.0709 26.9635 69.01C28.3225 67.8666 29.7517 66.8076 31.2699 65.8985C32.1087 65.3971 32.9709 64.9379 33.8613 64.5208C33.805 64.4552 33.7488 64.3849 33.6926 64.3193Z" fill="white"/>
<path d="M48.7134 81.1084C48.7237 80.0105 48.7945 75.6184 48.8962 74.5293C48.8976 74.5115 48.9262 74.5087 48.9285 74.5275C49.0353 75.5856 49.092 79.9219 49.0841 81.0217C49.0681 83.2143 49.0972 85.4205 48.8399 87.6018C48.8352 87.6402 48.7715 87.6486 48.7682 87.606C48.6047 85.4448 48.6933 83.2729 48.7134 81.1084Z" fill="#263238"/>
<path opacity="0.1" d="M24.2714 62.5122C26.0286 68.6461 33.0576 84.6627 36.3799 86.4106C37.9732 87.2494 41.6657 87.6805 45.0818 87.896L25.5038 57.1421C23.8309 56.9546 23.1983 58.7681 24.2714 62.5122Z" fill="black"/>
<path d="M8.50959 96.2481C8.58551 96.3222 39.0049 94.2407 39.2593 93.9089C39.615 93.4417 29.9882 62.5303 27.5754 57.9887C26.5468 56.0534 21.6284 55.7755 19.6837 57.604C14.8155 62.1822 11.4275 76.9856 10.7153 81.4241C9.53207 88.7375 8.23828 95.9801 8.50959 96.2481Z" fill="#0082FF"/>
<path d="M37.634 87.7504C37.3481 87.5817 37.067 87.413 36.7811 87.249C35.6284 86.5836 34.4475 85.965 33.2338 85.4262C33.0136 85.3278 32.7887 85.2293 32.5684 85.1356C32.4607 85.0935 32.3529 85.0466 32.2451 85.0044C31.3454 84.6389 30.4316 84.3109 29.4945 84.0625C28.2105 83.7158 26.9031 83.4862 25.5817 83.3925C22.9341 83.2612 20.2631 83.5752 17.7046 84.264C17.5499 84.3062 17.3953 84.3484 17.2454 84.3952C17.1282 84.4234 17.0157 84.4562 16.9033 84.4937C15.1132 85.0279 13.3888 85.7495 11.7159 86.5836C11.2567 86.8038 10.7975 87.0428 10.3476 87.2818C10.3008 87.3052 10.2539 87.3333 10.207 87.3568C10.0337 87.4505 9.86028 87.5442 9.69159 87.6332C9.70565 87.5536 9.7197 87.4739 9.73376 87.3943C9.90714 87.2959 10.0805 87.2021 10.2539 87.1084C10.7787 86.8226 11.3082 86.5461 11.8424 86.2884C12.2829 86.0635 12.7328 85.8526 13.1826 85.6511C14.3166 85.1403 15.4741 84.6858 16.6596 84.3109C16.7721 84.2781 16.8892 84.2406 17.0017 84.2125C17.2126 84.1422 17.4234 84.0813 17.639 84.0251C18.9276 83.6596 20.2491 83.4159 21.5846 83.28C22.9154 83.1441 24.2555 83.0926 25.5957 83.1769C27.9528 83.355 30.2489 83.9782 32.4232 84.8873C32.5263 84.9341 32.634 84.9763 32.7418 85.0279C32.9293 85.1075 33.1167 85.1919 33.2995 85.2762C34.5178 85.8245 35.6987 86.4571 36.8467 87.1319C37.0904 87.2771 37.3341 87.4177 37.5777 87.563C37.5965 87.6286 37.6152 87.6895 37.634 87.7504ZM36.0595 82.5818C35.2816 83.041 34.5225 83.5237 33.768 84.0157C33.3182 84.3062 32.873 84.6014 32.4232 84.8873C32.3623 84.9294 32.306 84.9669 32.2451 85.0044C31.6313 85.398 31.008 85.7776 30.3754 86.1337C29.2133 86.771 27.9903 87.324 26.6969 87.5489C26.0503 87.6707 25.3896 87.7082 24.7335 87.6473C24.4055 87.6145 24.0728 87.6051 23.7495 87.5583L22.7748 87.3849C21.4861 87.085 20.2725 86.532 19.1713 85.7964C18.5106 85.3652 17.8826 84.8779 17.2454 84.3952C17.1657 84.3343 17.086 84.2734 17.0017 84.2125C16.8049 84.0625 16.6034 83.9126 16.4019 83.772C16.3363 83.7205 16.2754 83.6783 16.2098 83.6314C16.116 83.5658 16.0223 83.5049 15.9286 83.4393C14.8087 82.6989 13.4919 82.1413 12.1189 82.1413C11.5707 82.1413 11.0458 82.2725 10.5444 82.4646C10.5304 82.549 10.5163 82.6333 10.5023 82.7177C11.0224 82.5162 11.566 82.3756 12.1142 82.3803C13.4357 82.3943 14.6821 82.9332 15.774 83.6689C15.8302 83.7064 15.8817 83.7439 15.938 83.7814C16.0036 83.8282 16.0645 83.8704 16.1301 83.9173C16.3082 84.0438 16.4862 84.175 16.6596 84.3109C16.744 84.3718 16.8236 84.4327 16.9033 84.4937C17.5921 85.0185 18.2763 85.5621 19.012 86.04C20.1319 86.7898 21.3831 87.3661 22.7045 87.6707L23.7073 87.8535C24.04 87.9003 24.3774 87.9144 24.7148 87.9472C25.3896 88.0081 26.0784 87.9706 26.7485 87.8488C28.0934 87.6145 29.3445 87.0475 30.5207 86.3962C31.2189 86.0025 31.8984 85.5761 32.5684 85.1356C32.6247 85.1028 32.6856 85.0653 32.7418 85.0279C33.1354 84.7701 33.5291 84.5124 33.9227 84.2547C34.6537 83.772 35.3941 83.2987 36.1438 82.8489L36.0595 82.5818ZM35.544 80.923C34.7287 80.6605 33.9039 80.4403 33.0652 80.2669C31.7484 79.9951 30.3988 79.8827 29.0587 79.9014C27.7091 79.9202 26.3736 80.0748 25.0522 80.3232C23.7354 80.5715 22.4327 80.923 21.1675 81.3728C19.4478 81.9773 17.803 82.7552 16.2098 83.6314C16.116 83.6783 16.027 83.7298 15.938 83.7814C15.2726 84.1516 14.6212 84.5358 13.9746 84.9341C13.2576 85.3746 12.5453 85.8292 11.8424 86.2884C11.2942 86.6398 10.7506 87.0006 10.207 87.3568C10.0337 87.4739 9.8556 87.5864 9.68222 87.6988C9.66816 87.7738 9.65879 87.8441 9.64941 87.9144C10.3429 87.4739 11.0271 87.0241 11.7159 86.5836C12.2033 86.2696 12.6906 85.9557 13.1826 85.6511C13.4778 85.4636 13.7731 85.2809 14.073 85.1028C14.7477 84.6952 15.4366 84.2968 16.1301 83.9173C16.2191 83.8657 16.3082 83.8189 16.4019 83.772C17.9623 82.9285 19.5743 82.1882 21.2519 81.6071C23.7635 80.7449 26.397 80.1779 29.0587 80.117C30.3895 80.0889 31.7203 80.1966 33.0277 80.4544C33.8993 80.6277 34.7615 80.8574 35.6096 81.1291C35.5862 81.0588 35.5628 80.9886 35.544 80.923Z" fill="white"/>
<path d="M15.5973 61.1165C7.52249 70.0315 -1.58186 85.0646 2.31311 88.2754C5.87022 91.2074 18.8616 88.4178 27.0283 85.2253C28.5826 84.6175 22.279 70.8652 20.6933 71.6843C17.9113 73.1205 15.7332 73.9532 15.5242 74.0104C15.0767 74.1322 17.5317 71.1332 20.2655 63.9253C23.0443 56.5983 20.213 56.0205 15.5973 61.1165Z" fill="#F7A9A0"/>
<path d="M40.5409 70.659C40.5489 72.2574 36.6066 71.943 36.6066 71.943C36.6066 71.943 37.547 72.5217 37.8066 73.5503C38.1042 74.7283 36.3873 75.711 36.3873 75.711C36.3873 75.711 37.2176 76.4935 37.383 77.6078C37.5541 78.7639 35.9637 80.0024 35.9637 80.0024C35.9637 80.0024 36.3367 81.1565 35.7889 82.2216C34.8517 84.0426 31.7008 84.0806 29.7552 84.4887C27.6709 84.9264 24.6279 85.9723 23.3725 86.5219L19.7559 72.1618C19.7559 72.1618 28.1967 67.1511 30.5556 67.2636C32.542 67.3582 40.5287 68.2162 40.5409 70.659Z" fill="#F7A9A0"/>
<path d="M36.5737 71.8984C34.4852 71.2911 32.2551 71.1847 30.1024 71.1055C30.0546 71.1036 30.0523 71.1786 30.1005 71.18C32.2425 71.2339 34.4215 71.8614 36.5573 72.0005C36.6164 72.0043 36.6299 71.9148 36.5737 71.8984Z" fill="#263238"/>
<path d="M36.3299 75.5496C35.8534 75.4263 35.3374 75.461 34.8496 75.4671C34.3243 75.4741 33.799 75.4905 33.2742 75.5144C32.2231 75.5632 31.1735 75.6353 30.1262 75.7389C30.0798 75.7436 30.0751 75.8158 30.1243 75.8134C31.1716 75.767 32.2199 75.7361 33.2681 75.7337C33.7929 75.7323 34.3178 75.7361 34.8421 75.7426C35.3304 75.7487 35.8445 75.7961 36.3252 75.6934C36.3965 75.678 36.4016 75.5679 36.3299 75.5496Z" fill="#263238"/>
<path d="M35.919 80.0032C35.5089 79.8795 35.0038 79.9718 34.582 80.0004C34.1036 80.0323 33.6252 80.0618 33.1463 80.0885C32.1889 80.1419 31.2321 80.1949 30.2733 80.215C30.2255 80.216 30.2232 80.2905 30.2714 80.2895C31.2456 80.2741 32.2194 80.2717 33.1931 80.2478C33.6716 80.2361 34.1495 80.2216 34.6275 80.2043C35.0338 80.1897 35.5436 80.2178 35.9232 80.051C35.9452 80.0421 35.9396 80.0093 35.919 80.0032Z" fill="#263238"/>
<path d="M19.3781 71.9998L22.4886 87.4475C22.4886 87.4475 3.15107 92.4933 1.14548 87.5993C-0.860113 82.7053 10.5104 64.5402 17.0646 59.357C23.6189 54.1739 21.1616 62.3406 20.9624 62.9929C20.0772 65.893 15.9531 73.4594 15.9531 73.4594L19.3781 71.9998Z" fill="#0082FF"/>
<path d="M22.4886 87.4459C22.4886 87.4459 3.14962 92.4927 1.14403 87.6005C0.0662568 84.967 2.85909 78.4957 6.68752 72.2681C6.70626 72.2353 6.72969 72.2025 6.74844 72.1697C6.77655 72.1275 6.79998 72.0853 6.8281 72.0431C6.85153 72.001 6.87964 71.9588 6.90776 71.9166C8.31355 69.6533 9.85522 67.4321 11.3875 65.4547C11.4391 65.3844 11.4953 65.3141 11.5515 65.2438C13.5009 62.7462 15.4315 60.6516 17.0669 59.3582C23.6179 54.1756 21.1624 62.3385 20.9609 62.9945C20.9 63.2007 20.8204 63.4303 20.7267 63.6787C20.6892 63.7724 20.6517 63.8755 20.6095 63.9786C20.0706 65.3563 19.1803 67.2119 18.3274 68.9176C18.29 68.9879 18.2572 69.0582 18.2243 69.1238C18.2103 69.1472 18.2009 69.1706 18.1915 69.1894C18.1728 69.2269 18.1541 69.2597 18.1353 69.2972C17.0247 71.4855 16.0173 73.3411 15.9563 73.4536L19.3771 72.001L22.4886 87.4459Z" fill="#0082FF"/>
<path d="M18.3274 68.9176C18.2899 68.9879 18.2571 69.0582 18.2243 69.1238C18.2103 69.1472 18.2009 69.1707 18.1915 69.1894L17.9572 69.3394L16.05 70.5811C14.9254 71.2981 13.782 71.9916 12.559 72.5492C11.9451 72.821 11.3079 73.0553 10.6424 73.1865C9.98642 73.3224 9.26478 73.3412 8.61811 73.1256C8.45411 73.0787 8.28541 73.0413 8.12609 72.9897L7.65749 72.7882C7.33416 72.6711 7.05769 72.4743 6.75779 72.3102C6.73436 72.2962 6.71093 72.2821 6.6875 72.2681C6.70624 72.2353 6.72967 72.2025 6.74842 72.1697C6.77653 72.1275 6.79996 72.0853 6.82808 72.0432C6.85151 72.0666 6.87494 72.0806 6.89837 72.0947C6.9218 72.1087 6.94054 72.1181 6.96397 72.1322C7.22639 72.2821 7.47474 72.4602 7.76058 72.5633L8.21044 72.7601C8.36507 72.807 8.5244 72.8491 8.67903 72.896C9.30227 73.1022 9.9583 73.0928 10.6003 72.9663C11.2423 72.8444 11.8655 72.6195 12.4747 72.3571C13.6836 71.8182 14.827 71.1388 15.9563 70.4359L17.4793 69.4612L17.8776 69.2035L18.3274 68.9176ZM17.8776 69.2035C15.4737 69.7892 13.1166 70.5343 10.7174 71.12C9.46159 71.434 8.18701 71.7104 6.90774 71.9166C6.87962 71.9588 6.85151 72.001 6.82808 72.0432C6.79996 72.0853 6.77653 72.1275 6.74842 72.1697C6.81871 72.1556 6.89368 72.1462 6.96397 72.1322C8.24324 71.9166 9.51313 71.6308 10.769 71.3121C13.0229 70.7451 15.2347 70.0422 17.4793 69.4612C17.6386 69.419 17.7979 69.3768 17.9572 69.3394C18.0135 69.3253 18.0744 69.3066 18.1353 69.2972C18.154 69.2597 18.1728 69.2269 18.1915 69.1894C18.2009 69.1707 18.2103 69.1472 18.2243 69.1238C18.1072 69.1472 17.99 69.1753 17.8776 69.2035ZM18.0322 65.3094C17.4465 65.6187 16.842 65.8905 16.2094 66.092C15.5861 66.2841 14.9254 66.4059 14.2881 66.3356C13.2947 66.2185 12.3716 65.8014 11.5515 65.2438C11.4953 65.3141 11.4391 65.3844 11.3875 65.4547C12.2497 66.0311 13.2197 66.4622 14.26 66.5746C14.9535 66.6449 15.6377 66.509 16.2797 66.3029C16.9263 66.0967 17.5402 65.8108 18.1306 65.4922C18.9881 65.0376 19.8035 64.5175 20.6095 63.9786C20.6517 63.8755 20.6891 63.7724 20.7266 63.6787C19.8504 64.2598 18.9647 64.8221 18.0322 65.3094Z" fill="white"/>
<path d="M19.0436 72.0123C16.8229 72.794 11.0025 75.696 9.72601 76.8881C9.68806 76.9232 9.72882 76.9837 9.77053 76.9546C11.0282 76.069 18.2212 72.548 19.3449 72.1173C19.3449 72.1173 19.3992 72.256 19.4236 72.2916C19.4611 72.345 19.4906 72.3132 19.4892 72.264C19.4883 72.2298 19.4203 71.9069 19.4063 71.8877C19.4063 71.8877 19.2863 71.9271 19.0436 72.0123Z" fill="#263238"/>
<path d="M17.3894 80.6546C17.1805 79.5769 16.3731 75.2588 16.255 74.1716C16.2531 74.1538 16.2803 74.1454 16.2859 74.1632C16.6017 75.1786 17.5235 79.4161 17.7353 80.4958C18.1575 82.6476 18.6265 84.8031 18.8102 86.9919C18.8135 87.0304 18.7526 87.0514 18.7409 87.0102C18.149 84.9254 17.8023 82.7797 17.3894 80.6546Z" fill="#263238"/>
<path d="M15.7995 73.5516C16.4064 72.2367 17.1454 70.9832 17.8103 69.6974C18.4729 68.4172 19.1655 67.1431 19.784 65.8418C19.792 65.8249 19.821 65.8381 19.814 65.8554C19.4368 66.7439 19.0614 67.6276 18.6599 68.5016C18.7808 68.3633 18.8965 68.2204 19.0085 68.0761C19.2123 67.8127 19.4016 67.5367 19.5863 67.2598C19.5985 67.2415 19.6228 67.2584 19.6144 67.2771C19.4705 67.5901 19.2882 67.8788 19.0774 68.1511C18.9204 68.354 18.7423 68.5372 18.5615 68.7181C18.3956 69.0737 18.2259 69.428 18.0474 69.7794C17.3876 71.0802 16.875 72.3684 16.0245 73.5563C15.9968 73.5943 15.7803 73.5938 15.7995 73.5516Z" fill="#263238"/>
<path d="M9.38261 89.6257C11.6647 89.5957 20.2817 87.9031 22.4143 87.4669C22.3866 87.2401 22.3946 87.1614 22.3576 86.8413C22.3529 86.7996 22.4185 86.7795 22.4269 86.824C22.4864 87.1267 22.6903 87.7302 22.605 87.7635C21.5806 88.166 11.623 89.9069 9.38074 89.7208C9.31935 89.7157 9.32076 89.6266 9.38261 89.6257Z" fill="#263238"/>
<path d="M32.5889 88.0628L48.6312 90.2226L54.7188 67.9249L38.6764 65.7656L32.5889 88.0628Z" fill="#263238"/>
<path d="M33.377 88.1688L49.4193 90.3286L55.5069 68.0314L39.4645 65.8721L33.377 88.1688Z" fill="#37474F"/>
<path d="M46.6822 77.3896C46.4906 78.241 45.6368 78.8376 44.7751 78.7214C43.9133 78.6051 43.3697 77.8207 43.5614 76.9693C43.7531 76.1178 44.6064 75.5213 45.4686 75.6375C46.3303 75.7537 46.8739 76.5382 46.6822 77.3896Z" fill="white"/>
<path d="M55.3473 72.627C56.0151 74.5037 57.9288 76.9446 57.9555 78.4249C57.9799 79.7613 56.836 80.1142 56.836 80.1142C56.836 80.1142 58.2212 80.99 58.0239 82.3377C57.9222 83.0312 56.7259 83.4782 56.7259 83.4782C56.7259 83.4782 57.8051 84.2289 57.5563 85.4159C57.3576 86.362 56.1884 86.6684 56.1884 86.6684C56.1884 86.6684 56.888 87.8709 56.3768 88.7696C55.3398 90.5925 47.085 89.7532 46.1192 86.5827C45.6689 85.1047 47.674 85.4196 47.674 85.4196C47.674 85.4196 44.9 84.2711 45.0293 82.5645C45.1591 80.8583 47.7396 81.4244 47.7396 81.4244C47.7396 81.4244 45.0612 80.2876 45.3737 78.5322C45.6994 76.7047 48.1839 77.7126 48.1839 77.7126C48.1839 77.7126 46.4749 76.2815 47.0222 74.9924C47.9257 72.8636 51.1201 75.9807 52.9781 75.7351L54.2836 72.8453L55.3473 72.627Z" fill="#F7A9A0"/>
<path d="M56.7374 75.3959C56.2604 73.5637 58.6685 71.6064 58.4637 69.7887C58.1872 67.33 55.2398 69.4129 54.2824 72.8454L54.0078 75.6405L56.7374 75.3959Z" fill="#F7A9A0"/>
<path d="M56.0096 86.7446C56.0372 86.7451 56.0419 86.784 56.0133 86.7882C53.2308 87.1739 50.0556 86.7446 47.5612 85.4166C47.4792 85.3731 47.5144 85.2212 47.6142 85.2522C50.4469 86.1289 53.0307 86.6814 56.0096 86.7446Z" fill="#263238"/>
<path d="M56.7635 83.5003C56.7959 83.5007 56.7954 83.5546 56.7607 83.5593C53.8915 83.9408 50.3283 83.3592 47.6334 81.49C47.5411 81.4258 47.5224 81.2758 47.6344 81.3414C49.5209 82.4478 54.0818 83.4567 56.7635 83.5003Z" fill="#263238"/>
<path d="M48.0289 77.5153C50.6821 79.2079 53.6113 79.8794 56.7185 80.1366C56.7588 80.1399 56.7499 80.1971 56.7153 80.2032C55.1609 80.4913 53.197 80.1212 51.6938 79.7036C50.2533 79.3035 49.0345 78.6535 47.9694 77.6081C47.9281 77.5678 47.9717 77.4792 48.0289 77.5153Z" fill="#263238"/>
<path d="M28.1417 59.1749C28.1398 59.1603 28.1183 59.1617 28.1192 59.1763C28.1768 60.561 28.2199 63.7704 26.055 63.5314C25.183 63.4353 24.3971 62.8735 23.743 62.3257C23.071 61.7634 22.4759 61.1139 21.9398 60.4218C21.3452 59.6533 20.7336 58.8478 20.2744 57.9907C20.2547 57.9542 20.1995 57.9907 20.2205 58.0273C20.7182 58.8829 21.1291 59.77 21.7088 60.5783C22.2669 61.3567 22.9051 62.083 23.653 62.6842C24.354 63.2479 25.1914 63.8093 26.1155 63.8669C26.995 63.9217 27.6468 63.3913 27.9214 62.5839C28.2818 61.5239 28.2898 60.2733 28.1417 59.1749Z" fill="#263238"/>
<path d="M26.0057 62.1221C24.443 62.2584 21.883 59.3311 21.1323 57.3105C21.0817 57.1718 21.4758 55.8485 21.8788 54.2183C22.1197 53.2277 22.3643 52.1194 22.5142 51.0918L28.7301 53.5997C28.7301 53.5997 27.7817 55.6611 27.531 57.4544C27.5118 57.6043 27.5062 57.7459 27.5137 57.8827C27.5127 57.9024 27.5151 57.9267 27.5127 57.9539C27.5268 58.774 27.5165 61.9895 26.0057 62.1221Z" fill="#F7A9A0"/>
<path d="M27.5131 57.8835C27.5117 57.9018 27.5145 57.9247 27.5122 57.9519C27.3065 57.9538 27.0844 57.9317 26.8454 57.8943C23.128 57.2649 22.9167 52.572 22.9345 51.2627L24.4874 51.8887L28.7306 53.601C28.7306 53.601 27.7812 55.6628 27.5333 57.4561C27.5127 57.6051 27.5056 57.7462 27.5131 57.8835Z" fill="#263238"/>
<path d="M21.8027 44.0613C21.156 46.3879 22.5431 53.0269 24.2225 54.4725C26.6573 56.5686 30.5603 56.6768 32.3198 53.7692C34.0255 50.9506 32.0654 42.3303 30.1971 41.0252C27.4455 39.1026 22.7577 40.6246 21.8027 44.0613Z" fill="#F7A9A0"/>
<path d="M28.3526 48.2545C28.3456 48.2381 28.3221 48.2831 28.3264 48.3014C28.4318 48.7461 28.4777 49.2732 28.1028 49.5043C28.0911 49.5113 28.0972 49.5338 28.1117 49.5286C28.5916 49.3581 28.5241 48.6589 28.3526 48.2545Z" fill="#263238"/>
<path d="M27.8578 47.8682C27.1268 47.9605 27.3648 49.4155 28.0419 49.3302C28.7083 49.2468 28.4707 47.7913 27.8578 47.8682Z" fill="#263238"/>
<path d="M30.897 47.7521C30.8975 47.7343 30.9359 47.7676 30.9382 47.7864C30.9977 48.2395 31.1421 48.7484 31.5741 48.8313C31.5877 48.8341 31.59 48.8566 31.5746 48.8571C31.0652 48.8688 30.8806 48.1912 30.897 47.7521Z" fill="#263238"/>
<path d="M31.2227 47.2156C31.9387 47.0422 32.2334 48.4874 31.5699 48.6476C30.9167 48.806 30.6224 47.3613 31.2227 47.2156Z" fill="#263238"/>
<path d="M27.1746 47.2964C27.3648 47.2144 27.526 47.1066 27.706 47.0059C27.9084 46.892 28.0818 46.8222 28.191 46.6062C28.2495 46.4904 28.1877 46.3096 28.0804 46.2416C27.8306 46.0837 27.5476 46.1615 27.2983 46.2885C27.0274 46.4262 26.8541 46.602 26.7317 46.8789C26.6127 47.1484 26.9239 47.4051 27.1746 47.2964Z" fill="#263238"/>
<path d="M31.6912 46.7704C31.4841 46.7704 31.2929 46.7362 31.0882 46.7147C30.8571 46.6908 30.6706 46.6959 30.4841 46.5408C30.3839 46.4579 30.3689 46.2672 30.4406 46.1627C30.6069 45.9185 30.8974 45.8778 31.1767 45.8951C31.4799 45.9138 31.7086 46.0057 31.9316 46.2119C32.1477 46.411 31.9644 46.7704 31.6912 46.7704Z" fill="#263238"/>
<path d="M28.4181 52.4713C28.5432 52.5594 28.6749 52.6869 28.8408 52.6737C28.9996 52.6611 29.1721 52.5603 29.307 52.4812C29.3201 52.4732 29.337 52.4858 29.3305 52.5013C29.2414 52.6934 29.0132 52.842 28.7981 52.8396C28.5882 52.8373 28.4584 52.6775 28.3783 52.499C28.367 52.4741 28.3998 52.4587 28.4181 52.4713Z" fill="#263238"/>
<path d="M28.6719 50.9369C28.9882 51.287 29.3944 51.4402 29.8082 51.4524C29.9933 51.4589 30.1826 51.4346 30.3644 51.3872C30.4005 51.3807 30.4361 51.3704 30.468 51.3577C30.5003 51.3483 30.5294 51.3399 30.5645 51.3263C30.6161 51.3099 30.6376 51.2621 30.6386 51.2106L30.6381 51.2073C30.6348 51.1909 30.6329 51.1778 30.6264 51.1618C30.6264 51.1618 30.6264 51.1618 30.6259 51.1586L30.6184 51.1192C30.5711 50.7706 30.4511 50.2481 30.4511 50.2481C30.5884 50.2907 31.2824 50.4758 31.2426 50.2963C30.9075 48.8095 30.535 47.1563 29.8879 45.7477C29.8687 45.6999 29.7951 45.7238 29.8073 45.7725C30.073 47.2139 30.5898 48.5991 30.8794 50.0428C30.6601 49.9983 30.2998 49.9079 30.1189 49.9411C30.072 49.9636 30.3687 50.9468 30.3776 51.1051C30.3776 51.1051 30.379 51.1117 30.3771 51.122C29.8063 51.2921 29.3377 51.1876 28.7075 50.8886C28.6695 50.869 28.6386 50.9055 28.6719 50.9369Z" fill="#263238"/>
<path d="M30.1578 51.3006C30.1578 51.3006 29.9211 51.7575 29.5313 51.9717C29.3874 52.0513 29.2267 52.0996 29.0472 52.0813C28.6784 52.0457 28.617 51.7224 28.6372 51.4342C28.6526 51.1971 28.7267 50.9834 28.7267 50.9834C28.7267 50.9834 29.3213 51.3831 30.1578 51.3006Z" fill="#263238"/>
<path d="M29.5313 51.9718C29.3874 52.0515 29.2267 52.0998 29.0472 52.0815C28.6784 52.0459 28.617 51.7225 28.6372 51.4344C29.0224 51.4119 29.4394 51.6082 29.5313 51.9718Z" fill="#FF9ABB"/>
<path d="M31.4704 42.9632C31.097 42.4398 30.6841 41.9201 30.3116 41.8807C29.9395 41.8414 29.8936 42.7373 29.1143 42.9613C28.0623 43.2635 27.3341 42.3943 25.8196 42.6122C23.644 42.9248 23.0854 44.9196 23.6889 47.9725C24.2283 50.6992 22.6416 51.3089 22.6416 51.3089C22.6416 51.3089 20.3558 45.532 21.6177 43.1844C22.8797 40.8367 26.5647 39.1258 29.5745 40.4576C30.6715 40.9431 31.4704 42.9632 31.4704 42.9632Z" fill="#263238"/>
<path d="M23.7573 49.7944C23.7573 49.7944 22.1528 47.7073 21.1987 48.2888C20.2452 48.8704 21.5197 51.9434 22.687 52.3192C23.8543 52.6946 24.2231 51.6206 24.2231 51.6206L23.7573 49.7944Z" fill="#F7A9A0"/>
<path d="M21.5863 49.1612C21.568 49.1602 21.5652 49.1865 21.5816 49.1921C22.4012 49.4817 22.859 50.2094 23.1908 50.9695C22.9377 50.6822 22.6046 50.5341 22.218 50.8369C22.1978 50.8528 22.2194 50.8847 22.2419 50.879C22.5685 50.7933 22.8089 50.8397 23.0436 51.0936C23.21 51.2736 23.3281 51.5051 23.4513 51.7159C23.4921 51.7862 23.6205 51.7417 23.5891 51.6602C23.5867 51.6541 23.5839 51.648 23.5816 51.6419C23.5558 50.6147 22.6931 49.2146 21.5863 49.1612Z" fill="#263238"/>
<path d="M27.4069 39.6364C26.5986 39.4241 25.6422 39.2217 24.5724 39.2545C23.5026 39.2873 20.236 40.0623 19.5467 40.8496C18.8574 41.6368 19.1381 44.7858 19.1882 45.2455C19.2383 45.7052 19.8752 48.4277 20.9778 48.9361C22.0799 49.4446 21.4403 44.7488 22.772 42.9489C24.1038 41.1486 27.4069 39.6364 27.4069 39.6364Z" fill="#0082FF"/>
<path opacity="0.1" d="M27.4079 39.6372C27.4079 39.6372 24.1039 41.1489 22.7731 42.9492C21.4399 44.7472 22.0805 49.444 20.9769 48.9369C20.4915 48.7125 20.2094 48.3109 19.9137 47.6071C19.9081 46.2069 20.1278 43.9975 21.0369 42.3485C21.8888 40.804 23.6165 39.819 25.5481 39.2881C26.2304 39.3499 26.8526 39.491 27.4079 39.6372Z" fill="black"/>
<path d="M21.6869 51.6717C21.5805 50.4102 22.3242 46.8718 23.3537 44.7491C24.3836 42.6259 28.1193 40.8935 28.6713 40.8391C30.011 40.707 30.4018 41.2965 30.5935 41.1447C30.7851 40.9928 29.2205 39.6929 28.8114 39.528C28.4023 39.3631 27.4782 39.2515 26.9033 39.356C26.3283 39.4605 22.8251 40.3733 21.7698 42.094C20.7145 43.8147 19.5524 48.3554 20.059 49.3915C20.1803 49.6398 20.5543 49.7537 20.7234 50.107C20.9451 50.5705 21.1358 51.1173 21.3359 51.4341C21.498 51.6895 21.6962 51.7813 21.6869 51.6717Z" fill="#0082FF"/>
<path d="M23.5254 43.8413C23.1894 43.7003 22.8717 43.5395 22.5634 43.3441C22.2592 43.1511 21.9518 42.9322 21.7016 42.6722C21.6833 42.6529 21.6515 42.6764 21.6683 42.6979C21.9059 42.9969 22.159 43.2649 22.479 43.4772C22.7864 43.681 23.1454 43.8338 23.5067 43.9097C23.5469 43.9182 23.5619 43.8568 23.5254 43.8413Z" fill="#263238"/>
<path d="M21.4792 50.4279C21.4305 50.3431 21.3588 50.2728 21.3026 50.1931C21.2384 50.1022 21.1817 50.0057 21.1376 49.9031C21.0538 49.7067 21.0271 49.4973 20.9005 49.3197C20.8007 49.1786 20.6714 49.0647 20.543 48.9504C20.3968 48.8206 20.2515 48.6828 20.2178 48.4823C20.2131 48.4556 20.1719 48.4612 20.1761 48.4879C20.2342 48.867 20.5308 49.0961 20.7459 49.3871C20.8837 49.5736 20.9151 49.8047 21.0186 50.008C21.1067 50.1805 21.244 50.3979 21.4296 50.4771C21.4577 50.4893 21.4966 50.4579 21.4792 50.4279Z" fill="#263238"/>
<path d="M21.6979 49.0122C21.5573 48.8885 21.4102 48.7817 21.2813 48.6435C21.1576 48.5113 21.0447 48.3665 20.9397 48.2189C20.8361 48.0732 20.7448 47.9195 20.644 47.7714C20.5255 47.5966 20.3844 47.434 20.2743 47.2541C20.2602 47.2311 20.2274 47.2569 20.241 47.2799C20.3554 47.4664 20.4374 47.6735 20.5456 47.8647C20.6389 48.0291 20.7494 48.1856 20.8628 48.3365C20.9725 48.4818 21.0925 48.6172 21.2284 48.7386C21.3567 48.8539 21.5194 48.9785 21.6862 49.0315C21.6988 49.0361 21.7082 49.0211 21.6979 49.0122Z" fill="#263238"/>
<path d="M21.9599 47.7212C21.6679 47.5422 21.3882 47.3173 21.1604 47.0614C20.9355 46.8089 20.7242 46.5413 20.5166 46.2742C20.5025 46.2559 20.4693 46.2737 20.481 46.2953C20.6511 46.605 20.8179 46.9129 21.0597 47.1748C21.174 47.2985 21.2991 47.4246 21.4397 47.5188C21.5929 47.6209 21.7654 47.6959 21.9383 47.7587C21.9603 47.7671 21.9824 47.7348 21.9599 47.7212Z" fill="#263238"/>
<path d="M22.2703 46.4766C22.1161 46.4152 22.0055 46.3065 21.887 46.1945C21.7572 46.0718 21.6297 45.9457 21.5069 45.8159C21.3888 45.6913 21.2675 45.5699 21.1499 45.4452C21.0313 45.3197 20.9118 45.188 20.8542 45.0221C20.8467 45.0001 20.8092 45.0099 20.8139 45.0329C20.849 45.2058 20.9352 45.3539 21.0337 45.4982C21.1419 45.6557 21.2586 45.8051 21.3926 45.942C21.5243 46.076 21.6616 46.2039 21.8092 46.3206C21.9376 46.4223 22.0866 46.524 22.2548 46.5329C22.2867 46.5343 22.3031 46.4893 22.2703 46.4766Z" fill="#263238"/>
<path d="M22.3938 44.9392C22.2603 44.8441 22.1281 44.7485 22.0021 44.6431C21.877 44.5381 21.757 44.4266 21.6389 44.3136C21.5157 44.1955 21.3877 44.0789 21.2715 43.9538C21.2533 43.9341 21.2237 43.957 21.2383 43.9795C21.3315 44.1253 21.4243 44.2668 21.5396 44.397C21.652 44.5245 21.7743 44.6412 21.9041 44.7518C22.0311 44.86 22.1637 44.9659 22.3039 45.0573C22.4388 45.1454 22.593 45.2485 22.7537 45.2771C22.7776 45.2813 22.7982 45.249 22.7809 45.2302C22.6726 45.1135 22.5227 45.0311 22.3938 44.9392Z" fill="#263238"/>
<path d="M24.3702 42.9829C24.223 42.8489 24.0797 42.7182 23.9203 42.5982C23.7587 42.4768 23.5876 42.3658 23.4138 42.2636C23.0726 42.0626 22.7207 41.8859 22.3435 41.7636C22.3224 41.7571 22.3009 41.7866 22.3224 41.7997C22.992 42.2121 23.679 42.5973 24.3444 43.0162C24.3678 43.0307 24.3903 43.0012 24.3702 42.9829Z" fill="#263238"/>
<path d="M24.9569 41.7961C24.8069 41.6663 24.6457 41.5538 24.4705 41.461C24.104 41.2666 23.7071 41.1438 23.3083 41.0341C23.283 41.0271 23.2666 41.0613 23.2919 41.073C23.649 41.237 24.0094 41.3954 24.3566 41.5801C24.5276 41.671 24.6996 41.7656 24.8599 41.8753C25.0211 41.9854 25.1537 42.1264 25.3092 42.2427C25.3214 42.2516 25.3402 42.2384 25.3331 42.2239C25.2521 42.0562 25.0956 41.9165 24.9569 41.7961Z" fill="#263238"/>
<path d="M25.9184 41.1446C25.7792 41.0148 25.6269 40.9037 25.4643 40.8049C25.156 40.6174 24.8214 40.489 24.469 40.4136C24.4456 40.4084 24.4362 40.445 24.4583 40.4539C24.79 40.5884 25.112 40.7528 25.4161 40.9422C25.5688 41.0373 25.7165 41.1404 25.865 41.2411C26.0131 41.3414 26.1462 41.4768 26.3036 41.5616C26.3163 41.5687 26.327 41.5509 26.3195 41.5406C26.2132 41.392 26.0515 41.2683 25.9184 41.1446Z" fill="#263238"/>
<path d="M26.5709 40.4052C26.4233 40.3189 26.2714 40.2412 26.1187 40.1643C25.9678 40.0884 25.815 40.0144 25.6468 39.9886C25.6215 39.9848 25.6163 40.0176 25.636 40.0289C25.9233 40.1915 26.2077 40.3611 26.4912 40.5303C26.7588 40.6896 26.9565 40.9178 27.1829 41.1259C27.1927 41.1352 27.2096 41.1216 27.2035 41.1095C27.0596 40.8156 26.8548 40.5701 26.5709 40.4052Z" fill="#263238"/>
<path d="M27.4759 40.0565C27.2003 39.8574 26.8878 39.751 26.5621 39.6685C26.5391 39.6629 26.5284 39.7013 26.5513 39.7088C26.8564 39.8035 27.1371 39.9787 27.3976 40.1591C27.6638 40.3438 27.8924 40.5692 28.1113 40.8058C28.1216 40.8171 28.1446 40.8067 28.1361 40.7908C27.9829 40.4961 27.743 40.2501 27.4759 40.0565Z" fill="#263238"/>
<path d="M28.7894 40.4221C28.7491 40.3612 28.7009 40.304 28.6531 40.2492C28.5551 40.1381 28.4398 40.0416 28.3218 39.9535C28.0786 39.7731 27.8021 39.6475 27.5289 39.5196C27.5045 39.5084 27.4881 39.5472 27.5125 39.558C27.781 39.677 28.0303 39.835 28.2627 40.014C28.3771 40.1021 28.482 40.2 28.5823 40.3036C28.631 40.3542 28.6765 40.4076 28.721 40.4629C28.7627 40.5144 28.8011 40.581 28.8517 40.6231C28.8653 40.6344 28.8888 40.6213 28.8855 40.6039C28.8724 40.5411 28.8255 40.476 28.7894 40.4221Z" fill="#263238"/>
<path d="M29.5504 40.3706C29.4637 40.2839 29.3742 40.2029 29.2777 40.1265C29.1816 40.0506 29.0837 39.9812 28.9792 39.918C28.8724 39.8533 28.7632 39.7928 28.6591 39.724C28.6343 39.7071 28.6118 39.7451 28.6385 39.76C28.7472 39.8219 28.8471 39.9006 28.9436 39.9803C29.035 40.0557 29.1273 40.1298 29.2186 40.2047C29.31 40.2797 29.4014 40.3542 29.4923 40.4301C29.5842 40.5065 29.669 40.5984 29.7688 40.664C29.7852 40.6747 29.802 40.6565 29.7922 40.6405C29.7299 40.5393 29.6338 40.454 29.5504 40.3706Z" fill="#263238"/>
<path d="M58.2057 31.5038C57.6204 37.0989 52.6078 41.1621 47.0128 40.5773C44.7513 40.3406 42.7415 39.3809 41.1853 37.9475L36.0889 38.6954L38.639 34.2892C38.0204 32.784 37.7594 31.1088 37.9398 29.3839C38.5251 23.7889 43.5377 19.7257 49.1327 20.311C54.7277 20.8962 58.7909 25.9088 58.2057 31.5038Z" fill="white"/>
<path d="M58.2054 31.5042C57.9926 33.3641 57.3127 35.1869 56.1492 36.6686C55.8821 37.0566 55.5377 37.3809 55.2256 37.7314C54.8713 38.0397 54.5414 38.3781 54.1506 38.6419C53.4056 39.2159 52.5682 39.6658 51.6933 40.0102C50.8222 40.3766 49.8855 40.5519 48.9506 40.6643C48.4792 40.6896 48.0073 40.7328 47.5355 40.6915C47.0626 40.6807 46.5912 40.6301 46.1255 40.5448C44.2614 40.2075 42.4957 39.3345 41.0857 38.0561L41.2061 38.0932L36.1144 38.8748L35.7451 38.9315L35.9321 38.6058L38.4672 34.1912L38.4555 34.3655C37.2207 31.4578 37.4991 27.9949 39.0829 25.2855C39.8725 23.9289 40.9737 22.7598 42.2736 21.8882C43.5725 21.0138 45.0791 20.4655 46.6212 20.257C48.1648 20.0522 49.7538 20.1928 51.228 20.6825C52.7003 21.1782 54.0503 22.0119 55.1567 23.0915C57.406 25.2293 58.5367 28.4368 58.2054 31.5042ZM58.2054 31.5042C58.5151 28.434 57.3619 25.2461 55.1122 23.137C53.9951 22.0822 52.6427 21.2827 51.1835 20.8193C49.7219 20.362 48.1582 20.2528 46.6526 20.4796C45.148 20.7106 43.6911 21.2706 42.4451 22.1417C41.2024 23.0142 40.1541 24.1557 39.3969 25.4664C38.6246 26.7742 38.2249 28.2728 38.104 29.777C38.0084 31.2863 38.2549 32.8135 38.821 34.2151L38.8575 34.3064L38.8088 34.3898L36.2437 38.7871L36.0614 38.5182L41.1626 37.8036L41.2328 37.7937L41.283 37.841C42.6316 39.1067 44.3382 39.9905 46.1611 40.3537C46.6165 40.4455 47.0786 40.5031 47.543 40.5219C48.0069 40.5711 48.4717 40.5364 48.937 40.5195C49.8597 40.4249 50.7894 40.2684 51.6577 39.9207C52.5298 39.5941 53.3723 39.1658 54.115 38.5964C54.5058 38.3368 54.8362 38.0027 55.1909 37.6981C55.5035 37.3514 55.8488 37.0308 56.1173 36.6461C57.2883 35.1771 57.98 33.3631 58.2054 31.5042Z" fill="#263238"/>
<path d="M46.8812 36.2548L42.5298 31.8505L43.9918 30.4063L46.5335 32.9789L51.8141 24.7002L53.5469 25.8051L46.8812 36.2548Z" fill="#0082FF"/>
</svg>
