<svg width="120" height="88" viewBox="0 0 120 88" fill="none" xmlns="http://www.w3.org/2000/svg">
<mask id="mask0_336_23266" style="mask-type:alpha" maskUnits="userSpaceOnUse" x="0" y="0" width="120" height="88">
<path d="M0 0H100C111.046 0 120 8.95431 120 20V68C120 79.0457 111.046 88 100 88H0V0Z" fill="#D9D9D9"/>
</mask>
<g mask="url(#mask0_336_23266)">
<g filter="url(#filter0_d_336_23266)">
<path d="M113.356 50.9194C115.037 51.2022 116.664 51.8191 118.259 52.4081C119.85 52.9963 121.424 53.6276 122.978 54.308C123.38 54.4843 123.032 55.0691 122.634 54.897C121.069 54.2226 119.492 53.575 117.899 52.971C116.348 52.3828 114.75 51.882 113.253 51.1626C113.107 51.0936 113.218 50.8961 113.356 50.9194Z" fill="#ED1C24"/>
<path d="M115.113 58.5139C114.61 58.2652 114.135 57.9571 113.67 57.6462C113.221 57.347 112.753 57.0648 112.328 56.7321C112.08 56.5367 112.398 56.1479 112.661 56.301C113.144 56.5825 113.596 56.9343 114.056 57.2534C114.494 57.5574 114.932 57.8764 115.329 58.2344C115.486 58.3759 115.287 58.5993 115.113 58.5139Z" fill="#ED1C24"/>
<path d="M114.458 67.5239C113.167 66.4205 112.035 65.1648 110.921 63.8845C110.379 63.2621 109.848 62.6308 109.327 61.9907C109.06 61.662 108.797 61.3307 108.536 60.9973C108.284 60.6728 108.002 60.364 107.842 59.9827C107.721 59.6931 108.122 59.5619 108.309 59.7108C108.634 59.9698 108.862 60.3585 109.116 60.6844C109.363 61.0021 109.613 61.3177 109.864 61.6313C110.38 62.2762 110.907 62.9123 111.443 63.5395C112.52 64.7959 113.657 65.9935 114.716 67.2643C114.868 67.446 114.639 67.6776 114.458 67.5239Z" fill="#ED1C24"/>
<path d="M115.348 47.2275C115.572 47.153 115.77 47.0355 116.005 46.9693C116.249 46.9003 116.51 46.8593 116.764 46.8306C117.163 46.7848 117.886 46.6625 118.181 47C118.274 47.1052 118.246 47.2302 118.141 47.3109C117.955 47.4536 117.754 47.4215 117.531 47.4079C117.297 47.3935 117.062 47.3935 116.827 47.3935C116.593 47.3935 116.361 47.4051 116.127 47.4127C115.897 47.4195 115.626 47.3819 115.399 47.4133C115.279 47.4304 115.227 47.2678 115.348 47.2275Z" fill="#ED1C24"/>
<path d="M116.811 41.889C117.644 41.8282 118.457 41.7538 119.294 41.7654C120.144 41.777 120.994 41.8029 121.843 41.8474C123.518 41.9348 125.19 42.0796 126.853 42.2955C127.301 42.3536 127.307 43.0662 126.853 43.0074C125.188 42.7915 123.518 42.6166 121.843 42.5066C121.016 42.4527 120.189 42.4096 119.361 42.3823C118.508 42.3543 117.663 42.2723 116.811 42.2299C116.59 42.219 116.592 41.9047 116.811 41.889Z" fill="#ED1C24"/>
<path d="M118.66 36.2959C119.145 36.2932 119.645 36.2323 120.131 36.1996C120.502 36.1743 121.112 35.9543 121.432 36.1934C121.51 36.2515 121.557 36.3546 121.498 36.4469C121.257 36.8288 120.595 36.7755 120.194 36.7919C119.641 36.8144 119.151 36.7188 118.617 36.602C118.444 36.5637 118.487 36.2973 118.66 36.2959Z" fill="#ED1C24"/>
<path d="M118.32 31.5093C118.706 31.223 119.201 31.0269 119.641 30.8377C120.114 30.6348 120.593 30.4476 121.073 30.2638C122.055 29.8901 123.045 29.541 124.043 29.2164C125.02 28.8987 126.008 28.6118 127.001 28.3467C128.009 28.0769 129.033 27.7886 130.064 27.6225C130.493 27.5535 130.688 28.1732 130.247 28.29C129.255 28.5537 128.244 28.7478 127.249 29.0074C126.254 29.267 125.267 29.5533 124.285 29.858C123.304 30.1627 122.33 30.4892 121.365 30.8411C120.902 31.0091 120.442 31.1834 119.982 31.3576C119.499 31.5407 118.976 31.7702 118.466 31.857C118.25 31.8939 118.145 31.6397 118.32 31.5093Z" fill="#ED1C24"/>
<path d="M118.813 26.337C118.998 26.2523 119.155 26.1184 119.333 26.0193C119.531 25.91 119.731 25.8075 119.932 25.7051C120.294 25.5206 120.66 25.2671 121.048 25.1489C121.297 25.0731 121.509 25.4168 121.308 25.5951C121.002 25.867 120.575 26.0262 120.199 26.1785C120.008 26.2557 119.815 26.3227 119.617 26.3787C119.372 26.4477 119.128 26.447 118.882 26.5044C118.787 26.527 118.713 26.3821 118.813 26.337Z" fill="#ED1C24"/>
<path d="M117.857 22.2323C119.583 20.9663 121.352 19.7673 123.119 18.5608C123.982 17.9712 124.849 17.3877 125.718 16.805C126.171 16.501 126.624 16.1976 127.076 15.8936C127.506 15.6053 127.937 15.2446 128.416 15.0471C128.744 14.9118 128.965 15.3908 128.745 15.6135C128.384 15.9797 127.871 16.2386 127.444 16.5242C127.01 16.8152 126.576 17.1056 126.141 17.3966C125.254 17.9903 124.366 18.584 123.475 19.1702C121.692 20.3433 119.914 21.5218 118.092 22.6333C117.832 22.7932 117.622 22.4058 117.857 22.2323Z" fill="#ED1C24"/>
<path d="M116.025 16.8952C116.388 16.4245 116.749 15.9654 117.169 15.5425C117.37 15.3396 117.58 15.1435 117.794 14.9522C118.005 14.7636 118.17 14.5662 118.46 14.5402C118.597 14.5279 118.702 14.6857 118.665 14.8094C118.588 15.0608 118.377 15.1777 118.183 15.3409C117.964 15.5261 117.751 15.7181 117.541 15.9141C117.124 16.3029 116.703 16.6998 116.32 17.1227C116.18 17.2785 115.893 17.066 116.025 16.8952Z" fill="#ED1C24"/>
<path d="M112.831 12.852C113.508 11.4993 114.356 10.2566 115.253 9.03978C115.682 8.45769 116.122 7.88312 116.576 7.32085C117.059 6.72305 117.535 6.08768 118.119 5.58484C118.387 5.35324 118.87 5.6559 118.643 5.9893C118.236 6.58573 117.732 7.10838 117.271 7.66313C116.783 8.25137 116.303 8.84644 115.839 9.45517C114.936 10.6419 114.095 11.8751 113.194 13.0645C113.034 13.2763 112.708 13.0993 112.831 12.852Z" fill="#ED1C24"/>
<path d="M106.409 8.71286C106.707 8.21344 107.07 7.75775 107.438 7.30752C107.818 6.84158 108.184 6.35309 108.592 5.91038C108.82 5.66374 109.273 5.99715 109.066 6.27589C108.718 6.74457 108.322 7.18181 107.948 7.62931C107.561 8.09183 107.171 8.55231 106.719 8.95266C106.557 9.09682 106.289 8.91372 106.409 8.71286Z" fill="#ED1C24"/>
<path d="M101.966 6.66576C102.714 4.01222 103.745 1.44476 104.419 -1.22996C104.502 -1.55926 104.569 -1.8913 104.642 -2.22265C104.7 -2.48363 104.724 -2.80883 104.867 -3.03634C104.952 -3.17093 105.203 -3.20987 105.277 -3.03634C105.477 -2.56562 105.263 -1.90086 105.151 -1.42536C104.987 -0.734644 104.787 -0.0528114 104.577 0.624922C104.124 2.0856 103.622 3.53125 103.087 4.96391C102.86 5.57265 102.617 6.17454 102.395 6.78532C102.299 7.04972 101.887 6.94587 101.966 6.66576Z" fill="#ED1C24"/>
<path d="M95.109 4.95424C94.9703 4.34687 94.9826 3.73882 95.0626 3.12326C95.1336 2.57397 95.2368 1.9427 95.6071 1.50955C95.7164 1.38111 95.9125 1.49247 95.9193 1.63867C95.9439 2.15722 95.7444 2.69558 95.6563 3.2032C95.5593 3.76615 95.5312 4.33799 95.4677 4.90504C95.4472 5.09497 95.1589 5.17218 95.109 4.95424Z" fill="#ED1C24"/>
<path d="M88.9287 3.47058C88.7518 2.01946 88.9533 0.499348 89.1064 -0.944934C89.1938 -1.7716 89.2901 -2.59827 89.4179 -3.41948C89.5101 -4.01386 89.5778 -4.72371 89.8736 -5.25797C89.9897 -5.46771 90.3129 -5.36865 90.3156 -5.13841C90.3238 -4.54334 90.1612 -3.90933 90.0724 -3.32178C89.9487 -2.50126 89.8367 -1.67937 89.7417 -0.854752C89.5771 0.582698 89.437 2.02698 89.3386 3.47058C89.3209 3.73908 88.9602 3.72883 88.9287 3.47058Z" fill="#ED1C24"/>
<path d="M80.8198 2.68623C80.6395 1.94155 80.5103 0.984387 80.9278 0.287524C81.0234 0.127656 81.2612 0.200758 81.2687 0.379756C81.2851 0.748684 81.186 1.13674 81.1573 1.50703C81.1286 1.88484 81.0924 2.2688 81.1061 2.64729C81.1122 2.81126 80.8588 2.8461 80.8198 2.68623Z" fill="#ED1C24"/>
<path d="M75.1965 1.2162C75.1234 -0.177527 75.081 -1.56579 75.0598 -2.96224C75.0482 -3.75339 75.053 -4.54522 75.0509 -5.33636C75.0503 -5.67044 75.0564 -6.00521 75.0605 -6.3393C75.0639 -6.60574 75.0468 -6.87014 75.1275 -7.12702C75.2135 -7.40167 75.5989 -7.40167 75.6856 -7.12702C75.7662 -6.87014 75.7492 -6.60643 75.7526 -6.3393C75.7567 -6.00521 75.7628 -5.67044 75.7622 -5.33636C75.7608 -4.54522 75.7656 -3.75339 75.7533 -2.96224C75.7321 -1.56647 75.6897 -0.177527 75.6166 1.2162C75.6023 1.48674 75.2108 1.48674 75.1965 1.2162Z" fill="#ED1C24"/>
<path d="M65.9993 -0.219508C65.9816 -0.582286 65.9563 -0.945065 65.9508 -1.30853C65.9454 -1.63851 65.9194 -1.99582 66.0369 -2.30941C66.0902 -2.4522 66.274 -2.4522 66.328 -2.30941C66.4455 -1.99582 66.4195 -1.63783 66.414 -1.30853C66.4079 -0.945065 66.3833 -0.582286 66.3655 -0.219508C66.3539 0.0155122 66.0116 0.0161955 65.9993 -0.219508Z" fill="#ED1C24"/>
<path d="M47.4081 0.256301C46.6423 -0.767814 45.7753 -1.72224 44.8817 -2.63568C44.4403 -3.08659 43.9819 -3.52042 43.5077 -3.93649C43.2707 -4.14487 43.0275 -4.34504 42.7842 -4.54659C42.5643 -4.729 42.2787 -4.90322 42.1414 -5.15668C42.0355 -5.35208 42.2097 -5.57958 42.4262 -5.52698C42.7125 -5.45797 42.9591 -5.21134 43.1853 -5.03029C43.4306 -4.83285 43.6683 -4.62447 43.9026 -4.41473C44.4021 -3.9686 44.8837 -3.50198 45.3456 -3.01622C46.246 -2.06999 47.0214 -1.02606 47.7408 0.0615888C47.8802 0.272697 47.553 0.450329 47.4081 0.256301Z" fill="#ED1C24"/>
<path d="M41.9303 3.70465C41.4028 3.5236 40.8972 3.28858 40.4313 2.98114C40.0323 2.71743 39.4748 2.36285 39.3116 1.89281C39.2583 1.73909 39.4338 1.54369 39.5944 1.60996C40.0152 1.78418 40.3521 2.21664 40.7217 2.48377C41.1364 2.78302 41.5866 3.03717 42.0601 3.23188C42.3436 3.3487 42.235 3.80918 41.9303 3.70465Z" fill="#ED1C24"/>
<path d="M37.8515 8.95609C36.358 8.64865 34.868 8.32208 33.3697 8.03924C32.6318 7.89986 31.8933 7.76322 31.1534 7.63751C30.421 7.51317 29.6811 7.44075 28.9993 7.13605C28.8476 7.06841 28.9487 6.87575 29.0744 6.85935C29.802 6.76575 30.529 6.92836 31.247 7.05201C32.0081 7.18319 32.7685 7.32256 33.5248 7.47901C35.0148 7.78645 36.5008 8.13078 37.9601 8.56462C38.2109 8.63977 38.1056 9.00801 37.8515 8.95609Z" fill="#ED1C24"/>
<path d="M36.1913 14.9743C35.6427 14.8069 35.0791 14.6866 34.5079 14.6286C33.9887 14.5753 33.4374 14.6258 32.9284 14.507C32.7432 14.4639 32.776 14.2214 32.9284 14.164C33.4551 13.9645 34.0905 14.0444 34.635 14.1168C35.2103 14.1927 35.7678 14.3368 36.3136 14.5315C36.589 14.6292 36.4783 15.0617 36.1913 14.9743Z" fill="#ED1C24"/>
<path d="M34.9125 20.6406C33.3288 21.0902 31.6905 21.1455 30.0611 20.9563C28.4808 20.7732 26.7639 20.5231 25.3005 19.8734C25.1407 19.8024 25.222 19.5366 25.3893 19.5462C26.1402 19.5885 26.8999 19.7655 27.6343 19.9219C28.4371 20.0934 29.246 20.2444 30.0617 20.3407C31.6331 20.5272 33.2407 20.5491 34.7922 20.2013C35.0764 20.1378 35.196 20.56 34.9125 20.6406Z" fill="#ED1C24"/>
<path d="M33.5904 27.493C33.1587 27.4992 32.7276 27.5046 32.2958 27.5108C31.9077 27.5163 31.4452 27.5798 31.0735 27.4555C30.8699 27.3878 30.8693 27.1084 31.0735 27.0408C31.4466 26.9164 31.9064 26.9799 32.2958 26.9854C32.7276 26.9916 33.1587 26.997 33.5904 27.0032C33.9054 27.008 33.9061 27.4889 33.5904 27.493Z" fill="#ED1C24"/>
<path d="M32.5711 33.9508C31.1487 34.069 29.727 34.1312 28.2998 34.1394C27.5981 34.1435 26.8972 34.1415 26.1969 34.1087C25.5157 34.0772 24.7854 34.0984 24.1186 33.9461C23.9662 33.9112 23.9546 33.653 24.1186 33.6263C24.795 33.5177 25.513 33.5717 26.1969 33.5566C26.8978 33.5416 27.5988 33.543 28.2998 33.5355C29.7236 33.5197 31.1473 33.4958 32.5711 33.4712C32.884 33.4658 32.8752 33.9256 32.5711 33.9508Z" fill="#ED1C24"/>
<path d="M32.3608 40.3667C31.8942 40.3777 31.4282 40.3886 30.9616 40.3988C30.5332 40.4091 30.0639 40.4562 29.6485 40.3326C29.4791 40.282 29.4791 40.0395 29.6485 39.9896C30.0632 39.8659 30.5339 39.9138 30.9616 39.9233C31.4282 39.9343 31.8942 39.9452 32.3608 39.9554C32.6252 39.9623 32.6252 40.3606 32.3608 40.3667Z" fill="#ED1C24"/>
<path d="M33.4497 46.1655C32.6018 47.1739 31.5271 48.0402 30.516 48.8792C30.0337 49.2796 29.5472 49.6731 29.0464 50.0488C28.506 50.454 27.952 50.9015 27.3405 51.1946C27.1861 51.2684 27.0324 51.0866 27.1547 50.9541C27.6151 50.456 28.1911 50.0488 28.7151 49.6205C29.2152 49.2126 29.7201 48.8109 30.2181 48.4003C31.2224 47.5722 32.1844 46.6568 33.2433 45.8991C33.4107 45.7775 33.5658 46.0275 33.4497 46.1655Z" fill="#ED1C24"/>
<path d="M37.4805 50.9377C37.2106 51.4775 36.9763 52.1183 36.5677 52.5706C36.4523 52.6983 36.2705 52.5603 36.2992 52.4141C36.4154 51.8163 36.7973 51.2349 37.0665 50.6959C37.2045 50.4199 37.6178 50.6624 37.4805 50.9377Z" fill="#ED1C24"/>
<path d="M42.8238 54.5745C42.4365 55.5958 42.0402 56.6118 41.6296 57.6236C41.4281 58.1196 41.2279 58.6163 41.025 59.1116C40.8275 59.5926 40.6478 60.1446 40.3472 60.5695C40.2017 60.7759 39.9004 60.6495 39.9448 60.4001C40.033 59.9075 40.2857 59.4149 40.4818 58.9558C40.7004 58.4427 40.9225 57.931 41.1432 57.4186C41.5756 56.4157 42.0204 55.4203 42.4761 54.4276C42.5649 54.2336 42.9003 54.3722 42.8238 54.5745Z" fill="#ED1C24"/>
<path d="M50.8487 56.4213C50.6219 57.5178 50.3951 58.6136 50.1683 59.7102C50.0596 60.2362 49.9524 60.763 49.8403 61.2884C49.7235 61.8404 49.5998 62.4484 49.3894 62.9718C49.3218 63.1391 49.0417 63.1371 49.0492 62.926C49.0697 62.3829 49.2002 61.8124 49.3068 61.2808C49.4167 60.7329 49.5466 60.1877 49.6668 59.6419C49.9127 58.5276 50.1587 57.4133 50.4053 56.2996C50.4689 56.0093 50.9082 56.1323 50.8487 56.4213Z" fill="#ED1C24"/>
<path d="M101.247 63.2641C101.676 64.5233 102.007 65.82 102.362 67.1017C102.538 67.7323 102.713 68.3635 102.889 68.9941C103.057 69.6015 103.299 70.2649 103.273 70.9009C103.266 71.0669 103.054 71.1236 102.964 70.9843C102.619 70.4514 102.491 69.7545 102.33 69.1478C102.162 68.5152 101.993 67.8826 101.825 67.2499C101.483 65.9648 101.111 64.679 100.842 63.3755C100.787 63.1111 101.159 63.0072 101.247 63.2641Z" fill="#ED1C24"/>
<path d="M95.922 64.3485C95.9336 65.0071 96.0655 65.8051 95.8236 66.4322C95.7765 66.5538 95.6228 66.5538 95.5756 66.4322C95.3338 65.8057 95.4656 65.0071 95.4772 64.3485C95.482 64.0622 95.9172 64.0622 95.922 64.3485Z" fill="#ED1C24"/>
</g>
<g filter="url(#filter1_d_336_23266)">
<path d="M39 83.3103C49.6345 54.528 51.1889 5 51.1889 5L105.125 14.8526C105.125 14.8526 103.57 64.3806 92.9356 93.1629L39 83.3103Z" fill="white"/>
<path d="M98.4847 34.7408L56.0002 27.1645L56.0727 25.8057L98.573 33.3851L98.4847 34.7408Z" fill="#DAE4FE"/>
<path d="M99.3485 25.9889L56.864 18.4094L57.1225 14.1562L99.6196 21.7388L99.3485 25.9889Z" fill="#DAE4FE"/>
<path d="M98.1095 40.514L55.6249 32.9346L55.6975 31.5757L98.1978 39.1551L98.1095 40.514Z" fill="#DAE4FE"/>
<path d="M97.6113 46.2835L55.1268 38.7041L55.1993 37.3452L97.6996 44.9278L97.6113 46.2835Z" fill="#DAE4FE"/>
<path d="M96.4888 52.0533L54.0012 44.477L54.0768 43.1182L96.574 50.6976L96.4888 52.0533Z" fill="#DAE4FE"/>
<path d="M95.7385 57.826L53.254 50.2466L53.3265 48.8877L95.8268 56.4703L95.7385 57.826Z" fill="#DAE4FE"/>
<path d="M94.6162 63.5958L52.1317 56.0195L52.2042 54.6606L94.7045 62.2401L94.6162 63.5958Z" fill="#DAE4FE"/>
<path d="M93.6167 69.3685L51.1321 61.789L51.2047 60.4302L93.705 68.0096L93.6167 69.3685Z" fill="#DAE4FE"/>
<path d="M90.2495 80.9078L47.765 73.3315L47.8375 71.9727L90.3378 79.5521L90.2495 80.9078Z" fill="#DAE4FE"/>
<path d="M91.747 75.138L49.2593 67.5586L49.335 66.1997L91.8322 73.7823L91.747 75.138Z" fill="#DAE4FE"/>
<path d="M73.8948 44.6861C66.2209 43.6387 60.8491 36.5687 61.8965 28.8948C62.9439 21.2209 70.0139 15.8491 77.6878 16.8965C85.3617 17.9439 90.7335 25.0139 89.6861 32.6878C88.6387 40.3617 81.5687 45.7335 73.8948 44.6861Z" fill="#ED1C24"/>
<path d="M70.5767 23.9225L81.0106 37.6602" stroke="white" stroke-width="2.23474" stroke-miterlimit="10"/>
<path d="M82.6605 25.5718L68.9267 36.0109" stroke="white" stroke-width="2.23474" stroke-miterlimit="10"/>
</g>
</g>
<defs>
<filter id="filter0_d_336_23266" x="19.9999" y="-9" width="114.497" height="88.063" filterUnits="userSpaceOnUse" color-interpolation-filters="sRGB">
<feFlood flood-opacity="0" result="BackgroundImageFix"/>
<feColorMatrix in="SourceAlpha" type="matrix" values="0 0 0 0 0 0 0 0 0 0 0 0 0 0 0 0 0 0 127 0" result="hardAlpha"/>
<feOffset dy="4"/>
<feGaussianBlur stdDeviation="2"/>
<feComposite in2="hardAlpha" operator="out"/>
<feColorMatrix type="matrix" values="0 0 0 0 0 0 0 0 0 0 0 0 0 0 0 0 0 0 0.25 0"/>
<feBlend mode="normal" in2="BackgroundImageFix" result="effect1_dropShadow_336_23266"/>
<feBlend mode="normal" in="SourceGraphic" in2="effect1_dropShadow_336_23266" result="shape"/>
</filter>
<filter id="filter1_d_336_23266" x="35" y="5" width="74.1245" height="96.1631" filterUnits="userSpaceOnUse" color-interpolation-filters="sRGB">
<feFlood flood-opacity="0" result="BackgroundImageFix"/>
<feColorMatrix in="SourceAlpha" type="matrix" values="0 0 0 0 0 0 0 0 0 0 0 0 0 0 0 0 0 0 127 0" result="hardAlpha"/>
<feOffset dy="4"/>
<feGaussianBlur stdDeviation="2"/>
<feComposite in2="hardAlpha" operator="out"/>
<feColorMatrix type="matrix" values="0 0 0 0 0 0 0 0 0 0 0 0 0 0 0 0 0 0 0.25 0"/>
<feBlend mode="normal" in2="BackgroundImageFix" result="effect1_dropShadow_336_23266"/>
<feBlend mode="normal" in="SourceGraphic" in2="effect1_dropShadow_336_23266" result="shape"/>
</filter>
</defs>
</svg>
