<svg width="22" height="26" viewBox="0 0 22 26" fill="none" xmlns="http://www.w3.org/2000/svg">
<path d="M10.9849 6.55567C9.50207 6.55567 8.2959 5.3495 8.2959 3.86664V2.68903C8.2959 1.20617 9.50207 0 10.9849 0C12.4678 0 13.674 1.20617 13.674 2.68903V3.86664C13.674 5.3495 12.4678 6.55567 10.9849 6.55567ZM10.9849 1.61358C10.3916 1.61358 9.90908 2.09612 9.90908 2.68943V3.86664C9.90908 4.45994 10.3916 4.94249 10.9849 4.94249C11.5782 4.94249 12.0608 4.45994 12.0608 3.86664V2.68903C12.0608 2.09612 11.5782 1.61358 10.9849 1.61358Z" fill="white"/>
<path d="M14.2745 22.9106C14.1798 24.6326 12.7532 26 11.0078 26H10.962C9.21809 26 7.79315 24.6362 7.69531 22.9173C8.04323 22.9361 8.39076 22.956 8.73868 22.9764C9.46778 23.0194 10.9268 23.0457 10.9268 23.0457C10.9268 23.0457 12.3862 23.0194 13.1153 22.9764C13.5015 22.9533 13.8878 22.9314 14.2745 22.9106Z" fill="white"/>
<path d="M21.1848 20.9299C20.6123 21.5592 19.8186 21.9587 18.9404 21.9893C17.3828 22.0437 15.8271 22.1126 14.2746 22.1967C13.8879 22.2174 13.5017 22.2394 13.1154 22.2624C12.3863 22.3055 10.9269 22.3317 10.9269 22.3317C10.9269 22.3317 9.46792 22.3055 8.73881 22.2624C8.39089 22.2417 8.04337 22.2221 7.69545 22.2033C6.10379 22.1157 4.50939 22.0452 2.91264 21.9897C2.03482 21.9591 1.24075 21.5599 0.668971 20.9303C-0.033129 20.1577 -0.241332 18.9046 0.328879 18.0123C0.558999 17.6522 0.873652 17.3744 1.19848 17.1059C1.57106 16.7971 1.95772 16.5008 2.24498 16.106C2.45122 15.8214 2.62616 15.5174 2.77253 15.1972C3.16937 14.3315 3.35566 13.3582 3.38657 12.4072C3.38657 12.3963 3.44606 10.5886 3.44645 10.5886C3.70123 7.49565 4.5904 4.85905 7.44341 3.45133C8.52474 2.91674 9.72426 2.6467 10.9261 2.6377C12.1276 2.6467 13.3275 2.91674 14.4088 3.45133C17.2619 4.85866 18.1514 7.49565 18.4058 10.5886C18.4062 10.5886 18.4657 12.3959 18.4657 12.4072C18.4962 13.3582 18.6829 14.3315 19.0801 15.1972C19.2261 15.517 19.401 15.8214 19.6077 16.106C19.8949 16.5008 20.2816 16.7971 20.6546 17.1059C20.979 17.3744 21.2936 17.6526 21.5242 18.0123C22.0955 18.9042 21.8866 20.1573 21.1848 20.9299Z" fill="white"/>
</svg>
