<svg width="333" height="248" viewBox="0 0 333 248" fill="none" xmlns="http://www.w3.org/2000/svg">
<path d="M299.634 228.799H277.575V228.965H299.634V228.799Z" fill="#EBEBEB"/>
<path d="M220.592 230.606H214.803V230.773H220.592V230.606Z" fill="#EBEBEB"/>
<path d="M276.908 222.614H264.126V222.781H276.908V222.614Z" fill="#EBEBEB"/>
<path d="M63.704 223.733H34.9375V223.9H63.704V223.733Z" fill="#EBEBEB"/>
<path d="M73.8521 223.733H69.6343V223.9H73.8521V223.733Z" fill="#EBEBEB"/>
<path d="M149.948 226.546H87.5596V226.712H149.948V226.546Z" fill="#EBEBEB"/>
<path d="M158.775 188.377H30.1712C28.0753 188.377 26.3696 186.671 26.3696 184.575V3.80153C26.3696 1.70563 28.0753 0 30.1712 0H158.775C160.87 0 162.576 1.70563 162.576 3.80153V184.575C162.576 186.671 160.87 188.377 158.775 188.377ZM30.1712 0.167166C28.1665 0.167166 26.5361 1.79753 26.5361 3.80219V184.576C26.5361 186.581 28.1665 188.211 30.1712 188.211H158.775C160.779 188.211 162.409 186.581 162.409 184.576V3.80153C162.409 1.79753 160.779 0.1665 158.775 0.1665L30.1712 0.167166Z" fill="#EBEBEB"/>
<path d="M302.829 188.377H174.225C172.13 188.377 170.424 186.671 170.424 184.575V3.80153C170.424 1.70563 172.13 0 174.225 0H302.829C304.926 0 306.631 1.70563 306.631 3.80153V184.575C306.631 186.671 304.925 188.377 302.829 188.377ZM174.225 0.167166C172.221 0.167166 170.591 1.79753 170.591 3.80219V184.576C170.591 186.581 172.221 188.211 174.225 188.211H302.829C304.834 188.211 306.464 186.581 306.464 184.576V3.80153C306.464 1.79753 304.834 0.1665 302.829 0.1665L174.225 0.167166Z" fill="#EBEBEB"/>
<path d="M333 218.079H0V218.246H333V218.079Z" fill="#EBEBEB"/>
<path d="M233.15 214.212H296.538V129.866H233.15V214.212Z" fill="#F5F5F5"/>
<path d="M221.057 214.212H233.149V129.866H221.057V214.212Z" fill="#E6E6E6"/>
<path d="M237.264 156.608H292.098V136.126H237.264V156.608Z" fill="#FAFAFA"/>
<path d="M271.831 136.125L271.591 138.856C271.511 139.756 270.758 140.447 269.853 140.447H259.506C258.602 140.447 257.848 139.757 257.769 138.856L257.529 136.125H271.831Z" fill="#EBEBEB"/>
<path d="M237.264 179.329H292.098V158.846H237.264V179.329Z" fill="#FAFAFA"/>
<path d="M271.831 158.846L271.591 161.576C271.511 162.477 270.758 163.168 269.853 163.168H259.506C258.602 163.168 257.848 162.477 257.769 161.576L257.529 158.846H271.831Z" fill="#EBEBEB"/>
<path d="M237.264 202.049H292.098V181.566H237.264V202.049Z" fill="#FAFAFA"/>
<path d="M271.831 181.566L271.591 184.297C271.511 185.197 270.758 185.889 269.853 185.889H259.506C258.602 185.889 257.848 185.197 257.769 184.297L257.529 181.566H271.831Z" fill="#EBEBEB"/>
<path d="M237.263 218.423H291.431L292.097 214.205H237.263V218.423Z" fill="#E6E6E6"/>
<path d="M225.941 218.423H237.263V214.205H225.275L225.941 218.423Z" fill="#E0E0E0"/>
<path d="M262.726 129.959H284.371L281.969 102.509H260.324L262.726 129.959Z" fill="#FAFAFA"/>
<path d="M262.726 129.959H261.692L259.291 102.509H260.324L262.726 129.959Z" fill="#EBEBEB"/>
<path d="M264.687 127.16H281.919L280.007 105.308H262.776L264.687 127.16Z" fill="#F0F0F0"/>
<path d="M265.949 125.362H280.343L278.746 107.106H264.352L265.949 125.362Z" fill="#E6E6E6"/>
<path d="M256.643 129.958L258.13 112.968H236.583L235.096 129.958H256.643Z" fill="#F0F0F0"/>
<path d="M256.644 129.958L258.13 112.968H259.29L257.804 129.958H256.644Z" fill="#E0E0E0"/>
<path d="M254.598 128.225L255.781 114.699H238.628L237.444 128.225H254.598Z" fill="#EBEBEB"/>
<path d="M253.283 127.112L254.272 115.813H239.943L238.954 127.112H253.283Z" fill="#F5F5F5"/>
<path d="M206.889 207.005C206.889 211.507 206.182 214.419 204.992 216.287C204.097 217.693 202.49 218.483 200.823 218.483H194.305C192.638 218.483 191.032 217.692 190.136 216.287C188.946 214.418 188.239 211.507 188.239 207.005C188.239 200.474 191.086 195.246 192.016 191.072C192.351 189.569 191.236 184.962 191.236 184.962H203.89C203.89 184.962 202.775 189.569 203.11 191.072C204.041 195.246 206.889 200.474 206.889 207.005Z" fill="#EBEBEB"/>
<path d="M228.438 180.576C228.438 174.906 219.549 177.26 217.309 168.464C216.46 165.131 223.689 157.587 223.689 157.587H201.148C201.148 157.587 208.378 165.131 207.529 168.464C205.288 177.26 196.4 174.906 196.4 180.576C196.4 186.82 208.939 199.825 209.543 214.463C209.597 215.772 207.184 218.484 207.184 218.484H217.653C217.653 218.484 215.24 215.772 215.294 214.463C215.899 199.825 228.438 186.82 228.438 180.576Z" fill="#F5F5F5"/>
<path d="M221.625 195.31C222.935 192.554 220.227 183.186 220.227 183.186H229.995C229.995 183.186 227.285 192.555 228.596 195.31C229.521 197.255 231.624 198.498 231.624 200.799V214.633C231.624 218.216 228.693 218.484 225.11 218.484C221.527 218.484 218.596 218.216 218.596 214.633V200.799C218.596 198.498 220.7 197.255 221.625 195.31Z" fill="#F0F0F0"/>
<path d="M109.991 113.605C104.38 111.174 101.178 106.046 102.855 102.173C104.532 98.2992 110.464 97.125 116.075 99.5546C121.688 101.985 124.89 107.114 123.213 110.987C121.535 114.861 115.604 116.035 109.991 113.605ZM114.459 103.288C111.829 102.149 109.05 102.699 108.264 104.514C107.479 106.329 108.978 108.732 111.608 109.871C114.238 111.01 117.018 110.46 117.804 108.645C118.589 106.83 117.088 104.426 114.459 103.288Z" fill="#E6E6E6"/>
<path d="M116.594 103.502L113.927 102.347L130.042 65.0944C130.361 64.3578 131.217 64.0188 131.953 64.3378C132.689 64.6568 133.028 65.5113 132.709 66.2479L116.594 103.502Z" fill="#E6E6E6"/>
<path d="M133.944 69.8497L128.827 67.6139L129.981 64.9473L135.099 67.183L133.944 69.8497Z" fill="#E6E6E6"/>
<path d="M131.422 72.8316L127.758 71.2399L128.913 68.5732L132.576 70.165L131.422 72.8316Z" fill="#E6E6E6"/>
<path d="M127.435 73.6674L126.28 76.334L130.389 78.1133L131.544 75.4467L127.435 73.6674Z" fill="#E6E6E6"/>
<path d="M117.631 99.5246L116.166 98.8906C115.436 98.5742 115.1 97.7264 115.416 96.9965L115.426 96.9738C115.743 96.2439 116.591 95.9082 117.321 96.2246L118.786 96.8586C119.516 97.1749 119.851 98.0228 119.535 98.7527L119.525 98.7753C119.209 99.5046 118.361 99.8403 117.631 99.5246Z" fill="#E6E6E6"/>
<path d="M232.08 86.7188C236.527 89.6811 237.674 95.7997 234.637 100.358C231.6 104.917 225.51 106.215 221.064 103.253C216.617 100.29 215.47 94.1706 218.507 89.6125C221.545 85.0538 227.634 83.7564 232.08 86.7188ZM223.992 98.8593C226.076 100.247 228.928 99.6392 230.351 97.5033C231.775 95.3674 231.237 92.5003 229.153 91.1124C227.069 89.7238 224.216 90.3318 222.793 92.4677C221.37 94.6036 221.908 97.4713 223.992 98.8593Z" fill="#E6E6E6"/>
<path d="M222.915 97.6768L225.672 99.5136L205.949 129.697C205.442 130.458 204.413 130.664 203.652 130.157C202.89 129.65 202.685 128.622 203.191 127.861L222.915 97.6768Z" fill="#E6E6E6"/>
<path d="M203.316 121.281L209.117 125.177L206.221 129.523L200.409 125.62C199.574 125.059 199.35 123.929 199.907 123.093L200.78 121.784C201.34 120.943 202.477 120.718 203.316 121.281Z" fill="#E6E6E6"/>
<path d="M151.54 29.0406L148.478 36.9713C148.202 37.6859 147.399 38.0416 146.684 37.7659C145.97 37.4901 145.614 36.6869 145.89 35.9717L148.952 28.0409C149.941 25.4802 148.662 22.5904 146.1 21.6014L143.263 20.5058C140.702 19.5168 137.813 20.7975 136.825 23.359L135.575 26.597L132.987 25.598L134.237 22.36C135.777 18.3706 140.276 16.3786 144.263 17.9177L147.1 19.0133C151.087 20.5531 153.079 25.0513 151.54 29.0406Z" fill="#F0F0F0"/>
<path d="M151.055 30.2897C150.852 30.0266 150.575 29.8122 150.242 29.6837L134.79 23.7183C134.446 23.5851 134.084 23.5578 133.747 23.6257C133.13 23.7469 132.583 24.1738 132.34 24.8032L126.375 40.2551C125.997 41.2328 126.482 42.3277 127.46 42.7053L142.912 48.6706C143.89 49.0483 144.985 48.5634 145.362 47.5851L151.328 32.1332C151.576 31.4925 151.452 30.7979 151.055 30.2897ZM139.323 42.2298L134.423 40.3377L137.013 35.8148C136.687 35.1588 136.627 34.3716 136.912 33.6324C137.453 32.2324 139.026 31.5318 140.427 32.0726C141.827 32.6134 142.525 34.1905 141.985 35.5904C141.7 36.3297 141.127 36.8718 140.44 37.1375L139.323 42.2298Z" fill="#E6E6E6"/>
<path d="M46.0581 209.46L169.354 209.46V143.105H46.0581L46.0581 209.46Z" fill="#E6E6E6"/>
<path d="M159.47 218.07H167.219V212.215H159.47V218.07Z" fill="#E6E6E6"/>
<path d="M36.6466 218.07H44.3955L44.3955 138.169H36.6466L36.6466 218.07Z" fill="#E6E6E6"/>
<path d="M44.3027 138.169V218.07H48.4353V213.593H167.219V218.07H171.352V138.169H169.286H167.219H48.4359H46.3693H44.3027ZM48.4359 145.402H105.761V173.153H48.4359V145.402ZM167.219 206.361H109.894V145.402H167.219V206.361ZM48.4359 206.361V177.286H105.761V206.361H48.4359Z" fill="#F0F0F0"/>
<path d="M109.894 206.36H163.345V148.386H109.894V206.36Z" fill="#F5F5F5"/>
<path d="M112.314 175.636C112.314 177.007 113.426 178.119 114.797 178.119C116.169 178.119 117.281 177.008 117.281 175.636C117.281 174.264 116.169 173.152 114.797 173.152C113.426 173.153 112.314 174.265 112.314 175.636Z" fill="#FAFAFA"/>
<path d="M114.798 178.12C115.799 178.12 116.657 177.524 117.049 176.67C117.195 176.986 117.28 177.333 117.28 177.703C117.28 179.074 116.169 180.186 114.797 180.186C113.426 180.186 112.313 179.075 112.313 177.703C112.313 177.333 112.4 176.985 112.545 176.67C112.938 177.524 113.796 178.12 114.798 178.12Z" fill="#E0E0E0"/>
<path d="M142.615 206.361H129.863L123.77 148.387H136.521L142.615 206.361Z" fill="#FAFAFA"/>
<path d="M126.597 206.361H124.059L117.966 148.387H120.504L126.597 206.361Z" fill="#FAFAFA"/>
<path d="M92.8421 173.126H97.8931V148.329H92.8421V173.126Z" fill="#FAFAFA"/>
<path d="M71.8983 173.126H76.9492V148.329H71.8983V173.126Z" fill="#F5F5F5"/>
<path d="M87.7909 173.126H92.8418V150.072H87.7909V173.126Z" fill="#F5F5F5"/>
<path d="M76.95 173.126H82.001V150.072H76.95V173.126Z" fill="#FAFAFA"/>
<path d="M82.0006 173.126H85.2646V148.329H82.0006V173.126Z" fill="#EBEBEB"/>
<path d="M85.2651 173.126H87.7905V150.072H85.2651V173.126Z" fill="#FAFAFA"/>
<path d="M66.8475 173.126H71.8984V148.329H66.8475V173.126Z" fill="#EBEBEB"/>
<path d="M61.7962 173.126H66.8472V150.072H61.7962V173.126Z" fill="#E6E6E6"/>
<path d="M50.9554 173.126H56.0063V150.072H50.9554V173.126Z" fill="#E6E6E6"/>
<path d="M56.006 173.126H59.27V148.329H56.006V173.126Z" fill="#FAFAFA"/>
<path d="M59.2699 173.126H61.7954V150.072H59.2699V173.126Z" fill="#EBEBEB"/>
<path d="M48.4296 173.126H50.9551V148.916H48.4296V173.126Z" fill="#EBEBEB"/>
<path d="M53.4801 181.563H48.4292V206.36H53.4801V181.563Z" fill="#EBEBEB"/>
<path d="M74.424 181.563H69.373V206.36H74.424V181.563Z" fill="#FAFAFA"/>
<path d="M58.5309 183.307H53.48V206.361H58.5309V183.307Z" fill="#FAFAFA"/>
<path d="M69.3722 183.307H64.3213V206.361H69.3722V183.307Z" fill="#EBEBEB"/>
<path d="M64.3217 181.563H61.0576V206.36H64.3217V181.563Z" fill="#FAFAFA"/>
<path d="M61.0572 183.307H58.5317V206.361H61.0572V183.307Z" fill="#F5F5F5"/>
<path d="M79.4748 181.563H74.4238V206.36H79.4748V181.563Z" fill="#EBEBEB"/>
<path d="M84.526 183.307H79.4751V206.361H84.526V183.307Z" fill="#F5F5F5"/>
<path d="M95.3669 183.307H90.3159V206.361H95.3669V183.307Z" fill="#E6E6E6"/>
<path d="M90.3158 181.563H87.0518V206.36H90.3158V181.563Z" fill="#FAFAFA"/>
<path d="M101.157 181.563H97.8931V206.36H101.157V181.563Z" fill="#FAFAFA"/>
<path d="M87.0518 183.307H84.5264V206.361H87.0518V183.307Z" fill="#EBEBEB"/>
<path d="M97.8931 182.151H95.3677V206.361H97.8931V182.151Z" fill="#EBEBEB"/>
<path d="M54.0658 95.46C54.0658 95.46 53.218 95.8502 52.8304 96.6388C52.4428 97.4273 53.6449 98.8832 53.6449 98.8832C53.6449 98.8832 54.6539 99.5858 55.6569 99.1303C56.6599 98.6747 56.6599 98.6748 56.6599 98.6748C56.6599 98.6748 54.945 95.6991 54.1125 95.6691L54.0658 95.46Z" fill="#E6E6E6"/>
<path d="M58.3601 95.4362C58.4826 96.8475 57.6075 98.6284 56.3474 98.7376C55.0874 98.8468 53.9192 97.2437 53.7966 95.8318C53.6741 94.4206 54.6917 94.2827 55.9518 94.1735C57.2112 94.0643 58.2375 94.025 58.3601 95.4362Z" fill="#E6E6E6"/>
<path d="M54.6683 95.0215C54.6683 95.0215 55.6314 95.7887 57.6154 95.3405C57.6154 95.3405 54.4858 97.4284 54.6683 95.0215Z" fill="#E6E6E6"/>
<path d="M55.5176 94.7411C55.5176 94.7411 56.6285 94.548 56.6445 95.0115C56.6445 95.0115 57.5868 94.9589 57.4563 94.5646C57.3264 94.1703 55.5176 94.7411 55.5176 94.7411Z" fill="#E6E6E6"/>
<g opacity="0.2">
<path d="M54.6683 95.0215C54.6683 95.0215 55.6314 95.7887 57.6154 95.3405C57.6154 95.3405 54.4858 97.4284 54.6683 95.0215Z" fill="#FAFAFA"/>
</g>
<g opacity="0.2">
<path d="M55.5176 94.7411C55.5176 94.7411 56.6285 94.548 56.6445 95.0115C56.6445 95.0115 57.5868 94.9589 57.4563 94.5646C57.3264 94.1703 55.5176 94.7411 55.5176 94.7411Z" fill="#FAFAFA"/>
</g>
<path d="M54.2319 99.1843C54.6329 99.8343 55.4507 100.169 56.2086 100.078C56.9672 99.9875 57.6498 99.514 58.0874 98.8879C58.525 98.2619 58.7334 97.4966 58.782 96.7347C58.7947 96.5376 58.81 96.0441 58.5503 95.9675C58.3119 95.8976 58.1647 96.2312 58.0541 96.3864C57.7364 96.834 57.3994 97.2529 56.9952 97.6265C56.6029 97.9882 56.1693 98.3052 55.7051 98.5676C55.5746 98.6408 54.3025 99.2988 54.2319 99.1843Z" fill="#E6E6E6"/>
<path d="M59.6385 96.366C59.877 96.9381 59.7904 97.6341 59.4181 98.1296C59.1737 98.4553 58.8273 98.6877 58.4784 98.8981C58.2359 99.0447 57.9236 99.1832 57.6858 99.0293C57.4294 98.8635 57.4527 98.4866 57.5113 98.1869C57.6019 97.7253 57.7051 97.2658 57.821 96.8096C57.9163 96.4353 57.9735 95.8092 58.1926 95.4916C58.3991 95.1925 58.6915 95.3697 59.0032 95.5868C59.2809 95.7806 59.508 96.0517 59.6385 96.366Z" fill="#E6E6E6"/>
<g opacity="0.2">
<path d="M54.5542 98.4029C54.0673 98.3823 53.6071 98.0526 53.43 97.5991C53.2994 97.2634 53.3014 96.4116 53.7363 96.3037C53.9288 97.0596 54.0953 97.7469 54.5542 98.4029Z" fill="#FAFAFA"/>
</g>
<g opacity="0.2">
<path d="M57.8379 98.3692C58.2974 98.238 58.6797 97.8624 58.8196 97.4055C58.8968 97.1531 58.7989 95.863 58.416 96.4052C58.2908 96.5823 58.3141 97.1484 58.2488 97.3775C58.1509 97.7219 58.013 98.0562 57.8379 98.3692Z" fill="#FAFAFA"/>
</g>
<g opacity="0.2">
<path d="M56.0782 99.165C56.4339 99.4674 57.002 99.4821 57.3723 99.1983C57.3237 99.4481 56.5378 99.6565 56.294 99.7278C55.6593 99.9143 55.327 99.6352 54.7109 99.3782C54.7109 99.3782 55.6866 99.5267 56.0782 99.165Z" fill="#FAFAFA"/>
</g>
<path d="M54.9761 125.107L55.036 105.891L56.0217 100.048L56.396 100.111L55.415 105.928L55.3457 125.472L54.9761 125.107Z" fill="#E0E0E0"/>
<path d="M55.3761 105.795L55.0751 106.026C54.7734 105.633 54.5016 105.12 54.1873 104.526C53.7011 103.608 53.1497 102.567 52.3125 101.647L52.5936 101.392C53.4627 102.348 54.0261 103.411 54.523 104.349C54.8286 104.927 55.0937 105.427 55.3761 105.795Z" fill="#E0E0E0"/>
<path d="M55.608 103.217C56.1195 103.082 56.5777 102.756 56.8728 102.318C57.2078 101.819 57.3243 101.21 57.4335 100.62C56.7702 100.818 56.0576 100.496 55.3703 100.575C54.8222 100.639 54.3113 100.972 54.0343 101.45C53.6753 102.068 53.5294 102.769 53.8465 103.052C54.1075 103.285 54.9241 103.396 55.608 103.217Z" fill="#E6E6E6"/>
<path d="M53.0545 101.89C52.4418 102.278 51.6539 102.377 50.9646 102.152C50.2753 101.927 50.0742 100.891 49.8071 100.216C50.4325 100.088 52.0209 100.178 52.3806 100.214C52.7402 100.25 53.1052 100.412 53.299 100.717C53.4921 101.022 53.4568 101.48 53.1638 101.691C53.1438 101.679 53.0545 101.89 53.0545 101.89Z" fill="#E6E6E6"/>
<path d="M49.9023 103.012C50.3239 102.502 51.3628 102.132 52.0135 102.251C52.6642 102.369 53.2196 102.818 53.4527 103.35C53.2809 103.763 52.82 103.996 52.3738 104.028C51.9276 104.06 51.4874 103.928 51.0591 103.798C50.6316 103.667 50.1913 103.535 49.7451 103.567L49.9023 103.012Z" fill="#E6E6E6"/>
<path d="M62.7216 99.709C62.7216 99.709 63.4169 100.332 63.5555 101.199C63.694 102.067 62.1169 103.105 62.1169 103.105C62.1169 103.105 60.9454 103.48 60.1209 102.75C59.2964 102.019 59.2964 102.019 59.2964 102.019C59.2964 102.019 61.8105 99.679 62.6144 99.8955L62.7216 99.709Z" fill="#E6E6E6"/>
<path d="M58.6234 98.4243C58.0913 99.7376 58.4043 101.696 59.5771 102.171C60.7493 102.646 62.3377 101.457 62.8691 100.144C63.4013 98.8312 62.4689 98.4003 61.2967 97.9254C60.1246 97.4506 59.1555 97.1109 58.6234 98.4243Z" fill="#E6E6E6"/>
<path d="M62.2749 99.1122C62.2749 99.1122 61.1287 99.5624 59.3638 98.5508C59.3638 98.5508 61.7407 101.466 62.2749 99.1122Z" fill="#E6E6E6"/>
<path d="M61.5446 98.5939C61.5446 98.5939 60.5403 98.0824 60.3877 98.5206C60.3877 98.5206 59.5026 98.1936 59.7431 97.8546C59.9842 97.5169 61.5446 98.5939 61.5446 98.5939Z" fill="#E6E6E6"/>
<g opacity="0.2">
<path d="M62.2749 99.1122C62.2749 99.1122 61.1287 99.5624 59.3638 98.5508C59.3638 98.5508 61.7407 101.466 62.2749 99.1122Z" fill="#FAFAFA"/>
</g>
<g opacity="0.2">
<path d="M61.5446 98.5939C61.5446 98.5939 60.5403 98.0824 60.3877 98.5206C60.3877 98.5206 59.5026 98.1936 59.7431 97.8546C59.9842 97.5169 61.5446 98.5939 61.5446 98.5939Z" fill="#FAFAFA"/>
</g>
<path d="M61.4675 103.22C60.8934 103.724 60.0137 103.803 59.315 103.493C58.6171 103.184 58.1036 102.53 57.8691 101.803C57.6347 101.076 57.6607 100.283 57.8385 99.5407C57.8845 99.3482 58.015 98.872 58.2861 98.876C58.5351 98.8793 58.5771 99.241 58.637 99.4221C58.8095 99.9436 59.008 100.442 59.2851 100.919C59.5534 101.379 59.8751 101.81 60.2414 102.197C60.3447 102.307 61.3663 103.31 61.4675 103.22Z" fill="#E6E6E6"/>
<path d="M57.129 98.9357C56.7327 99.4125 56.6115 100.103 56.8213 100.687C56.9592 101.07 57.2222 101.394 57.4933 101.698C57.6824 101.909 57.9402 102.133 58.2126 102.056C58.507 101.973 58.5955 101.606 58.6268 101.302C58.6761 100.834 58.7127 100.365 58.7361 99.8947C58.7554 99.5091 58.8846 98.8937 58.768 98.5261C58.6588 98.1798 58.3271 98.263 57.9655 98.3789C57.6425 98.4815 57.3461 98.6739 57.129 98.9357Z" fill="#E6E6E6"/>
<g opacity="0.2">
<path d="M61.3901 102.378C61.8617 102.501 62.3978 102.322 62.7008 101.939C62.9246 101.657 63.1724 100.842 62.7887 100.611C62.3818 101.277 62.0208 101.885 61.3901 102.378Z" fill="#FAFAFA"/>
</g>
<g opacity="0.2">
<path d="M58.2603 101.379C57.8594 101.118 57.6043 100.647 57.605 100.169C57.605 99.9049 58.0785 98.7001 58.285 99.3308C58.3522 99.5366 58.1638 100.071 58.1584 100.309C58.1511 100.668 58.1851 101.028 58.2603 101.379Z" fill="#FAFAFA"/>
</g>
<g opacity="0.2">
<path d="M59.708 102.659C59.2798 102.843 58.7323 102.69 58.4612 102.311C58.4339 102.563 59.1239 102.994 59.3364 103.134C59.8885 103.499 60.2874 103.33 60.9521 103.265C60.9521 103.265 59.9764 103.12 59.708 102.659Z" fill="#FAFAFA"/>
</g>
<path d="M54.4297 122.238L54.6688 121.451L54.9918 120.391L55.3654 119.153L58.3531 109.316L58.7267 106.493L59.0584 103.988L59.127 103.468L59.3128 103.492L59.3155 103.494L59.5039 103.518L59.4986 103.564L59.432 104.054L59.0797 106.731L58.7907 108.913L58.7267 109.393L58.7034 109.47L55.3634 120.457L54.9865 121.69L54.814 122.262L54.5755 123.045L54.4297 122.238Z" fill="#E0E0E0"/>
<path d="M58.4302 109.2L58.65 109.51C59.0536 109.223 59.4645 108.813 59.9393 108.338C60.6739 107.603 61.5071 106.772 62.578 106.137L62.3849 105.811C61.2727 106.469 60.4222 107.319 59.6716 108.07C59.2081 108.532 58.8085 108.932 58.4302 109.2Z" fill="#E0E0E0"/>
<path d="M58.9665 106.669C58.5176 106.39 58.1753 105.943 58.0215 105.438C57.8476 104.863 57.9156 104.246 57.9848 103.65C58.5609 104.035 59.3361 103.937 59.9702 104.214C60.4757 104.436 60.8653 104.905 60.9898 105.443C61.151 106.139 61.0844 106.852 60.6981 107.03C60.3811 107.175 59.5673 107.042 58.9665 106.669Z" fill="#E6E6E6"/>
<path d="M61.7974 106.152C62.2696 106.703 62.9929 107.029 63.7181 107.017C64.4434 107.005 64.9403 106.073 65.3938 105.507C64.8337 105.201 63.2892 104.819 62.9349 104.748C62.5806 104.677 62.1837 104.725 61.9093 104.959C61.6349 105.194 61.5343 105.643 61.7521 105.93C61.7734 105.924 61.7974 106.152 61.7974 106.152Z" fill="#E6E6E6"/>
<path d="M64.4808 108.15C64.2277 107.539 63.3439 106.88 62.6866 106.802C62.0299 106.724 61.3672 106.989 60.9883 107.429C61.0316 107.875 61.4032 108.233 61.8201 108.395C62.237 108.557 62.6966 108.56 63.1441 108.561C63.5917 108.561 64.0506 108.565 64.4681 108.726L64.4808 108.15Z" fill="#E6E6E6"/>
<path d="M49.2317 98.9414C49.2317 98.9414 48.4678 99.4782 48.228 100.323C47.9883 101.169 49.4328 102.385 49.4328 102.385C49.4328 102.385 50.5517 102.895 51.4561 102.267C52.3606 101.638 52.3606 101.638 52.3606 101.638C52.3606 101.638 50.1388 99.0187 49.3149 99.1392L49.2317 98.9414Z" fill="#E6E6E6"/>
<path d="M53.4519 98.1488C53.8255 99.5155 53.2847 101.424 52.0646 101.758C50.8445 102.092 49.4073 100.724 49.0337 99.3576C48.6594 97.991 49.6357 97.6733 50.8558 97.339C52.0759 97.0046 53.0776 96.7822 53.4519 98.1488Z" fill="#E6E6E6"/>
<path d="M49.7456 98.4023C49.7456 98.4023 50.8312 98.9837 52.7026 98.1865C52.7026 98.1865 49.9987 100.803 49.7456 98.4023Z" fill="#E6E6E6"/>
<path d="M50.5308 97.973C50.5308 97.973 51.5884 97.5834 51.6876 98.0363C51.6876 98.0363 52.6054 97.8152 52.4062 97.4509C52.2071 97.0873 50.5308 97.973 50.5308 97.973Z" fill="#E6E6E6"/>
<g opacity="0.2">
<path d="M49.7456 98.4023C49.7456 98.4023 50.8312 98.9837 52.7026 98.1865C52.7026 98.1865 49.9987 100.803 49.7456 98.4023Z" fill="#FAFAFA"/>
</g>
<g opacity="0.2">
<path d="M50.5308 97.973C50.5308 97.973 51.5884 97.5834 51.6876 98.0363C51.6876 98.0363 52.6054 97.8152 52.4062 97.4509C52.2071 97.0873 50.5308 97.973 50.5308 97.973Z" fill="#FAFAFA"/>
</g>
<path d="M50.0645 102.576C50.5759 103.144 51.4397 103.325 52.1697 103.1C52.8996 102.875 53.4857 102.286 53.804 101.592C54.1217 100.897 54.1897 100.107 54.1004 99.3487C54.0771 99.1523 54.0038 98.6641 53.7341 98.6361C53.487 98.6101 53.4024 98.9645 53.3212 99.1376C53.0888 99.6351 52.833 100.107 52.502 100.548C52.181 100.974 51.8114 101.363 51.4018 101.705C51.2872 101.8 50.155 102.676 50.0645 102.576Z" fill="#E6E6E6"/>
<path d="M54.8768 98.8312C55.2145 99.3513 55.2538 100.051 54.9767 100.606C54.7949 100.97 54.4959 101.261 54.1902 101.53C53.9777 101.718 53.6953 101.911 53.4336 101.802C53.1512 101.685 53.1066 101.31 53.1106 101.004C53.1166 100.534 53.1359 100.063 53.1679 99.5938C53.1938 99.2088 53.1379 98.5821 53.2964 98.2305C53.4456 97.8995 53.7653 98.0213 54.1109 98.1785C54.4199 98.3197 54.6917 98.5455 54.8768 98.8312Z" fill="#E6E6E6"/>
<g opacity="0.2">
<path d="M50.2406 101.749C49.7578 101.816 49.2463 101.575 48.9906 101.16C48.8014 100.853 48.6509 100.016 49.0592 99.8311C49.3842 100.54 49.6712 101.186 50.2406 101.749Z" fill="#FAFAFA"/>
</g>
<g opacity="0.2">
<path d="M53.4658 101.125C53.8947 100.914 54.2031 100.476 54.2584 100C54.289 99.7381 53.9607 98.4866 53.6809 99.0887C53.5897 99.2858 53.7142 99.8386 53.6916 100.076C53.6576 100.433 53.5817 100.786 53.4658 101.125Z" fill="#FAFAFA"/>
</g>
<g opacity="0.2">
<path d="M51.8777 102.225C52.2813 102.458 52.8434 102.371 53.1564 102.025C53.1537 102.279 52.4178 102.626 52.1907 102.74C51.5999 103.038 51.223 102.823 50.5703 102.68C50.5703 102.68 51.5573 102.651 51.8777 102.225Z" fill="#FAFAFA"/>
</g>
<path d="M55.4538 127.941L52.0612 109.027L51.98 103.102L52.3596 103.097L52.4402 108.995L55.8834 128.234L55.4538 127.941Z" fill="#E0E0E0"/>
<path d="M52.3777 108.872L52.1227 109.153C51.755 108.821 51.396 108.365 50.9798 107.837C50.3364 107.021 49.6072 106.097 48.6182 105.342L48.8486 105.04C49.8756 105.825 50.6208 106.769 51.2782 107.602C51.6838 108.116 52.0341 108.561 52.3777 108.872Z" fill="#E0E0E0"/>
<path d="M52.1438 106.295C52.6227 106.07 53.0149 105.667 53.2267 105.183C53.4671 104.633 53.4718 104.013 53.4731 103.412C52.8564 103.726 52.0972 103.537 51.4352 103.738C50.907 103.899 50.4648 104.319 50.2783 104.839C50.0366 105.511 50.0186 106.227 50.3816 106.449C50.6793 106.632 51.5031 106.595 52.1438 106.295Z" fill="#E6E6E6"/>
<path d="M49.3928 105.448C48.8593 105.939 48.1021 106.178 47.3835 106.081C46.6649 105.984 46.2806 105.001 45.897 104.385C46.489 104.147 48.0681 103.949 48.4284 103.92C48.7887 103.891 49.177 103.985 49.4221 104.251C49.6672 104.516 49.7145 104.973 49.4641 105.234C49.4434 105.224 49.3928 105.448 49.3928 105.448Z" fill="#E6E6E6"/>
<path d="M46.4938 107.118C46.8168 106.541 47.7725 105.99 48.4338 105.99C49.0952 105.99 49.7219 106.331 50.0469 106.813C49.9516 107.25 49.54 107.562 49.1071 107.674C48.6736 107.786 48.2174 107.735 47.7731 107.683C47.3289 107.631 46.872 107.581 46.4385 107.692L46.4938 107.118Z" fill="#E6E6E6"/>
<path d="M56.846 116.338H52.864C52.5656 116.332 52.2992 116.524 52.21 116.809C51.883 117.842 51.187 120.558 51.187 124.838C51.187 129.539 52.4131 135.779 52.7987 137.623C52.8633 137.933 53.1357 138.156 53.4527 138.159H56.2253C56.5423 138.156 56.8147 137.933 56.8793 137.623C57.2649 135.779 58.491 129.538 58.491 124.838C58.491 120.558 57.7944 117.842 57.4681 116.809C57.3808 116.536 57.1317 116.347 56.846 116.338Z" fill="#F0F0F0"/>
<path d="M166.5 247.795C237.817 247.795 295.63 244.419 295.63 240.254C295.63 236.089 237.817 232.713 166.5 232.713C95.1836 232.713 37.3701 236.089 37.3701 240.254C37.3701 244.419 95.1836 247.795 166.5 247.795Z" fill="#F5F5F5"/>
<path d="M80.4412 214.333C80.2147 214.318 80.0382 214.126 80.0436 213.897C80.5364 194.323 81.5461 162.214 81.5987 162.038C81.666 161.813 81.9031 161.691 82.1275 161.752C82.3519 161.819 82.4811 162.056 82.4152 162.281C82.4025 162.324 81.3829 194.545 80.8947 213.919C80.8894 214.154 80.6936 214.339 80.4585 214.334C80.4525 214.333 80.4472 214.333 80.4412 214.333Z" fill="#263238"/>
<path d="M77.8107 148.97C77.9746 150.478 79.7794 155.704 81.2873 155.54C82.7944 155.376 83.4338 149.884 83.2699 148.376C83.1061 146.869 81.7508 145.779 80.2436 145.943C78.7358 146.108 77.6469 147.463 77.8107 148.97Z" fill="#407BFF"/>
<path d="M85.1274 165.457C84.9636 163.949 83.1587 158.723 81.6509 158.887C80.1431 159.05 79.5037 164.543 79.6676 166.051C79.8314 167.558 81.1867 168.647 82.6939 168.484C84.2024 168.32 85.2919 166.965 85.1274 165.457Z" fill="#407BFF"/>
<path d="M73.2257 160.872C74.7335 160.708 79.9597 158.903 79.7958 157.395C79.632 155.888 74.1395 155.249 72.6323 155.413C71.1245 155.577 70.0356 156.932 70.1994 158.439C70.3633 159.947 71.7179 161.036 73.2257 160.872Z" fill="#407BFF"/>
<path d="M89.712 153.554C88.2042 153.718 82.9781 155.523 83.142 157.031C83.3065 158.539 88.7983 159.178 90.3061 159.014C91.8139 158.85 92.9029 157.494 92.739 155.987C92.5752 154.48 91.2192 153.391 89.712 153.554Z" fill="#407BFF"/>
<path d="M73.0525 153.972C74.2347 154.922 79.2064 157.342 80.1567 156.16C81.1071 154.978 77.6752 150.642 76.4937 149.691C75.3116 148.742 73.5833 148.93 72.6329 150.112C71.6832 151.293 71.871 153.021 73.0525 153.972Z" fill="#407BFF"/>
<path d="M89.8845 160.455C88.7024 159.505 83.7307 157.086 82.7803 158.268C81.8306 159.449 85.2618 163.785 86.444 164.735C87.6261 165.685 89.3544 165.497 90.3041 164.316C91.2552 163.134 91.0667 161.405 89.8845 160.455Z" fill="#407BFF"/>
<path d="M78.2275 165.63C79.1772 164.448 81.5968 159.476 80.4146 158.526C79.2325 157.575 74.8975 161.007 73.9471 162.189C72.9967 163.371 73.1852 165.1 74.3674 166.049C75.5489 167 77.2771 166.812 78.2275 165.63Z" fill="#407BFF"/>
<path d="M84.7113 148.798C83.7615 149.98 81.342 154.952 82.5241 155.902C83.7063 156.852 88.0419 153.421 88.9916 152.238C89.942 151.056 89.7535 149.328 88.5714 148.378C87.3899 147.428 85.661 147.616 84.7113 148.798Z" fill="#407BFF"/>
<g opacity="0.6">
<path d="M77.8107 148.97C77.9746 150.478 79.7794 155.704 81.2873 155.54C82.7944 155.376 83.4338 149.884 83.2699 148.376C83.1061 146.869 81.7508 145.779 80.2436 145.943C78.7358 146.108 77.6469 147.463 77.8107 148.97Z" fill="white"/>
<path d="M85.1274 165.457C84.9636 163.949 83.1587 158.723 81.6509 158.887C80.1431 159.05 79.5037 164.543 79.6676 166.051C79.8314 167.558 81.1867 168.647 82.6939 168.484C84.2024 168.32 85.2919 166.965 85.1274 165.457Z" fill="white"/>
<path d="M73.2257 160.872C74.7335 160.708 79.9597 158.903 79.7958 157.395C79.632 155.888 74.1395 155.249 72.6323 155.413C71.1245 155.577 70.0356 156.932 70.1994 158.439C70.3633 159.947 71.7179 161.036 73.2257 160.872Z" fill="white"/>
<path d="M89.712 153.554C88.2042 153.718 82.9781 155.523 83.142 157.031C83.3065 158.539 88.7983 159.178 90.3061 159.014C91.8139 158.85 92.9029 157.494 92.739 155.987C92.5752 154.48 91.2192 153.391 89.712 153.554Z" fill="white"/>
<path d="M73.0525 153.972C74.2347 154.922 79.2064 157.342 80.1567 156.16C81.1071 154.978 77.6752 150.642 76.4937 149.691C75.3116 148.742 73.5833 148.93 72.6329 150.112C71.6832 151.293 71.871 153.021 73.0525 153.972Z" fill="white"/>
<path d="M89.8845 160.455C88.7024 159.505 83.7307 157.086 82.7803 158.268C81.8306 159.449 85.2618 163.785 86.444 164.735C87.6261 165.685 89.3544 165.497 90.3041 164.316C91.2552 163.134 91.0667 161.405 89.8845 160.455Z" fill="white"/>
<path d="M78.2275 165.63C79.1772 164.448 81.5968 159.476 80.4146 158.526C79.2325 157.575 74.8975 161.007 73.9471 162.189C72.9967 163.371 73.1852 165.1 74.3674 166.049C75.5489 167 77.2771 166.812 78.2275 165.63Z" fill="white"/>
<path d="M84.7113 148.798C83.7615 149.98 81.342 154.952 82.5241 155.902C83.7063 156.852 88.0419 153.421 88.9916 152.238C89.942 151.056 89.7535 149.328 88.5714 148.378C87.3899 147.428 85.661 147.616 84.7113 148.798Z" fill="white"/>
</g>
<path d="M78.2361 157.565C78.4299 159.35 80.0349 160.64 81.8205 160.446C83.606 160.252 84.8961 158.647 84.7016 156.861C84.5071 155.076 82.9021 153.786 81.1172 153.98C79.3316 154.175 78.0423 155.779 78.2361 157.565Z" fill="#407BFF"/>
<path d="M78.5559 199.991C74.8037 200.073 68.3834 196.607 65.8573 193.223C63.2939 189.79 70.4827 191.904 69.7374 189.205C68.9915 186.506 60.1417 188.528 58.496 184.663C56.8503 180.799 63.2426 181.67 62.9829 179.692C62.7238 177.715 56.1051 178.137 53.9679 174.029C51.8307 169.922 57.6602 172.209 56.7411 170.508C55.822 168.805 48.5027 161.652 51.553 160.147C54.6026 158.643 61.4664 166.095 63.7607 166.923C66.0551 167.75 66.5759 162.587 69.5656 165.047C72.5553 167.508 70.3548 178.304 73.87 179.718C76.488 180.771 75.3611 175.833 78.3754 177.071C83.6528 179.238 80.0797 199.957 78.5559 199.991Z" fill="#407BFF"/>
<g opacity="0.2">
<path d="M78.5559 199.991C74.8037 200.073 68.3834 196.607 65.8573 193.223C63.2939 189.79 70.4827 191.904 69.7374 189.205C68.9915 186.506 60.1417 188.528 58.496 184.663C56.8503 180.799 63.2426 181.67 62.9829 179.692C62.7238 177.715 56.1051 178.137 53.9679 174.029C51.8307 169.922 57.6602 172.209 56.7411 170.508C55.822 168.805 48.5027 161.652 51.553 160.147C54.6026 158.643 61.4664 166.095 63.7607 166.923C66.0551 167.75 66.5759 162.587 69.5656 165.047C72.5553 167.508 70.3548 178.304 73.87 179.718C76.488 180.771 75.3611 175.833 78.3754 177.071C83.6528 179.238 80.0797 199.957 78.5559 199.991Z" fill="white"/>
</g>
<path d="M83.9485 195.229C84.0112 195.334 83.4497 195.867 85.3025 195.943C89.8653 196.131 97.9325 195.823 100.962 191.675C105.288 185.752 95.3112 186.295 96.2815 183.029C97.2519 179.763 107.969 182.431 110.061 177.768C112.153 173.105 104.358 174.016 104.719 171.617C105.081 169.218 113.259 172.326 115.955 167.38C118.65 162.435 111.506 165.081 112.663 163.031C113.821 160.983 122.89 152.452 119.216 150.551C115.542 148.649 107.019 157.554 104.208 158.507C101.398 159.46 100.748 150.726 97.0534 153.649C93.3591 156.572 95.7834 169.756 91.475 171.393C88.2656 172.613 90.0165 167.887 86.0564 168.068C80.6765 168.315 78.9076 186.802 83.9485 195.229Z" fill="#407BFF"/>
<g opacity="0.3">
<path d="M83.9485 195.229C84.0112 195.334 83.4497 195.867 85.3025 195.943C89.8653 196.131 97.9325 195.823 100.962 191.675C105.288 185.752 95.3112 186.295 96.2815 183.029C97.2519 179.763 107.969 182.431 110.061 177.768C112.153 173.105 104.358 174.016 104.719 171.617C105.081 169.218 113.259 172.326 115.955 167.38C118.65 162.435 111.506 165.081 112.663 163.031C113.821 160.983 122.89 152.452 119.216 150.551C115.542 148.649 107.019 157.554 104.208 158.507C101.398 159.46 100.748 150.726 97.0534 153.649C93.3591 156.572 95.7834 169.756 91.475 171.393C88.2656 172.613 90.0165 167.887 86.0564 168.068C80.6765 168.315 78.9076 186.802 83.9485 195.229Z" fill="white"/>
</g>
<path d="M80.5304 211.372C80.5224 211.372 80.5144 211.371 80.5058 211.37C80.3433 211.351 80.2274 211.203 80.2474 211.04C83.9923 180.393 101.646 167.936 101.823 167.815C101.958 167.723 102.143 167.756 102.235 167.891C102.328 168.026 102.294 168.211 102.159 168.303C101.983 168.424 84.5464 180.746 80.8361 211.112C80.8175 211.266 80.6836 211.378 80.5304 211.372Z" fill="#263238"/>
<path d="M97.8065 172.072C97.6859 172.067 97.5754 171.988 97.5361 171.867C97.4855 171.711 97.5707 171.544 97.7266 171.494C97.8364 171.458 100.465 170.626 104.772 171.541C104.933 171.575 105.035 171.733 105.001 171.893C104.967 172.053 104.809 172.156 104.65 172.122C100.51 171.244 97.9357 172.05 97.9104 172.058C97.8757 172.068 97.8404 172.073 97.8065 172.072Z" fill="#263238"/>
<path d="M94.5433 175.794C94.3862 175.787 94.261 175.659 94.259 175.5C94.1677 166.231 99.533 158.99 99.5876 158.918C99.6855 158.787 99.872 158.761 100.003 158.859C100.134 158.958 100.16 159.144 100.062 159.275C100.009 159.346 94.7638 166.434 94.853 175.495C94.8544 175.659 94.7232 175.792 94.5593 175.794C94.554 175.794 94.5487 175.794 94.5433 175.794Z" fill="#263238"/>
<path d="M89.2853 183.639C89.2107 183.636 89.1368 183.605 89.0815 183.546C88.969 183.427 88.9743 183.24 89.0935 183.126C89.1335 183.089 93.1055 179.417 98.307 181.28C98.4608 181.335 98.5414 181.505 98.4861 181.66C98.4308 181.814 98.261 181.895 98.1065 181.839C93.244 180.095 89.5377 183.523 89.5011 183.558C89.4412 183.615 89.3626 183.642 89.2853 183.639Z" fill="#263238"/>
<path d="M86.5379 189.111C86.4274 189.106 86.3235 189.04 86.2775 188.931C86.1943 188.737 84.2489 184.077 85.3211 177.437C85.3478 177.276 85.4936 177.163 85.6615 177.192C85.8233 177.218 85.9332 177.37 85.9072 177.532C84.8643 183.992 86.8037 188.652 86.8236 188.698C86.8876 188.848 86.8176 189.023 86.6671 189.087C86.6245 189.105 86.5805 189.112 86.5379 189.111Z" fill="#263238"/>
<path d="M80.6491 222.322C80.4953 222.316 80.37 222.19 80.3654 222.034L79.9804 213.917C78.8449 186.928 60.3314 168.571 60.1443 168.389C60.0271 168.274 60.0244 168.086 60.139 167.969C60.2542 167.852 60.4413 167.85 60.5585 167.964C60.747 168.148 79.427 186.661 80.5732 213.896L80.9581 222.016C80.9635 222.18 80.8349 222.317 80.6711 222.323C80.6638 222.322 80.6564 222.322 80.6491 222.322Z" fill="#263238"/>
<path d="M67.78 178.527C67.764 178.526 67.7474 178.524 67.7314 178.521C67.7054 178.515 67.6734 178.503 67.6448 178.487L67.5489 178.449C65.1253 177.442 62.4174 176.92 59.9252 176.974C59.7587 176.982 59.6255 176.848 59.6222 176.684C59.6182 176.52 59.748 176.385 59.9119 176.381C62.4853 176.326 65.2785 176.863 67.7767 177.901L67.8752 177.941C67.8932 177.948 67.9099 177.956 67.9258 177.965C68.0424 178.025 68.1097 178.156 68.0817 178.29C68.0517 178.435 67.9219 178.533 67.78 178.527Z" fill="#263238"/>
<path d="M70.3976 182.002C70.3929 182.002 70.3876 182.002 70.3829 182.001C70.2198 181.987 70.0992 181.842 70.1139 181.679C70.8305 173.713 66.7053 167.159 66.6633 167.094C66.5754 166.956 66.6154 166.772 66.7532 166.684C66.8924 166.596 67.0749 166.636 67.1628 166.774C67.2054 166.841 71.4405 173.559 70.7046 181.733C70.6906 181.891 70.5548 182.009 70.3976 182.002Z" fill="#263238"/>
<path d="M73.0991 186.617C73.0272 186.614 72.9553 186.584 72.9007 186.53C72.8707 186.499 69.8644 183.532 65.4648 184.704C65.3056 184.748 65.1438 184.652 65.1018 184.494C65.0598 184.335 65.1537 184.173 65.3123 184.131C70.0548 182.866 73.1924 185.98 73.3229 186.113C73.4381 186.23 73.4368 186.417 73.3202 186.533C73.259 186.592 73.179 186.62 73.0991 186.617Z" fill="#263238"/>
<path d="M76.5284 194.223C76.4858 194.221 76.4432 194.21 76.4032 194.189C76.258 194.113 76.2021 193.934 76.278 193.789C76.2987 193.749 78.336 189.767 77.8718 184.022C77.8584 183.859 77.9797 183.716 78.1435 183.703C78.308 183.683 78.4498 183.811 78.4632 183.975C78.9427 189.9 76.8914 193.897 76.8042 194.065C76.7489 194.169 76.6397 194.227 76.5284 194.223Z" fill="#263238"/>
<path d="M97.3405 223.601C97.3405 233.067 93.0827 240.745 80.1883 240.745C67.8819 240.745 63.0361 233.067 63.0361 223.601C63.0361 220.03 64.133 216.709 65.9998 213.963H94.3768C96.2436 216.709 97.3405 220.03 97.3405 223.601Z" fill="#407BFF"/>
<path opacity="0.7" d="M97.3405 223.601C97.3405 233.067 93.0827 240.745 80.1883 240.745C67.8819 240.745 63.0361 233.067 63.0361 223.601C63.0361 220.03 64.133 216.709 65.9998 213.963H94.3768C96.2436 216.709 97.3405 220.03 97.3405 223.601Z" fill="white"/>
<path d="M195.871 232.375L202.505 231.406L200.83 215.888L194.196 216.856L195.871 232.375Z" fill="#E8BFBF"/>
<path d="M207.605 231.638C208.181 231.596 208.726 231.359 209.15 230.967C209.331 230.739 209.388 230.436 209.303 230.157C209.265 229.983 209.139 229.84 208.97 229.782C208.084 229.465 205.657 231.253 205.386 231.455C205.334 231.497 205.311 231.566 205.328 231.631C205.35 231.694 205.41 231.736 205.476 231.736C206.187 231.768 206.899 231.736 207.605 231.638ZM208.538 230.083C208.638 230.058 208.742 230.061 208.84 230.091C208.91 230.113 208.962 230.17 208.977 230.242C209.032 230.426 208.995 230.625 208.879 230.778C208.538 231.203 207.455 231.443 205.944 231.442C206.731 230.84 207.615 230.377 208.558 230.073L208.538 230.083Z" fill="#407BFF"/>
<path d="M205.513 231.743L205.567 231.718C206.303 231.233 207.631 229.543 207.382 228.814C207.305 228.65 207.166 228.441 206.722 228.466C206.4 228.471 206.095 228.614 205.884 228.857C205.165 229.681 205.308 231.498 205.31 231.572C205.308 231.628 205.332 231.681 205.376 231.715C205.415 231.746 205.465 231.756 205.513 231.743ZM206.628 228.8L206.717 228.758C207.01 228.746 207.044 228.855 207.053 228.891C207.21 229.333 206.33 230.631 205.597 231.23C205.529 230.467 205.707 229.701 206.104 229.044C206.245 228.896 206.437 228.806 206.642 228.793L206.628 228.8Z" fill="#407BFF"/>
<path d="M201.827 228.659L195.944 230.061C195.679 230.116 195.498 230.362 195.527 230.631L195.717 239.143C195.799 239.74 196.349 240.157 196.945 240.075C196.986 240.069 197.027 240.061 197.067 240.051C199.615 239.416 200.818 238.983 204.058 238.236C206.044 237.779 212.335 237.305 214.913 236.157C217.49 235.009 216.486 232.397 215.31 232.644C211.53 233.457 206.673 231.838 203.914 229.375C203.54 229.192 202.23 228.554 201.827 228.659Z" fill="#263238"/>
<path opacity="0.2" d="M200.83 215.888L201.693 223.886L195.06 224.862L194.19 216.865L200.83 215.888Z" fill="black"/>
<path d="M204.373 220.594L192.099 222.886C192.099 222.886 186.139 214.377 185.014 208.335C183.843 202.043 185.095 180.623 185.014 180.339C181.542 168.619 172.11 138.247 167.556 127.071C165.033 120.877 163.263 116.708 163.263 116.708L164.539 116.421L174.557 112.317L181.858 113.693C181.858 113.693 204.044 158.556 206.37 175.434C208.106 188.035 204.373 220.594 204.373 220.594Z" fill="#407BFF"/>
<path opacity="0.3" d="M204.373 220.594L192.099 222.886C192.099 222.886 186.139 214.377 185.014 208.335C183.843 202.043 185.095 180.623 185.014 180.339C181.542 168.619 172.11 138.247 167.556 127.071C165.033 120.877 163.263 116.708 163.263 116.708L164.539 116.421L174.557 112.317L181.858 113.693C181.858 113.693 204.044 158.556 206.37 175.434C208.106 188.035 204.373 220.594 204.373 220.594Z" fill="white"/>
<path opacity="0.2" d="M182.123 170.189C178.651 158.469 171.649 140.691 167.093 129.514L164.076 118.865L163.496 116.816L164.552 118.752L176.443 145.089C181.689 155.174 182.203 170.473 182.123 170.189Z" fill="black"/>
<path d="M128.253 228.72L134.165 231.211L140.475 217.673L134.563 215.183L128.253 228.72Z" fill="#E8BFBF"/>
<path d="M138.018 234.046C138.486 234.339 139.041 234.464 139.59 234.401C139.859 234.327 140.074 234.125 140.166 233.862C140.236 233.705 140.219 233.524 140.121 233.384C139.616 232.638 136.732 232.648 136.409 232.65C136.345 232.653 136.288 232.693 136.264 232.753C136.246 232.814 136.268 232.88 136.319 232.918C136.849 233.345 137.418 233.723 138.018 234.046ZM139.617 233.372C139.708 233.409 139.787 233.47 139.846 233.549C139.888 233.605 139.896 233.68 139.866 233.743C139.804 233.916 139.664 234.049 139.487 234.101C138.984 234.236 138.012 233.809 136.847 232.955C137.794 232.935 138.739 233.077 139.639 233.375L139.617 233.372Z" fill="#407BFF"/>
<path d="M136.343 232.944L136.4 232.955C137.243 232.997 139.222 232.442 139.442 231.738C139.476 231.569 139.486 231.328 139.129 231.096C138.878 230.919 138.562 230.856 138.261 230.925C137.241 231.155 136.323 232.639 136.283 232.697C136.25 232.739 136.239 232.794 136.253 232.845C136.265 232.891 136.299 232.927 136.343 232.944ZM138.868 231.302L138.96 231.32C139.193 231.476 139.159 231.579 139.145 231.613C139.015 232.042 137.603 232.547 136.698 232.596C137.078 231.968 137.647 231.477 138.325 231.194C138.518 231.16 138.717 231.199 138.882 231.304L138.868 231.302Z" fill="#407BFF"/>
<path d="M135.24 228.478L129.905 226.236C129.67 226.129 129.391 226.217 129.261 226.44L124.597 233.12C124.324 233.627 124.512 234.259 125.019 234.534C125.054 234.553 125.09 234.57 125.127 234.584C127.454 235.534 128.627 235.88 131.551 237.134C133.343 237.904 138.469 241.094 141.107 241.664C143.745 242.235 144.447 239.65 143.399 239.176C140.021 237.667 137.185 233.672 136.447 230.211C136.261 229.858 135.61 228.626 135.24 228.478Z" fill="#263238"/>
<path opacity="0.2" d="M140.733 217.833L137.313 224.73L131.46 222.103L134.875 215.203L140.733 217.833Z" fill="black"/>
<path d="M141.965 225.349L130.19 219.072C130.19 219.072 127.932 210.689 130.19 205.342C134.535 195.051 145.839 179.92 145.916 179.635C148.932 167.789 154.223 135.351 156.03 123.418C157.034 116.806 157.623 115.38 157.623 115.38L158.865 115.787L176.883 115.823C176.883 115.823 180.282 143.107 167.255 185.351C164.013 195.862 158.584 204.601 149.649 216.423C146.256 220.912 141.965 225.349 141.965 225.349Z" fill="#407BFF"/>
<path opacity="0.3" d="M141.965 225.349L130.19 219.072C130.19 219.072 127.932 210.689 130.19 205.342C134.535 195.051 145.839 179.92 145.916 179.635C148.932 167.789 154.223 135.351 156.03 123.418C157.034 116.806 157.623 115.38 157.623 115.38L158.865 115.787L176.883 115.823C176.883 115.823 180.282 143.107 167.255 185.351C164.013 195.862 158.584 204.601 149.649 216.423C146.256 220.912 141.965 225.349 141.965 225.349Z" fill="white"/>
<path d="M192.845 93.5291C192.977 91.5058 194.319 88.8997 195.476 87.6949C195.848 87.31 197.252 86.7239 198.048 86.2057C201.96 83.639 209.79 80.4375 209.79 80.4375L212.206 82.5441C212.206 82.5441 207.437 87.1541 204.6 89.3646C204.042 89.7988 203.396 90.3263 202.716 90.8837C201.482 91.9133 195.673 95.7448 194.564 96.7052L192.845 93.5291Z" fill="#E8BFBF"/>
<path d="M216.678 79.2462L212.209 82.5482L209.702 80.7021C209.702 80.7021 210.725 79.3987 211.776 78.3891C212.238 77.9455 212.487 77.3348 212.493 76.6948C212.502 75.7104 212.65 74.5682 213.185 73.7304C213.198 73.7111 213.205 73.6911 213.217 73.6778C214.186 72.2179 216.452 72.6568 216.91 74.3458L217.555 76.7281C217.809 77.6685 217.461 78.6681 216.678 79.2462Z" fill="#E8BFBF"/>
<path d="M194.274 94.4213L193.096 95.5016C192.729 95.2072 192.147 94.7357 191.414 94.127C185.673 89.3611 171.28 77.8006 177.018 74.5013C181.936 71.6734 187.158 80.3274 189.764 82.9262C190.294 83.463 191.747 85.1386 192.919 87.2405C194.143 89.4456 195.053 92.117 194.274 94.4213Z" fill="#263238"/>
<path d="M192.916 86.2061C190.878 87.6952 189.139 89.5907 187.83 91.7478C188.774 94.876 191.151 97.598 194.148 98.898C195.791 95.0865 196.556 90.9886 196.23 86.8507C195.191 86.627 193.955 86.4298 192.916 86.2061Z" fill="#263238"/>
<path d="M161.311 73.828C159.257 74.488 156.906 73.9599 155.588 75.6675C154.27 77.3752 153.873 79.6289 153.875 81.7861C153.878 84.7864 154.564 87.7388 155.247 90.6599C156.074 94.2023 156.901 97.7441 157.728 101.287C158.294 103.708 157.699 114.968 158.302 115.156C158.302 115.156 177.13 114.787 181.85 114.126C181.85 114.126 182.26 102.551 182.639 98.6092C182.723 97.7348 184.051 94.0212 184.207 93.0881C184.942 88.6912 183.501 85.5903 181.979 81.3998C181.979 81.3998 178.645 74.6872 177.017 74.504C174.119 74.177 167.034 71.9892 161.311 73.828Z" fill="#263238"/>
<path d="M160.518 79.3827C160.451 78.9918 157.11 72.2419 153.908 76.9598C149.45 83.5266 149.15 91.7716 149.15 91.7716C149.15 91.7716 146.411 99.789 148.32 101.54C150.228 103.291 152.287 104.418 153.621 103.425C154.954 102.432 155.819 100.448 155.819 100.448C155.819 100.448 161.689 86.2525 160.518 79.3827Z" fill="#263238"/>
<path d="M160.303 71.3252C158.897 72.4221 159.082 74.9642 160.632 75.8453C160.242 77.2066 160.698 78.773 161.757 79.7134C162.816 80.6538 164.425 80.9209 165.731 80.3728C165.166 81.3844 165.803 82.7197 166.777 83.3458C167.751 83.9718 168.956 84.0857 170.103 84.2396C171.251 84.3934 172.464 84.6405 173.297 85.445C174.484 83.7374 175.67 82.0304 176.857 80.3228C177.319 79.6581 177.798 78.9449 177.834 78.1363C177.87 77.3271 177.255 76.4354 176.447 76.4946C177.269 75.6388 177.285 74.1383 176.483 73.2645C175.681 72.3907 174.185 72.2789 173.263 73.0234C173.428 72.3395 173.027 71.6129 172.449 71.2106C171.871 70.8083 171.152 70.6711 170.451 70.6025L160.303 71.3252Z" fill="#263238"/>
<path d="M162.439 62.6328C163.365 66.0314 164.489 72.2978 162.242 74.7747C162.242 74.7747 168.601 77.3208 173.12 82.4303C175.223 80.387 175.005 78.0913 174.361 76.4124C173.861 75.1117 172.788 74.146 171.506 73.6012C169.031 72.5496 169.01 70.1127 169.421 67.777L162.439 62.6328Z" fill="#E8BFBF"/>
<path opacity="0.2" d="M163.824 68.4199L166.163 69.0546C167.164 69.3263 168.211 69.3883 169.237 69.2371C169.228 69.7406 169.138 70.8102 169.455 71.3743C168.112 72.0223 165.84 71.5774 164.837 70.3946C164.421 69.9331 164.051 68.9987 163.824 68.4199Z" fill="black"/>
<path d="M157.901 59.7386C160.376 64.9627 161.313 67.2251 165.123 68.8881C170.865 71.4016 176.722 67.2052 175.855 61.347C175.075 56.0783 171.155 48.4193 165.061 48.392C160.707 48.3494 157.142 51.8439 157.099 56.1988C157.088 57.4243 157.362 58.6364 157.901 59.7386Z" fill="#E8BFBF"/>
<path d="M160.62 49.762C158.817 48.9195 156.575 49.6068 155.073 50.9281C153.545 52.2728 152.614 54.1536 151.723 55.9831C151.238 56.9774 150.748 57.9851 150.524 59.0687C150.299 60.1522 150.364 61.3371 150.937 62.2841C151.498 63.2125 152.542 63.8219 153.621 63.8852C154.242 63.9211 154.969 64.37 155.17 64.9588C155.356 65.5055 155.268 66.0976 155.181 66.6657C155.096 67.2158 155.015 67.7899 155.188 68.3181C155.476 69.1972 156.416 69.7306 157.336 69.8199C158.257 69.9091 159.171 69.6427 160.058 69.379C160.62 69.2118 161.185 69.3084 161.622 69.7C161.731 69.7979 161.821 69.9151 161.889 70.0443C162.164 70.5685 162.963 70.4859 163.193 69.9398C163.998 68.025 162.826 64.9634 161.079 62.6271C160.152 61.387 160.202 61.7034 159.838 60.1982C159.535 58.9461 159.994 57.6394 160.555 56.4793C161.303 54.9321 162.265 53.423 161.968 51.5762C161.842 50.7949 161.337 50.0963 160.62 49.762Z" fill="#263238"/>
<path d="M158.057 65.0822C158.878 65.956 160.012 66.4681 161.211 66.5061C162.801 66.5407 163.205 65.0236 162.437 63.7295C161.744 62.5627 160.082 61.1441 158.642 61.7075C157.202 62.2716 157.055 63.9933 158.057 65.0822Z" fill="#E8BFBF"/>
<path d="M167.854 58.8089C168.038 59.2664 168.402 59.5082 168.689 59.3903C168.977 59.2724 169.048 58.8382 168.888 58.3946C168.729 57.9511 168.342 57.7 168.053 57.8132C167.765 57.9258 167.682 58.374 167.854 58.8089Z" fill="#263238"/>
<path d="M172.728 56.7107C172.908 57.1695 173.276 57.41 173.559 57.2934C173.842 57.1769 173.917 56.7413 173.758 56.2978C173.599 55.8542 173.212 55.6031 172.928 55.715C172.644 55.8262 172.551 56.2764 172.728 56.7107Z" fill="#263238"/>
<path d="M172.803 55.7939L173.728 55.0693C173.728 55.0693 173.528 56.101 172.803 55.7939Z" fill="#263238"/>
<path d="M171.463 57.6895C172.595 58.8063 173.447 59.0108 174.672 59.778C174.637 60.8663 173.613 61.116 173.613 61.116L171.463 57.6895Z" fill="#ED847E"/>
<path d="M173.096 63.2481C173.307 63.1688 173.511 63.0723 173.707 62.959C173.771 62.9251 173.795 62.8452 173.761 62.7819C173.76 62.7799 173.758 62.7779 173.758 62.7752C173.72 62.712 173.64 62.6873 173.572 62.7186C172.539 63.3187 171.281 63.3853 170.191 62.8971C170.123 62.8611 170.039 62.8865 170.002 62.955C169.965 63.023 169.991 63.1082 170.06 63.1442C171.016 63.5838 172.11 63.621 173.096 63.2481Z" fill="#263238"/>
<path d="M167.672 55.1821C167.666 55.3067 167.58 55.4133 167.459 55.4466C166.182 55.8255 165.615 57.4465 165.612 57.4599C165.562 57.6104 165.399 57.6916 165.249 57.641C165.098 57.5904 165.017 57.4279 165.067 57.2774C165.116 57.2161 165.735 55.3566 167.291 54.8918C167.443 54.8491 167.602 54.9351 167.648 55.0862C167.664 55.1155 167.672 55.1488 167.672 55.1821Z" fill="#263238"/>
<path d="M173.566 54.3985C173.459 54.4638 173.323 54.4538 173.227 54.3739C172.188 53.54 170.533 53.9982 170.521 54.0036C170.368 54.0482 170.208 53.9603 170.164 53.8078C170.12 53.6552 170.208 53.4954 170.36 53.4514C170.439 53.4568 172.319 52.9053 173.588 53.9203C173.71 54.0209 173.73 54.2 173.632 54.3246C173.616 54.3539 173.593 54.3792 173.566 54.3985Z" fill="#263238"/>
<path d="M167.938 57.8899L168.864 57.1699C168.864 57.1699 168.654 58.1996 167.938 57.8899Z" fill="#263238"/>
<path d="M161.018 48.8901C159.564 49.0066 158.183 49.8345 157.394 51.0619C156.864 51.8857 156.678 53.1378 157.461 53.7259C157.827 54.0009 158.31 54.0509 158.767 54.0909C160.794 54.2687 163.293 52.7029 163.293 52.7029C162.512 49.3929 169.456 46.8315 172.88 51.959C173.885 53.4655 173.613 54.5597 175.286 55.2557C176.073 55.5834 177.111 55.4928 177.615 56.1808C178.451 57.3216 176.844 59.2537 177.865 60.2334C178.563 60.9034 180.147 60.6476 180.244 61.6107C180.29 62.0635 179.994 62.7189 180.429 62.8514C180.67 62.9247 180.892 62.7042 181.048 62.5064C181.424 62.0283 181.812 61.5281 181.941 60.934C182.07 60.3393 181.859 59.6233 181.305 59.3716C180.88 59.1778 179.755 59.3942 179.831 59.8551C179.923 60.4099 179.447 57.6873 179.66 56.6583C179.846 55.7625 180.702 54.986 180.442 54.1082C180.166 53.1718 179.053 52.7982 178.088 52.655C177.122 52.5118 176.026 52.3946 175.433 51.6193C174.77 50.7535 175.071 49.5168 174.859 48.4472C174.588 47.0872 173.454 46.0276 172.181 45.4762C168.32 43.8012 162.347 44.0389 161.018 48.8901Z" fill="#263238"/>
<path d="M171.984 66.662L158.668 73.352C154.29 75.5511 152.309 80.7226 154.098 85.2847L160.52 101.664C162.309 106.225 167.279 108.677 171.986 107.319L186.307 103.189C191.673 101.642 194.546 95.8175 192.507 90.6181L185.081 71.679C183.043 66.4802 176.975 64.1552 171.984 66.662ZM169.784 94.7912C166.815 95.9534 163.464 94.4889 162.3 91.5205C161.135 88.5521 162.6 85.2035 165.569 84.0413C168.538 82.8791 171.888 84.343 173.052 87.3114C174.216 90.2797 172.753 93.629 169.784 94.7912Z" fill="#407BFF"/>
<path d="M171.984 66.662L158.668 73.352C154.29 75.5511 152.309 80.7226 154.098 85.2847L160.52 101.664C162.309 106.225 167.279 108.677 171.986 107.319L186.307 103.189C191.673 101.642 194.546 95.8175 192.507 90.6181L185.081 71.679C183.043 66.4802 176.975 64.1552 171.984 66.662ZM169.784 94.7912C166.815 95.9534 163.464 94.4889 162.3 91.5205C161.135 88.5521 162.6 85.2035 165.569 84.0413C168.538 82.8791 171.888 84.343 173.052 87.3114C174.216 90.2797 172.753 93.629 169.784 94.7912Z" fill="#407BFF"/>
<path opacity="0.1" d="M192.51 90.6208L185.08 71.6825C183.044 66.4783 176.976 64.154 171.987 66.6615L168.119 68.6056L165.52 69.9082L158.673 73.3515C154.293 75.5513 152.31 80.7228 154.097 85.2855L160.519 101.664C162.312 106.227 167.281 108.675 171.988 107.321L186.312 103.19C187.483 102.85 188.537 102.306 189.447 101.606C190.155 101.069 190.77 100.44 191.287 99.7404C193.165 97.2129 193.754 93.8023 192.51 90.6208ZM169.781 94.7907C166.815 95.9562 163.463 94.4896 162.298 91.5173C161.133 88.5516 162.599 85.2003 165.572 84.0414C168.537 82.8759 171.889 84.3425 173.054 87.3082C174.213 90.2805 172.753 93.6258 169.781 94.7907Z" fill="white"/>
<path d="M172.122 67.908L159.633 74.1817C155.527 76.2443 153.669 81.0948 155.347 85.3738L161.37 100.734C163.048 105.013 167.709 107.312 172.125 106.039L185.555 102.166C190.588 100.714 193.283 95.2526 191.371 90.3761L184.406 72.6133C182.494 67.7375 176.802 65.5563 172.122 67.908ZM162.299 91.5203C161.135 88.552 162.6 85.2033 165.569 84.0412C168.538 82.879 171.888 84.3429 173.052 87.3112C174.216 90.2796 172.753 93.6289 169.784 94.7911C166.815 95.9532 163.464 94.4887 162.299 91.5203Z" fill="#407BFF"/>
<path opacity="0.1" d="M172.122 67.908L159.633 74.1817C155.527 76.2443 153.669 81.0948 155.347 85.3738L161.37 100.734C163.048 105.013 167.709 107.312 172.125 106.039L185.555 102.166C190.588 100.714 193.283 95.2526 191.371 90.3761L184.406 72.6133C182.494 67.7375 176.802 65.5563 172.122 67.908ZM162.299 91.5203C161.135 88.552 162.6 85.2033 165.569 84.0412C168.538 82.879 171.888 84.3429 173.052 87.3112C174.216 90.2796 172.753 93.6289 169.784 94.7911C166.815 95.9532 163.464 94.4887 162.299 91.5203Z" fill="#407BFF"/>
<path d="M234.177 61.9852L233.796 62.6825L233.584 63.0694L232.981 64.1703L233.234 66.9882C233.244 67.1087 233.23 67.2279 233.195 67.3378C233.115 67.5816 232.929 67.7847 232.68 67.8826L227.416 69.9432C227.168 70.0405 226.895 70.0185 226.67 69.8926C226.597 69.8527 226.53 69.8027 226.47 69.7408L223.495 66.7151L223.487 66.7065L219.255 68.3628L219.868 69.9266L215.637 71.5829L216.646 74.1583L213.531 75.3778C213.276 75.4777 212.994 75.4604 212.758 75.3372C212.68 75.2985 212.608 75.2466 212.542 75.186L210.747 73.497L206.515 75.1533L207.525 77.7288L203.075 79.4704L204.09 82.0564C204.255 82.4787 204.047 82.9555 203.625 83.1207L191.439 87.8913L186.151 74.4061L230.23 57.1514L230.919 57.505L233.154 58.6525C234.373 59.2779 234.835 60.7851 234.177 61.9852Z" fill="#407BFF"/>
<g opacity="0.1">
<path d="M234.177 61.9852L233.796 62.6825L233.584 63.0694L232.981 64.1703L233.234 66.9882C233.244 67.1087 233.23 67.2279 233.195 67.3378C233.115 67.5816 232.929 67.7847 232.68 67.8826L227.416 69.9432C227.168 70.0405 226.895 70.0185 226.67 69.8926C226.597 69.8527 226.53 69.8027 226.47 69.7408L223.495 66.7151L223.487 66.7065L219.255 68.3628L219.868 69.9266L215.637 71.5829L216.646 74.1583L213.531 75.3778C213.276 75.4777 212.994 75.4604 212.758 75.3372C212.68 75.2985 212.608 75.2466 212.542 75.186L210.747 73.497L206.515 75.1533L207.525 77.7288L203.075 79.4704L204.09 82.0564C204.255 82.4787 204.047 82.9555 203.625 83.1207L191.439 87.8913L186.151 74.4061L230.23 57.1514L230.919 57.505L233.154 58.6525C234.373 59.2779 234.835 60.7851 234.177 61.9852Z" fill="white"/>
</g>
<path d="M234.005 60.4494L186.878 78.8969L185.504 75.4357L230.437 57.8467L232.673 58.9942C233.524 59.4311 234.013 59.8367 234.005 60.4494Z" fill="#407BFF"/>
<path opacity="0.1" d="M234.005 60.4494L186.878 78.8969L185.504 75.4357L230.437 57.8467L232.673 58.9942C233.524 59.4311 234.013 59.8367 234.005 60.4494Z" fill="black"/>
<path d="M233.074 63.0478L232.618 64.0721C232.611 64.0887 232.607 64.1074 232.609 64.1254L232.864 66.9152C232.874 67.0171 232.865 67.1184 232.841 67.2136C232.833 67.2462 232.808 67.2722 232.776 67.2849L227.053 69.5373C227.023 69.5493 226.988 69.5479 226.959 69.53C226.904 69.4953 226.851 69.4534 226.804 69.4054L223.531 66.1167C223.501 66.0861 223.456 66.0767 223.416 66.0927L218.77 67.9216C218.714 67.9435 218.687 68.0055 218.709 68.0608L219.262 69.4627C219.284 69.518 219.257 69.5799 219.201 69.6019L215.239 71.1616C215.184 71.1836 215.157 71.2456 215.179 71.3008L216.133 73.7211C216.155 73.7764 216.128 73.8383 216.072 73.8603L213.165 75.0045C213.136 75.0165 213.102 75.0151 213.074 74.9991C213.013 74.9638 212.956 74.9212 212.903 74.8719L210.778 72.9132C210.747 72.8853 210.704 72.8773 210.666 72.8926L206.05 74.7094C205.995 74.7314 205.968 74.7934 205.99 74.8486L206.968 77.3288C206.99 77.3841 206.962 77.446 206.907 77.468L189.186 84.4417C189.131 84.4637 189.069 84.4364 189.047 84.3818L187.279 79.9429C187.257 79.8876 187.284 79.825 187.339 79.803L233.517 61.6279C233.607 61.5926 233.694 61.6845 233.654 61.7724L233.074 63.0478Z" fill="#407BFF"/>
<path opacity="0.1" d="M233.074 63.0478L232.618 64.0721C232.611 64.0887 232.607 64.1074 232.609 64.1254L232.864 66.9152C232.874 67.0171 232.865 67.1184 232.841 67.2136C232.833 67.2462 232.808 67.2722 232.776 67.2849L227.053 69.5373C227.023 69.5493 226.988 69.5479 226.959 69.53C226.904 69.4953 226.851 69.4534 226.804 69.4054L223.531 66.1167C223.501 66.0861 223.456 66.0767 223.416 66.0927L218.77 67.9216C218.714 67.9435 218.687 68.0055 218.709 68.0608L219.262 69.4627C219.284 69.518 219.257 69.5799 219.201 69.6019L215.239 71.1616C215.184 71.1836 215.157 71.2456 215.179 71.3008L216.133 73.7211C216.155 73.7764 216.128 73.8383 216.072 73.8603L213.165 75.0045C213.136 75.0165 213.102 75.0151 213.074 74.9991C213.013 74.9638 212.956 74.9212 212.903 74.8719L210.778 72.9132C210.747 72.8853 210.704 72.8773 210.666 72.8926L206.05 74.7094C205.995 74.7314 205.968 74.7934 205.99 74.8486L206.968 77.3288C206.99 77.3841 206.962 77.446 206.907 77.468L189.186 84.4417C189.131 84.4637 189.069 84.4364 189.047 84.3818L187.279 79.9429C187.257 79.8876 187.284 79.825 187.339 79.803L233.517 61.6279C233.607 61.5926 233.694 61.6845 233.654 61.7724L233.074 63.0478Z" fill="black"/>
<path opacity="0.3" d="M165.216 82.6C161.492 84.0578 159.656 88.2583 161.116 91.9826C162.576 95.7068 166.779 97.543 170.504 96.0851C174.229 94.6273 176.064 90.4268 174.604 86.7025C173.144 82.9782 168.941 81.1421 165.216 82.6ZM169.784 94.7904C166.815 95.9526 163.463 94.4881 162.299 91.5197C161.135 88.5513 162.6 85.2027 165.569 84.0405C168.538 82.8784 171.888 84.3422 173.052 87.3106C174.216 90.2789 172.753 93.6283 169.784 94.7904Z" fill="white"/>
<path opacity="0.1" d="M191.284 99.7327C190.767 100.433 190.151 101.061 189.445 101.598L165.518 69.9006L165.499 69.8746C165.499 69.8746 167.606 68.8144 168.084 68.5C168.084 68.526 168.097 68.5593 168.117 68.5979C169.164 70.843 187.971 95.2612 191.284 99.7327Z" fill="white"/>
<path opacity="0.1" d="M187.827 102.599C187.677 102.671 180.705 104.793 180.705 104.793L172.935 94.5016C174.944 92.5309 175.697 89.4806 174.604 86.6981C173.144 82.9731 168.942 81.1336 165.217 82.5935C164.889 82.718 164.581 82.8686 164.287 83.0384L157.413 73.9322C157.413 73.9322 163.456 71.0517 164.123 70.6328C164.3 71.9102 187.827 102.331 187.827 102.599Z" fill="white"/>
<path d="M159.299 52.6068C158.521 53.5325 158.203 54.8286 158.465 56.0094C158.728 57.1902 159.563 58.2298 160.661 58.74C161.229 59.0044 161.855 59.1309 162.417 59.408C162.98 59.685 163.502 60.1732 163.562 60.7972C163.628 61.4865 163.119 62.1306 163.167 62.8212C163.211 63.4539 163.706 63.9561 164.206 64.347C164.705 64.738 165.263 65.1069 165.538 65.6783C165.813 66.2498 165.635 67.0963 165.023 67.2628C164.894 67.4606 164.844 67.9321 165.009 68.1019C165.173 68.2711 165.458 68.3071 165.66 68.1832C166.599 67.6051 167.245 66.5149 167.252 65.4113C167.259 64.3077 166.567 63.2308 165.56 62.7793C165.379 62.4123 165.519 61.9468 165.671 61.5665C165.976 60.8039 166.28 60.0413 166.585 59.2788C166.705 58.9791 166.599 58.4336 166.394 58.1845C166.19 57.9354 165.881 57.7996 165.585 57.6724L163.622 56.8305C162.88 56.5129 160.681 53.5651 163.292 52.7047C162.951 51.9474 162.362 51.7097 161.544 51.5605C160.727 51.4113 159.834 51.9707 159.299 52.6068Z" fill="#263238"/>
<path d="M162.862 49.4348C162.797 50.21 162.732 50.9846 162.667 51.7598C163.317 50.6915 164.523 48.6209 164.481 48.7015C163.97 48.9792 163.374 49.1564 162.862 49.4348Z" fill="#263238"/>
<path d="M163.744 50.709C164.653 49.8678 165.562 49.0267 166.472 48.1862C165.77 47.9231 164.92 48.1189 164.404 48.663C164.42 48.6058 163.999 49.8978 163.744 50.709Z" fill="#263238"/>
<path d="M158.197 113.718C154.645 118.125 155.827 121.506 150.924 129.31C157.107 133.893 163.887 134.652 172.314 133.998C173.31 132.233 173.813 130.392 174.81 128.627C176.238 130.399 177.385 131.889 178.813 133.661C183.229 132.969 188.475 131.728 191.967 129.478C188.883 125.942 186.968 121.524 184.994 117.625C184.068 115.796 184.455 115.027 181.999 112.629C174.175 112.99 166.415 113.181 158.591 113.542C158.798 113.553 157.991 113.707 158.197 113.718Z" fill="#263238"/>
<path d="M159.17 112.98L158.68 115.038C158.609 115.199 158.8 115.353 159.063 115.338L180.63 114.384C180.837 114.387 181.001 114.264 181.01 114.139L181.124 112.095C181.126 111.957 180.947 111.842 180.721 111.857L159.531 112.793C159.385 112.786 159.248 112.858 159.17 112.98Z" fill="#407BFF"/>
<path d="M159.17 112.98L158.68 115.038C158.609 115.199 158.8 115.353 159.063 115.338L180.63 114.384C180.837 114.387 181.001 114.264 181.01 114.139L181.124 112.095C181.126 111.957 180.947 111.842 180.721 111.857L159.531 112.793C159.385 112.786 159.248 112.858 159.17 112.98Z" fill="#407BFF"/>
<path d="M163.92 115.342L163.294 115.37C163.175 115.368 163.076 115.316 163.084 115.241L163.252 112.584C163.254 112.509 163.361 112.441 163.486 112.437L164.113 112.403C164.232 112.405 164.331 112.457 164.323 112.539L164.155 115.189C164.148 115.264 164.04 115.338 163.92 115.342Z" fill="#263238"/>
<path d="M179.492 114.671L178.866 114.698C178.747 114.696 178.648 114.644 178.656 114.569L178.824 111.918C178.826 111.837 178.933 111.77 179.052 111.766L179.678 111.738C179.797 111.74 179.896 111.792 179.888 111.867L179.72 114.517C179.719 114.599 179.617 114.667 179.492 114.671Z" fill="#263238"/>
<path d="M166.706 102.41C166.747 102.606 168.422 105.271 169.734 105.086C169.745 105.085 169.756 105.083 169.767 105.082C170.15 105.028 170.532 105.183 170.767 105.489C171.295 106.176 171.613 106.57 171.969 107.02C172.548 107.752 173.551 107.987 174.397 107.594C174.647 107.477 174.895 107.349 175.142 107.219C175.955 106.787 176.37 105.856 176.149 104.962C175.906 103.982 175.529 103.036 175.028 102.16C174.857 101.86 174.661 101.558 174.363 101.385C174.065 101.211 171.176 100.338 170.053 100.373C168.885 100.41 167.776 101.94 166.706 102.41Z" fill="#E8BFBF"/>
<path d="M170.082 100.284C170.082 100.284 152.378 94.9233 148.559 98.4924C146.314 100.591 147.374 102.572 148.629 103.85C149.563 104.8 151.597 104.566 152.928 104.504L166.873 103.136L170.082 100.284Z" fill="#E8BFBF"/>
<path d="M159.909 97.8356C159.813 96.8772 159.071 96.0813 158.209 95.6517C157.348 95.2222 156.371 95.095 155.416 94.9737C153.192 94.692 150.967 94.4096 148.743 94.1279C147.613 95.5565 146.801 97.5185 146.836 99.3394C146.871 101.16 147.557 102.962 148.74 104.346C149.804 102.288 151.208 100.169 153.287 99.1469C155.366 98.1253 157.629 97.4226 159.909 97.8356Z" fill="#263238"/>
<path opacity="0.1" d="M155.345 65.499C155.325 65.4591 155.325 65.4391 155.345 65.4324C155.484 65.3925 155.464 65.4191 155.345 65.499Z" fill="white"/>
<path d="M199.327 36.8377L204.259 45.9832L224.384 28.8937C224.561 28.7431 224.356 28.4707 224.162 28.5986L205.296 41.0515L202.388 35.3792L199.327 36.8377Z" fill="#407BFF"/>
<path d="M231.079 36.8809C231.079 45.0314 222.523 51.6361 211.97 51.6361C207.918 51.6361 204.166 50.6671 201.077 48.9981L189.857 53.8752L196.94 45.9865C194.387 43.4856 192.861 40.3241 192.861 36.8802C192.861 28.7297 201.417 22.125 211.97 22.125C222.523 22.1257 231.079 28.7311 231.079 36.8809Z" stroke="#0082FF" stroke-width="0.8658" stroke-miterlimit="10"/>
</svg>
