<svg width="87" height="89" viewBox="0 0 87 89" fill="none" xmlns="http://www.w3.org/2000/svg">
<g filter="url(#filter0_d_2014_73764)">
<path d="M67.8332 47.0508H18.4166C17.7776 47.0508 17.2588 47.5687 17.2588 48.2086C17.2588 48.8484 17.7768 49.3664 18.4166 49.3664H67.8332C68.473 49.3664 68.991 48.8484 68.991 48.2086C68.9902 47.5687 68.473 47.0508 67.8332 47.0508Z" fill="#0082FF"/>
<path d="M67.8332 39.9355H18.4166C17.7776 39.9355 17.2588 40.4535 17.2588 41.0933C17.2588 41.7324 17.7768 42.2511 18.4166 42.2511H67.8332C68.473 42.2511 68.991 41.7332 68.991 41.0933C68.9902 40.4543 68.473 39.9355 67.8332 39.9355Z" fill="#0082FF"/>
<path d="M67.8332 32.8193H18.4166C17.7776 32.8193 17.2588 33.3373 17.2588 33.9771C17.2588 34.6162 17.7768 35.1349 18.4166 35.1349H67.8332C68.473 35.1349 68.991 34.617 68.991 33.9771C68.9902 33.3373 68.473 32.8193 67.8332 32.8193Z" fill="#0082FF"/>
<path d="M50.0299 28.0177H67.8331C68.4729 28.0177 68.9909 27.4998 68.9909 26.8599C68.9909 26.2209 68.4729 25.7021 67.8331 25.7021H50.0299C49.39 25.7021 48.8721 26.2201 48.8721 26.8599C48.8721 27.4998 49.39 28.0177 50.0299 28.0177Z" fill="#0082FF"/>
<path d="M50.0299 20.9015H67.8331C68.4729 20.9015 68.9909 20.3836 68.9909 19.7437C68.9909 19.1047 68.4729 18.5859 67.8331 18.5859H50.0299C49.39 18.5859 48.8721 19.1039 48.8721 19.7437C48.8721 20.3828 49.39 20.9015 50.0299 20.9015Z" fill="#0082FF"/>
<path d="M50.0299 13.7853H67.8331C68.4729 13.7853 68.9909 13.2674 68.9909 12.6275C68.9909 11.9885 68.4729 11.4697 67.8331 11.4697H50.0299C49.39 11.4697 48.8721 11.9877 48.8721 12.6275C48.8721 13.2674 49.39 13.7853 50.0299 13.7853Z" fill="#0082FF"/>
<path d="M22.1743 27.3997V28.8959C22.1743 29.5349 22.6923 30.0537 23.3321 30.0537C23.9711 30.0537 24.4899 29.5357 24.4899 28.8959V27.4222C27.9737 27.1311 30.165 25.4457 30.165 22.9642C30.165 21.6139 29.5012 18.4725 23.3473 18.4725C19.2525 18.4725 19.2525 17.01 19.2525 16.225C19.2525 15.08 20.95 14.2486 23.288 14.2486C25.6862 14.2486 27.2289 15.1586 27.3355 16.0382C27.4125 16.674 27.9994 17.1262 28.6232 17.0485C29.2582 16.9715 29.7096 16.395 29.6335 15.7608C29.3929 13.7763 27.3395 12.3203 24.4875 12.0011V10.5924C24.4875 9.95334 23.9695 9.43457 23.3297 9.43457C22.6907 9.43457 22.1719 9.95253 22.1719 10.5924V11.9867C18.9976 12.293 16.9369 13.9182 16.9369 16.225C16.9369 19.2526 19.0938 20.7881 23.3465 20.7881C25.4008 20.7881 27.8495 21.1657 27.8495 22.965C27.8495 24.4772 25.6052 25.1531 23.381 25.1531C20.9171 25.1531 19.0569 24.0594 18.9286 23.078C18.8452 22.4438 18.2559 22.0036 17.6305 22.0806C16.9963 22.164 16.5497 22.7453 16.6331 23.3787C16.9081 25.4754 19.1635 27.063 22.1743 27.3997Z" fill="#0082FF"/>
<path d="M37.907 27.3987V28.8949C37.907 29.5339 38.4249 30.0527 39.0648 30.0527C39.7038 30.0527 40.2226 29.5347 40.2226 28.8949V27.4212C43.7064 27.1301 45.8977 25.4447 45.8977 22.9632C45.8977 21.6129 45.233 18.4715 39.08 18.4715C34.9852 18.4715 34.9852 17.009 34.9852 16.224C34.9852 15.0791 36.6826 14.2476 39.0207 14.2476C41.4181 14.2476 42.9615 15.1576 43.0682 16.0372C43.1451 16.6722 43.7216 17.1269 44.3559 17.0475C44.9909 16.9705 45.4431 16.394 45.3661 15.7598C45.1256 13.7761 43.0722 12.3193 40.2202 12.0002V10.5914C40.2202 9.95236 39.7022 9.43359 39.0624 9.43359C38.4233 9.43359 37.9046 9.95156 37.9046 10.5914V11.9857C34.7302 12.292 32.6696 13.9173 32.6696 16.224C32.6696 19.2516 34.8265 20.7871 39.0792 20.7871C41.1334 20.7871 43.5821 21.1647 43.5821 22.964C43.5821 24.4762 41.3379 25.1521 39.1137 25.1521C36.6497 25.1521 34.7896 24.0584 34.6613 23.077C34.5779 22.4428 33.9878 22.0026 33.3632 22.0796C32.7289 22.163 32.2823 22.7443 32.3657 23.3777C32.6399 25.4744 34.8962 27.062 37.907 27.3987Z" fill="#0082FF"/>
<path d="M76.6993 39.6423V11.6202C76.6993 6.86709 72.8322 3 68.0791 3H18.1694C13.4171 3 9.55006 6.86709 9.55006 11.6202V39.6431C6.28914 40.594 4 43.5904 4 47.0581V75.4507C4 79.7123 7.46779 83.1801 11.7286 83.1801H74.52C78.7815 83.1801 82.2493 79.7123 82.2493 75.4507V47.0581C82.2493 43.5847 79.961 40.5932 76.6993 39.6423ZM6.3148 54.7258H79.9345V71.3952H74.7509C71.1877 71.3952 67.8514 73.3011 66.0401 76.3688H20.2092C18.3979 73.3011 15.0608 71.3952 11.4984 71.3952H6.3148V54.7258ZM79.9345 47.0581V52.4102H76.6993V42.0998C78.6308 42.9441 79.9345 44.8644 79.9345 47.0581ZM18.1694 5.3148H68.0791C71.5557 5.3148 74.3845 8.14355 74.3845 11.6202V52.411H11.8649V11.6202C11.8649 8.14355 14.6936 5.3148 18.1694 5.3148ZM9.55006 42.0998V52.411H6.3148V47.0589C6.3148 44.8668 7.61933 42.9449 9.55006 42.0998ZM74.52 80.8653H11.7286C8.74345 80.8653 6.3148 78.4358 6.3148 75.4507V73.71H11.4976C14.247 73.71 16.8224 75.1821 18.2191 77.5506L18.5495 78.1127C18.7571 78.4663 19.1364 78.6836 19.5469 78.6836H66.7008C67.1113 78.6836 67.4898 78.4663 67.6974 78.1135L68.0286 77.5514C69.4245 75.1813 71.9999 73.7092 74.7501 73.7092H79.9337V75.4499C79.9345 78.4358 77.5051 80.8653 74.52 80.8653Z" fill="#0082FF"/>
</g>
<defs>
<filter id="filter0_d_2014_73764" x="0.0502431" y="0.630146" width="86.1488" height="88.0792" filterUnits="userSpaceOnUse" color-interpolation-filters="sRGB">
<feFlood flood-opacity="0" result="BackgroundImageFix"/>
<feColorMatrix in="SourceAlpha" type="matrix" values="0 0 0 0 0 0 0 0 0 0 0 0 0 0 0 0 0 0 127 0" result="hardAlpha"/>
<feOffset dy="1.5799"/>
<feGaussianBlur stdDeviation="1.97488"/>
<feComposite in2="hardAlpha" operator="out"/>
<feColorMatrix type="matrix" values="0 0 0 0 0 0 0 0 0 0.509804 0 0 0 0 1 0 0 0 0.5 0"/>
<feBlend mode="normal" in2="BackgroundImageFix" result="effect1_dropShadow_2014_73764"/>
<feBlend mode="normal" in="SourceGraphic" in2="effect1_dropShadow_2014_73764" result="shape"/>
</filter>
</defs>
</svg>
