<svg width="219" height="223" viewBox="0 0 219 223" fill="none" xmlns="http://www.w3.org/2000/svg">
<g filter="url(#filter0_d_2001_36831)">
<path d="M171.613 117.525H46.4997C44.8818 117.525 43.5684 118.837 43.5684 120.457C43.5684 122.077 44.8797 123.388 46.4997 123.388H171.613C173.233 123.388 174.544 122.077 174.544 120.457C174.542 118.837 173.233 117.525 171.613 117.525Z" fill="#0082FF"/>
<path d="M171.613 99.5098H46.4997C44.8818 99.5098 43.5684 100.821 43.5684 102.441C43.5684 104.059 44.8797 105.372 46.4997 105.372H171.613C173.233 105.372 174.544 104.061 174.544 102.441C174.542 100.823 173.233 99.5098 171.613 99.5098Z" fill="#0082FF"/>
<path d="M171.613 81.4932H46.4997C44.8818 81.4932 43.5684 82.8045 43.5684 84.4245C43.5684 86.0424 44.8797 87.3558 46.4997 87.3558H171.613C173.233 87.3558 174.544 86.0444 174.544 84.4245C174.542 82.8045 173.233 81.4932 171.613 81.4932Z" fill="#0082FF"/>
<path d="M126.539 69.3373H171.613C173.233 69.3373 174.544 68.0259 174.544 66.4059C174.544 64.788 173.233 63.4746 171.613 63.4746H126.539C124.919 63.4746 123.607 64.786 123.607 66.4059C123.607 68.0259 124.919 69.3373 126.539 69.3373Z" fill="#0082FF"/>
<path d="M126.539 51.3206H171.613C173.233 51.3206 174.544 50.0093 174.544 48.3893C174.544 46.7714 173.233 45.458 171.613 45.458H126.539C124.919 45.458 123.607 46.7694 123.607 48.3893C123.607 50.0072 124.919 51.3206 126.539 51.3206Z" fill="#0082FF"/>
<path d="M126.539 33.3031H171.613C173.233 33.3031 174.544 31.9917 174.544 30.3717C174.544 28.7538 173.233 27.4404 171.613 27.4404H126.539C124.919 27.4404 123.607 28.7518 123.607 30.3717C123.607 31.9917 124.919 33.3031 126.539 33.3031Z" fill="#0082FF"/>
<path d="M56.0146 67.7723V71.5602C56.0146 73.1782 57.326 74.4916 58.946 74.4916C60.5639 74.4916 61.8773 73.1802 61.8773 71.5602V67.8291C70.6976 67.0922 76.2456 62.8252 76.2456 56.5423C76.2456 53.1238 74.5648 45.1702 58.9845 45.1702C48.6173 45.1702 48.6173 41.4675 48.6173 39.4802C48.6173 36.5813 52.9148 34.4762 58.8343 34.4762C64.906 34.4762 68.8118 36.7803 69.0818 39.0072C69.2766 40.617 70.7626 41.7619 72.3419 41.565C73.9497 41.3701 75.0926 39.9105 74.8997 38.3048C74.2907 33.2805 69.0919 29.5941 61.8712 28.7861V25.2194C61.8712 23.6015 60.5598 22.2881 58.9399 22.2881C57.322 22.2881 56.0086 23.5995 56.0086 25.2194V28.7496C47.9718 29.525 42.7547 33.6398 42.7547 39.4802C42.7547 47.1454 48.2154 51.0329 58.9825 51.0329C64.1834 51.0329 70.383 51.989 70.383 56.5443C70.383 60.3729 64.701 62.0842 59.0698 62.0842C52.8316 62.0842 48.122 59.3153 47.7972 56.8306C47.5861 55.2248 46.094 54.1104 44.5106 54.3052C42.9049 54.5164 41.7742 55.9881 41.9853 57.5918C42.6816 62.9003 48.392 66.9197 56.0146 67.7723Z" fill="#0082FF"/>
<path d="M95.8447 67.7732V71.5612C95.8447 73.1791 97.1561 74.4925 98.776 74.4925C100.394 74.4925 101.707 73.1812 101.707 71.5612V67.8301C110.528 67.0932 116.076 62.8261 116.076 56.5433C116.076 53.1248 114.393 45.1712 98.8146 45.1712C88.4474 45.1712 88.4474 41.4685 88.4474 39.4811C88.4474 36.5823 92.7449 34.4772 98.6644 34.4772C104.734 34.4772 108.642 36.7812 108.912 39.0081C109.107 40.6159 110.566 41.7669 112.172 41.5659C113.78 41.3711 114.925 39.9115 114.73 38.3058C114.121 33.2835 108.922 29.595 101.701 28.7871V25.2204C101.701 23.6025 100.39 22.2891 98.77 22.2891C97.152 22.2891 95.8386 23.6004 95.8386 25.2204V28.7506C87.8019 29.526 82.5848 33.6408 82.5848 39.4811C82.5848 47.1464 88.0455 51.0339 98.8126 51.0339C104.013 51.0339 110.213 51.99 110.213 56.5453C110.213 60.3739 104.531 62.0852 98.8999 62.0852C92.6617 62.0852 87.9521 59.3163 87.6273 56.8315C87.4162 55.2258 85.9221 54.1113 84.3407 54.3062C82.735 54.5173 81.6043 55.9891 81.8154 57.5928C82.5097 62.9012 88.2221 66.9206 95.8447 67.7732Z" fill="#0082FF"/>
<path d="M194.06 98.771V27.8245C194.06 15.7907 184.269 6 172.236 6H45.8742C33.8424 6 24.0517 15.7907 24.0517 27.8245V98.773C15.7957 101.181 10 108.767 10 117.546V189.431C10 200.22 18.7797 209 29.5672 209H188.543C199.332 209 208.112 200.22 208.112 189.431V117.546C208.112 108.753 202.318 101.179 194.06 98.771ZM15.8606 136.959H202.251V179.163H189.127C180.106 179.163 171.659 183.988 167.073 191.755H51.0385C46.4527 183.988 38.0038 179.163 28.9846 179.163H15.8606V136.959ZM202.251 117.546V131.097H194.06V104.993C198.95 107.131 202.251 111.992 202.251 117.546ZM45.8742 11.8606H172.236C181.038 11.8606 188.199 19.0224 188.199 27.8245V131.099H29.9123V27.8245C29.9123 19.0224 37.0741 11.8606 45.8742 11.8606ZM24.0517 104.993V131.099H15.8606V117.549C15.8606 111.998 19.1634 107.133 24.0517 104.993ZM188.543 203.139H29.5672C22.0095 203.139 15.8606 196.988 15.8606 189.431V185.024H28.9825C35.9434 185.024 42.4638 188.751 46 194.747L46.8364 196.17C47.3622 197.066 48.3223 197.616 49.3617 197.616H168.746C169.785 197.616 170.744 197.066 171.269 196.172L172.108 194.749C175.642 188.749 182.162 185.022 189.125 185.022H202.249V189.429C202.251 196.988 196.1 203.139 188.543 203.139Z" fill="#0082FF"/>
</g>
<defs>
<filter id="filter0_d_2001_36831" x="0" y="0" width="218.111" height="223" filterUnits="userSpaceOnUse" color-interpolation-filters="sRGB">
<feFlood flood-opacity="0" result="BackgroundImageFix"/>
<feColorMatrix in="SourceAlpha" type="matrix" values="0 0 0 0 0 0 0 0 0 0 0 0 0 0 0 0 0 0 127 0" result="hardAlpha"/>
<feOffset dy="4"/>
<feGaussianBlur stdDeviation="5"/>
<feComposite in2="hardAlpha" operator="out"/>
<feColorMatrix type="matrix" values="0 0 0 0 0 0 0 0 0 0.509804 0 0 0 0 1 0 0 0 0.5 0"/>
<feBlend mode="normal" in2="BackgroundImageFix" result="effect1_dropShadow_2001_36831"/>
<feBlend mode="normal" in="SourceGraphic" in2="effect1_dropShadow_2001_36831" result="shape"/>
</filter>
</defs>
</svg>
