<svg width="273" height="203" viewBox="0 0 273 203" fill="none" xmlns="http://www.w3.org/2000/svg">
<path d="M272.404 178.395H0V178.531H272.404V178.395Z" fill="#EBEBEB"/>
<path d="M221.803 182.105H181.603V182.241H221.803V182.105Z" fill="#EBEBEB"/>
<path d="M61.1862 183.021H56.4502V183.157H61.1862V183.021Z" fill="#EBEBEB"/>
<path d="M232.805 187.164H222.349V187.3H232.805V187.164Z" fill="#EBEBEB"/>
<path d="M135.476 185.321H108.962V185.457H135.476V185.321Z" fill="#EBEBEB"/>
<path d="M104.111 185.321H90.8291V185.457H104.111V185.321Z" fill="#EBEBEB"/>
<path d="M46.6388 183.021H28.5801V183.157H46.6388V183.021Z" fill="#EBEBEB"/>
<path d="M129.127 154.098H23.9252C22.2107 154.098 20.8154 152.702 20.8154 150.988V3.10976C20.8154 1.39525 22.2107 0 23.9252 0H129.127C130.841 0 132.236 1.39525 132.236 3.10976V150.988C132.236 152.702 130.841 154.098 129.127 154.098ZM23.9252 0.136746C22.2853 0.136746 20.9516 1.47043 20.9516 3.1103V150.988C20.9516 152.628 22.2853 153.962 23.9252 153.962H129.127C130.766 153.962 132.1 152.628 132.1 150.988V3.10976C132.1 1.47043 130.766 0.136202 129.127 0.136202L23.9252 0.136746Z" fill="#EBEBEB"/>
<path d="M246.967 154.098H141.765C140.051 154.098 138.656 152.702 138.656 150.988V3.10976C138.656 1.39525 140.052 0 141.765 0H246.967C248.682 0 250.076 1.39525 250.076 3.10976V150.988C250.077 152.702 248.682 154.098 246.967 154.098ZM141.765 0.136746C140.126 0.136746 138.792 1.47043 138.792 3.1103V150.988C138.792 152.628 140.126 153.962 141.765 153.962H246.967C248.607 153.962 249.94 152.628 249.94 150.988V3.10976C249.94 1.47043 248.607 0.136202 246.967 0.136202L141.765 0.136746Z" fill="#EBEBEB"/>
<path d="M41.4077 119.953L125.3 119.953L125.3 21.6487L41.4077 21.6487L41.4077 119.953Z" fill="#E6E6E6"/>
<path d="M39.5395 119.953L123.432 119.953L123.432 21.6487L39.5395 21.6487L39.5395 119.953Z" fill="#F5F5F5"/>
<path d="M41.4077 123.135L125.3 123.135V119.952L41.4077 119.952V123.135Z" fill="#E6E6E6"/>
<path d="M36.186 123.135L120.078 123.135V119.952L36.186 119.952V123.135Z" fill="#F5F5F5"/>
<path d="M120.079 116.822L120.079 24.7793L42.893 24.7793L42.893 116.822L120.079 116.822Z" fill="#FAFAFA"/>
<path d="M112.498 116.821L99.2604 24.7793H78.1328L91.3705 116.821H112.498Z" fill="white"/>
<path d="M86.441 116.821L73.2033 24.7793H58.6553L71.893 116.821H86.441Z" fill="white"/>
<path d="M44.3047 116.822L44.3047 24.7793H42.8925L42.8925 116.822H44.3047Z" fill="#E6E6E6"/>
<path d="M40.9264 108.159L122.045 108.159V103.956L40.9264 103.956V108.159Z" fill="#F5F5F5"/>
<path d="M156.752 178.395H169.696L169.696 48.6955H156.752L156.752 178.395Z" fill="#E6E6E6"/>
<path d="M159.211 178.395H156.752V171.401H161.788L159.211 178.395Z" fill="#F0F0F0"/>
<path d="M221.819 178.395H234.764L234.764 48.6955H221.819L221.819 178.395Z" fill="#E6E6E6"/>
<path d="M156.752 174.952H223.964L223.964 48.6953L156.752 48.6953V174.952Z" fill="#F0F0F0"/>
<path d="M187.257 165.645H160.936C159.523 165.645 158.375 164.497 158.375 163.084V53.0114C158.375 51.5992 159.523 50.4497 160.936 50.4497H187.257C188.67 50.4497 189.819 51.5987 189.819 53.0114V163.084C189.819 164.497 188.67 165.645 187.257 165.645ZM160.936 51.0201C159.838 51.0201 158.945 51.9136 158.945 53.0108V163.084C158.945 164.181 159.838 165.074 160.936 165.074H187.257C188.355 165.074 189.248 164.181 189.248 163.084V53.0108C189.248 51.9131 188.355 51.0201 187.257 51.0201H160.936Z" fill="#E0E0E0"/>
<path d="M219.782 165.645H193.46C192.048 165.645 190.899 164.497 190.899 163.084V53.0108C190.899 51.5987 192.048 50.4497 193.46 50.4497H219.782C221.194 50.4497 222.343 51.5987 222.343 53.0108V163.084C222.343 164.497 221.194 165.645 219.782 165.645ZM193.459 51.0201C192.362 51.0201 191.469 51.9131 191.469 53.0108V163.084C191.469 164.182 192.362 165.075 193.459 165.075H219.781C220.879 165.075 221.772 164.181 221.772 163.084V53.0108C221.772 51.9131 220.879 51.0201 219.781 51.0201H193.459Z" fill="#E0E0E0"/>
<path d="M198.089 108.449C198.089 109.656 197.111 110.635 195.904 110.635C194.696 110.635 193.718 109.656 193.718 108.449C193.718 107.242 194.696 106.263 195.904 106.263C197.111 106.263 198.089 107.242 198.089 108.449Z" fill="#FAFAFA"/>
<path d="M186.998 108.449C186.998 109.656 186.02 110.635 184.813 110.635C183.605 110.635 182.627 109.656 182.627 108.449C182.627 107.242 183.605 106.263 184.813 106.263C186.02 106.263 186.998 107.242 186.998 108.449Z" fill="#FAFAFA"/>
<path d="M221.506 178.395H223.964V171.401H218.928L221.506 178.395Z" fill="#F0F0F0"/>
<path d="M198.587 30.0506H177.966L186.562 27.1299H207.183L198.587 30.0506Z" fill="#E6E6E6"/>
<path d="M203.511 48.6958H224.133V30.0514L203.511 30.0514V48.6958Z" fill="#EBEBEB"/>
<path d="M174.502 48.6953H180.013V39.7316H174.502V48.6953Z" fill="#EBEBEB"/>
<path d="M174.501 39.7319H167.675V48.6956H174.501V39.7319Z" fill="#F5F5F5"/>
<path d="M203.511 30.051H224.133L215.537 28.1143H194.915L203.511 30.051Z" fill="#EBEBEB"/>
<path d="M203.511 30.0508H177.966V48.6952H203.511V30.0508Z" fill="#F5F5F5"/>
<path d="M96.916 178.395H114.601L112.513 135.84H96.916V178.395Z" fill="#F5F5F5"/>
<path d="M40.9883 178.395H108.897L113.591 134.412H45.6818L40.9883 178.395Z" fill="#E6E6E6"/>
<path d="M39.0225 178.395H106.932L111.625 134.412H43.716L39.0225 178.395Z" fill="#F0F0F0"/>
<path d="M103.743 173.526L108.036 139.28H46.9054L42.6123 173.526H103.743Z" fill="#FAFAFA"/>
<path d="M136.201 203C194.54 203 241.834 200.238 241.834 196.831C241.834 193.424 194.54 190.662 136.201 190.662C77.8624 190.662 30.5693 193.424 30.5693 196.831C30.5693 200.238 77.8624 203 136.201 203Z" fill="#F5F5F5"/>
<path d="M196.192 58.9951L195.543 71.9507L196.127 71.9799L196.776 59.0244L196.192 58.9951Z" fill="#0082FF"/>
<path d="M195.405 74.6376L195.171 79.3081L195.755 79.3374L195.989 74.6668L195.405 74.6376Z" fill="#0082FF"/>
<path d="M182.086 163.657H126.393C122.339 163.657 119.189 160.34 119.393 156.286L125.603 33.1593C125.808 29.1054 129.292 25.7881 133.346 25.7881H189.04C193.094 25.7881 196.244 29.1054 196.039 33.1593L189.829 156.286C189.625 160.34 186.141 163.657 182.086 163.657Z" fill="#0082FF"/>
<path opacity="0.2" d="M167.097 151.951H150.299C147.813 151.951 145.517 150.976 143.833 149.206C142.146 147.432 141.287 145.084 141.412 142.593L144.394 83.479C144.654 78.336 149.05 74.1514 154.193 74.1514H170.99C173.476 74.1514 175.773 75.1266 177.456 76.8972C179.143 78.6705 180.003 81.0192 179.877 83.5101L176.895 142.624C176.636 147.767 172.24 151.951 167.097 151.951ZM154.193 74.7659C149.371 74.7659 145.251 78.6885 145.008 83.5101L142.026 142.624C141.909 144.945 142.709 147.132 144.279 148.782C145.845 150.429 147.983 151.337 150.3 151.337H167.097C171.919 151.337 176.039 147.414 176.282 142.593L179.264 83.479C179.381 81.1581 178.581 78.9707 177.011 77.3205C175.445 75.673 173.307 74.7659 170.99 74.7659H154.193Z" fill="white"/>
<path opacity="0.1" d="M153.002 90.483H138.805C134.751 90.483 131.601 87.1662 131.805 83.1118L132.521 68.9152C132.725 64.8607 136.21 61.5439 140.264 61.5439H154.461C158.514 61.5439 161.665 64.8607 161.46 68.9152L160.744 83.1118C160.54 87.1657 157.055 90.483 153.002 90.483Z" fill="black"/>
<path d="M148.868 86.1295H134.671C130.617 86.1295 127.467 82.8122 127.672 78.7583L128.387 64.5617C128.592 60.5078 132.076 57.1904 136.13 57.1904H150.327C154.381 57.1904 157.531 60.5078 157.326 64.5617L156.611 78.7583C156.406 82.8127 152.922 86.1295 148.868 86.1295Z" fill="white"/>
<path opacity="0.1" d="M172.941 145.403H162.826C159.937 145.403 157.693 143.04 157.839 140.151L158.349 130.037C158.494 127.148 160.977 124.785 163.865 124.785H173.98C176.869 124.785 179.113 127.148 178.967 130.037L178.458 140.151C178.311 143.04 175.829 145.403 172.941 145.403Z" fill="black"/>
<path d="M169.995 142.302H159.881C156.992 142.302 154.748 139.939 154.893 137.05L155.403 126.935C155.549 124.046 158.031 121.683 160.92 121.683H171.035C173.924 121.683 176.168 124.046 176.022 126.935L175.512 137.05C175.367 139.939 172.884 142.302 169.995 142.302Z" fill="white"/>
<path d="M136.282 111.669H128.983C126.898 111.669 125.279 109.964 125.384 107.879L125.752 100.58C125.857 98.4953 127.649 96.7896 129.733 96.7896H137.033C139.117 96.7896 140.737 98.4953 140.632 100.58L140.264 107.879C140.158 109.964 138.367 111.669 136.282 111.669Z" fill="white"/>
<path d="M183.102 111.669H175.803C173.719 111.669 172.099 109.964 172.204 107.879L172.572 100.58C172.677 98.4953 174.469 96.7896 176.554 96.7896H183.853C185.938 96.7896 187.557 98.4953 187.452 100.58L187.084 107.879C186.979 109.964 185.187 111.669 183.102 111.669Z" fill="white"/>
<path d="M159.692 111.669H152.393C150.308 111.669 148.689 109.964 148.794 107.879L149.162 100.58C149.267 98.4953 151.059 96.7896 153.144 96.7896H160.443C162.527 96.7896 164.147 98.4953 164.042 100.58L163.674 107.879C163.568 109.964 161.777 111.669 159.692 111.669Z" fill="white"/>
<path d="M186.847 47.2527H133.375C131.112 47.2527 129.354 45.4014 129.468 43.1383L129.473 43.0397C129.587 40.7771 131.532 38.9253 133.794 38.9253H187.266C189.529 38.9253 191.287 40.7765 191.173 43.0397L191.168 43.1383C191.054 45.4014 189.109 47.2527 186.847 47.2527Z" fill="white"/>
<path d="M184.446 40.7524L185.128 42.291L186.814 42.5378L185.525 43.7353L185.729 45.4263L184.251 44.6277L182.692 45.4263L183.067 43.7353L181.899 42.5378L183.61 42.291L184.446 40.7524Z" fill="#0082FF"/>
<path opacity="0.1" d="M136.468 43.0895C136.425 43.9378 135.703 44.6253 134.854 44.6253C134.006 44.6253 133.354 43.9378 133.397 43.0895C133.44 42.2413 134.161 41.5537 135.01 41.5537C135.857 41.5543 136.51 42.2413 136.468 43.0895Z" fill="#0082FF"/>
<path opacity="0.1" d="M140.409 43.0895C140.367 43.9378 139.644 44.6253 138.796 44.6253C137.948 44.6253 137.295 43.9378 137.338 43.0895C137.38 42.2413 138.103 41.5537 138.951 41.5537C139.799 41.5543 140.452 42.2413 140.409 43.0895Z" fill="#0082FF"/>
<path opacity="0.1" d="M144.351 43.0895C144.308 43.9378 143.586 44.6253 142.738 44.6253C141.89 44.6253 141.237 43.9378 141.28 43.0895C141.323 42.2413 142.045 41.5537 142.894 41.5537C143.741 41.5543 144.394 42.2413 144.351 43.0895Z" fill="#0082FF"/>
<path opacity="0.2" d="M155.945 32.4169L159.032 34.8359L159.276 29.9985L155.945 32.4169Z" fill="white"/>
<path opacity="0.2" d="M165.774 32.4169L162.443 34.8359L162.687 29.9985L165.774 32.4169Z" fill="white"/>
<path opacity="0.2" d="M184.883 65.7433H165.431C165.008 65.7433 164.616 65.5771 164.33 65.2753C164.042 64.9729 163.895 64.573 163.917 64.1492C163.96 63.2786 164.704 62.5703 165.576 62.5703H185.027C185.451 62.5703 185.842 62.7365 186.129 63.0383C186.416 63.3407 186.563 63.7406 186.542 64.165C186.498 65.0345 185.754 65.7433 184.883 65.7433ZM165.576 62.8765C164.866 62.8765 164.259 63.454 164.224 64.1639C164.207 64.5033 164.324 64.8225 164.552 65.0634C164.781 65.3036 165.093 65.436 165.432 65.436H184.884C185.593 65.436 186.2 64.8585 186.236 64.1486C186.253 63.8092 186.135 63.4899 185.907 63.2491C185.678 63.0089 185.366 62.8765 185.028 62.8765H165.576Z" fill="white"/>
<path opacity="0.2" d="M184.663 70.0958H165.211C164.788 70.0958 164.397 69.9296 164.11 69.6278C163.823 69.3255 163.676 68.9256 163.697 68.5017C163.742 67.6311 164.485 66.9229 165.356 66.9229H184.808C185.231 66.9229 185.623 67.089 185.91 67.3908C186.197 67.6932 186.344 68.0936 186.322 68.517C186.278 69.3876 185.534 70.0958 184.663 70.0958ZM165.356 67.229C164.646 67.229 164.04 67.8065 164.003 68.5164C163.986 68.8558 164.103 69.1751 164.332 69.4159C164.56 69.6562 164.873 69.7885 165.211 69.7885H184.663C185.373 69.7885 185.979 69.211 186.015 68.5012C186.032 68.1623 185.916 67.843 185.687 67.6022C185.459 67.362 185.146 67.229 184.808 67.229H165.356Z" fill="white"/>
<path opacity="0.2" d="M131.821 144.156C131.398 144.156 131.006 143.989 130.719 143.688C130.432 143.385 130.285 142.985 130.307 142.561L131.288 123.109C131.332 122.239 132.076 121.53 132.947 121.53C133.37 121.53 133.761 121.697 134.049 121.999C134.336 122.301 134.483 122.701 134.461 123.125L133.48 142.577C133.436 143.447 132.692 144.156 131.821 144.156ZM132.947 121.837C132.237 121.837 131.631 122.414 131.595 123.124L130.614 142.576C130.597 142.915 130.713 143.234 130.942 143.475C131.171 143.715 131.483 143.848 131.821 143.848C132.531 143.848 133.138 143.27 133.174 142.56L134.155 123.109C134.172 122.77 134.055 122.45 133.827 122.21C133.597 121.969 133.285 121.837 132.947 121.837Z" fill="white"/>
<path d="M80.8388 83.3501L83.4392 85.6159L78.6378 87.7865C78.6378 87.7865 78.4046 86.6582 78.2733 84.9012C78.2188 84.1673 78.7587 83.5233 79.492 83.4623L80.8388 83.3501Z" fill="#FFC3BD"/>
<path d="M84.4018 90.2269L80.1463 90.2263L78.6377 87.7872L83.4391 85.6167L84.4018 90.2269Z" fill="#FFC3BD"/>
<path d="M108.721 49.5488C110.538 51.8479 112.419 54.2075 114.301 56.4935C116.182 58.792 118.103 61.0459 120.076 63.1608L120.821 63.9372L121.105 64.2259C121.163 64.2968 121.27 64.3736 121.355 64.4509C121.737 64.7609 122.253 65.0982 122.817 65.4033C123.956 66.0129 125.264 66.5664 126.609 67.0611C129.304 68.0527 132.193 68.9146 135.03 69.7121L134.611 72.9134C131.447 72.8502 128.372 72.5332 125.231 71.8723C123.663 71.5313 122.087 71.1177 120.471 70.4585C119.66 70.1251 118.832 69.7465 117.979 69.1755C117.762 69.0241 117.553 68.8911 117.331 68.7048L117.004 68.4384L116.771 68.2314L115.877 67.431C113.541 65.2774 111.407 63.0143 109.362 60.6918C107.314 58.3584 105.391 55.9923 103.521 53.4774L108.721 49.5488Z" fill="#FFC3BD"/>
<path d="M140.129 69.1762L141.298 73.6802L136.729 73.423L137.764 68.3999L140.129 69.1762Z" fill="#FFC3BD"/>
<path d="M133.776 69.7118L137.764 68.3999L136.729 73.423C136.729 73.423 133.204 74.4543 131.94 71.8769L133.776 69.7118Z" fill="#FFC3BD"/>
<path d="M85.9433 51.4706C85.1184 54.3128 84.2484 57.1676 83.3663 59.9952L82.0577 64.2288L81.4296 66.3274L81.1299 67.3609L80.8771 68.3029C80.7774 68.6712 80.7257 69.3081 80.7017 69.9444C80.6799 70.5917 80.6913 71.2797 80.7213 71.9771C80.7883 73.3778 80.8995 74.8232 81.0493 76.2734C81.3473 79.1735 81.7052 82.1372 82.0632 85.0666L78.9332 85.8599C77.8605 82.9833 76.9578 80.0974 76.2283 77.1059C75.872 75.6093 75.5402 74.0958 75.3027 72.5214C75.1872 71.7308 75.0875 70.9273 75.0275 70.0795C74.9714 69.2231 74.9442 68.3563 75.1005 67.2504C75.1447 66.9371 75.1768 66.802 75.2138 66.59L75.3228 66.0011L75.5538 64.8559C75.7096 64.1014 75.884 63.3544 76.0588 62.6151C76.4053 61.1327 76.7736 59.6661 77.1653 58.2098C77.9384 55.2907 78.7834 52.4158 79.7161 49.5425L85.9433 51.4706Z" fill="#FFC3BD"/>
<path d="M101.831 32.3927C101.76 32.7321 101.879 33.0524 102.099 33.108C102.318 33.1636 102.555 32.9331 102.627 32.5937C102.699 32.2543 102.579 31.934 102.36 31.8784C102.14 31.8228 101.903 32.0533 101.831 32.3927Z" fill="#263238"/>
<path d="M101.848 33.0444C101.848 33.0444 102.198 35.1964 102.839 36.3541C102.125 36.7644 101.168 36.2528 101.168 36.2528L101.848 33.0444Z" fill="#ED847E"/>
<path d="M102.73 30.3315C102.794 30.3315 102.857 30.301 102.897 30.2443C102.961 30.1523 102.939 30.0253 102.847 29.9605C102.814 29.9376 102.028 29.3999 101.002 29.8216C100.898 29.8646 100.849 29.9834 100.891 30.0874C100.934 30.1915 101.053 30.2416 101.157 30.1986C101.979 29.8597 102.607 30.2901 102.613 30.2945C102.649 30.3195 102.69 30.3315 102.73 30.3315Z" fill="#263238"/>
<path d="M90.1537 33.4722C89.7739 37.4269 90.3345 41.2558 89.4492 44.6947C89.4492 44.6947 90.4326 47.8856 96.2778 47.8856C102.705 47.8856 99.2263 44.6947 99.2263 44.6947C95.6862 43.8567 95.6758 41.2542 96.1928 38.8096L90.1537 33.4722Z" fill="#FFC3BD"/>
<path d="M88.204 45.7908C87.7045 44.7807 87.3727 43.3506 88.4084 42.9883C89.5475 42.5901 95.6303 42.4577 97.8379 43.2052C100.045 43.9532 99.5066 46.0017 99.5066 46.0017L88.204 45.7908Z" fill="#0082FF"/>
<path d="M76.5222 189.452C76.0994 189.352 75.6641 189.156 75.3645 189.005C75.3247 188.984 75.3007 188.942 75.304 188.897C75.3073 188.852 75.3367 188.814 75.3792 188.8C75.5704 188.735 77.2599 188.177 77.7039 188.557C77.7725 188.616 77.8483 188.724 77.8172 188.908C77.7753 189.153 77.6543 189.328 77.4576 189.427C77.2092 189.551 76.8698 189.534 76.5222 189.452ZM75.7143 188.927C76.4536 189.266 77.0577 189.379 77.3574 189.228C77.4892 189.162 77.5671 189.044 77.5971 188.87C77.6118 188.784 77.5846 188.748 77.559 188.727C77.328 188.529 76.3958 188.722 75.7143 188.927Z" fill="#0082FF"/>
<path d="M75.3887 189.014C75.368 189.009 75.349 188.998 75.3337 188.982C75.3054 188.953 75.2956 188.91 75.3081 188.872C75.3255 188.816 75.7467 187.523 76.3808 187.215C76.5459 187.135 76.7121 187.124 76.875 187.185C77.1261 187.278 77.1566 187.453 77.1523 187.55C77.1283 188.083 75.9766 188.868 75.4427 189.013C75.4252 189.018 75.4067 189.018 75.3887 189.014ZM76.7502 187.378C76.6609 187.357 76.572 187.369 76.4789 187.414C76.0725 187.612 75.7445 188.346 75.6001 188.719C76.1547 188.473 76.9164 187.854 76.9305 187.539C76.9316 187.511 76.9349 187.444 76.7981 187.393C76.7823 187.387 76.766 187.382 76.7502 187.378Z" fill="#0082FF"/>
<path d="M106.282 192.776C105.847 192.776 105.378 192.686 105.052 192.607C105.009 192.597 104.975 192.561 104.968 192.517C104.961 192.473 104.981 192.429 105.019 192.405C105.19 192.297 106.706 191.367 107.225 191.634C107.306 191.675 107.405 191.764 107.416 191.949C107.432 192.198 107.354 192.395 107.186 192.537C106.974 192.715 106.64 192.776 106.282 192.776ZM105.375 192.451C106.173 192.611 106.786 192.582 107.043 192.366C107.156 192.271 107.206 192.139 107.194 191.962C107.189 191.876 107.154 191.847 107.124 191.832C106.854 191.693 105.991 192.095 105.375 192.451Z" fill="#0082FF"/>
<path d="M105.078 192.611C105.057 192.611 105.036 192.605 105.017 192.593C104.983 192.571 104.964 192.531 104.967 192.491C104.972 192.433 105.084 191.078 105.63 190.632C105.772 190.516 105.931 190.467 106.104 190.488C106.369 190.521 106.44 190.685 106.458 190.78C106.557 191.303 105.617 192.333 105.131 192.597C105.114 192.606 105.096 192.611 105.078 192.611ZM106.026 190.706C105.935 190.706 105.851 190.738 105.771 190.804C105.42 191.09 105.271 191.88 105.216 192.276C105.699 191.909 106.298 191.131 106.239 190.822C106.234 190.793 106.221 190.727 106.077 190.709C106.059 190.707 106.043 190.706 106.026 190.706Z" fill="#0082FF"/>
<path d="M100.021 192.441H104.321L104.365 182.482H100.065L100.021 192.441Z" fill="#FFC3BD"/>
<path d="M70.0586 188.756L74.1986 189.515L77.1683 179.715L73.0283 178.957L70.0586 188.756Z" fill="#FFC3BD"/>
<path d="M74.9865 188.413L70.2848 187.301C70.1137 187.261 69.9421 187.346 69.8718 187.506L68.3093 191.064C68.1469 191.433 68.3779 191.873 68.7746 191.96C70.4215 192.319 71.2376 192.411 73.3052 192.899C74.5773 193.2 77.1717 193.953 78.9281 194.369C80.6459 194.775 81.2577 193.086 80.5696 192.757C77.4849 191.282 76.4629 190.014 75.6141 188.833C75.4615 188.62 75.2365 188.472 74.9865 188.413Z" fill="#263238"/>
<path d="M104.274 191.943H99.5775C99.4016 191.943 99.2545 192.065 99.2229 192.237L98.5212 196.059C98.4487 196.455 98.7636 196.831 99.1695 196.824C100.862 196.795 103.306 196.696 105.435 196.696C107.925 196.696 108.812 196.831 111.732 196.831C113.497 196.831 113.918 195.047 113.173 194.885C109.78 194.149 108.299 194.07 105.323 192.277C104.999 192.083 104.645 191.943 104.274 191.943Z" fill="#263238"/>
<path d="M81.5364 46.256C77.3414 50.2598 76.0938 59.2421 76.0938 59.2421L83.6747 62.9576C83.6747 62.9576 85.9809 58.3208 87.4208 53.2857C88.9289 48.0098 84.5693 43.3615 81.5364 46.256Z" fill="#263238"/>
<path opacity="0.2" d="M85.3042 52.1929L81.4453 61.8534L83.673 62.9583C83.673 62.9583 84.9179 60.4472 86.1574 57.1157L85.3042 52.1929Z" fill="black"/>
<path d="M108.072 64.8759C108.04 69.6757 107.751 75.6462 107.035 83.0567H84.0308C83.7492 79.6789 85.1602 63.7536 81.7372 47.8087C81.4822 46.6205 82.2755 45.4628 83.4762 45.2765C84.9423 45.0487 86.9461 44.7878 88.9069 44.693C91.8401 44.5524 96.0918 44.4587 98.6823 44.693C102.101 45.0035 105.343 45.8872 105.343 45.8872C105.343 45.8872 107.31 48.0179 107.906 58.0097C108.024 59.9825 108.088 62.2532 108.072 64.8759Z" fill="#263238"/>
<path d="M86.2342 44.5891L85.2274 44.7084C85.0586 44.7286 84.9398 44.8817 84.9654 45.0495C85.2781 47.1001 87.8894 59.3261 107.282 77.1789C107.467 77.3495 107.772 77.2318 107.79 76.9806L107.867 75.8507C107.873 75.7597 107.836 75.6704 107.769 75.6088C88.238 57.75 86.6859 46.8326 86.5688 44.8708C86.5589 44.6964 86.4069 44.5684 86.2342 44.5891Z" fill="#0082FF"/>
<path d="M98.6827 67.9858L107.512 76.475L106.491 77.1168C105.137 77.9683 103.425 78.0065 102.034 77.2171L99.7031 75.8937C97.8819 74.8597 97.0581 72.6734 97.744 70.6941L98.6827 67.9858Z" fill="#0082FF"/>
<path d="M101.602 75.5975C101.677 75.7686 102.032 75.7392 102.396 75.5321C102.76 75.3251 102.994 75.0189 102.919 74.8484C102.844 74.6779 102.488 74.7067 102.125 74.9138C101.761 75.1208 101.527 75.427 101.602 75.5975Z" fill="#263238"/>
<path opacity="0.2" d="M108.072 64.876C106.68 62.3356 104.153 57.2373 104.51 54.334L107.906 58.0098C108.023 59.9825 108.087 62.2533 108.072 64.876Z" fill="black"/>
<path d="M100.831 49.778C100.467 53.8565 109.757 63.7316 109.757 63.7316L117.204 57.6663C117.204 57.6663 114.142 52.3604 110.244 48.5909C105.891 44.3823 101.24 45.1848 100.831 49.778Z" fill="#263238"/>
<g opacity="0.2">
<path d="M104.364 182.485L104.342 188.019H100.04L100.062 182.485H104.364Z" fill="black"/>
<path d="M73.0267 178.959L77.1689 179.718L75.6358 184.769L71.4941 184.01L73.0267 178.959Z" fill="black"/>
</g>
<path d="M90.7677 28.8398C90.1379 33.074 89.5565 35.5126 91.1888 38.1799C93.6442 42.1919 99.1468 41.5697 101.014 37.6558C102.695 34.1331 103.443 27.8003 99.7521 25.1193C96.1149 22.4786 91.3975 24.6055 90.7677 28.8398Z" fill="#FFC3BD"/>
<path d="M98.398 32.7602C98.3653 33.9637 95.2763 37.8983 92.6421 38.3859C89.7928 38.9138 89.0622 38.1097 88.6095 34.2235C88.0892 29.7567 86.5931 29.7567 85.9426 26.9068C85.1233 23.316 88.6416 20.0449 92.8045 22.0286C96.4084 23.7464 99.7459 20.368 102.229 19.3618C104.712 18.356 105.097 21.2315 103.439 23.1667C101.799 25.0795 104.4 23.9114 105.162 24.7276C106.528 26.1909 104.292 29.4728 98.7173 30.776C99.6745 31.8073 98.398 32.7602 98.398 32.7602Z" fill="#263238"/>
<path d="M97.0879 31.4536C97.0846 32.5814 97.5319 33.6862 98.1056 34.437C98.9691 35.5658 99.9765 35.0156 100.219 33.768C100.438 32.6451 100.252 30.7045 99.1533 30.0202C98.0707 29.3469 97.0917 30.1646 97.0879 31.4536Z" fill="#FFC3BD"/>
<path d="M98.8746 83.0571C98.8746 83.0571 95.263 115.92 93.0593 128.232C90.6458 141.714 78.1479 184.034 78.1479 184.034L70.4443 182.393C70.4443 182.393 79.0468 142.803 80.2057 129.455C81.4631 114.967 84.0329 83.0577 84.0329 83.0577L98.8746 83.0571Z" fill="#0082FF"/>
<path opacity="0.15" d="M98.8746 83.0571C98.8746 83.0571 95.263 115.92 93.0593 128.232C90.6458 141.714 78.1479 184.034 78.1479 184.034L70.4443 182.393C70.4443 182.393 79.0468 142.803 80.2057 129.455C81.4631 114.967 84.0329 83.0577 84.0329 83.0577L98.8746 83.0571Z" fill="white"/>
<path d="M79.8731 181.434C79.9058 181.441 78.5623 184.247 78.5623 184.247L69.8955 182.401L70.5149 179.773L79.8731 181.434Z" fill="#263238"/>
<path opacity="0.2" d="M96.2425 94.7661C90.6424 95.8726 92.0519 116.916 93.1491 127.739C94.4812 120.088 96.2948 105.367 97.519 94.9181C97.1371 94.7312 96.7132 94.6724 96.2425 94.7661Z" fill="black"/>
<path d="M107.034 83.0571C107.034 83.0571 108.867 115.209 108.906 128.322C108.946 141.962 105.906 186.624 105.906 186.624H98.6212C98.6212 186.624 96.6604 142.759 95.8187 129.364C94.9018 114.759 91.9141 83.0571 91.9141 83.0571H107.034Z" fill="#0082FF"/>
<path opacity="0.15" d="M107.034 83.0571C107.034 83.0571 108.867 115.209 108.906 128.322C108.946 141.962 105.906 186.624 105.906 186.624H98.6212C98.6212 186.624 96.6604 142.759 95.8187 129.364C94.9018 114.759 91.9141 83.0571 91.9141 83.0571H107.034Z" fill="white"/>
<path d="M107.196 183.722C107.229 183.722 106.901 186.746 106.901 186.746H98.0401L97.6963 184.047L107.196 183.722Z" fill="#263238"/>
</svg>
