<svg width="31" height="32" viewBox="0 0 31 32" fill="none" xmlns="http://www.w3.org/2000/svg">
<path d="M15.2883 31.3735C23.772 31.3735 30.559 24.5865 30.559 16.1027C30.559 7.61901 23.772 0.832031 15.2883 0.832031C6.80456 0.832031 0.0175781 7.61901 0.0175781 16.1027C0.0175781 24.5865 6.93508 31.3735 15.2883 31.3735Z" fill="#0082FF"/>
<path d="M21.8304 14.137H17.2995V9.60617C17.2995 8.49659 16.4211 7.61816 15.3115 7.61816C14.2019 7.61816 13.3235 8.49659 13.3235 9.60617V14.137H8.7927C7.68311 14.137 6.80469 15.0154 6.80469 16.125C6.80469 17.2346 7.63688 18.1593 8.74647 18.1593H13.2773V22.6901C13.2773 23.7997 14.1557 24.6781 15.2653 24.6781C16.3749 24.6781 17.2533 23.7997 17.2533 22.6901V18.1593H21.7841C22.8937 18.1593 23.7721 17.2808 23.7721 16.1712C23.7721 15.0616 22.94 14.137 21.8304 14.137Z" fill="white"/>
</svg>
