<svg width="251" height="199" viewBox="0 0 251 199" fill="none" xmlns="http://www.w3.org/2000/svg">
<path d="M121.634 198.407C152.86 198.407 178.173 173.093 178.173 141.868C178.173 110.643 152.86 85.3296 121.634 85.3296C90.4089 85.3296 65.0958 110.643 65.0958 141.868C65.0958 173.093 90.4089 198.407 121.634 198.407Z" fill="#0082FF"/>
<path d="M149.479 118.014C150.203 118.602 139.64 132.807 125.893 149.738C122.962 153.294 120.151 156.704 117.566 159.84L116.428 161.222L115.205 159.963C104.47 148.9 97.1387 140.685 97.657 140.165C98.1774 139.646 106.392 146.978 117.456 157.713L115.095 157.836C117.635 154.661 120.395 151.213 123.273 147.613C137.021 130.68 148.756 117.429 149.479 118.014Z" fill="white"/>
<path d="M201.947 119.091C200.271 113.152 192.551 113.729 192.551 113.729L192.763 117.86C197.224 117.091 199.997 122.319 199.997 122.319L201.947 119.091Z" fill="#0082FF"/>
<path d="M38.1859 131.545C36.5102 125.606 28.7899 126.183 28.7899 126.183L29.0015 130.314C33.4631 129.545 36.2359 134.773 36.2359 134.773L38.1859 131.545Z" fill="#E0E0E0"/>
<path d="M128.384 49.3906C137.338 52.1029 142.909 41.7761 142.909 41.7761L137.463 38.6729C134.8 44.9981 125.858 44.266 125.858 44.266L128.384 49.3906Z" fill="#E0E0E0"/>
<path d="M78.6958 60.5054C74.5279 60.9481 74.0313 66.1784 74.0313 66.1784L76.8192 66.5088C76.8149 63.4337 80.6329 62.1768 80.6329 62.1768L78.6958 60.5054Z" fill="#0082FF"/>
<path d="M250.456 98.7588C251.061 94.6125 246.118 92.833 246.118 92.833L245.105 95.4525C248.085 96.2105 248.355 100.221 248.355 100.221L250.456 98.7588Z" fill="#E0E0E0"/>
<path d="M103.008 5.92571C103.612 1.77942 98.6692 0 98.6692 0L97.6563 2.6195C100.636 3.37749 100.906 7.38771 100.906 7.38771L103.008 5.92571Z" fill="#0082FF"/>
<path d="M0.0462725 72.8087C-0.703082 79.3088 7.90912 80.8831 7.90912 80.8831L9.46398 76.6289C4.29623 76.1624 3.55118 70.0747 3.55118 70.0747L0.0462725 72.8087Z" fill="#0082FF"/>
<path d="M191.726 49.2504C195.909 49.4901 197.248 44.4065 197.248 44.4065L194.551 43.627C194.056 46.6611 190.087 47.283 190.087 47.283L191.726 49.2504Z" fill="#0082FF"/>
<path d="M214.583 66.3076C214.583 66.4933 213.036 66.6445 211.129 66.6445C209.22 66.6445 207.674 66.4933 207.674 66.3076C207.674 66.1218 209.22 65.9707 211.129 65.9707C213.036 65.9707 214.583 66.1218 214.583 66.3076Z" fill="#E0E0E0"/>
<path d="M218.252 56.9121C218.438 56.9121 218.589 58.4821 218.589 60.417C218.589 62.352 218.438 63.9219 218.252 63.9219C218.066 63.9219 217.915 62.352 217.915 60.417C217.915 58.4821 218.064 56.9121 218.252 56.9121Z" fill="#E0E0E0"/>
<path d="M222.158 66.083C222.158 65.8973 223.704 65.7461 225.611 65.7461C227.52 65.7461 229.066 65.8973 229.066 66.083C229.066 66.2687 227.52 66.4199 225.611 66.4199C223.704 66.4199 222.158 66.2687 222.158 66.083Z" fill="#E0E0E0"/>
<path d="M218.489 75.4795C218.303 75.4795 218.152 73.9096 218.152 71.9746C218.152 70.0397 218.303 68.4697 218.489 68.4697C218.675 68.4697 218.826 70.0397 218.826 71.9746C218.826 73.9117 218.675 75.4795 218.489 75.4795Z" fill="#E0E0E0"/>
<path d="M224.073 71.4503C223.931 71.5691 223.264 71.0076 222.586 70.1956C221.907 69.3836 221.473 68.6278 221.616 68.509C221.758 68.3902 222.424 68.9517 223.104 69.7637C223.782 70.5757 224.216 71.3315 224.073 71.4503Z" fill="#E0E0E0"/>
<path d="M223.749 60.793C223.881 60.9247 223.419 61.6071 222.715 62.3176C222.011 63.0281 221.333 63.4967 221.201 63.3671C221.069 63.2354 221.531 62.553 222.235 61.8425C222.939 61.132 223.618 60.6634 223.749 60.793Z" fill="#E0E0E0"/>
<path d="M215.833 63.5097C215.714 63.6522 215.073 63.3175 214.403 62.7582C213.731 62.201 213.287 61.6309 213.405 61.4884C213.524 61.3459 214.166 61.6806 214.835 62.2399C215.504 62.7971 215.951 63.365 215.833 63.5097Z" fill="#E0E0E0"/>
<path d="M215.521 68.2043C215.66 68.3296 215.251 69.0012 214.614 69.7009C213.975 70.4028 213.345 70.8692 213.209 70.7439C213.07 70.6187 213.478 69.9492 214.118 69.2474C214.753 68.5477 215.383 68.0791 215.521 68.2043Z" fill="#E0E0E0"/>
<path d="M26.455 47.0576C26.455 47.2433 24.9087 47.3945 23.0019 47.3945C21.0929 47.3945 19.5466 47.2433 19.5466 47.0576C19.5466 46.8719 21.0929 46.7207 23.0019 46.7207C24.9066 46.7207 26.455 46.8719 26.455 47.0576Z" fill="#0082FF"/>
<path d="M30.1223 37.6616C30.308 37.6616 30.4592 39.2316 30.4592 41.1665C30.4592 43.1015 30.308 44.6714 30.1223 44.6714C29.9366 44.6714 29.7854 43.1015 29.7854 41.1665C29.7854 39.2316 29.9366 37.6616 30.1223 37.6616Z" fill="#0082FF"/>
<path d="M34.0308 46.833C34.0308 46.6473 35.5771 46.4961 37.4839 46.4961C39.3929 46.4961 40.9392 46.6473 40.9392 46.833C40.9392 47.0187 39.3929 47.1699 37.4839 47.1699C35.5771 47.1699 34.0308 47.0187 34.0308 46.833Z" fill="#0082FF"/>
<path d="M30.3619 56.2295C30.1761 56.2295 30.025 54.6596 30.025 52.7246C30.025 50.7897 30.1761 49.2197 30.3619 49.2197C30.5476 49.2197 30.6987 50.7897 30.6987 52.7246C30.6987 54.6617 30.5476 56.2295 30.3619 56.2295Z" fill="#0082FF"/>
<path d="M35.9437 52.1998C35.8012 52.3186 35.1339 51.7571 34.4579 50.9451C33.7798 50.1331 33.3458 49.3773 33.4883 49.2585C33.6308 49.1398 34.296 49.7012 34.974 50.5132C35.6543 51.3252 36.0862 52.081 35.9437 52.1998Z" fill="#0082FF"/>
<path d="M35.6218 41.5441C35.7535 41.6759 35.2913 42.3583 34.5873 43.0688C33.8833 43.7793 33.2052 44.2479 33.0714 44.1183C32.9396 43.9866 33.4018 43.3042 34.1079 42.5937C34.8098 41.881 35.4879 41.4124 35.6218 41.5441Z" fill="#0082FF"/>
<path d="M27.703 44.2597C27.5842 44.4022 26.9429 44.0675 26.2734 43.5082C25.6018 42.951 25.1569 42.3809 25.2757 42.2384C25.3945 42.0959 26.0358 42.4306 26.7053 42.9899C27.3747 43.5471 27.8239 44.115 27.703 44.2597Z" fill="#0082FF"/>
<path d="M27.3919 48.9543C27.5301 49.0796 27.1241 49.7512 26.4827 50.4509C25.8435 51.1528 25.2129 51.6192 25.0768 51.4939C24.9386 51.3687 25.3446 50.6992 25.986 49.9974C26.6252 49.2977 27.2558 48.8291 27.3919 48.9543Z" fill="#0082FF"/>
</svg>
