<svg width="229" height="229" viewBox="0 0 229 229" fill="none" xmlns="http://www.w3.org/2000/svg">
<g filter="url(#filter0_d_126_29476)">
<rect x="13" y="9" width="203" height="203" rx="14.4484" stroke="#0082FF" stroke-width="6" stroke-linecap="round" stroke-linejoin="round" stroke-dasharray="65.02 200"/>
<g filter="url(#filter1_d_126_29476)">
<path d="M114.728 160.95C101.945 160.95 89.7874 156.121 80.4967 147.353C78.7893 145.741 78.7108 143.049 80.3221 141.342C81.9334 139.635 84.6253 139.556 86.3326 141.167C94.0382 148.44 104.123 152.447 114.728 152.447C125.334 152.447 135.419 148.442 143.126 141.167C144.833 139.556 147.525 139.633 149.137 141.342C150.748 143.049 150.671 145.741 148.962 147.353C139.671 156.121 127.514 160.95 114.728 160.95Z" fill="#0082FF"/>
<path d="M104.584 125.168H97.5275C95.1795 125.168 93.2749 123.265 93.2749 120.915C93.2749 118.567 95.1777 116.663 97.5275 116.663H104.584C107.864 116.663 110.533 113.994 110.533 110.713V64.8097C110.533 62.4617 112.436 60.5571 114.786 60.5571C117.134 60.5571 119.038 62.46 119.038 64.8097V110.715C119.038 118.684 112.555 125.168 104.584 125.168Z" fill="#0082FF"/>
<path d="M78.4137 82.9859C76.0657 82.9859 74.1611 81.0831 74.1611 78.7334V64.8077C74.1611 62.4598 76.064 60.5552 78.4137 60.5552C80.7617 60.5552 82.6663 62.458 82.6663 64.8077V78.7334C82.6663 81.0831 80.7617 82.9859 78.4137 82.9859Z" fill="#0082FF"/>
<path d="M150.621 82.9859C148.273 82.9859 146.368 81.0831 146.368 78.7334V64.8077C146.368 62.4598 148.271 60.5552 150.621 60.5552C152.968 60.5552 154.873 62.458 154.873 64.8077V78.7334C154.873 81.0831 152.968 82.9859 150.621 82.9859Z" fill="#0082FF"/>
</g>
</g>
<defs>
<filter id="filter0_d_126_29476" x="0" y="0" width="229" height="229" filterUnits="userSpaceOnUse" color-interpolation-filters="sRGB">
<feFlood flood-opacity="0" result="BackgroundImageFix"/>
<feColorMatrix in="SourceAlpha" type="matrix" values="0 0 0 0 0 0 0 0 0 0 0 0 0 0 0 0 0 0 127 0" result="hardAlpha"/>
<feOffset dy="4"/>
<feGaussianBlur stdDeviation="5"/>
<feComposite in2="hardAlpha" operator="out"/>
<feColorMatrix type="matrix" values="0 0 0 0 0 0 0 0 0 0.509804 0 0 0 0 1 0 0 0 0.5 0"/>
<feBlend mode="normal" in2="BackgroundImageFix" result="effect1_dropShadow_126_29476"/>
<feBlend mode="normal" in="SourceGraphic" in2="effect1_dropShadow_126_29476" result="shape"/>
</filter>
<filter id="filter1_d_126_29476" x="64.1611" y="54.5552" width="100.712" height="120.395" filterUnits="userSpaceOnUse" color-interpolation-filters="sRGB">
<feFlood flood-opacity="0" result="BackgroundImageFix"/>
<feColorMatrix in="SourceAlpha" type="matrix" values="0 0 0 0 0 0 0 0 0 0 0 0 0 0 0 0 0 0 127 0" result="hardAlpha"/>
<feOffset dy="4"/>
<feGaussianBlur stdDeviation="5"/>
<feComposite in2="hardAlpha" operator="out"/>
<feColorMatrix type="matrix" values="0 0 0 0 0 0 0 0 0 0.509804 0 0 0 0 1 0 0 0 0.5 0"/>
<feBlend mode="normal" in2="BackgroundImageFix" result="effect1_dropShadow_126_29476"/>
<feBlend mode="normal" in="SourceGraphic" in2="effect1_dropShadow_126_29476" result="shape"/>
</filter>
</defs>
</svg>
