<svg xmlns="http://www.w3.org/2000/svg" width="255.905" height="63.919" viewBox="0 0 255.905 63.919">
  <g id="Group_12199" data-name="Group 12199" transform="translate(-20.182 -32.431)">
    <path id="Path_12496" data-name="Path 12496" d="M93.837,48.314c.19.29.375.589.547.894l0,0c.033.062.062.119.1.18,0,0,0,0,0,.01v0h0v0a0,0,0,0,1,0,0c.034.062.067.124.1.185.024.043.048.081.071.128v0a.015.015,0,0,1,0,.01.08.08,0,0,1,.01.024.125.125,0,0,1,.028.048.254.254,0,0,1,.024.052c.038.071.071.138.1.209a.563.563,0,0,0,.029.052c.076.162.152.328.223.494s.138.323.2.485c0,.01,0,.014.01.019.043.109.086.218.124.333.024.062.048.128.072.195l.043.128c.028.081.057.162.081.242l.028.086.043.143.014.043c0,.024.014.047.019.071h0a.137.137,0,0,0,.01.043s0,.01,0,.014a.18.18,0,0,1,0,.024.429.429,0,0,1,.019.071.077.077,0,0,1,.014.043c.024.081.048.166.066.252a.587.587,0,0,1,.024.086l.028.114a.142.142,0,0,1,.01.048s0,0,0,.01,0,.014,0,.028a.018.018,0,0,1,0,.014c0,.019.01.038.014.062a.537.537,0,0,1,.019.086v0l0,0a.1.1,0,0,1,0,.038.069.069,0,0,1,.01.034v.009l0,0v0s0,0,0,.01l0,0,0,0v.014s0,0,0,.01v0c.009.043.019.086.028.133a.6.6,0,0,1,.028.133,1.536,1.536,0,0,1,.034.171c.014.057.024.114.033.171a.944.944,0,0,1,.019.114c.024.133.048.266.062.4,0,.028.01.057.014.09s.014.1.019.142c.024.176.043.347.057.523,0,.052.009.109.014.162a.4.4,0,0,1,0,.076.912.912,0,0,1,.01.114.23.23,0,0,1,0,.057v.048a.231.231,0,0,1,0,.057.563.563,0,0,1,0,.09c.009.166.014.333.019.5v.062a.007.007,0,0,1,0,.01l.014-.014a25.615,25.615,0,0,1,7.252-5.194A25.4,25.4,0,0,0,93.837,48.314Zm21.842,45.6s.01,0,.014,0a.028.028,0,0,0,0-.019S115.684,93.908,115.679,93.913Zm.2-10.522c-.228-.009-.456-.024-.68-.042" transform="translate(-41.501 -8.949)" fill="none"/>
    <path id="Path_12497" data-name="Path 12497" d="M103.608,51.256a25.615,25.615,0,0,0-7.252,5.194l-.014.014a.007.007,0,0,0,0-.01v-.062c0-.166-.01-.333-.019-.5a.563.563,0,0,0,0-.09.231.231,0,0,0,0-.057c0-.033,0-.071,0-.1a.912.912,0,0,0-.01-.114.4.4,0,0,0,0-.076c0-.052-.009-.109-.014-.162-.014-.176-.034-.347-.057-.523,0-.047-.014-.095-.019-.142s-.009-.062-.014-.09c-.014-.138-.038-.271-.062-.4a.944.944,0,0,0-.019-.114c-.01-.057-.019-.114-.033-.171a1.536,1.536,0,0,0-.034-.171.6.6,0,0,0-.028-.133c-.01-.048-.019-.09-.028-.133v0s0,0,0-.01V53.38l0,0,0,0s0,0,0-.01v0l0,0v-.009a.069.069,0,0,0-.01-.034.1.1,0,0,0,0-.038l0,0v0a.537.537,0,0,0-.019-.086c0-.024-.01-.043-.014-.062a.018.018,0,0,0,0-.014c0-.014,0-.024,0-.028s0,0,0-.01a.142.142,0,0,0-.01-.048l-.028-.114a.587.587,0,0,0-.024-.086c-.019-.086-.043-.171-.066-.252a.077.077,0,0,0-.014-.043.429.429,0,0,0-.019-.071.18.18,0,0,0,0-.024s0-.01,0-.014a.137.137,0,0,1-.01-.043h0c0-.024-.014-.048-.019-.071l-.014-.043-.043-.143-.028-.086c-.024-.081-.052-.162-.081-.242l-.043-.128c-.024-.066-.048-.133-.072-.195-.038-.114-.081-.224-.124-.333,0,0,0-.01-.01-.019-.062-.162-.128-.328-.2-.485s-.147-.333-.223-.494a.563.563,0,0,1-.029-.052c-.033-.072-.066-.138-.1-.209a.254.254,0,0,0-.024-.052.469.469,0,0,0-.038-.071.015.015,0,0,0,0-.01v0c-.024-.048-.047-.086-.071-.128-.028-.062-.062-.124-.1-.185a0,0,0,0,0,0,0v0h0v0s0,0,0-.01c-.034-.062-.062-.119-.1-.18l0,0c-.171-.3-.356-.6-.547-.894A25.4,25.4,0,0,1,103.608,51.256Z" transform="translate(-41.501 -8.949)" fill="none"/>
    <path id="Path_12498" data-name="Path 12498" d="M99.588,66.951l-.014.014a.007.007,0,0,0,0-.01A.018.018,0,0,0,99.588,66.951Z" transform="translate(-44.733 -19.45)" fill="none"/>
    <path id="Path_12499" data-name="Path 12499" d="M103.608,51.256a25.615,25.615,0,0,0-7.252,5.194l-.014.014a.007.007,0,0,0,0-.01v-.062c0-.166-.01-.333-.019-.5a.563.563,0,0,0,0-.09.231.231,0,0,0,0-.057c0-.033,0-.071,0-.1a.912.912,0,0,0-.01-.114.4.4,0,0,0,0-.076c0-.052-.009-.109-.014-.162-.014-.176-.034-.347-.057-.523,0-.047-.014-.095-.019-.142s-.009-.062-.014-.09c-.014-.138-.038-.271-.062-.4a.944.944,0,0,0-.019-.114c-.01-.057-.019-.114-.033-.171a1.536,1.536,0,0,0-.034-.171.6.6,0,0,0-.028-.133c-.01-.048-.019-.09-.028-.133v0s0,0,0-.01V53.38l0,0,0,0s0,0,0-.01v0l0,0v-.009a.069.069,0,0,0-.01-.034.1.1,0,0,0,0-.038l0,0v0a.537.537,0,0,0-.019-.086c0-.024-.01-.043-.014-.062a.018.018,0,0,0,0-.014c0-.014,0-.024,0-.028s0,0,0-.01a.142.142,0,0,0-.01-.048l-.028-.114a.587.587,0,0,0-.024-.086c-.019-.086-.043-.171-.066-.252a.077.077,0,0,0-.014-.043.429.429,0,0,0-.019-.071.18.18,0,0,0,0-.024s0-.01,0-.014a.137.137,0,0,1-.01-.043h0c0-.024-.014-.048-.019-.071l-.014-.043-.043-.143-.028-.086c-.024-.081-.052-.162-.081-.242l-.043-.128c-.024-.066-.048-.133-.072-.195-.038-.114-.081-.224-.124-.333,0,0,0-.01-.01-.019-.062-.162-.128-.328-.2-.485s-.147-.333-.223-.494a.563.563,0,0,1-.029-.052c-.033-.072-.066-.138-.1-.209a.254.254,0,0,0-.024-.052.469.469,0,0,0-.038-.071.015.015,0,0,0,0-.01v0c-.024-.048-.047-.086-.071-.128-.028-.062-.062-.124-.1-.185a0,0,0,0,0,0,0v0h0v0s0,0,0-.01c-.034-.062-.062-.119-.1-.18l0,0c-.171-.3-.356-.6-.547-.894A25.4,25.4,0,0,1,103.608,51.256Z" transform="translate(-41.501 -8.949)" fill="none"/>
    <path id="Path_12500" data-name="Path 12500" d="M103.608,51.256a25.615,25.615,0,0,0-7.252,5.194l-.014.014a.007.007,0,0,0,0-.01v-.062c0-.166-.01-.333-.019-.5a.563.563,0,0,0,0-.09.231.231,0,0,0,0-.057c0-.033,0-.071,0-.1a.912.912,0,0,0-.01-.114.4.4,0,0,0,0-.076c0-.052-.009-.109-.014-.162-.014-.176-.034-.347-.057-.523,0-.047-.014-.095-.019-.142s-.009-.062-.014-.09c-.014-.138-.038-.271-.062-.4a.944.944,0,0,0-.019-.114c-.01-.057-.019-.114-.033-.171a1.536,1.536,0,0,0-.034-.171.6.6,0,0,0-.028-.133c-.01-.048-.019-.09-.028-.133v0s0,0,0-.01V53.38l0,0,0,0s0,0,0-.01v0l0,0v-.009a.069.069,0,0,0-.01-.034.1.1,0,0,0,0-.038l0,0v0a.537.537,0,0,0-.019-.086c0-.024-.01-.043-.014-.062a.018.018,0,0,0,0-.014c0-.014,0-.024,0-.028s0,0,0-.01a.142.142,0,0,0-.01-.048l-.028-.114a.587.587,0,0,0-.024-.086c-.019-.086-.043-.171-.066-.252a.077.077,0,0,0-.014-.043.429.429,0,0,0-.019-.071.18.18,0,0,0,0-.024s0-.01,0-.014a.137.137,0,0,1-.01-.043h0c0-.024-.014-.048-.019-.071l-.014-.043-.043-.143-.028-.086c-.024-.081-.052-.162-.081-.242l-.043-.128c-.024-.066-.048-.133-.072-.195-.038-.114-.081-.224-.124-.333,0,0,0-.01-.01-.019-.062-.162-.128-.328-.2-.485s-.147-.333-.223-.494a.563.563,0,0,1-.029-.052c-.033-.072-.066-.138-.1-.209a.254.254,0,0,0-.024-.052.469.469,0,0,0-.038-.071.015.015,0,0,0,0-.01v0c-.024-.048-.047-.086-.071-.128-.028-.062-.062-.124-.1-.185a0,0,0,0,0,0,0v0h0v0s0,0,0-.01c-.034-.062-.062-.119-.1-.18l0,0c-.171-.3-.356-.6-.547-.894A25.4,25.4,0,0,1,103.608,51.256Z" transform="translate(-41.501 -8.949)" fill="none"/>
    <path id="Path_12501" data-name="Path 12501" d="M103.608,51.256a25.615,25.615,0,0,0-7.252,5.194l-.014.014a.007.007,0,0,0,0-.01v-.062c0-.166-.01-.333-.019-.5a.563.563,0,0,0,0-.09.231.231,0,0,0,0-.057c0-.033,0-.071,0-.1a.912.912,0,0,0-.01-.114.4.4,0,0,0,0-.076c0-.052-.009-.109-.014-.162-.014-.176-.034-.347-.057-.523,0-.047-.014-.095-.019-.142s-.009-.062-.014-.09c-.014-.138-.038-.271-.062-.4a.944.944,0,0,0-.019-.114c-.01-.057-.019-.114-.033-.171a1.536,1.536,0,0,0-.034-.171.6.6,0,0,0-.028-.133c-.01-.048-.019-.09-.028-.133v0s0,0,0-.01V53.38l0,0,0,0s0,0,0-.01v0l0,0v-.009a.069.069,0,0,0-.01-.034.1.1,0,0,0,0-.038l0,0v0a.537.537,0,0,0-.019-.086c0-.024-.01-.043-.014-.062a.018.018,0,0,0,0-.014c0-.014,0-.024,0-.028s0,0,0-.01a.142.142,0,0,0-.01-.048l-.028-.114a.587.587,0,0,0-.024-.086c-.019-.086-.043-.171-.066-.252a.077.077,0,0,0-.014-.043.429.429,0,0,0-.019-.071.18.18,0,0,0,0-.024s0-.01,0-.014a.137.137,0,0,1-.01-.043h0c0-.024-.014-.048-.019-.071l-.014-.043-.043-.143-.028-.086c-.024-.081-.052-.162-.081-.242l-.043-.128c-.024-.066-.048-.133-.072-.195-.038-.114-.081-.224-.124-.333,0,0,0-.01-.01-.019-.062-.162-.128-.328-.2-.485s-.147-.333-.223-.494a.563.563,0,0,1-.029-.052c-.033-.072-.066-.138-.1-.209a.254.254,0,0,0-.024-.052.469.469,0,0,0-.038-.071.015.015,0,0,0,0-.01v0c-.024-.048-.047-.086-.071-.128-.028-.062-.062-.124-.1-.185a0,0,0,0,0,0,0v0h0v0s0,0,0-.01c-.034-.062-.062-.119-.1-.18l0,0c-.171-.3-.356-.6-.547-.894A25.4,25.4,0,0,1,103.608,51.256Z" transform="translate(-41.501 -8.949)" fill="none"/>
    <path id="Path_12502" data-name="Path 12502" d="M115.511,83.391c.765.043,1.54.067,2.315.067a40.683,40.683,0,0,0,6.629-.537A25.645,25.645,0,0,1,115.33,93.9a.028.028,0,0,1,0,.019M93.184,75.2a40.758,40.758,0,0,0,21.647,8.146M93.469,48.314a25.4,25.4,0,0,1,9.771,2.942,25.615,25.615,0,0,0-7.252,5.194l-.014.014" transform="translate(-41.133 -8.949)" fill="none"/>
    <path id="Path_12503" data-name="Path 12503" d="M124.455,117.626A25.645,25.645,0,0,1,115.33,128.6s-.014.009-.019.014a40.427,40.427,0,0,1-5.679-2.509,41.022,41.022,0,0,1-16.448-16.2,40.758,40.758,0,0,0,21.647,8.146c.224.019.452.033.68.042.765.043,1.54.067,2.315.067A40.682,40.682,0,0,0,124.455,117.626Z" transform="translate(-41.133 -43.654)" fill="#216efb"/>
    <path id="Path_12504" data-name="Path 12504" d="M103.608,51.256a25.615,25.615,0,0,0-7.252,5.194l-.014.014a.007.007,0,0,0,0-.01v-.062c0-.166-.01-.333-.019-.5a.563.563,0,0,0,0-.09.231.231,0,0,0,0-.057c0-.033,0-.071,0-.1a.912.912,0,0,0-.01-.114.4.4,0,0,0,0-.076c0-.052-.009-.109-.014-.162-.014-.176-.034-.347-.057-.523,0-.047-.014-.095-.019-.142s-.009-.062-.014-.09c-.014-.138-.038-.271-.062-.4a.944.944,0,0,0-.019-.114c-.01-.057-.019-.114-.033-.171a1.536,1.536,0,0,0-.034-.171.6.6,0,0,0-.028-.133c-.01-.048-.019-.09-.028-.133v0s0,0,0-.01V53.38l0,0,0,0s0,0,0-.01v0l0,0v-.009a.069.069,0,0,0-.01-.034.1.1,0,0,0,0-.038l0,0v0a.537.537,0,0,0-.019-.086c0-.024-.01-.043-.014-.062a.018.018,0,0,0,0-.014c0-.014,0-.024,0-.028s0,0,0-.01a.142.142,0,0,0-.01-.048l-.028-.114a.587.587,0,0,0-.024-.086c-.019-.086-.043-.171-.066-.252a.077.077,0,0,0-.014-.043.429.429,0,0,0-.019-.071.18.18,0,0,0,0-.024s0-.01,0-.014a.137.137,0,0,1-.01-.043h0c0-.024-.014-.048-.019-.071l-.014-.043-.043-.143-.028-.086c-.024-.081-.052-.162-.081-.242l-.043-.128c-.024-.066-.048-.133-.072-.195-.038-.114-.081-.224-.124-.333,0,0,0-.01-.01-.019-.062-.162-.128-.328-.2-.485s-.147-.333-.223-.494a.563.563,0,0,1-.029-.052c-.033-.072-.066-.138-.1-.209a.254.254,0,0,0-.024-.052.469.469,0,0,0-.038-.071.015.015,0,0,0,0-.01v0c-.024-.048-.047-.086-.071-.128-.028-.062-.062-.124-.1-.185a0,0,0,0,0,0,0v0h0v0s0,0,0-.01c-.034-.062-.062-.119-.1-.18l0,0c-.171-.3-.356-.6-.547-.894A25.4,25.4,0,0,1,103.608,51.256Z" transform="translate(-41.501 -8.949)" fill="#ffa90a"/>
    <path id="Path_12505" data-name="Path 12505" d="M95.8,51.715a.254.254,0,0,0-.024-.052.469.469,0,0,0-.038-.071" transform="translate(-42.574 -10.796)" fill="none"/>
    <path id="Path_12506" data-name="Path 12506" d="M96.9,54.09c-.062-.162-.128-.328-.2-.485" transform="translate(-43.114 -11.93)" fill="none"/>
    <path id="Path_12507" data-name="Path 12507" d="M98.148,57.6h0a.138.138,0,0,0,.01.043" transform="translate(-43.93 -14.181)" fill="none"/>
    <path id="Path_12508" data-name="Path 12508" d="M98.682,59.657l0,0a.1.1,0,0,1,0,.038" transform="translate(-44.231 -15.34)" fill="none"/>
    <path id="Path_12509" data-name="Path 12509" d="M98.725,59.853l0,0v0a.009.009,0,0,1,0,.014" transform="translate(-44.255 -15.451)" fill="none"/>
    <path id="Path_12510" data-name="Path 12510" d="M98.933,73.864c-.019.114-.038.228-.066.337" transform="translate(-44.335 -23.345)" fill="none"/>
    <path id="Path_12511" data-name="Path 12511" d="M98.551,75.007c-.052.257-.114.513-.185.765" transform="translate(-44.053 -23.989)" fill="none"/>
    <path id="Path_12512" data-name="Path 12512" d="M93.3,86.873c-.124.19-.257.38-.39.565" transform="translate(-40.98 -30.675)" fill="none"/>
    <path id="Path_12513" data-name="Path 12513" d="M115.522,122.755c-.423.513-.87,1-1.34,1.478a23.636,23.636,0,0,1-2.068,1.892,25.44,25.44,0,0,1-16.191,5.783,25.554,25.554,0,0,1-11.71-2.837s0,0,0,0l-.028-.014a25.083,25.083,0,0,1-4.04-2.6l-.1-.086c-.157-.142-.309-.285-.456-.437h0a15.345,15.345,0,0,1-3.545-5.422c-.01-.01-.024-.014-.033-.024s0,0-.01,0a25.053,25.053,0,0,1-1.07-3.516A25.621,25.621,0,0,1,78.064,97.9c.057-.1.114-.186.181-.281v0L79.7,95.538l0,.01a40.613,40.613,0,0,0,2.823,6.264h0a41.022,41.022,0,0,0,16.448,16.2,40.428,40.428,0,0,0,5.679,2.509s.01,0,.014,0A40.6,40.6,0,0,0,115.522,122.755Z" transform="translate(-30.485 -35.558)" fill="#ffa90a"/>
    <path id="Path_12514" data-name="Path 12514" d="M84.813,95.538,83.354,97.61A23.19,23.19,0,0,1,84.813,95.538Z" transform="translate(-35.594 -35.558)" fill="#38539f"/>
    <path id="Path_12515" data-name="Path 12515" d="M97.427,58.294v.038a.007.007,0,0,1,0,.01l.014-.014Zm-.028-.67a.231.231,0,0,1,0,.057v-.052A0,0,0,0,0,97.4,57.624Zm-.337-2.386v0l0,0a.036.036,0,0,1,0,.024l0,0S97.061,55.243,97.061,55.238Zm-.01-.052c0-.014,0-.024-.01-.038l0,0a.154.154,0,0,1,.009.043.069.069,0,0,1,.01.034C97.057,55.209,97.052,55.2,97.052,55.185Zm-.242-.941h0l.014.043A.138.138,0,0,1,96.81,54.245Zm-1.017-2.552a.125.125,0,0,0-.028-.048c.019.033.033.067.052.1A.254.254,0,0,0,95.792,51.693Z" transform="translate(-42.587 -10.826)" fill="none"/>
    <path id="Path_12516" data-name="Path 12516" d="M99.588,66.951l-.014.014a.007.007,0,0,0,0-.01A.018.018,0,0,0,99.588,66.951Z" transform="translate(-44.733 -19.45)" fill="#75b0e0"/>
    <path id="Path_12517" data-name="Path 12517" d="M92.3,67.954c0-.057.009-.114.009-.171v-.166C92.313,67.73,92.313,67.84,92.3,67.954Zm.014-.988v.019l.014-.033ZM86.7,79.431l0,.01.014-.033C86.71,79.416,86.7,79.421,86.7,79.431Z" transform="translate(-37.477 -19.45)" fill="#75b0e0"/>
    <path id="Path_12518" data-name="Path 12518" d="M84.813,95.538,83.354,97.61A23.19,23.19,0,0,1,84.813,95.538Z" transform="translate(-35.594 -35.558)" fill="#75b0e0"/>
    <path id="Path_12519" data-name="Path 12519" d="M84.813,95.538,83.354,97.61A23.19,23.19,0,0,1,84.813,95.538Z" transform="translate(-35.594 -35.558)" fill="#75b0e0"/>
    <path id="Path_12520" data-name="Path 12520" d="M86.715,95.484l-.014.033,0-.01C86.7,95.5,86.71,95.493,86.715,95.484Z" transform="translate(-37.477 -35.527)" fill="#75b0e0"/>
    <path id="Path_12521" data-name="Path 12521" d="M88.2,62.249v.019c0,.081,0,.157,0,.238l.01-.271Zm-.014.988c0-.057.009-.114.009-.171V62.9C88.2,63.014,88.2,63.123,88.188,63.237Zm-.014-1.754v.048a.23.23,0,0,1,0,.057v-.052A.193.193,0,0,1,88.174,61.484Zm-.333-2.3s0,0,0,.01v-.01Zm0-.033v0l0,0a.036.036,0,0,1,0,.024l0,0v-.01S87.836,59.15,87.836,59.145Zm-.01-.052c0-.014,0-.024-.01-.038l0,0a.153.153,0,0,1,.009.043.069.069,0,0,1,.01.034C87.831,59.117,87.826,59.1,87.826,59.093ZM82.58,74.714l0,.01.014-.033C82.594,74.7,82.585,74.7,82.58,74.714Zm-1.459,2.072,1.459-2.072A23.189,23.189,0,0,0,81.121,76.786Zm0-18.206A1.727,1.727,0,1,0,82.846,60.3,1.726,1.726,0,0,0,81.121,58.58Z" transform="translate(-33.361 -14.734)" fill="#75b0e0"/>
    <path id="Path_12522" data-name="Path 12522" d="M53.729,93.513s0,0,0,0l-.028-.014a25.085,25.085,0,0,1-4.04-2.6l-.1-.086c-.157-.142-.309-.285-.456-.437h0a15.345,15.345,0,0,1-3.545-5.422c-.01-.01-.024-.014-.033-.024s0,0-.01,0a25.055,25.055,0,0,1-1.07-3.516,25.621,25.621,0,0,1,3.141-19.066c.057-.1.114-.186.181-.281v0a23.189,23.189,0,0,1,1.459-2.072c0-.01.014-.014.019-.024.437-.556.889-1.1,1.378-1.611l.333-.361c.219-.242.423-.489.623-.746.114-.138.223-.285.328-.433a.236.236,0,0,1,.033-.043c.133-.185.261-.375.39-.565l.043-.072c.133-.2.256-.4.375-.608.086-.143.171-.29.247-.437.171-.309.333-.627.475-.95.062-.124.119-.252.171-.38a13.835,13.835,0,0,0,.551-1.525q.071-.221.128-.442c.066-.251.128-.508.185-.765a1.623,1.623,0,0,0,.034-.162c.024-.11.047-.224.066-.337.043-.233.081-.466.109-.7.024-.166.043-.333.062-.5,0-.052.01-.11.014-.166.019-.214.033-.428.043-.647.009-.114.009-.224.009-.337l.01-.394c0-.081,0-.157,0-.238v-.019a.007.007,0,0,0,0-.01v-.062c0-.166-.01-.333-.019-.5a.564.564,0,0,0,0-.09.23.23,0,0,0,0-.057V46.75a.231.231,0,0,0,0-.057.913.913,0,0,0-.01-.114.4.4,0,0,0,0-.076c0-.052-.009-.109-.014-.162-.014-.176-.034-.347-.057-.523,0-.047-.014-.095-.019-.142s-.009-.062-.014-.09c-.014-.138-.038-.271-.062-.4a.946.946,0,0,0-.019-.114c-.01-.057-.019-.114-.033-.171a1.535,1.535,0,0,0-.034-.171.6.6,0,0,0-.028-.133c-.01-.048-.019-.09-.028-.133v0s0,0,0-.01v-.014l0,0a.036.036,0,0,0,0-.024v-.009a.069.069,0,0,0-.01-.034.154.154,0,0,0-.009-.043v0a.538.538,0,0,0-.019-.086c0-.024-.01-.043-.014-.062a.018.018,0,0,0,0-.014c0-.014,0-.024,0-.028s0,0,0-.01a.142.142,0,0,0-.01-.048l-.028-.114a.585.585,0,0,0-.024-.086c-.019-.086-.043-.171-.066-.252a.077.077,0,0,0-.014-.043.429.429,0,0,0-.019-.071.18.18,0,0,0,0-.024s0-.01,0-.014l-.014-.043c0-.024-.014-.048-.019-.071l-.014-.043-.043-.143-.028-.086c-.024-.081-.052-.162-.081-.242l-.043-.128c-.024-.066-.048-.133-.072-.195-.038-.114-.081-.224-.124-.333,0,0,0-.01-.01-.019q-.092-.242-.2-.485c-.071-.166-.147-.333-.223-.494a.566.566,0,0,1-.029-.052c-.033-.072-.066-.138-.1-.209-.019-.033-.033-.067-.052-.1a.08.08,0,0,0-.01-.024.015.015,0,0,0,0-.01v0c-.024-.048-.047-.086-.071-.128-.028-.062-.062-.124-.1-.185a0,0,0,0,0,0,0v0h0v0s0,0,0-.01c-.034-.062-.062-.119-.1-.18l0,0c-.171-.3-.356-.6-.547-.894a.1.1,0,0,0-.019-.028,15.322,15.322,0,0,0-12.812-6.905,15.388,15.388,0,0,0-8.882,2.828c-.067.048-.133.1-.2.148-.152.114-.309.228-.456.351-.1.076-.195.157-.295.238s-.209.176-.313.266a25.464,25.464,0,0,0-9.172,19.276c0,.109,0,.223,0,.333a24.352,24.352,0,0,0,.119,2.438c0,.057.01.119.014.176A40.931,40.931,0,0,0,52.892,95.266h0a40.806,40.806,0,0,0,8.193.822c.214,0,.423,0,.632-.01A25.333,25.333,0,0,1,53.729,93.513ZM47.76,43.846a1.727,1.727,0,1,1-1.73,1.725A1.722,1.722,0,0,1,47.76,43.846Z" fill="#216efb"/>
    <path id="Path_12523" data-name="Path 12523" d="M98.138,57.551l-.014-.043c0-.024-.014-.048-.019-.071.009.024.014.047.024.071A.138.138,0,0,0,98.138,57.551Z" transform="translate(-43.906 -14.09)" fill="#75b0e0"/>
    <path id="Path_12524" data-name="Path 12524" d="M99.5,65.157V65.2c0-.033,0-.071,0-.1A.23.23,0,0,1,99.5,65.157Z" transform="translate(-44.691 -18.407)" fill="#75b0e0"/>
    <path id="Path_12525" data-name="Path 12525" d="M99.551,68.475v.166c0,.057,0,.114-.009.171C99.551,68.7,99.551,68.589,99.551,68.475Z" transform="translate(-44.715 -20.309)" fill="#75b0e0"/>
    <path id="Path_12526" data-name="Path 12526" d="M99.588,66.908l-.014.033v-.019a.007.007,0,0,0,0-.01v-.038Z" transform="translate(-44.733 -19.407)" fill="#75b0e0"/>
    <path id="Path_12527" data-name="Path 12527" d="M82.846,60.3a1.728,1.728,0,1,1-1.725-1.725A1.726,1.726,0,0,1,82.846,60.3Z" transform="translate(-33.361 -14.734)" fill="#fff"/>
    <path id="Path_12528" data-name="Path 12528" d="M148.177,81.1" transform="translate(-72.119 -27.42)" fill="none" stroke="#221e20" stroke-miterlimit="10" stroke-width="0.5"/>
    <path id="Path_12529" data-name="Path 12529" d="M144.743,84.572" transform="translate(-70.184 -29.379)" fill="none" stroke="#221e20" stroke-miterlimit="10" stroke-width="0.5"/>
    <path id="Path_12530" data-name="Path 12530" d="M148.177,81.144" transform="translate(-72.119 -27.447)" fill="none" stroke="#221e20" stroke-miterlimit="10" stroke-width="0.5"/>
    <path id="Path_12531" data-name="Path 12531" d="M144.743,84.621" transform="translate(-70.184 -29.406)" fill="none" stroke="#221e20" stroke-miterlimit="10" stroke-width="0.5"/>
    <path id="Path_12532" data-name="Path 12532" d="M152.647,57.486A7.7,7.7,0,0,0,150,55.037a12.95,12.95,0,0,0-3.433-1.323l-.342-.079,1.482-1.5-2-.467-1.488,1.507-1.084-.248a13.771,13.771,0,0,1-2.645-.844,1.568,1.568,0,0,1-1.042-1.492,1.791,1.791,0,0,1,1.013-1.745,4.6,4.6,0,0,1,2.082-.506,5.959,5.959,0,0,1,4.473,1.834l5.109-5.136a10.166,10.166,0,0,0-4.179-2.326,19.808,19.808,0,0,0-5.459-.788,16.909,16.909,0,0,0-4.221.535,11.2,11.2,0,0,0-3.687,1.66,8.658,8.658,0,0,0-2.589,2.871,8.337,8.337,0,0,0-.985,4.165,7.3,7.3,0,0,0,1.041,4.137,7.179,7.179,0,0,0,2.645,2.392,14.181,14.181,0,0,0,3.434,1.266l.319.074-1.521,1.541,2.022.443,1.5-1.523,1.11.253a11.467,11.467,0,0,1,2.645.9,1.715,1.715,0,0,1,1.041,1.6,1.556,1.556,0,0,1-1.182,1.548,7.821,7.821,0,0,1-2.645.422,7.055,7.055,0,0,1-3.349-.76,7.94,7.94,0,0,1-1.863-1.4l-5.342,5.37a10.886,10.886,0,0,0,4.418,2.385,21.514,21.514,0,0,0,5.8.816,24.122,24.122,0,0,0,4.447-.422,12.7,12.7,0,0,0,4.052-1.463,8.843,8.843,0,0,0,2.955-2.758,7.662,7.662,0,0,0,1.154-4.362A7.305,7.305,0,0,0,152.647,57.486Z" transform="translate(-62.364 -5.348)" fill="#216efb"/>
    <path id="Path_12533" data-name="Path 12533" d="M277.582,66.519h-.113a7.937,7.937,0,0,1-3.743,3.152,12.87,12.87,0,0,1-4.925.957,12.7,12.7,0,0,1-3.687-.535,9.289,9.289,0,0,1-3.124-1.6,7.727,7.727,0,0,1-2.139-2.645,8.064,8.064,0,0,1-.788-3.658,8.382,8.382,0,0,1,.872-4,7.81,7.81,0,0,1,2.364-2.7,11.744,11.744,0,0,1,3.405-1.661,24.959,24.959,0,0,1,3.968-.872,37.855,37.855,0,0,1,4.108-.337q2.054-.056,3.8-.056a4.392,4.392,0,0,0-1.6-3.574,5.791,5.791,0,0,0-3.8-1.322,8.264,8.264,0,0,0-3.8.872,10.375,10.375,0,0,0-3.068,2.392l-4.5-4.616a15.487,15.487,0,0,1,5.516-3.292,19.714,19.714,0,0,1,6.529-1.1,17.071,17.071,0,0,1,6.107.929,8.885,8.885,0,0,1,3.828,2.729,10.534,10.534,0,0,1,2,4.418,29.051,29.051,0,0,1,.563,6.051v9.973a3.929,3.929,0,0,1-3.929,3.929h-3.838Zm-1.21-8.555q-.958,0-2.392.084a12.16,12.16,0,0,0-2.758.478,6.146,6.146,0,0,0-2.251,1.182,2.725,2.725,0,0,0-.929,2.2,2.413,2.413,0,0,0,1.294,2.251,5.407,5.407,0,0,0,2.7.732,8.488,8.488,0,0,0,2.392-.337,7.119,7.119,0,0,0,2.054-.957,4.631,4.631,0,0,0,1.435-1.576,4.544,4.544,0,0,0,.535-2.252v-1.8Z" transform="translate(-134.599 -5.349)" fill="#216efb"/>
    <path id="Path_12534" data-name="Path 12534" d="M331.366,42.682h8.442v4.39h.113a10.37,10.37,0,0,1,3.208-3.8,8.112,8.112,0,0,1,4.672-1.266q.731,0,1.463.056a7.308,7.308,0,0,1,1.351.225V50a12.891,12.891,0,0,0-1.773-.422,11.582,11.582,0,0,0-1.829-.141,8.971,8.971,0,0,0-3.827.675A5.087,5.087,0,0,0,341.019,52a7.155,7.155,0,0,0-.985,2.9,28.217,28.217,0,0,0-.225,3.715v7.5a3.929,3.929,0,0,1-3.929,3.929h-4.514Z" transform="translate(-175.336 -5.396)" fill="#216efb"/>
    <path id="Path_12535" data-name="Path 12535" d="M381.8,42.6h8.442v4.39h.113a10.374,10.374,0,0,1,3.208-3.8,8.109,8.109,0,0,1,4.672-1.266q.73,0,1.463.056a7.265,7.265,0,0,1,1.351.225v7.71a12.955,12.955,0,0,0-1.773-.422,11.636,11.636,0,0,0-1.829-.141,8.972,8.972,0,0,0-3.827.675,5.088,5.088,0,0,0-2.167,1.886,7.151,7.151,0,0,0-.984,2.9,28.135,28.135,0,0,0-.226,3.715v7.5a3.929,3.929,0,0,1-3.929,3.929H381.8Z" transform="translate(-203.755 -5.349)" fill="#216efb"/>
    <path id="Path_12536" data-name="Path 12536" d="M428.074,56.276a14.335,14.335,0,0,1,1.182-5.91,13.6,13.6,0,0,1,3.237-4.531,14.286,14.286,0,0,1,4.84-2.9,17.913,17.913,0,0,1,11.876,0,14.3,14.3,0,0,1,4.84,2.9,13.615,13.615,0,0,1,3.236,4.531,15.364,15.364,0,0,1,0,11.82,13.6,13.6,0,0,1-3.236,4.531,14.292,14.292,0,0,1-4.84,2.9,17.9,17.9,0,0,1-11.876,0,14.279,14.279,0,0,1-4.84-2.9,13.581,13.581,0,0,1-3.237-4.531A14.33,14.33,0,0,1,428.074,56.276Zm8.443,0a7.075,7.075,0,0,0,1.773,5.009,7.439,7.439,0,0,0,9.962,0,7.077,7.077,0,0,0,1.773-5.009,7.08,7.08,0,0,0-1.773-5.009,7.439,7.439,0,0,0-9.962,0A7.078,7.078,0,0,0,436.517,56.276Z" transform="translate(-229.827 -5.349)" fill="#216efb"/>
    <path id="Path_12537" data-name="Path 12537" d="M497.7,43.47h6.15a3.929,3.929,0,0,1,3.737,2.716l4.691,14.45h.113l3.883-14.269a3.929,3.929,0,0,1,3.791-2.9h3.291a3.929,3.929,0,0,1,3.768,2.817l4.234,14.349h.113l4.285-14.361a3.929,3.929,0,0,1,3.765-2.806h5.628l-9.737,27.354h-8.33L521.39,52.645h-.113l-5.065,18.179h-8.5Z" transform="translate(-269.055 -6.22)" fill="#216efb"/>
    <path id="Path_12538" data-name="Path 12538" d="M214.161,45.891q-3.675-3.966-10.326-3.968a14.78,14.78,0,0,0-7.948,2.009V42.6h-7.768V82.785h4.514a3.929,3.929,0,0,0,3.929-3.929V69.01a15.275,15.275,0,0,0,7.273,1.617q6.65,0,10.326-3.967a14.669,14.669,0,0,0,3.676-10.385A14.672,14.672,0,0,0,214.161,45.891Zm-6.539,15.394a7.439,7.439,0,0,1-9.963,0,7.077,7.077,0,0,1-1.772-5.009,7.079,7.079,0,0,1,1.772-5.009,7.439,7.439,0,0,1,9.963,0,7.078,7.078,0,0,1,1.773,5.009A7.075,7.075,0,0,1,207.621,61.284Z" transform="translate(-94.624 -5.348)" fill="#216efb"/>
  </g>
</svg>
