<svg id="Group_12521" data-name="Group 12521" xmlns="http://www.w3.org/2000/svg" width="50.766" height="54.552" viewBox="0 0 50.766 54.552">
  <path id="Path_13323" data-name="Path 13323" d="M380.936,52.67A13.722,13.722,0,0,0,370.1,47.4v6.754a6.8,6.8,0,0,1,5.938,3.414L372.1,61.5h12.172V49.33Z" transform="translate(-344.42 -47.4)" fill="#1c3aa9"/>
  <path id="Path_13324" data-name="Path 13324" d="M371.639,69.388A6.956,6.956,0,0,1,365.7,72.8a6.773,6.773,0,0,1-5.715-3.043l3.859-3.859H351.6V78.072l3.488-3.488a13.684,13.684,0,0,0,21.227-.148Z" transform="translate(-339.651 -52.169)" fill="#b3b3b3"/>
  <path id="Path_13325" data-name="Path 13325" d="M353.159,47.474l3.266,3.266A13.573,13.573,0,0,0,351.6,61.131h6.754a6.892,6.892,0,0,1,2.895-5.641l4.082,4.082V47.4l-12.172.074Z" transform="translate(-339.651 -47.4)" fill="#4388f2"/>
  <g id="Group_12518" data-name="Group 12518" transform="translate(1.188 33.696)">
    <path id="Path_13326" data-name="Path 13326" d="M337.174,97.207a9.963,9.963,0,0,0-.074-1.559h.816v.965h.074A1.494,1.494,0,0,1,339.4,95.5h.223v.891h-.3a1.345,1.345,0,0,0-1.262,1.188c0,.148-.074.3-.074.445V100.7H337.1V97.207Z" transform="translate(-337.1 -93.496)" fill="#b3b3b3"/>
    <path id="Path_13327" data-name="Path 13327" d="M341.991,98.346a1.616,1.616,0,0,0,1.707,1.781,5.579,5.579,0,0,0,1.41-.223l.148.668a4.113,4.113,0,0,1-1.707.3,2.319,2.319,0,0,1-2.449-2.523,2.49,2.49,0,0,1,2.375-2.746,2.122,2.122,0,0,1,2.078,2.375v.445l-3.563-.074Zm2.672-.594c0-.594-.223-1.484-1.262-1.484a1.525,1.525,0,0,0-1.41,1.484Z" transform="translate(-338.131 -93.522)" fill="#b3b3b3"/>
    <path id="Path_13328" data-name="Path 13328" d="M353.444,99.777a4.7,4.7,0,0,1-1.855.3,3.292,3.292,0,0,1-3.488-3.563,3.487,3.487,0,0,1,3.637-3.711,4.408,4.408,0,0,1,1.633.3l-.223.742a3.624,3.624,0,0,0-1.41-.3,2.615,2.615,0,0,0-2.746,2.895,2.537,2.537,0,0,0,2.672,2.82,4.391,4.391,0,0,0,1.484-.3Z" transform="translate(-339.936 -92.8)" fill="#b3b3b3"/>
    <path id="Path_13329" data-name="Path 13329" d="M357.807,97.85l-.742,2.227H356.1l2.375-6.977h1.113l2.375,6.977H361l-.742-2.227Zm2.3-.668-.668-2a11.444,11.444,0,0,1-.371-1.262h0a8.113,8.113,0,0,1-.371,1.262l-.668,2Z" transform="translate(-341.998 -92.877)" fill="#b3b3b3"/>
    <path id="Path_13330" data-name="Path 13330" d="M365.374,93.148A10.422,10.422,0,0,1,367.081,93a2.721,2.721,0,0,1,1.93.594,1.842,1.842,0,0,1,.594,1.484,2.235,2.235,0,0,1-.52,1.484,2.818,2.818,0,0,1-2.152.742,2.288,2.288,0,0,1-.742-.074v2.82H365.3v-6.9Zm.965,3.34a2.288,2.288,0,0,0,.742.074c1.113,0,1.781-.52,1.781-1.484,0-.891-.668-1.336-1.633-1.336a2.308,2.308,0,0,0-.816.074v2.672Z" transform="translate(-344.37 -92.852)" fill="#b3b3b3"/>
    <path id="Path_13331" data-name="Path 13331" d="M373.952,93.842H371.8V93.1H377v.742h-2.152v6.234h-.891V93.842Z" transform="translate(-346.046 -92.877)" fill="#b3b3b3"/>
    <path id="Path_13332" data-name="Path 13332" d="M384.144,99.777a4.7,4.7,0,0,1-1.855.3,3.292,3.292,0,0,1-3.488-3.563,3.487,3.487,0,0,1,3.637-3.711,4.408,4.408,0,0,1,1.633.3l-.223.742a3.624,3.624,0,0,0-1.41-.3,2.615,2.615,0,0,0-2.746,2.895,2.537,2.537,0,0,0,2.672,2.82,4.391,4.391,0,0,0,1.484-.3Z" transform="translate(-347.85 -92.8)" fill="#b3b3b3"/>
    <path id="Path_13333" data-name="Path 13333" d="M388.491,93.1v2.895H391.9V93.1h.891v6.977H391.9V96.811h-3.414v3.266H387.6V93.1Z" transform="translate(-350.119 -92.877)" fill="#b3b3b3"/>
    <path id="Path_13334" data-name="Path 13334" d="M397.633,97.85l-.742,2.227H396l2.375-6.977h1.113l2.375,6.977H400.9l-.742-2.227Zm2.3-.668-.668-2a11.45,11.45,0,0,1-.371-1.262h0a8.11,8.11,0,0,1-.371,1.262l-.668,2Z" transform="translate(-352.285 -92.877)" fill="#b3b3b3"/>
  </g>
  <g id="Group_12519" data-name="Group 12519" transform="translate(0 47.055)">
    <path id="Path_13335" data-name="Path 13335" d="M335.5,110.874a7.657,7.657,0,0,1,1.41-.074,2.173,2.173,0,0,1,1.559.445,1.615,1.615,0,0,1,.52,1.188,1.567,1.567,0,0,1-.445,1.188,2.193,2.193,0,0,1-1.707.594,1.447,1.447,0,0,1-.594-.074v2.227H335.5v-5.492Zm.668,2.746a1.447,1.447,0,0,0,.594.074c.891,0,1.41-.445,1.41-1.188s-.52-1.113-1.336-1.113a1.465,1.465,0,0,0-.668.074Z" transform="translate(-335.5 -110.8)" fill="#b3b3b3"/>
    <path id="Path_13336" data-name="Path 13336" d="M341.2,114.236v-1.262h.668v.816h0a1.182,1.182,0,0,1,1.113-.891h.223v.668h-.223a.98.98,0,0,0-.965.965v2.523h-.742v-2.82Z" transform="translate(-336.969 -111.341)" fill="#b3b3b3"/>
    <path id="Path_13337" data-name="Path 13337" d="M345.791,111.34a.428.428,0,0,1-.445.445.445.445,0,0,1,0-.891C345.568,110.821,345.791,111.043,345.791,111.34Zm-.816,5.121v-4.008h.742v4.008Z" transform="translate(-337.923 -110.821)" fill="#b3b3b3"/>
    <path id="Path_13338" data-name="Path 13338" d="M347.716,113l.816,2.3a5.469,5.469,0,0,1,.3,1.039h0a9,9,0,0,1,.371-1.039l.816-2.3h.742l-1.559,4.008h-.742L346.9,113Z" transform="translate(-338.439 -111.367)" fill="#b3b3b3"/>
    <path id="Path_13339" data-name="Path 13339" d="M355.1,116.931l-.074-.52h0a1.582,1.582,0,0,1-1.262.594,1.19,1.19,0,0,1-1.262-1.188c0-.965.891-1.484,2.449-1.484v-.074a.851.851,0,0,0-.891-.965,2.416,2.416,0,0,0-1.039.3l-.148-.52a2.563,2.563,0,0,1,1.336-.371c1.262,0,1.559.816,1.559,1.633v1.484a3.921,3.921,0,0,0,.074.965H355.1v.148Zm-.148-2c-.816,0-1.707.148-1.707.891a.623.623,0,0,0,.668.668.92.92,0,0,0,.965-.668c0-.074.074-.148.074-.223Z" transform="translate(-339.883 -111.29)" fill="#b3b3b3"/>
    <path id="Path_13340" data-name="Path 13340" d="M361.191,116.808a3.308,3.308,0,0,1-1.187.223,1.929,1.929,0,0,1-2-2.078,2.026,2.026,0,0,1,2.152-2.152,1.966,1.966,0,0,1,1.039.223l-.148.594a1.8,1.8,0,0,0-.816-.223,1.406,1.406,0,0,0-1.41,1.559,1.346,1.346,0,0,0,1.41,1.484,1.427,1.427,0,0,0,.891-.223Z" transform="translate(-341.301 -111.316)" fill="#b3b3b3"/>
    <path id="Path_13341" data-name="Path 13341" d="M363.691,113l.891,2.375a4.564,4.564,0,0,1,.223.816h0c.074-.223.148-.52.223-.816l.816-2.375h.742l-1.113,2.895a5.732,5.732,0,0,1-1.41,2.523,1.9,1.9,0,0,1-.891.445l-.148-.594a2.058,2.058,0,0,0,.668-.371,1.8,1.8,0,0,0,.594-.816.259.259,0,0,1,.074-.148c0-.074,0-.074-.074-.223L362.8,113Z" transform="translate(-342.538 -111.367)" fill="#b3b3b3"/>
    <path id="Path_13342" data-name="Path 13342" d="M372.878,115v.52H370.8V115Z" transform="translate(-344.6 -111.883)" fill="#b3b3b3"/>
    <path id="Path_13343" data-name="Path 13343" d="M377.607,111.494H375.9V110.9h4.156v.594h-1.707v4.973h-.742v-4.973Z" transform="translate(-345.915 -110.826)" fill="#b3b3b3"/>
    <path id="Path_13344" data-name="Path 13344" d="M381.768,115.127a1.322,1.322,0,0,0,1.41,1.41,2.272,2.272,0,0,0,1.113-.223l.148.52a2.683,2.683,0,0,1-1.336.223,1.87,1.87,0,0,1-2-2,1.975,1.975,0,0,1,1.93-2.152c1.336,0,1.633,1.188,1.633,1.93v.371l-2.895-.074Zm2.152-.52a1.079,1.079,0,0,0-1.039-1.188c-.742,0-1.039.668-1.113,1.188Z" transform="translate(-347.256 -111.341)" fill="#b3b3b3"/>
    <path id="Path_13345" data-name="Path 13345" d="M387.1,114.236v-1.262h.668v.816h0a1.182,1.182,0,0,1,1.113-.891h.223v.668h-.223a.98.98,0,0,0-.965.965v2.523h-.742v-2.82Z" transform="translate(-348.803 -111.341)" fill="#b3b3b3"/>
    <path id="Path_13346" data-name="Path 13346" d="M390.748,114.088v-1.113h.668v.668h0a1.4,1.4,0,0,1,1.262-.742,1.115,1.115,0,0,1,1.113.816h0a3.228,3.228,0,0,1,.445-.52,1.592,1.592,0,0,1,.891-.3c.52,0,1.336.371,1.336,1.781v2.375h-.742v-2.3c0-.742-.3-1.262-.891-1.262a.959.959,0,0,0-.891.668,3.214,3.214,0,0,0-.074.371v2.523h-.742v-2.449c0-.668-.3-1.113-.816-1.113a.955.955,0,0,0-.891.742.556.556,0,0,0-.074.371v2.449H390.6v-2.969Z" transform="translate(-349.705 -111.341)" fill="#b3b3b3"/>
    <path id="Path_13347" data-name="Path 13347" d="M400.074,116.24a1.856,1.856,0,0,0,.965.3c.52,0,.816-.3.816-.594,0-.371-.223-.52-.742-.742-.742-.223-1.039-.668-1.039-1.113,0-.668.52-1.188,1.41-1.188a2.633,2.633,0,0,1,.965.223l-.148.52a1.8,1.8,0,0,0-.816-.223c-.445,0-.668.223-.668.52s.223.52.742.668c.668.3,1.039.594,1.039,1.188,0,.742-.52,1.188-1.484,1.188a1.789,1.789,0,0,1-1.113-.3Z" transform="translate(-352.128 -111.341)" fill="#b3b3b3"/>
  </g>
</svg>
